<?xml version="1.0" encoding="utf-8"?><svg xmlns="http://www.w3.org/2000/svg" xmlns:xlink="http://www.w3.org/1999/xlink" viewBox="0 0 1664 872"><defs><style>.cls-1{filter:url(#assign-access-secret-group-a);}.cls-2{fill:#f3f3f3;}.cls-14,.cls-3{fill:#fff;}.cls-19,.cls-23,.cls-3,.cls-5{fill-rule:evenodd;}.cls-4{fill:#8d8d8d;}.cls-30,.cls-31,.cls-35,.cls-41,.cls-5,.cls-7{fill:#161616;}.cls-29,.cls-30,.cls-31,.cls-35,.cls-40,.cls-41,.cls-46,.cls-6,.cls-7{isolation:isolate;}.cls-29,.cls-30,.cls-31,.cls-35,.cls-40,.cls-46,.cls-7{font-size:14px;}.cls-30,.cls-31,.cls-35,.cls-41,.cls-46,.cls-7{font-family:IBMPlexSans, IBM Plex Sans;}.cls-32,.cls-7{letter-spacing:0.011em;}.cls-8{letter-spacing:0.006em;}.cls-29,.cls-35,.cls-40,.cls-46,.cls-9{letter-spacing:0.011em;}.cls-10{letter-spacing:-0.009em;}.cls-11,.cls-15,.cls-18,.cls-25,.cls-28{fill:none;}.cls-11{stroke:#e5e5e5;}.cls-11,.cls-25{stroke-linecap:square;}.cls-12{fill:#e5e5e5;}.cls-13{letter-spacing:0.005em;}.cls-15{stroke:#171717;}.cls-16{fill:#262626;}.cls-17{fill:#171717;}.cls-19,.cls-40,.cls-46{fill:#c6c6c6;}.cls-20{fill:#393939;}.cls-21{fill:#0f62fe;}.cls-22,.cls-23{fill:#525252;}.cls-24{fill:#d8d8d8;}.cls-25{stroke:#3d3d3d;}.cls-26,.cls-29{fill:#f4f4f4;}.cls-27{fill:#d12771;}.cls-28{stroke:#d12771;stroke-linecap:round;stroke-width:3px;}.cls-29,.cls-40{font-family:IBMPlexSans-Text, IBM Plex Sans;}.cls-30,.cls-36{letter-spacing:0.004em;}.cls-31,.cls-44{letter-spacing:-0.004em;}.cls-33{letter-spacing:0.006em;}.cls-34{letter-spacing:0.005em;}.cls-37{letter-spacing:0.007em;}.cls-38{letter-spacing:0.002em;}.cls-39{letter-spacing:0.021em;}.cls-41{font-size:28px;}.cls-42{letter-spacing:-0.006em;}.cls-43{letter-spacing:0em;}.cls-45{letter-spacing:-0.005em;}</style><filter id="assign-access-secret-group-a" x="-1.1%" y="-1.5%" width="102.2%" height="103.5%" name="assign-access-secret-group-a"><feMorphology result="shadowSpreadOuter1" operator="dilate" radius="0.5" in="SourceAlpha"/><feOffset result="shadowOffsetOuter1" dy="2" in="shadowSpreadOuter1"/><feGaussianBlur result="shadowBlurOuter1" stdDeviation="4" in="shadowOffsetOuter1"/></filter></defs><g id="Graphics"><g class="cls-1"><rect id="assign-access-secret-group-b" x="177" y="16" width="1312" height="840"/></g><rect id="assign-access-secret-group-b-2" data-name="assign-access-secret-group-b" class="cls-2" x="177" y="16" width="1312" height="840"/><polygon class="cls-3" points="514 660 787 660 787 700 514 700 514 660"/><rect class="cls-4" x="514" y="699" width="273" height="1"/><polygon class="cls-5" points="763 683 758 678 758.7 677.3 763 681.6 767.3 677.3 768 678 763 683"/><polygon class="cls-3" points="819 660 1092 660 1092 700 819 700 819 660"/><rect class="cls-4" x="819" y="699" width="273" height="1"/><g class="cls-6"><text class="cls-7" transform="translate(835 685)">sec<tspan class="cls-8" x="22.0078" y="0">r</tspan><tspan class="cls-9" x="27.23" y="0">e</tspan><tspan class="cls-10" x="35.0698" y="0">t</tspan><tspan class="cls-9" x="39.8579" y="0">-g</tspan><tspan class="cls-8" x="53.1436" y="0">r</tspan><tspan x="58.3657" y="0">oup</tspan></text></g><path class="cls-5" d="M503.25,634.5h-12.5a1.25,1.25,0,0,0-1.25,1.25v12.5a1.25,1.25,0,0,0,1.25,1.25h12.5a1.25,1.25,0,0,0,1.25-1.25v-12.5A1.25,1.25,0,0,0,503.25,634.5Zm-7.5,10.9375-3.125-3.125.9938-.9375,2.1312,2.0938,4.6313-4.5938.9937.9875Z"/><polygon class="cls-3" points="819 752 1092 752 1092 792 819 792 819 752"/><rect class="cls-4" x="819" y="791" width="273" height="1"/><polygon class="cls-3" points="514 752 787 752 787 792 514 792 514 752"/><rect class="cls-4" x="514" y="791" width="273" height="1"/><polygon class="cls-5" points="763 775 758 770 758.7 769.3 763 773.6 767.3 769.3 768 770 763 775"/><path class="cls-5" d="M503.25,726.5h-12.5a1.25,1.25,0,0,0-1.25,1.25v12.5a1.25,1.25,0,0,0,1.25,1.25h12.5a1.25,1.25,0,0,0,1.25-1.25v-12.5A1.25,1.25,0,0,0,503.25,726.5Zm-7.5,10.9375-3.125-3.125.9938-.9375,2.1312,2.0938,4.6313-4.5938.9937.9875Z"/><line class="cls-11" x1="465.5" y1="422.5" x2="464.5" y2="792.5"/><line class="cls-11" x1="1093.5" y1="517.5" x2="465.5" y2="517.5"/><line class="cls-11" x1="480.5" y1="443.5" x2="465.5" y2="443.5"/><polygon class="cls-3" points="820 570 1093 570 1093 610 820 610 820 570"/><rect class="cls-4" x="820" y="609" width="273" height="1"/><polygon class="cls-5" points="1069 593 1064 588 1064.7 587.3 1069 591.6 1073.3 587.3 1074 588 1069 593"/><polygon class="cls-3" points="515 570 788 570 788 610 515 610 515 570"/><rect class="cls-4" x="515" y="609" width="273" height="1"/><polygon class="cls-5" points="764 593 759 588 759.7 587.3 764 591.6 768.3 587.3 769 588 764 593"/><path class="cls-5" d="M503.25,544.5h-12.5a1.25,1.25,0,0,0-1.25,1.25v12.5a1.25,1.25,0,0,0,1.25,1.25h12.5a1.25,1.25,0,0,0,1.25-1.25v-12.5A1.25,1.25,0,0,0,503.25,544.5Zm-7.5,10.9375-3.125-3.125.9938-.9375,2.1312,2.0938,4.6313-4.5938.9937.9875Z"/><rect class="cls-12" x="833" y="586" width="176" height="9"/><rect class="cls-12" x="833" y="770" width="224" height="9"/><path class="cls-5" d="M674,473.25a8.75,8.75,0,1,0,6.1872,2.5628A8.75,8.75,0,0,0,674,473.25Zm0,16.25a7.5,7.5,0,1,1,7.5-7.5,7.5,7.5,0,0,1-7.5,7.5Zm0-11.25a3.75,3.75,0,1,0,3.75,3.75A3.75,3.75,0,0,0,674,478.25Z"/><path class="cls-5" d="M497,473.25a8.75,8.75,0,1,0,6.1872,2.5628A8.75,8.75,0,0,0,497,473.25Zm0,16.25a7.5,7.5,0,1,1,7.5-7.5,7.5,7.5,0,0,1-7.5,7.5Z"/><rect class="cls-12" x="515" y="478" width="64" height="8"/><polygon class="cls-3" points="465 375 793 375 793 415 465 415 465 375"/><rect class="cls-4" x="465" y="414" width="328" height="1"/><polygon class="cls-5" points="769 398 764 393 764.7 392.3 769 396.6 773.3 392.3 774 393 769 398"/><polygon class="cls-5" points="749 391.7 748.3 391 745 394.3 741.7 391 741 391.7 744.3 395 741 398.3 741.7 399 745 395.7 748.3 399 749 398.3 745.7 395 749 391.7"/><g class="cls-6"><text class="cls-7" transform="translate(481 400)">Sec<tspan class="cls-8" x="23.3237" y="0">r</tspan><tspan class="cls-9" x="28.5459" y="0">ets Mana</tspan><tspan class="cls-13" x="86.7715" y="0">g</tspan><tspan class="cls-9" x="94.2334" y="0">er</tspan></text></g><rect class="cls-2" x="433" y="199" width="531" height="136"/><rect class="cls-14" x="465" y="215" width="195" height="120"/><rect class="cls-15" x="465" y="215" width="195" height="120"/><path class="cls-5" d="M636,232a7,7,0,1,0,7,7A6.9569,6.9569,0,0,0,636,232Zm-1,10-2.7-2.7.9-.8,1.8,1.8,4-3.9.9.8Z"/><polygon class="cls-3" points="635 242 632.3 239.3 633.2 238.5 635 240.3 639 236.4 639.9 237.2 635 242"/><rect class="cls-14" x="692" y="215" width="208" height="120"/><rect class="cls-2" x="433" y="64" width="1008" height="104"/><g class="cls-6"><text class="cls-7" transform="translate(561 92)">/</text></g><rect class="cls-12" x="465" y="84" width="88" height="8"/><g class="cls-6"><text class="cls-7" transform="translate(671 92)">/</text></g><rect class="cls-12" x="575" y="84" width="88" height="8"/><rect class="cls-16" x="177" y="63" width="256" height="793"/><rect class="cls-17" x="177" y="808" width="256" height="48"/><rect class="cls-18" x="385" y="808" width="48" height="48"/><polygon class="cls-19" points="405.25 832 411.5 825.75 412.375 826.625 407 832 412.375 837.375 411.5 838.25 405.25 832"/><rect class="cls-20" x="177" y="177" width="256" height="32"/><rect class="cls-21" x="177" y="177" width="4" height="32"/><rect class="cls-18" x="177" y="128" width="256" height="17"/><rect class="cls-22" x="193" y="136" width="224" height="1"/><rect class="cls-16" x="177" y="63" width="256" height="64"/><path class="cls-23" d="M205,86h-1V83a3,3,0,0,0-6,0v3h-1a1,1,0,0,0-1,1v6a1,1,0,0,0,1,1h8a1,1,0,0,0,1-1V87A1,1,0,0,0,205,86Zm-6-3a2,2,0,0,1,4,0v3h-4Zm6,10h-8V87h8Z"/><rect class="cls-22" x="193" y="157" width="99" height="9"/><rect class="cls-22" x="193" y="218" width="123" height="9"/><rect class="cls-22" x="193" y="238" width="103" height="9"/><rect class="cls-22" x="193" y="258" width="75" height="9"/><rect class="cls-24" x="487" y="439" width="208" height="9"/><rect class="cls-24" x="465" y="355" width="106" height="9"/><rect class="cls-12" x="713" y="254" width="128" height="9"/><rect class="cls-24" x="713" y="239" width="96" height="9"/><rect class="cls-12" x="713" y="271" width="106" height="8"/><rect class="cls-12" x="481" y="255" width="128" height="9"/><rect class="cls-12" x="481" y="272" width="106" height="9"/><rect class="cls-24" x="465" y="166" width="328" height="9"/><rect class="cls-12" x="465" y="182" width="272" height="9"/><rect class="cls-17" x="177" y="16" width="1312" height="48"/><rect class="cls-18" x="1441" y="16" width="48" height="48"/><path id="assign-access-secret-group-c" class="cls-19" d="M1465,32.5a3.125,3.125,0,1,1-3.125,3.125A3.125,3.125,0,0,1,1465,32.5Zm0-1.25a4.375,4.375,0,1,0,4.375,4.375A4.3751,4.3751,0,0,0,1465,31.25Zm6.25,17.5H1470V45.625a3.1287,3.1287,0,0,0-3.125-3.125h-3.75A3.1287,3.1287,0,0,0,1460,45.625V48.75h-1.25V45.625a4.38,4.38,0,0,1,4.375-4.375h3.75a4.38,4.38,0,0,1,4.375,4.375Z"/><rect class="cls-18" x="1393" y="16" width="48" height="48"/><path class="cls-19" d="M1424.9375,42.6875,1423.25,41V38.125a6.2937,6.2937,0,0,0-5.625-6.25v-1.25h-1.25v1.25a6.3438,6.3438,0,0,0-5.625,6.25V41l-1.6875,1.6875a.5685.5685,0,0,0-.1875.4375V45a.5875.5875,0,0,0,.625.625h4.375a3.125,3.125,0,0,0,6.25,0h4.375a.5875.5875,0,0,0,.625-.625V43.125a.5685.5685,0,0,0-.1875-.4375ZM1417,47.5a1.875,1.875,0,0,1-1.875-1.875h3.75A1.875,1.875,0,0,1,1417,47.5Zm6.875-3.125h-13.75v-1l1.6875-1.6875A.5685.5685,0,0,0,1412,41.25V38.125a5,5,0,0,1,10,0V41.25a.5685.5685,0,0,0,.1875.4375l1.6875,1.6875Z"/><rect class="cls-18" x="1345" y="16" width="48" height="48"/><path class="cls-19" d="M1375.25,32.5v15h-12.5v-15Zm0-1.25h-12.5a1.25,1.25,0,0,0-1.25,1.25v15a1.25,1.25,0,0,0,1.25,1.25h12.5a1.25,1.25,0,0,0,1.25-1.25v-15A1.25,1.25,0,0,0,1375.25,31.25Zm-10.625,13.125h1.25v1.25h-1.25Zm7.5,0h1.25v1.25h-1.25Zm-7.5-3.125h1.25V42.5h-1.25Zm7.5,0h1.25V42.5h-1.25Zm-7.5-3.125h1.25v1.25h-1.25Zm3.75,6.25h1.25v1.25h-1.25Zm0-3.125h1.25V42.5h-1.25Zm0-3.125h1.25v1.25h-1.25Zm3.75,0h1.25v1.25h-1.25Zm-7.5-3.75h8.75V36.25h-8.75Z"/><rect class="cls-18" x="1297" y="16" width="48" height="48"/><path class="cls-19" d="M1327.25,32.5062h-12.5a1.25,1.25,0,0,0-1.25,1.25v12.5a1.25,1.25,0,0,0,1.25,1.25h12.5a1.25,1.25,0,0,0,1.25-1.25v-12.5A1.25,1.25,0,0,0,1327.25,32.5062Zm0,1.25v2.5h-12.5v-2.5Zm-12.5,12.5v-8.75h12.5v8.75Zm2.975-6.1438,1.7625,1.7688L1317.725,43.65l.8812.8812,2.65-2.65-2.65-2.65-.8812.8813Z"/><rect class="cls-18" x="1052" y="16" width="83" height="48"/><rect class="cls-18" x="1119" y="16" width="16" height="48"/><polygon class="cls-19" points="1135 43.75 1128.75 37.5 1129.625 36.625 1135 42 1140.375 36.625 1141.25 37.5 1135 43.75"/><polygon class="cls-19" points="1287 43.75 1280.75 37.5 1281.625 36.625 1287 42 1292.375 36.625 1293.25 37.5 1287 43.75"/><rect class="cls-20" x="471" y="16" width="352" height="48"/><rect class="cls-18" x="775" y="16" width="48" height="48"/><path class="cls-19" d="M807.75,47.8687l-4.7188-4.7437a6.875,6.875,0,1,0-.9062.9062l4.7437,4.7188ZM792.125,38.75a5.625,5.625,0,1,1,5.625,5.625A5.625,5.625,0,0,1,792.125,38.75Z"/><line class="cls-25" x1="326.5" y1="28" x2="326.5" y2="52"/><path class="cls-26" d="M260.942,45.168a3.754,3.754,0,0,0,3.612-2.31l-1.498-.882a2.1717,2.1717,0,0,1-2.114,1.554c-1.372,0-2.254-.952-2.254-2.632v-1.54c0-1.666.882-2.66,2.254-2.66a1.934,1.934,0,0,1,1.988,1.456l1.582-.84a3.5633,3.5633,0,0,0-3.57-2.254c-2.576,0-4.214,1.834-4.214,5.124S258.366,45.168,260.942,45.168Zm8-.168V43.572h-.966V34.64h-1.792v8.596A1.5847,1.5847,0,0,0,267.976,45Zm4.416.168c2.1,0,3.402-1.484,3.402-3.836,0-2.338-1.302-3.808-3.402-3.808-2.086,0-3.388,1.47-3.388,3.808C269.97,43.684,271.272,45.168,273.358,45.168Zm0-1.442c-.924,0-1.512-.602-1.512-1.708V40.66c0-1.092.588-1.694,1.512-1.694.938,0,1.526.602,1.526,1.694v1.358C274.884,43.124,274.296,43.726,273.358,43.726Zm7.398,1.442a1.9828,1.9828,0,0,0,2.044-1.386h.07V45h1.792V37.692H282.87v4.83c0,.784-.714,1.162-1.428,1.162-.854,0-1.232-.546-1.232-1.554V37.692h-1.792v4.62C278.418,44.132,279.258,45.168,280.756,45.168Zm8.588,0a2.0524,2.0524,0,0,0,2.016-1.386h.07V45h1.792V34.64H291.43v4.256h-.07a2.012,2.012,0,0,0-2.016-1.372c-1.834,0-2.856,1.372-2.856,3.808C286.488,43.782,287.51,45.168,289.344,45.168Zm.574-1.484a1.5443,1.5443,0,0,1-1.554-1.708v-1.26a1.5562,1.5562,0,0,1,1.554-1.722c.854,0,1.512.462,1.512,1.176v2.324C291.43,43.25,290.772,43.684,289.918,43.684ZM229.76,45v-.98h-1.372V36.208h1.372v-.98h-3.92v.98h1.372V44.02H225.84V45Zm6.74,0a2.626,2.626,0,0,0,2.52-2.828,2.1318,2.1318,0,0,0-1.918-2.268V39.82a1.8972,1.8972,0,0,0,1.582-2.072,2.39,2.39,0,0,0-2.604-2.52h-4.018V45Zm-.56-5.544h-2.702V36.264h2.702a1.3031,1.3031,0,0,1,1.484,1.358v.476A1.3031,1.3031,0,0,1,235.94,39.456Zm.196,4.508h-2.898v-3.5h2.898a1.4317,1.4317,0,0,1,1.624,1.512v.476A1.4317,1.4317,0,0,1,236.136,43.964ZM242.512,45V36.782h.07l.826,1.624,2.324,4.256,2.338-4.256.826-1.638h.07V45h1.148V35.228h-1.54l-2.814,5.264h-.056l-2.8-5.264h-1.54V45Z"/><rect class="cls-18" x="177" y="16" width="48" height="48"/><path class="cls-3" d="M193,44.8h16V46H193Zm0-3.6h16v1.2H193Zm0-3.6h16v1.2H193Zm0-3.6h16v1.2H193Z"/><rect class="cls-22" x="839" y="36" width="50" height="9"/><rect class="cls-22" x="914" y="36" width="50" height="9"/><rect class="cls-22" x="989" y="36" width="50" height="9"/><rect class="cls-22" x="1162" y="36" width="106" height="9"/><circle class="cls-27" cx="432.5" cy="237.5" r="11.5"/><polygon class="cls-26" points="435.714 242 435.714 240.684 433.348 240.684 433.348 232.228 431.682 232.228 428.658 233.95 429.274 235.112 431.794 233.656 431.794 240.684 429.19 240.684 429.19 242 435.714 242"/><line class="cls-28" x1="438.5" y1="237.5" x2="474.5" y2="237.5"/><circle class="cls-27" cx="432.5" cy="395.5" r="11.5"/><path class="cls-26" d="M435.574,400v-1.344h-4.928l2.296-1.974c1.288-1.106,2.338-2.142,2.338-3.724a2.8252,2.8252,0,0,0-3.136-2.898,3.2843,3.2843,0,0,0-3.346,2.38l1.386.532a1.8237,1.8237,0,0,1,1.834-1.54,1.4489,1.4489,0,0,1,1.582,1.526v.182a3.6257,3.6257,0,0,1-1.54,2.562l-3.122,2.786V400Z"/><line class="cls-28" x1="438.5" y1="395.5" x2="474.5" y2="395.5"/><circle class="cls-27" cx="628.5" cy="481.5" r="11.5"/><path class="cls-26" d="M627.794,486.168c2.086,0,3.486-1.148,3.486-2.856a2.3648,2.3648,0,0,0-2.044-2.422v-.07a2.2449,2.2449,0,0,0,1.876-2.24c0-1.582-1.33-2.52-3.178-2.52a3.5022,3.5022,0,0,0-3.108,1.61l1.05.91a2.2386,2.2386,0,0,1,2.016-1.19,1.3661,1.3661,0,0,1,1.554,1.386v.098c0,.798-.574,1.372-1.778,1.372h-.994v1.344h1.036c1.232,0,1.932.546,1.932,1.54v.098c0,1.008-.658,1.61-1.848,1.61a2.34,2.34,0,0,1-2.184-1.33l-1.162.91A3.7181,3.7181,0,0,0,627.794,486.168Z"/><line class="cls-28" x1="634.5" y1="481.5" x2="670.5" y2="481.5"/><circle class="cls-27" cx="432.5" cy="642.5" r="11.5"/><g class="cls-6"><text class="cls-29" transform="translate(428 647)">4</text></g><line class="cls-28" x1="438.5" y1="642.5" x2="474.5" y2="642.5"/><line class="cls-28" x1="474.5" y1="545.5" x2="474.5" y2="794.5"/></g><g id="Text"><text class="cls-30" transform="translate(530 777)">s<tspan class="cls-9" x="6.874" y="0">tring equals</tspan></text><text class="cls-31" transform="translate(515 739)">R<tspan class="cls-32" x="8.9038" y="0">esou</tspan><tspan class="cls-33" x="39.8159" y="0">r</tspan><tspan class="cls-34" x="45.0376" y="0">c</tspan><tspan class="cls-9" x="52.1499" y="0">e</tspan></text><text class="cls-30" transform="translate(530 685)">s<tspan class="cls-9" x="6.874" y="0">tring equals</tspan></text><text class="cls-31" transform="translate(515 647)">R<tspan class="cls-32" x="8.9038" y="0">esou</tspan><tspan class="cls-33" x="39.8159" y="0">r</tspan><tspan class="cls-34" x="45.0376" y="0">c</tspan><tspan class="cls-9" x="52.1499" y="0">e type</tspan></text><text class="cls-30" transform="translate(531 595)">s<tspan class="cls-9" x="6.874" y="0">tring equals</tspan></text><text class="cls-35" transform="translate(515 557)">In<tspan class="cls-36" x="13.8599" y="0">s</tspan><tspan x="20.7339" y="0">tan</tspan><tspan class="cls-34" x="41.5376" y="0">c</tspan><tspan x="48.6499" y="0">e ID</tspan></text><text class="cls-31" transform="translate(692 487)">R<tspan class="cls-32" x="8.9038" y="0">esou</tspan><tspan class="cls-33" x="39.8159" y="0">r</tspan><tspan class="cls-34" x="45.0376" y="0">c</tspan><tspan class="cls-9" x="52.1499" y="0">es based on selec</tspan><tspan class="cls-37" x="166.2344" y="0">t</tspan><tspan class="cls-32" x="171.2461" y="0">ed a</tspan><tspan class="cls-38" x="198.4478" y="0">t</tspan><tspan class="cls-9" x="203.3901" y="0">tribu</tspan><tspan class="cls-37" x="233.7837" y="0">t</tspan><tspan class="cls-32" x="238.7954" y="0">es</tspan></text><text class="cls-35" transform="translate(481 243)">IAM se<tspan class="cls-39" x="44.6733" y="0">r</tspan><tspan x="50.1055" y="0">vi</tspan><tspan class="cls-13" x="60.8013" y="0">c</tspan><tspan x="67.9131" y="0">es</tspan></text><text class="cls-29" transform="translate(193 198)">A<tspan class="cls-34" x="9.2397" y="0">cc</tspan><tspan x="23.5195" y="0">e</tspan><tspan class="cls-34" x="31.4014" y="0">s</tspan><tspan x="38.3315" y="0">s g</tspan><tspan class="cls-33" x="56.4189" y="0">r</tspan><tspan x="61.7529" y="0">oups</tspan></text><text class="cls-40" transform="translate(193 115)">A<tspan class="cls-34" x="9.2397" y="0">cc</tspan><tspan x="23.5195" y="0">e</tspan><tspan class="cls-34" x="31.4014" y="0">s</tspan><tspan x="38.3315" y="0">s (IAM)</tspan></text><text class="cls-41" transform="translate(465 125)">A<tspan class="cls-42" x="17.9478" y="0">s</tspan><tspan x="31.416" y="0">sign a</tspan><tspan class="cls-42" x="104.2993" y="0">cc</tspan><tspan x="132.1309" y="0">e</tspan><tspan class="cls-42" x="147.5029" y="0">s</tspan><tspan class="cls-43" x="160.9707" y="0">s </tspan><tspan class="cls-44" x="181.2148" y="0">t</tspan><tspan x="190.9307" y="0">o g</tspan><tspan class="cls-45" x="228.0024" y="0">r</tspan><tspan x="238.1387" y="0">oup</tspan></text><text class="cls-46" transform="translate(1068 45)">Mana<tspan class="cls-13" x="34.8877" y="0">g</tspan><tspan class="cls-32" x="42.3496" y="0">e</tspan></text></g></svg>