<svg xmlns="http://www.w3.org/2000/svg" xmlns:xlink="http://www.w3.org/1999/xlink" width="1360" height="888" viewBox="0 0 1360 888">
  <defs>
    <rect id="assign-access-secret-group-b" width="1312" height="840" x="24" y="22"/>
    <filter id="assign-access-secret-group-a" width="102.2%" height="103.5%" x="-1.1%" y="-1.5%" filterUnits="objectBoundingBox">
      <feMorphology in="SourceAlpha" operator="dilate" radius=".5" result="shadowSpreadOuter1"/>
      <feOffset dy="2" in="shadowSpreadOuter1" result="shadowOffsetOuter1"/>
      <feGaussianBlur in="shadowOffsetOuter1" result="shadowBlurOuter1" stdDeviation="4"/>
      <feColorMatrix in="shadowBlurOuter1" values="0 0 0 0 0   0 0 0 0 0   0 0 0 0 0  0 0 0 0.5 0"/>
    </filter>
    <path id="assign-access-secret-group-c" d="M10,2.5 C11.7258898,2.5 13.125,3.89911016 13.125,5.625 C13.125,7.35088984 11.7258898,8.75 10,8.75 C8.27411016,8.75 6.875,7.35088984 6.875,5.625 C6.87696323,3.89992401 8.27492401,2.50196323 10,2.5 L10,2.5 Z M10,1.25 C7.58375422,1.25 5.625,3.20875422 5.625,5.625 C5.625,8.04124578 7.58375422,10 10,10 C12.4162458,10 14.375,8.04124578 14.375,5.625 C14.375,3.20875422 12.4162458,1.25 10,1.25 Z M16.25,18.75 L15,18.75 L15,15.625 C14.997968,13.8999525 13.6000475,12.502032 11.875,12.5 L8.125,12.5 C6.39995252,12.502032 5.00203196,13.8999525 5,15.625 L5,18.75 L3.75,18.75 L3.75,15.625 C3.75282413,13.209925 5.70992498,11.2528241 8.125,11.25 L11.875,11.25 C14.290075,11.2528241 16.2471759,13.209925 16.25,15.625 L16.25,18.75 Z"/>
  </defs>
  <g fill="none" fill-rule="evenodd">
    <use fill="#000" filter="url(#assign-access-secret-group-a)" xlink:href="#assign-access-secret-group-b"/>
    <use fill="#F3F3F3" xlink:href="#assign-access-secret-group-b"/>
    <g transform="translate(334 638)">
      <g transform="translate(27 28)">
        <polygon fill="#FFF" points="0 0 273 0 273 40 0 40"/>
        <rect width="273" height="1" y="39" fill="#8D8D8D"/>
        <polygon fill="#161616" points="8 11 3 6 3.7 5.3 8 9.6 12.3 5.3 13 6" transform="translate(241 12)"/>
        <text fill="#161616" font-family="IBMPlexSans, IBM Plex Sans" font-size="14" letter-spacing=".16">
          <tspan x="16" y="25">string equals</tspan>
        </text>
      </g>
      <g transform="translate(332 28)">
        <polygon fill="#FFF" points="0 0 273 0 273 40 0 40"/>
        <rect width="273" height="1" y="39" fill="#8D8D8D"/>
        <text fill="#161616" font-family="IBMPlexSans, IBM Plex Sans" font-size="14" letter-spacing=".16">
          <tspan x="16" y="25">secret-group</tspan>
        </text>
      </g>
      <g fill="#161616">
        <text font-family="IBMPlexSans, IBM Plex Sans" font-size="14" letter-spacing=".16">
          <tspan x="28" y="15">Resource type</tspan>
        </text>
        <path d="M16.25,2.5 L3.75,2.5 C3.05964406,2.5 2.5,3.05964406 2.5,3.75 L2.5,16.25 C2.5,16.9403559 3.05964406,17.5 3.75,17.5 L16.25,17.5 C16.9403559,17.5 17.5,16.9403559 17.5,16.25 L17.5,3.75 C17.5,3.05964406 16.9403559,2.5 16.25,2.5 Z M8.75,13.4375 L5.625,10.3125 L6.61875,9.375 L8.75,11.46875 L13.38125,6.875 L14.375,7.8625 L8.75,13.4375 Z"/>
      </g>
    </g>
    <g transform="translate(334 730)">
      <g transform="translate(332 28)">
        <polygon fill="#FFF" points="0 0 273 0 273 40 0 40"/>
        <rect width="273" height="1" y="39" fill="#8D8D8D"/>
      </g>
      <g transform="translate(27 28)">
        <polygon fill="#FFF" points="0 0 273 0 273 40 0 40"/>
        <rect width="273" height="1" y="39" fill="#8D8D8D"/>
        <polygon fill="#161616" points="8 11 3 6 3.7 5.3 8 9.6 12.3 5.3 13 6" transform="translate(241 12)"/>
        <text fill="#161616" font-family="IBMPlexSans, IBM Plex Sans" font-size="14" letter-spacing=".16">
          <tspan x="16" y="25">string equals</tspan>
        </text>
      </g>
      <g fill="#161616">
        <text font-family="IBMPlexSans, IBM Plex Sans" font-size="14" letter-spacing=".16">
          <tspan x="28" y="15">Resource</tspan>
        </text>
        <path d="M16.25,2.5 L3.75,2.5 C3.05964406,2.5 2.5,3.05964406 2.5,3.75 L2.5,16.25 C2.5,16.9403559 3.05964406,17.5 3.75,17.5 L16.25,17.5 C16.9403559,17.5 17.5,16.9403559 17.5,16.25 L17.5,3.75 C17.5,3.05964406 16.9403559,2.5 16.25,2.5 Z M8.75,13.4375 L5.625,10.3125 L6.61875,9.375 L8.75,11.46875 L13.38125,6.875 L14.375,7.8625 L8.75,13.4375 Z"/>
      </g>
    </g>
    <g stroke="#E5E5E5" stroke-linecap="square" transform="translate(311 428)">
      <line x1="1.5" x2=".5" y1=".5" y2="370.5"/>
      <line x1="629.5" x2="1.5" y1="95.5" y2="95.5"/>
      <line x1="16.5" x2="1.5" y1="21.5" y2="21.5"/>
    </g>
    <g transform="translate(334 548)">
      <g transform="translate(333 28)">
        <polygon fill="#FFF" points="0 0 273 0 273 40 0 40"/>
        <rect width="273" height="1" y="39" fill="#8D8D8D"/>
        <polygon fill="#161616" points="8 11 3 6 3.7 5.3 8 9.6 12.3 5.3 13 6" transform="translate(241 12)"/>
      </g>
      <g transform="translate(28 28)">
        <polygon fill="#FFF" points="0 0 273 0 273 40 0 40"/>
        <rect width="273" height="1" y="39" fill="#8D8D8D"/>
        <polygon fill="#161616" points="8 11 3 6 3.7 5.3 8 9.6 12.3 5.3 13 6" transform="translate(241 12)"/>
        <text fill="#161616" font-family="IBMPlexSans, IBM Plex Sans" font-size="14" letter-spacing=".16">
          <tspan x="16" y="25">string equals</tspan>
        </text>
      </g>
      <g fill="#161616">
        <text font-family="IBMPlexSans, IBM Plex Sans" font-size="14" letter-spacing=".16">
          <tspan x="28" y="15">Instance ID</tspan>
        </text>
        <path d="M16.25,2.5 L3.75,2.5 C3.05964406,2.5 2.5,3.05964406 2.5,3.75 L2.5,16.25 C2.5,16.9403559 3.05964406,17.5 3.75,17.5 L16.25,17.5 C16.9403559,17.5 17.5,16.9403559 17.5,16.25 L17.5,3.75 C17.5,3.05964406 16.9403559,2.5 16.25,2.5 Z M8.75,13.4375 L5.625,10.3125 L6.61875,9.375 L8.75,11.46875 L13.38125,6.875 L14.375,7.8625 L8.75,13.4375 Z"/>
      </g>
    </g>
    <rect width="176" height="9" x="680" y="592" fill="#E5E5E5"/>
    <rect width="224" height="9" x="680" y="776" fill="#E5E5E5"/>
    <g fill="#161616" transform="translate(511 478)">
      <text font-family="IBMPlexSans, IBM Plex Sans" font-size="14" letter-spacing=".16">
        <tspan x="28" y="15">Resources based on selected attributes</tspan>
      </text>
      <path d="M10,1.25 C5.16750844,1.25 1.25,5.16750844 1.25,10 C1.25,14.8324916 5.16750844,18.75 10,18.75 C14.8324916,18.75 18.75,14.8324916 18.75,10 C18.75,7.67935571 17.8281276,5.45375898 16.1871843,3.81281566 C14.546241,2.17187235 12.3206443,1.25 10,1.25 Z M10,17.5 C5.85786438,17.5 2.5,14.1421356 2.5,10 C2.5,5.85786438 5.85786438,2.5 10,2.5 C14.1421356,2.5 17.5,5.85786438 17.5,10 C17.5,14.1421356 14.1421356,17.5 10,17.5 L10,17.5 Z M10,6.25 C7.92893219,6.25 6.25,7.92893219 6.25,10 C6.25,12.0710678 7.92893219,13.75 10,13.75 C12.0710678,13.75 13.75,12.0710678 13.75,10 C13.75,7.92893219 12.0710678,6.25 10,6.25 Z"/>
    </g>
    <g transform="translate(334 478)">
      <path fill="#161616" d="M10,1.25 C5.16750844,1.25 1.25,5.16750844 1.25,10 C1.25,14.8324916 5.16750844,18.75 10,18.75 C14.8324916,18.75 18.75,14.8324916 18.75,10 C18.75,7.67935571 17.8281276,5.45375898 16.1871843,3.81281566 C14.546241,2.17187235 12.3206443,1.25 10,1.25 Z M10,17.5 C5.85786438,17.5 2.5,14.1421356 2.5,10 C2.5,5.85786438 5.85786438,2.5 10,2.5 C14.1421356,2.5 17.5,5.85786438 17.5,10 C17.5,14.1421356 14.1421356,17.5 10,17.5 L10,17.5 Z"/>
      <rect width="64" height="8" x="28" y="6" fill="#E5E5E5"/>
    </g>
    <g transform="translate(312 381)">
      <polygon fill="#FFF" points="0 0 328 0 328 40 0 40"/>
      <rect width="328" height="1" y="39" fill="#8D8D8D"/>
      <polygon fill="#161616" points="8 11 3 6 3.7 5.3 8 9.6 12.3 5.3 13 6" transform="translate(296 12)"/>
      <polygon fill="#161616" points="12 4.7 11.3 4 8 7.3 4.7 4 4 4.7 7.3 8 4 11.3 4.7 12 8 8.7 11.3 12 12 11.3 8.7 8" transform="translate(272 12)"/>
      <text fill="#161616" font-family="IBMPlexSans, IBM Plex Sans" font-size="14" letter-spacing=".16">
        <tspan x="16" y="25">Secrets Manager</tspan>
      </text>
    </g>
    <g transform="translate(280 205)">
      <rect width="531" height="136" fill="#F3F3F3"/>
      <g transform="translate(32 16)">
        <rect width="195" height="120" fill="#FFF"/>
        <rect width="195" height="120" stroke="#171717"/>
        <g transform="translate(163 16)">
          <path fill="#161616" d="M8,1 C4.1,1 1,4.1 1,8 C1,11.9 4.1,15 8,15 C11.9,15 15,11.9 15,8 C15,4.1 11.9,1 8,1 Z M7,11 L4.3,8.3 L5.2,7.5 L7,9.3 L11,5.4 L11.9,6.2 L7,11 Z"/>
          <polygon fill="#FFF" points="7 11 4.3 8.3 5.2 7.5 7 9.3 11 5.4 11.9 6.2"/>
        </g>
      </g>
      <rect width="208" height="120" fill="#FFF" transform="translate(259 16)"/>
      <text fill="#161616" font-family="IBMPlexSans, IBM Plex Sans" font-size="14" letter-spacing=".16">
        <tspan x="48" y="44">IAM services</tspan>
      </text>
    </g>
    <g transform="translate(280 70)">
      <rect width="1008" height="104" fill="#F3F3F3"/>
      <text fill="#161616" font-family="IBMPlexSans, IBM Plex Sans" font-size="28">
        <tspan x="32" y="61">Assign access to group</tspan>
      </text>
    </g>
    <g transform="translate(312 84)">
      <text fill="#161616" font-family="IBMPlexSans, IBM Plex Sans" font-size="14" letter-spacing=".16">
        <tspan x="96" y="14">/</tspan>
      </text>
      <rect width="88" height="8" y="6" fill="#E5E5E5"/>
    </g>
    <g transform="translate(422 84)">
      <text fill="#161616" font-family="IBMPlexSans, IBM Plex Sans" font-size="14" letter-spacing=".16">
        <tspan x="96" y="14">/</tspan>
      </text>
      <rect width="88" height="8" y="6" fill="#E5E5E5"/>
    </g>
    <g transform="translate(24 69)">
      <rect width="256" height="793" fill="#262626"/>
      <g transform="translate(0 745)">
        <rect width="256" height="48" fill="#171717"/>
        <g transform="translate(208)">
          <rect width="48" height="48"/>
          <polygon fill="#C6C6C6" points="6.25 10 12.5 3.75 13.375 4.625 8 10 13.375 15.375 12.5 16.25" transform="translate(14 14)"/>
        </g>
      </g>
      <g transform="translate(0 114)">
        <rect width="256" height="32" fill="#393939" transform="matrix(-1 0 0 1 256 0)"/>
        <rect width="4" height="32" fill="#0F62FE" transform="matrix(-1 0 0 1 4 0)"/>
        <text fill="#F4F4F4" font-family="IBMPlexSans-SemiBold, IBM Plex Sans" font-size="14" font-weight="500" letter-spacing=".16">
          <tspan x="16" y="21">Access groups</tspan>
        </text>
      </g>
      <g transform="translate(0 65)">
        <rect width="256" height="17"/>
        <rect width="224" height="1" x="16" y="8" fill="#525252"/>
      </g>
      <rect width="256" height="64" fill="#262626"/>
      <text fill="#C6C6C6" font-family="IBMPlexSans-SemiBold, IBM Plex Sans" font-size="14" font-weight="500" letter-spacing=".16">
        <tspan x="16" y="52">Access (IAM)</tspan>
      </text>
      <path fill="#525252" d="M12,7 L11,7 L11,4 C11,2.34314575 9.65685425,1 8,1 C6.34314575,1 5,2.34314575 5,4 L5,7 L4,7 C3.44771525,7 3,7.44771525 3,8 L3,14 C3,14.5522847 3.44771525,15 4,15 L12,15 C12.5522847,15 13,14.5522847 13,14 L13,8 C13,7.44771525 12.5522847,7 12,7 Z M6,4 C6,2.8954305 6.8954305,2 8,2 C9.1045695,2 10,2.8954305 10,4 L10,7 L6,7 L6,4 Z M12,14 L4,14 L4,8 L12,8 L12,14 Z" transform="translate(16 16)"/>
      <rect width="99" height="9" x="16" y="94" fill="#525252"/>
      <rect width="123" height="9" x="16" y="155" fill="#525252"/>
      <rect width="103" height="9" x="16" y="175" fill="#525252"/>
      <rect width="75" height="9" x="16" y="195" fill="#525252"/>
    </g>
    <g transform="translate(312 172)">
      <rect width="208" height="9" x="22" y="273" fill="#D8D8D8"/>
      <rect width="106" height="9" y="189" fill="#D8D8D8"/>
      <rect width="128" height="9" x="248" y="88" fill="#E5E5E5"/>
      <rect width="96" height="9" x="248" y="73" fill="#D8D8D8"/>
      <rect width="106" height="8" x="248" y="105" fill="#E5E5E5"/>
      <rect width="128" height="9" x="16" y="89" fill="#E5E5E5"/>
      <rect width="106" height="9" x="16" y="106" fill="#E5E5E5"/>
      <rect width="328" height="9" fill="#D8D8D8"/>
      <rect width="272" height="9" y="16" fill="#E5E5E5"/>
    </g>
    <g transform="translate(24 22)">
      <rect width="1312" height="48" fill="#171717"/>
      <g transform="translate(1264)">
        <rect width="48" height="48"/>
        <use fill="#C6C6C6" transform="translate(14 14)" xlink:href="#assign-access-secret-group-c"/>
      </g>
      <g transform="translate(1216)">
        <rect width="48" height="48"/>
        <path fill="#C6C6C6" d="M17.9375,12.6875 L16.25,11 L16.25,8.125 C16.2458533,4.91102718 13.8207808,2.21650217 10.625,1.875 L10.625,0.625 L9.375,0.625 L9.375,1.875 C6.19027615,2.2380563 3.77674244,4.91976043 3.75,8.125 L3.75,11 L2.0625,12.6875 C1.93904716,12.7989101 1.8705364,12.9587686 1.875,13.125 L1.875,15 C1.86382379,15.1689394 1.92607409,15.3344873 2.04579337,15.4542066 C2.16551265,15.5739259 2.33106065,15.6361762 2.5,15.625 L6.875,15.625 C6.875,17.3508898 8.27411016,18.75 10,18.75 C11.7258898,18.75 13.125,17.3508898 13.125,15.625 L17.5,15.625 C17.6689394,15.6361762 17.8344873,15.5739259 17.9542066,15.4542066 C18.0739259,15.3344873 18.1361762,15.1689394 18.125,15 L18.125,13.125 C18.1294636,12.9587686 18.0609528,12.7989101 17.9375,12.6875 L17.9375,12.6875 Z M10,17.5 C8.96446609,17.5 8.125,16.6605339 8.125,15.625 L11.875,15.625 C11.875,16.6605339 11.0355339,17.5 10,17.5 L10,17.5 Z M16.875,14.375 L3.125,14.375 L3.125,13.375 L4.8125,11.6875 C4.93595284,11.5760899 5.0044636,11.4162314 5,11.25 L5,8.125 C5,5.36357625 7.23857625,3.125 10,3.125 C12.7614237,3.125 15,5.36357625 15,8.125 L15,11.25 C14.9955364,11.4162314 15.0640472,11.5760899 15.1875,11.6875 L16.875,13.375 L16.875,14.375 Z" transform="translate(14 14)"/>
      </g>
      <g transform="translate(1168)">
        <rect width="48" height="48"/>
        <path fill="#C6C6C6" d="M16.25,2.5 L16.25,17.5 L3.75,17.5 L3.75,2.5 L16.25,2.5 L16.25,2.5 Z M16.25,1.25 L3.75,1.25 C3.05964406,1.25 2.5,1.80964406 2.5,2.5 L2.5,17.5 C2.5,18.1903559 3.05964406,18.75 3.75,18.75 L16.25,18.75 C16.9403559,18.75 17.5,18.1903559 17.5,17.5 L17.5,2.5 C17.5,1.80964406 16.9403559,1.25 16.25,1.25 Z M5.625,14.375 L6.875,14.375 L6.875,15.625 L5.625,15.625 L5.625,14.375 Z M13.125,14.375 L14.375,14.375 L14.375,15.625 L13.125,15.625 L13.125,14.375 Z M5.625,11.25 L6.875,11.25 L6.875,12.5 L5.625,12.5 L5.625,11.25 Z M13.125,11.25 L14.375,11.25 L14.375,12.5 L13.125,12.5 L13.125,11.25 Z M5.625,8.125 L6.875,8.125 L6.875,9.375 L5.625,9.375 L5.625,8.125 Z M9.375,14.375 L10.625,14.375 L10.625,15.625 L9.375,15.625 L9.375,14.375 Z M9.375,11.25 L10.625,11.25 L10.625,12.5 L9.375,12.5 L9.375,11.25 Z M9.375,8.125 L10.625,8.125 L10.625,9.375 L9.375,9.375 L9.375,8.125 Z M13.125,8.125 L14.375,8.125 L14.375,9.375 L13.125,9.375 L13.125,8.125 Z M5.625,4.375 L14.375,4.375 L14.375,6.25 L5.625,6.25 L5.625,4.375 Z" transform="translate(14 14)"/>
      </g>
      <g transform="translate(1120)">
        <rect width="48" height="48"/>
        <path fill="#C6C6C6" d="M16.25,2.50625 L3.75,2.50625 C3.05964406,2.50625 2.5,3.06589406 2.5,3.75625 L2.5,16.25625 C2.5,16.9466059 3.05964406,17.50625 3.75,17.50625 L16.25,17.50625 C16.9403559,17.50625 17.5,16.9466059 17.5,16.25625 L17.5,3.75625 C17.5,3.06589406 16.9403559,2.50625 16.25,2.50625 Z M16.25,3.75625 L16.25,6.25625 L3.75,6.25625 L3.75,3.75625 L16.25,3.75625 Z M3.75,16.25625 L3.75,7.50625 L16.25,7.50625 L16.25,16.25625 L3.75,16.25625 Z M6.725,10.1125 L8.4875,11.88125 L6.725,13.65 L7.60625,14.53125 L10.25625,11.88125 L7.60625,9.23125 L6.725,10.1125 L6.725,10.1125 Z" transform="translate(14 14)"/>
      </g>
      <g transform="translate(875)">
        <rect width="83" height="48"/>
        <rect width="16" height="48" transform="translate(67)"/>
        <text fill="#C6C6C6" font-family="IBMPlexSans, IBM Plex Sans" font-size="14" letter-spacing=".16">
          <tspan x="16" y="29">Manage</tspan>
        </text>
      </g>
      <polygon fill="#C6C6C6" points="10 13.75 3.75 7.5 4.625 6.625 10 12 15.375 6.625 16.25 7.5" transform="translate(948 14)"/>
      <polygon fill="#C6C6C6" points="10 13.75 3.75 7.5 4.625 6.625 10 12 15.375 6.625 16.25 7.5" transform="translate(1100 14)"/>
      <rect width="352" height="48" x="294" fill="#393939"/>
      <g transform="translate(598)">
        <rect width="48" height="48"/>
        <path fill="#C6C6C6" d="M18.75,17.86875 L14.03125,13.125 C16.374581,10.2976003 16.0821769,6.1277481 13.3671855,3.65505497 C10.6521942,1.18236184 6.47324054,1.27990068 3.87657061,3.87657061 C1.27990068,6.47324054 1.18236184,10.6521942 3.65505497,13.3671855 C6.1277481,16.0821769 10.2976003,16.374581 13.125,14.03125 L17.86875,18.75 L18.75,17.86875 Z M3.125,8.75 C3.125,5.64339828 5.64339828,3.125 8.75,3.125 C11.8566017,3.125 14.375,5.64339828 14.375,8.75 C14.375,11.8566017 11.8566017,14.375 8.75,14.375 C5.64339828,14.375 3.125,11.8566017 3.125,8.75 Z" transform="translate(14 14)"/>
      </g>
      <line x1="149.5" x2="149.5" y1="12" y2="36" stroke="#3D3D3D" stroke-linecap="square"/>
      <text fill="#F4F4F4" font-family="IBMPlexSans-SemiBold, IBM Plex Sans" font-size="14" font-weight="500" letter-spacing=".16">
        <tspan x="79" y="29">Cloud</tspan>
      </text>
      <text fill="#F4F4F4" font-family="IBMPlexSans, IBM Plex Sans" font-size="14" letter-spacing=".16">
        <tspan x="48" y="28">IBM</tspan>
      </text>
      <rect width="48" height="48"/>
      <path fill="#FFF" d="M2,14.8 L18,14.8 L18,16 L2,16 L2,14.8 Z M2,11.2 L18,11.2 L18,12.4 L2,12.4 L2,11.2 Z M2,7.6 L18,7.6 L18,8.8 L2,8.8 L2,7.6 Z M2,4 L18,4 L18,5.2 L2,5.2 L2,4 Z" transform="translate(14 14)"/>
      <rect width="50" height="9" x="662" y="20" fill="#525252"/>
      <rect width="50" height="9" x="737" y="20" fill="#525252"/>
      <rect width="50" height="9" x="812" y="20" fill="#525252"/>
      <rect width="106" height="9" x="985" y="20" fill="#525252"/>
    </g>
    <g transform="translate(268 232)">
      <circle cx="11.5" cy="11.5" r="11.5" fill="#D12771"/>
      <polygon fill="#F4F4F4" fill-rule="nonzero" points="14.714 16 14.714 14.684 12.348 14.684 12.348 6.228 10.682 6.228 7.658 7.95 8.274 9.112 10.794 7.656 10.794 14.684 8.19 14.684 8.19 16"/>
      <line x1="17.5" x2="53.5" y1="11.5" y2="11.5" stroke="#D12771" stroke-linecap="round" stroke-width="3"/>
      <g transform="translate(0 158)">
        <circle cx="11.5" cy="11.5" r="11.5" fill="#D12771"/>
        <path fill="#F4F4F4" fill-rule="nonzero" d="M14.574,16 L14.574,14.656 L9.646,14.656 L11.942,12.682 C13.23,11.576 14.28,10.54 14.28,8.958 C14.28,7.264 13.132,6.06 11.144,6.06 C9.184,6.06 8.204,7.208 7.798,8.44 L9.184,8.972 C9.422,8.118 9.94,7.432 11.018,7.432 C11.984,7.432 12.6,8.02 12.6,8.958 L12.6,9.14 C12.6,10.036 12.04,10.82 11.06,11.702 L7.938,14.488 L7.938,16 L14.574,16 Z"/>
        <line x1="17.5" x2="53.5" y1="11.5" y2="11.5" stroke="#D12771" stroke-linecap="round" stroke-width="3"/>
      </g>
      <g transform="translate(196 244)">
        <circle cx="11.5" cy="11.5" r="11.5" fill="#D12771"/>
        <path fill="#F4F4F4" fill-rule="nonzero" d="M10.794,16.168 C12.88,16.168 14.28,15.02 14.28,13.312 C14.28,11.898 13.342,11.1 12.236,10.89 L12.236,10.82 C13.258,10.596 14.112,9.826 14.112,8.58 C14.112,6.998 12.782,6.06 10.934,6.06 C9.31,6.06 8.414,6.816 7.826,7.67 L8.876,8.58 C9.324,7.838 9.968,7.39 10.892,7.39 C11.83,7.39 12.446,7.894 12.446,8.776 L12.446,8.874 C12.446,9.672 11.872,10.246 10.668,10.246 L9.674,10.246 L9.674,11.59 L10.71,11.59 C11.942,11.59 12.642,12.136 12.642,13.13 L12.642,13.228 C12.642,14.236 11.984,14.838 10.794,14.838 C9.66,14.838 9.086,14.292 8.61,13.508 L7.448,14.418 C8.064,15.314 8.974,16.168 10.794,16.168 Z"/>
        <line x1="17.5" x2="53.5" y1="11.5" y2="11.5" stroke="#D12771" stroke-linecap="round" stroke-width="3"/>
      </g>
      <g transform="translate(0 319)">
        <g transform="translate(0 86)">
          <circle cx="11.5" cy="11.5" r="11.5" fill="#D12771"/>
          <text fill="#F4F4F4" font-family="IBMPlexSans-Medium, IBM Plex Sans" font-size="14" font-weight="500" letter-spacing=".16">
            <tspan x="7" y="16">4</tspan>
          </text>
        </g>
        <line x1="17.5" x2="53.5" y1="97.5" y2="97.5" stroke="#D12771" stroke-linecap="round" stroke-width="3"/>
        <line x1="53.5" x2="53.5" y1=".5" y2="249.5" stroke="#D12771" stroke-linecap="round" stroke-width="3"/>
      </g>
    </g>
  </g>
</svg>
