<?xml version="1.0" encoding="UTF-8"?>
<svg width="1664px" height="872px" viewBox="0 0 1664 872" version="1.1" xmlns="http://www.w3.org/2000/svg" xmlns:xlink="http://www.w3.org/1999/xlink">
    <title>classic-infra-creds</title>
    <defs>
        <rect id="path-1" x="177" y="16" width="1312" height="840"></rect>
        <filter x="-1.1%" y="-1.5%" width="102.2%" height="103.5%" filterUnits="objectBoundingBox" id="filter-2">
            <feMorphology radius="0.5" operator="dilate" in="SourceAlpha" result="shadowSpreadOuter1"></feMorphology>
            <feOffset dx="0" dy="2" in="shadowSpreadOuter1" result="shadowOffsetOuter1"></feOffset>
            <feGaussianBlur stdDeviation="4" in="shadowOffsetOuter1" result="shadowBlurOuter1"></feGaussianBlur>
            <feColorMatrix values="0 0 0 0 0   0 0 0 0 0   0 0 0 0 0  0 0 0 0.5 0" type="matrix" in="shadowBlurOuter1"></feColorMatrix>
        </filter>
        <filter id="filter-3">
            <feColorMatrix in="SourceGraphic" type="matrix" values="0 0 0 0 0.956863 0 0 0 0 0.956863 0 0 0 0 0.956863 0 0 0 1.000000 0"></feColorMatrix>
        </filter>
        <filter id="filter-4">
            <feColorMatrix in="SourceGraphic" type="matrix" values="0 0 0 0 0.792157 0 0 0 0 0.792157 0 0 0 0 0.792157 0 0 0 1.000000 0"></feColorMatrix>
        </filter>
        <filter id="filter-5">
            <feColorMatrix in="SourceGraphic" type="matrix" values="0 0 0 0 1.000000 0 0 0 0 1.000000 0 0 0 0 1.000000 0 0 0 1.000000 0"></feColorMatrix>
        </filter>
        <polygon id="path-6" points="8.5 7.5 8.5 3.5 7.5 3.5 7.5 7.5 3.5 7.5 3.5 8.5 7.5 8.5 7.5 12.5 8.5 12.5 8.5 8.5 12.5 8.5 12.5 7.5"></polygon>
        <path d="M128,32 L128,0 L160,0 L160,100 L0,100 L0,32 L128,32 Z" id="path-8"></path>
        <filter x="-6.2%" y="-8.0%" width="112.5%" height="120.0%" filterUnits="objectBoundingBox" id="filter-9">
            <feOffset dx="0" dy="2" in="SourceAlpha" result="shadowOffsetOuter1"></feOffset>
            <feGaussianBlur stdDeviation="3" in="shadowOffsetOuter1" result="shadowBlurOuter1"></feGaussianBlur>
            <feColorMatrix values="0 0 0 0 0   0 0 0 0 0   0 0 0 0 0  0 0 0 0.3 0" type="matrix" in="shadowBlurOuter1"></feColorMatrix>
        </filter>
        <path d="M8,4 C8.55228475,4 9,3.55228475 9,3 C9,2.44771525 8.55228475,2 8,2 C7.44771525,2 7,2.44771525 7,3 C7,3.55228475 7.44771525,4 8,4 Z M8,9 C8.55228475,9 9,8.55228475 9,8 C9,7.44771525 8.55228475,7 8,7 C7.44771525,7 7,7.44771525 7,8 C7,8.55228475 7.44771525,9 8,9 Z M8,14 C8.55228475,14 9,13.5522847 9,13 C9,12.4477153 8.55228475,12 8,12 C7.44771525,12 7,12.4477153 7,13 C7,13.5522847 7.44771525,14 8,14 Z" id="path-10"></path>
        <filter x="-17.0%" y="-15.9%" width="134.0%" height="131.8%" filterUnits="objectBoundingBox" id="filter-12">
            <feOffset dx="0" dy="1" in="SourceAlpha" result="shadowOffsetOuter1"></feOffset>
            <feGaussianBlur stdDeviation="0.4" in="shadowOffsetOuter1" result="shadowBlurOuter1"></feGaussianBlur>
            <feColorMatrix values="0 0 0 0 0   0 0 0 0 0   0 0 0 0 0  0 0 0 0.5 0" type="matrix" in="shadowBlurOuter1" result="shadowMatrixOuter1"></feColorMatrix>
            <feMerge>
                <feMergeNode in="shadowMatrixOuter1"></feMergeNode>
                <feMergeNode in="SourceGraphic"></feMergeNode>
            </feMerge>
        </filter>
        <filter id="filter-13">
            <feColorMatrix in="SourceGraphic" type="matrix" values="0 0 0 0 0.956863 0 0 0 0 0.956863 0 0 0 0 0.956863 0 0 0 1.000000 0"></feColorMatrix>
        </filter>
        <path d="M10,2.5 C11.7258898,2.5 13.125,3.89911016 13.125,5.625 C13.125,7.35088984 11.7258898,8.75 10,8.75 C8.27411016,8.75 6.875,7.35088984 6.875,5.625 C6.87696323,3.89992401 8.27492401,2.50196323 10,2.5 L10,2.5 Z M10,1.25 C7.58375422,1.25 5.625,3.20875422 5.625,5.625 C5.625,8.04124578 7.58375422,10 10,10 C12.4162458,10 14.375,8.04124578 14.375,5.625 C14.375,3.20875422 12.4162458,1.25 10,1.25 Z M16.25,18.75 L15,18.75 L15,15.625 C14.997968,13.8999525 13.6000475,12.502032 11.875,12.5 L8.125,12.5 C6.39995252,12.502032 5.00203196,13.8999525 5,15.625 L5,18.75 L3.75,18.75 L3.75,15.625 C3.75282413,13.209925 5.70992498,11.2528241 8.125,11.25 L11.875,11.25 C14.290075,11.2528241 16.2471759,13.209925 16.25,15.625 L16.25,18.75 Z" id="path-14"></path>
        <filter id="filter-16">
            <feColorMatrix in="SourceGraphic" type="matrix" values="0 0 0 0 0.956863 0 0 0 0 0.956863 0 0 0 0 0.956863 0 0 0 1.000000 0"></feColorMatrix>
        </filter>
        <filter id="filter-17">
            <feColorMatrix in="SourceGraphic" type="matrix" values="0 0 0 0 0.956863 0 0 0 0 0.956863 0 0 0 0 0.956863 0 0 0 1.000000 0"></feColorMatrix>
        </filter>
        <filter id="filter-18">
            <feColorMatrix in="SourceGraphic" type="matrix" values="0 0 0 0 0.956863 0 0 0 0 0.956863 0 0 0 0 0.956863 0 0 0 1.000000 0"></feColorMatrix>
        </filter>
        <filter id="filter-19">
            <feColorMatrix in="SourceGraphic" type="matrix" values="0 0 0 0 0.956863 0 0 0 0 0.956863 0 0 0 0 0.956863 0 0 0 1.000000 0"></feColorMatrix>
        </filter>
        <filter id="filter-20">
            <feColorMatrix in="SourceGraphic" type="matrix" values="0 0 0 0 0.956863 0 0 0 0 0.956863 0 0 0 0 0.956863 0 0 0 1.000000 0"></feColorMatrix>
        </filter>
    </defs>
    <g id="classic-infra-creds" stroke="none" stroke-width="1" fill="none" fill-rule="evenodd">
        <g id="Background">
            <use fill="black" fill-opacity="1" filter="url(#filter-2)" xlink:href="#path-1"></use>
            <use fill="#F3F3F3" fill-rule="evenodd" xlink:href="#path-1"></use>
        </g>
        <g id="Header" transform="translate(433.000000, 64.000000)">
            <rect id="Rectangle" fill="#F3F3F3" x="0" y="0" width="1056" height="104"></rect>
            <text id="page-title" font-family="IBMPlexSans, IBM Plex Sans" font-size="28" font-weight="normal" line-spacing="36" fill="#161616">
                <tspan x="32" y="63">Manage Sofía Díaz </tspan>
            </text>
        </g>
        <g id="breadcrumb-/-group-/-2" transform="translate(465.000000, 75.000000)">
            <text id="-/-" font-family="IBMPlexSans, IBM Plex Sans" font-size="14" font-weight="normal" line-spacing="18" letter-spacing="0.159999996" fill="#161616">
                <tspan x="45" y="17">/</tspan>
            </text>
            <g id="Spacer" transform="translate(51.000000, 0.000000)">
                <rect id="spacer" x="0" y="0" width="8" height="24"></rect>
            </g>
            <text id="Link-text" font-family="IBMPlexSans, IBM Plex Sans" font-size="14" font-weight="normal" line-spacing="18" letter-spacing="0.159999996" fill="#0F62FE">
                <tspan x="0" y="17">Users</tspan>
            </text>
        </g>
        <g id="_world-page-/-navigation-/-group-/-mixed" transform="translate(177.000000, 63.000000)">
            <rect id="background" fill="#262626" x="0" y="0" width="256" height="793"></rect>
            <g id="collapse" transform="translate(0.000000, 745.000000)">
                <rect id="background" fill="#171717" x="0" y="0" width="256" height="48"></rect>
                <g id="collapse-icon" transform="translate(208.000000, 0.000000)">
                    <rect id="background" x="0" y="0" width="48" height="48"></rect>
                    <g id="Icon" transform="translate(14.000000, 14.000000)" filter="url(#filter-3)">
                        <g>
                            <polygon id="Fill" fill="#C6C6C6" points="6.25 10 12.5 3.75 13.375 4.625 8 10 13.375 15.375 12.5 16.25"></polygon>
                        </g>
                    </g>
                </g>
            </g>
            <g id="page-link-2" transform="translate(0.000000, 114.000000)">
                <rect id="background" fill="#525252" transform="translate(128.000000, 16.000000) scale(-1, 1) translate(-128.000000, -16.000000) " x="0" y="0" width="256" height="32"></rect>
                <rect id="highlight" fill="#0F62FE" transform="translate(2.000000, 16.000000) scale(-1, 1) translate(-2.000000, -16.000000) " x="0" y="0" width="4" height="32"></rect>
                <text id="text" font-family="IBMPlexSans-SemiBold, IBM Plex Sans" font-size="14" font-weight="500" line-spacing="18" letter-spacing="0.159999996" fill="#F4F4F4">
                    <tspan x="16" y="21">Users</tspan>
                </text>
            </g>
            <g id="Group" transform="translate(0.000000, 65.000000)">
                <rect id="Background" x="0" y="0" width="256" height="17"></rect>
                <rect id="divider" fill="#525252" x="16" y="8" width="224" height="1"></rect>
            </g>
            <g id="world-name">
                <rect id="Background" fill="#262626" x="0" y="0" width="256" height="64"></rect>
                <text id="world-Name" font-family="IBMPlexSans-SemiBold, IBM Plex Sans" font-size="14" font-weight="500" line-spacing="18" letter-spacing="0.159999996" fill="#C6C6C6">
                    <tspan x="16" y="52">IAM</tspan>
                </text>
                <g id="Icon" transform="translate(16.000000, 16.000000)" fill="#525252">
                    <path d="M12,7 L11,7 L11,4 C11,2.34314575 9.65685425,1 8,1 C6.34314575,1 5,2.34314575 5,4 L5,7 L4,7 C3.44771525,7 3,7.44771525 3,8 L3,14 C3,14.5522847 3.44771525,15 4,15 L12,15 C12.5522847,15 13,14.5522847 13,14 L13,8 C13,7.44771525 12.5522847,7 12,7 Z M6,4 C6,2.8954305 6.8954305,2 8,2 C9.1045695,2 10,2.8954305 10,4 L10,7 L6,7 L6,4 Z M12,14 L4,14 L4,8 L12,8 L12,14 Z" id="Fill"></path>
                </g>
            </g>
            <rect id="Rectangle" fill="#525252" x="16" y="94" width="99" height="9"></rect>
            <rect id="Rectangle" fill="#525252" x="16" y="155" width="123" height="9"></rect>
            <rect id="Rectangle" fill="#525252" x="16" y="175" width="103" height="9"></rect>
            <rect id="Rectangle" fill="#525252" x="16" y="195" width="75" height="9"></rect>
        </g>
        <g id="card-/-large-heading-/-01-normal" transform="translate(465.000000, 538.000000)">
            <rect id="Rectangle" fill="#FFFFFF" x="0" y="0" width="988" height="240"></rect>
            <g id="tile" fill="#FFFFFF">
                <rect id="Background" x="0" y="0" width="988" height="240"></rect>
            </g>
            <g id="data-table-/-empty-state-/-group" transform="translate(13.500000, 42.000000)">
                <rect id="Rectangle-Copy-18" fill="#FFFFFF" x="1.5" y="88" width="957" height="67"></rect>
                <g id="data-table-/-row-/-48-default-/-column-header-/-default" transform="translate(1.500000, 48.000000)">
                    <rect id="background" fill="#E0E0E0" x="0" y="0" width="957" height="48"></rect>
                    <g id="column-header-6" transform="translate(797.500000, 0.000000)" fill="#E0E0E0">
                        <rect id="background" x="0" y="0" width="159.5" height="48"></rect>
                    </g>
                    <g id="column-header-5" transform="translate(638.000000, 0.000000)" fill="#E0E0E0">
                        <rect id="background" x="0" y="0" width="159.5" height="48"></rect>
                    </g>
                    <g id="column-header-4" transform="translate(478.500000, 0.000000)" fill="#E0E0E0">
                        <rect id="background" x="0" y="0" width="159.5" height="48"></rect>
                    </g>
                    <g id="column-header-3" transform="translate(319.000000, 0.000000)" fill="#E0E0E0">
                        <rect id="background" x="0" y="0" width="159.5" height="48"></rect>
                    </g>
                    <g filter="url(#filter-4)" id="column-header-2">
                        <g transform="translate(96.000000, 0.000000)">
                            <rect id="background" fill="#E0E0E0" x="0" y="0" width="294" height="48"></rect>
                            <text id="Column-header" font-family="IBMPlexSans-SemiBold, IBM Plex Sans" font-size="14" font-weight="500" line-spacing="18" letter-spacing="0.159999996" fill="#161616">
                                <tspan x="16" y="29">Column header</tspan>
                            </text>
                        </g>
                    </g>
                </g>
                <g id="data-table-/-toolbar-/-default-/-basic" transform="translate(0.500000, 0.000000)">
                    <rect id="background" fill="#FFFFFF" x="0.5" y="0" width="957" height="48"></rect>
                    <g id="Group" transform="translate(661.500000, 0.000000)">
                        <g id="filter-background">
                            <rect id="Background" x="0" y="0" width="48" height="48"></rect>
                        </g>
                        <g transform="translate(48.000000, 0.000000)" id="button-/-01-primary-/-small-/-02-text-and-icon-/-01-enabled">
                            <g id="Button">
                                <polygon id="Background" fill="#0F62FE" points="248 48 0 48 0 0 248 0"></polygon>
                                <g id="Spacer" transform="translate(184.000000, 0.000000)">
                                    <rect id="spacer" x="0" y="0" width="64" height="48"></rect>
                                </g>
                                <text id="Label" font-family="IBMPlexSans, IBM Plex Sans" font-size="14" font-weight="normal" line-spacing="18" letter-spacing="0.159999996" fill="#FFFFFF">
                                    <tspan x="16" y="29">Create IBM Cloud API key</tspan>
                                </text>
                            </g>
                            <g id="Icon" transform="translate(216.000000, 16.000000)" filter="url(#filter-5)">
                                <g>
                                    <mask id="mask-7" fill="white">
                                        <use xlink:href="#path-6"></use>
                                    </mask>
                                    <use id="icon-color" fill="#FFFFFF" xlink:href="#path-6"></use>
                                </g>
                            </g>
                        </g>
                    </g>
                </g>
            </g>
            <line x1="973.5" y1="213.5" x2="19.5" y2="213.5" id="Line" stroke="#E5E5E5" stroke-linecap="square"></line>
            <text id="card-heading" font-family="IBMPlexSans, IBM Plex Sans" font-size="20" font-weight="normal" line-spacing="28" fill="#161616">
                <tspan x="16" y="35">API keys</tspan>
            </text>
            <text id="Classic-infrastructu" font-family="IBMPlexSans, IBM Plex Sans" font-size="14" font-weight="normal" line-spacing="20" letter-spacing="0.159999996" fill="#525252">
                <tspan x="133" y="177.5">Classic infrastructure API key</tspan>
            </text>
            <rect id="Rectangle" fill="#D8D8D8" x="433" y="164" width="333" height="9"></rect>
            <rect id="Rectangle" fill="#E5E5E5" x="433" y="181" width="276" height="9"></rect>
            <g id="data-table-/-pieces-/-overflow-menu-/-open" transform="translate(792.000000, 163.500000)">
                <g id="Dropshadow" fill="black" fill-opacity="1">
                    <use filter="url(#filter-9)" xlink:href="#path-8"></use>
                </g>
                <g id="icon" transform="translate(128.000000, 0.000000)">
                    <rect id="background" fill="#FFFFFF" x="0" y="0" width="32" height="32"></rect>
                    <g id="icon-/-navigation-/-overflow-menu-/-16" transform="translate(8.000000, 8.000000)">
                        <mask id="mask-11" fill="white">
                            <use xlink:href="#path-10"></use>
                        </mask>
                        <use id="icon-color" fill="#161616" xlink:href="#path-10"></use>
                    </g>
                </g>
                <g id="Option-3" transform="translate(0.000000, 66.000000)" fill="#FFFFFF">
                    <rect id="Rectangle" x="0" y="0.5" width="160" height="34"></rect>
                </g>
                <g id="Option-1" transform="translate(0.000000, 32.000000)">
                    <rect id="Rectangle" fill="#FFFFFF" x="0" y="0" width="160" height="34"></rect>
                    <text id="Text" font-family="IBMPlexSans, IBM Plex Sans" font-size="14" font-weight="normal" line-spacing="18" letter-spacing="0.159999996" fill="#525252">
                        <tspan x="18" y="24">Details</tspan>
                    </text>
                </g>
            </g>
            <rect id="Rectangle" fill="#E5E5E5" x="810" y="242" width="71" height="9"></rect>
        </g>
        <g id="card-/-large-heading-/-01-normal" transform="translate(465.000000, 367.000000)">
            <rect id="Rectangle" fill="#FFFFFF" x="0" y="0" width="988" height="155"></rect>
            <g id="tile" fill="#FFFFFF">
                <rect id="Background" x="0" y="0" width="988" height="155"></rect>
            </g>
            <text id="card-heading" font-family="IBMPlexSans, IBM Plex Sans" font-size="20" font-weight="normal" line-spacing="28" fill="#161616">
                <tspan x="16" y="35">VPN password</tspan>
            </text>
            <text id="Label-text" font-family="IBMPlexSans, IBM Plex Sans" font-size="12" font-weight="normal" line-spacing="16" letter-spacing="0.319999993" fill="#525252">
                <tspan x="16" y="78">Username</tspan>
            </text>
            <line x1="966.5" y1="91.5" x2="15.5" y2="91.5" id="Line" stroke="#E5E5E5" stroke-linecap="square"></line>
            <text id="1234567_sofia.diaz@e" font-family="IBMPlexSans, IBM Plex Sans" font-size="14" font-weight="normal" line-spacing="20" letter-spacing="0.159999996" fill="#161616">
                <tspan x="15.5" y="116">1234567_sofia.diaz@example.com</tspan>
            </text>
            <rect id="Rectangle" fill="#E5E5E5" x="333" y="108" width="170" height="9"></rect>
            <rect id="Rectangle" fill="#E5E5E5" x="333" y="71" width="105" height="9"></rect>
        </g>
        <g id="card-/-large-heading-/-01-normal" transform="translate(465.000000, 237.500000)">
            <rect id="Rectangle" fill="#FFFFFF" x="0" y="0.5" width="988" height="113"></rect>
            <g id="tile" transform="translate(0.000000, 0.500000)" fill="#FFFFFF">
                <rect id="Background" x="0" y="0" width="988" height="113"></rect>
            </g>
            <rect id="Rectangle" fill="#D8D8D8" x="18" y="28.5" width="333" height="9"></rect>
            <rect id="Rectangle" fill="#E5E5E5" x="18" y="45.5" width="276" height="9"></rect>
        </g>
        <g id="tabs-/-default-/-group-/-3" transform="translate(465.500000, 165.500000)">
            <g id="Tab-3" transform="translate(250.000000, 0.000000)">
                <rect id="bar" fill="#E0E0E0" x="0" y="38" width="124" height="2"></rect>
                <g id="Spacer" transform="translate(109.000000, 0.000000)">
                    <rect id="spacer" x="0" y="0" width="16" height="40"></rect>
                </g>
                <rect id="Rectangle" fill="#E5E5E5" x="13.5" y="15.5" width="96" height="9"></rect>
            </g>
            <g id="Tab-2" transform="translate(125.000000, 0.000000)">
                <rect id="bar" fill="#E0E0E0" x="0" y="38" width="124" height="2"></rect>
                <g id="Spacer" transform="translate(109.000000, 0.000000)">
                    <rect id="spacer" x="0" y="0" width="16" height="40"></rect>
                </g>
                <rect id="Rectangle" fill="#E5E5E5" x="14.5" y="15.5" width="96" height="9"></rect>
            </g>
            <g id="Tab-1">
                <rect id="Bar" fill="#0F62FE" x="0" y="38" width="124" height="2"></rect>
                <text id="Tab-label" font-family="IBMPlexSans-SemiBold, IBM Plex Sans" font-size="14" font-weight="500" line-spacing="18" letter-spacing="0.159999996" fill="#161616">
                    <tspan x="16" y="26">User details</tspan>
                </text>
            </g>
        </g>
        <g id="ui-shell-/-header-/-item-/-sub-menu-/-03-menu-" transform="translate(1052.000000, 64.000000)">
            <rect id="background" fill="#262626" x="0" y="0" width="200" height="240"></rect>
            <g id="Item-4" transform="translate(0.000000, 144.000000)">
                <rect id="background" fill="#353535" x="0" y="0" width="200" height="48"></rect>
                <text id="L2-menu-item" font-family="IBMPlexSans, IBM Plex Sans" font-size="14" font-weight="normal" line-spacing="18" letter-spacing="0.159999996" fill="#F4F4F4">
                    <tspan x="16" y="28">Access (IAM)</tspan>
                </text>
            </g>
            <rect id="Rectangle" fill="#525252" x="15" y="19" width="106" height="9"></rect>
            <rect id="Rectangle" fill="#525252" x="15" y="211" width="106" height="9"></rect>
            <rect id="Rectangle" fill="#525252" x="15" y="67" width="106" height="9"></rect>
            <rect id="Rectangle" fill="#525252" x="15" y="115" width="106" height="9"></rect>
        </g>
        <g id="Group" transform="translate(1161.000000, 226.000000)">
            <g id="pointing" filter="url(#filter-12)" transform="translate(13.781250, 12.250000)">
                <path d="M5.0071875,18.80375 C4.5784375,18.2525 4.0425,17.1346875 3.1084375,15.74125 C2.5725,14.975625 1.255625,13.5209375 0.8575,12.770625 C0.570499942,12.3146656 0.487221073,11.7594731 0.6278125,11.239375 C0.868157452,10.2505073 1.80620304,9.59453135 2.8175,9.708125 C3.59966434,9.86524781 4.31846627,10.2486088 4.8846875,10.810625 C5.28002648,11.1829839 5.64367829,11.5876106 5.971875,12.0203125 C6.216875,12.3265625 6.278125,12.4490625 6.55375,12.80125 C6.829375,13.1534375 7.013125,13.505625 6.8753125,12.985 C6.768125,12.219375 6.584375,10.933125 6.3240625,9.7846875 C6.125,8.911875 6.0790625,8.7740625 5.8953125,8.115625 C5.7115625,7.4571875 5.604375,6.9059375 5.4053125,6.155625 C5.22334908,5.41843806 5.08023524,4.67220159 4.9765625,3.92 C4.78355299,2.95792183 4.92397067,1.95879602 5.3746875,1.0871875 C5.90969557,0.583972081 6.6945184,0.45115591 7.3653125,0.7503125 C8.03997599,1.24848363 8.54299897,1.94415371 8.8046875,2.7409375 C9.20597483,3.72153245 9.473784,4.75156775 9.6009375,5.8034375 C9.8459375,7.3346875 10.320625,9.5703125 10.3359375,10.0296875 C10.3359375,9.463125 10.22875,8.26875 10.3359375,7.7328125 C10.4421343,7.17409631 10.8304676,6.71041479 11.361875,6.5078125 C11.8178953,6.36789483 12.3002947,6.336434 12.770625,6.4159375 C13.2453687,6.51518686 13.6658915,6.78825365 13.9496875,7.1815625 C14.304449,8.07488302 14.5013341,9.0230401 14.5315625,9.98375 C14.5725672,9.14246055 14.7165579,8.30937126 14.9603125,7.503125 C15.2161907,7.14259097 15.5898587,6.88264799 16.016875,6.768125 C16.5230958,6.67556878 17.0419042,6.67556878 17.548125,6.768125 C17.9632384,6.90690347 18.3263691,7.16857116 18.589375,7.5184375 C18.9136487,8.33052976 19.1099423,9.18802321 19.17125,10.0603125 C19.17125,10.2746875 19.2784375,9.463125 19.6153125,8.9271875 C19.7903726,8.40747771 20.2293967,8.02063954 20.7670087,7.91239117 C21.3046206,7.8041428 21.8591444,7.99092975 22.2216962,8.40239117 C22.584248,8.81385259 22.6997476,9.38747771 22.5246875,9.9071875 C22.5246875,10.9025 22.5246875,10.8565625 22.5246875,11.5303125 C22.5246875,12.2040625 22.5246875,12.80125 22.5246875,13.3678125 C22.4688907,14.2638682 22.346047,15.1544852 22.1571875,16.0321875 C21.8907116,16.8087131 21.519809,17.5453668 21.0546875,18.221875 C20.3111857,19.0486951 19.6968583,19.9830922 19.2325,20.9934375 C19.117286,21.4953868 19.0658384,22.0098631 19.079375,22.5246875 C19.0778384,23.0003443 19.1396312,23.474089 19.263125,23.9334375 C18.6370568,23.9996217 18.0057557,23.9996217 17.3796875,23.9334375 C16.7825,23.8415625 16.0475,22.6471875 15.8484375,22.2796875 C15.7499443,22.0823593 15.5483557,21.9576742 15.3278125,21.9576742 C15.1072693,21.9576742 14.9056807,22.0823593 14.8071875,22.2796875 C14.4703125,22.8615625 13.72,23.918125 13.199375,23.979375 C12.1734375,24.101875 10.0603125,23.979375 8.39125,23.979375 C8.39125,23.979375 8.666875,22.448125 8.0390625,21.896875 C7.41125,21.345625 6.768125,20.7025 6.2934375,20.27375 L5.0071875,18.80375 Z" id="Shape" fill="#FFFFFF" fill-rule="nonzero"></path>
                <path d="M5.0071875,18.80375 C4.5784375,18.2525 4.0425,17.1346875 3.1084375,15.74125 C2.5725,14.975625 1.255625,13.5209375 0.8575,12.770625 C0.570499942,12.3146656 0.487221073,11.7594731 0.6278125,11.239375 C0.868157452,10.2505073 1.80620304,9.59453135 2.8175,9.708125 C3.59966434,9.86524781 4.31846627,10.2486088 4.8846875,10.810625 C5.28002648,11.1829839 5.64367829,11.5876106 5.971875,12.0203125 C6.216875,12.3265625 6.278125,12.4490625 6.55375,12.80125 C6.829375,13.1534375 7.013125,13.505625 6.8753125,12.985 C6.768125,12.219375 6.584375,10.933125 6.3240625,9.7846875 C6.125,8.911875 6.0790625,8.7740625 5.8953125,8.115625 C5.7115625,7.4571875 5.604375,6.9059375 5.4053125,6.155625 C5.22334908,5.41843806 5.08023524,4.67220159 4.9765625,3.92 C4.78355299,2.95792183 4.92397067,1.95879602 5.3746875,1.0871875 C5.90969557,0.583972081 6.6945184,0.45115591 7.3653125,0.7503125 C8.03997599,1.24848363 8.54299897,1.94415371 8.8046875,2.7409375 C9.20597483,3.72153245 9.473784,4.75156775 9.6009375,5.8034375 C9.8459375,7.3346875 10.320625,9.5703125 10.3359375,10.0296875 C10.3359375,9.463125 10.22875,8.26875 10.3359375,7.7328125 C10.4421343,7.17409631 10.8304676,6.71041479 11.361875,6.5078125 C11.8178953,6.36789483 12.3002947,6.336434 12.770625,6.4159375 C13.2453687,6.51518686 13.6658915,6.78825365 13.9496875,7.1815625 C14.304449,8.07488302 14.5013341,9.0230401 14.5315625,9.98375 C14.5725672,9.14246055 14.7165579,8.30937126 14.9603125,7.503125 C15.2161907,7.14259097 15.5898587,6.88264799 16.016875,6.768125 C16.5230958,6.67556878 17.0419042,6.67556878 17.548125,6.768125 C17.9632384,6.90690347 18.3263691,7.16857116 18.589375,7.5184375 C18.9136487,8.33052976 19.1099423,9.18802321 19.17125,10.0603125 C19.17125,10.2746875 19.2784375,9.463125 19.6153125,8.9271875 C19.7903726,8.40747771 20.2293967,8.02063954 20.7670087,7.91239117 C21.3046206,7.8041428 21.8591444,7.99092975 22.2216962,8.40239117 C22.584248,8.81385259 22.6997476,9.38747771 22.5246875,9.9071875 C22.5246875,10.9025 22.5246875,10.8565625 22.5246875,11.5303125 C22.5246875,12.2040625 22.5246875,12.80125 22.5246875,13.3678125 C22.4688907,14.2638682 22.346047,15.1544852 22.1571875,16.0321875 C21.8907116,16.8087131 21.519809,17.5453668 21.0546875,18.221875 C20.3111857,19.0486951 19.6968583,19.9830922 19.2325,20.9934375 C19.117286,21.4953868 19.0658384,22.0098631 19.079375,22.5246875 C19.0778384,23.0003443 19.1396312,23.474089 19.263125,23.9334375 C18.6370568,23.9996217 18.0057557,23.9996217 17.3796875,23.9334375 C16.7825,23.8415625 16.0475,22.6471875 15.8484375,22.2796875 C15.7499443,22.0823593 15.5483557,21.9576742 15.3278125,21.9576742 C15.1072693,21.9576742 14.9056807,22.0823593 14.8071875,22.2796875 C14.4703125,22.8615625 13.72,23.918125 13.199375,23.979375 C12.1734375,24.101875 10.0603125,23.979375 8.39125,23.979375 C8.39125,23.979375 8.666875,22.448125 8.0390625,21.896875 C7.41125,21.345625 6.768125,20.7025 6.2934375,20.27375 L5.0071875,18.80375 Z" id="Shape" stroke="#000000" stroke-width="0.75" stroke-linecap="round" stroke-linejoin="round"></path>
                <path d="M17.9921875,19.6396449 L17.9921875,14.3541048 C17.9921875,14.0377258 17.735101,13.78125 17.4179688,13.78125 C17.1008365,13.78125 16.84375,14.0377258 16.84375,14.3541048 L16.84375,19.6396449 C16.84375,19.9560239 17.1008365,20.2124997 17.4179688,20.2124997 C17.735101,20.2124997 17.9921875,19.9560239 17.9921875,19.6396449 Z" id="Shape" fill="#000000" fill-rule="nonzero"></path>
                <path d="M14.9603032,19.6377084 L14.9296782,14.3494536 C14.9278503,14.0338296 14.6692864,13.7794405 14.3521594,13.78125 C14.0350324,13.7830789 13.7794319,14.0404174 13.78125,14.3560414 L13.8118847,19.6442961 C13.8137126,19.9599201 14.0722765,20.2143092 14.3894035,20.2124997 C14.7065305,20.2106709 14.962131,19.9533323 14.9603032,19.6377084 Z" id="Shape" fill="#000000" fill-rule="nonzero"></path>
                <path d="M10.71875,14.3615805 L10.749385,19.6388975 C10.7512341,19.9575417 11.0098152,20.2143477 11.3269421,20.2124997 C11.644069,20.2106317 11.8996521,19.9508134 11.8978029,19.6321692 L11.8671779,14.3548522 C11.8653288,14.036208 11.6067477,13.779402 11.2896208,13.78125 C10.9724939,13.783118 10.7169108,14.0429363 10.71875,14.3615805 Z" id="Shape" fill="#000000" fill-rule="nonzero"></path>
            </g>
        </g>
        <g id="Navigation-/-1312px" transform="translate(177.000000, 16.000000)">
            <rect id="background" fill="#171717" x="0" y="0" width="1312" height="48"></rect>
            <g id="User" transform="translate(1264.000000, 0.000000)">
                <rect id="background" x="0" y="0" width="48" height="48"></rect>
                <g id="Icon" transform="translate(14.000000, 14.000000)" filter="url(#filter-13)">
                    <g>
                        <mask id="mask-15" fill="white">
                            <use xlink:href="#path-14"></use>
                        </mask>
                        <use id="icon-color" fill="#C6C6C6" xlink:href="#path-14"></use>
                    </g>
                </g>
            </g>
            <g id="cost-estimator" transform="translate(1216.000000, 0.000000)">
                <rect id="background" x="0" y="0" width="48" height="48"></rect>
                <g id="Icon" transform="translate(14.000000, 14.000000)" filter="url(#filter-16)">
                    <g>
                        <path d="M17.9375,12.6875 L16.25,11 L16.25,8.125 C16.2458533,4.91102718 13.8207808,2.21650217 10.625,1.875 L10.625,0.625 L9.375,0.625 L9.375,1.875 C6.19027615,2.2380563 3.77674244,4.91976043 3.75,8.125 L3.75,11 L2.0625,12.6875 C1.93904716,12.7989101 1.8705364,12.9587686 1.875,13.125 L1.875,15 C1.86382379,15.1689394 1.92607409,15.3344873 2.04579337,15.4542066 C2.16551265,15.5739259 2.33106065,15.6361762 2.5,15.625 L6.875,15.625 C6.875,17.3508898 8.27411016,18.75 10,18.75 C11.7258898,18.75 13.125,17.3508898 13.125,15.625 L17.5,15.625 C17.6689394,15.6361762 17.8344873,15.5739259 17.9542066,15.4542066 C18.0739259,15.3344873 18.1361762,15.1689394 18.125,15 L18.125,13.125 C18.1294636,12.9587686 18.0609528,12.7989101 17.9375,12.6875 L17.9375,12.6875 Z M10,17.5 C8.96446609,17.5 8.125,16.6605339 8.125,15.625 L11.875,15.625 C11.875,16.6605339 11.0355339,17.5 10,17.5 L10,17.5 Z M16.875,14.375 L3.125,14.375 L3.125,13.375 L4.8125,11.6875 C4.93595284,11.5760899 5.0044636,11.4162314 5,11.25 L5,8.125 C5,5.36357625 7.23857625,3.125 10,3.125 C12.7614237,3.125 15,5.36357625 15,8.125 L15,11.25 C14.9955364,11.4162314 15.0640472,11.5760899 15.1875,11.6875 L16.875,13.375 L16.875,14.375 Z" id="Fill" fill="#C6C6C6"></path>
                    </g>
                </g>
            </g>
            <g id="terminal" transform="translate(1168.000000, 0.000000)">
                <rect id="background" x="0" y="0" width="48" height="48"></rect>
                <g id="Icon" transform="translate(14.000000, 14.000000)" filter="url(#filter-17)">
                    <g>
                        <path d="M16.25,2.5 L16.25,17.5 L3.75,17.5 L3.75,2.5 L16.25,2.5 L16.25,2.5 Z M16.25,1.25 L3.75,1.25 C3.05964406,1.25 2.5,1.80964406 2.5,2.5 L2.5,17.5 C2.5,18.1903559 3.05964406,18.75 3.75,18.75 L16.25,18.75 C16.9403559,18.75 17.5,18.1903559 17.5,17.5 L17.5,2.5 C17.5,1.80964406 16.9403559,1.25 16.25,1.25 Z M5.625,14.375 L6.875,14.375 L6.875,15.625 L5.625,15.625 L5.625,14.375 Z M13.125,14.375 L14.375,14.375 L14.375,15.625 L13.125,15.625 L13.125,14.375 Z M5.625,11.25 L6.875,11.25 L6.875,12.5 L5.625,12.5 L5.625,11.25 Z M13.125,11.25 L14.375,11.25 L14.375,12.5 L13.125,12.5 L13.125,11.25 Z M5.625,8.125 L6.875,8.125 L6.875,9.375 L5.625,9.375 L5.625,8.125 Z M9.375,14.375 L10.625,14.375 L10.625,15.625 L9.375,15.625 L9.375,14.375 Z M9.375,11.25 L10.625,11.25 L10.625,12.5 L9.375,12.5 L9.375,11.25 Z M9.375,8.125 L10.625,8.125 L10.625,9.375 L9.375,9.375 L9.375,8.125 Z M13.125,8.125 L14.375,8.125 L14.375,9.375 L13.125,9.375 L13.125,8.125 Z M5.625,4.375 L14.375,4.375 L14.375,6.25 L5.625,6.25 L5.625,4.375 Z" id="Fill" fill="#C6C6C6"></path>
                    </g>
                </g>
            </g>
            <g id="account-switcher-(placeholder)-copy-2" transform="translate(1120.000000, 0.000000)">
                <rect id="background" x="0" y="0" width="48" height="48"></rect>
                <g id="Icon" transform="translate(14.000000, 14.000000)" filter="url(#filter-18)">
                    <g>
                        <path d="M16.25,2.50625 L3.75,2.50625 C3.05964406,2.50625 2.5,3.06589406 2.5,3.75625 L2.5,16.25625 C2.5,16.9466059 3.05964406,17.50625 3.75,17.50625 L16.25,17.50625 C16.9403559,17.50625 17.5,16.9466059 17.5,16.25625 L17.5,3.75625 C17.5,3.06589406 16.9403559,2.50625 16.25,2.50625 Z M16.25,3.75625 L16.25,6.25625 L3.75,6.25625 L3.75,3.75625 L16.25,3.75625 Z M3.75,16.25625 L3.75,7.50625 L16.25,7.50625 L16.25,16.25625 L3.75,16.25625 Z M6.725,10.1125 L8.4875,11.88125 L6.725,13.65 L7.60625,14.53125 L10.25625,11.88125 L7.60625,9.23125 L6.725,10.1125 L6.725,10.1125 Z" id="Fill" fill="#C6C6C6"></path>
                    </g>
                </g>
            </g>
            <g id="manage" transform="translate(875.000000, 0.000000)">
                <rect id="background" x="0" y="0" width="83" height="48"></rect>
                <g id="Spacer" transform="translate(67.000000, 0.000000)">
                    <rect id="spacer" x="0" y="0" width="16" height="48"></rect>
                </g>
                <text id="Link" font-family="IBMPlexSans, IBM Plex Sans" font-size="14" font-weight="normal" line-spacing="18" letter-spacing="0.159999996" fill="#C6C6C6">
                    <tspan x="16" y="29">Manage</tspan>
                </text>
            </g>
            <g id="Actions-/-Navigation-/-chevron--down-/-20" transform="translate(948.000000, 14.000000)" fill="#C6C6C6">
                <polygon id="Fill" points="10 13.75 3.75 7.5 4.625 6.625 10 12 15.375 6.625 16.25 7.5"></polygon>
            </g>
            <g id="Actions-/-Navigation-/-chevron--down-/-20" transform="translate(1100.000000, 14.000000)" fill="#C6C6C6">
                <polygon id="Fill" points="10 13.75 3.75 7.5 4.625 6.625 10 12 15.375 6.625 16.25 7.5"></polygon>
            </g>
            <rect id="Rectangle-Copy" fill="#393939" x="294" y="0" width="352" height="48"></rect>
            <g id="search" transform="translate(598.000000, 0.000000)">
                <rect id="background" x="0" y="0" width="48" height="48"></rect>
                <g id="Icon" transform="translate(14.000000, 14.000000)" filter="url(#filter-19)">
                    <g>
                        <path d="M18.125,17.2411875 L13.4049375,12.521125 C15.7611113,9.69244599 15.4756484,5.510841 12.7569179,3.02860722 C10.0381874,0.546373439 5.84793173,0.641593278 3.2447625,3.2447625 C0.641593278,5.84793173 0.546373439,10.0381874 3.02860722,12.7569179 C5.510841,15.4756484 9.69244599,15.7611113 12.521125,13.4049375 L17.2411875,18.125 L18.125,17.2411875 Z M2.5,8.125 C2.5,5.01839828 5.01839828,2.5 8.125,2.5 C11.2316017,2.5 13.75,5.01839828 13.75,8.125 C13.75,11.2316017 11.2316017,13.75 8.125,13.75 C5.01982614,13.7465555 2.50344446,11.2301739 2.5,8.125 Z" id="Fill" fill="#C6C6C6"></path>
                    </g>
                </g>
            </g>
            <line x1="149.5" y1="12" x2="149.5" y2="36" id="Line" stroke="#3D3D3D" stroke-linecap="square"></line>
            <g id="Group" transform="translate(48.840000, 18.640000)" fill="#F4F4F4" fill-rule="nonzero">
                <path d="M35.102,10.528 C36.852,10.528 38.014,9.674 38.714,8.218 L37.216,7.336 C36.894,8.218 36.208,8.89 35.102,8.89 C33.73,8.89 32.848,7.938 32.848,6.258 L32.848,4.718 C32.848,3.052 33.73,2.058 35.102,2.058 C36.194,2.058 36.81,2.646 37.09,3.514 L38.672,2.674 C37.986,1.162 36.852,0.42 35.102,0.42 C32.526,0.42 30.888,2.254 30.888,5.544 C30.888,8.834 32.526,10.528 35.102,10.528 Z M43.102,10.36 L43.102,8.932 L42.136,8.932 L42.136,1.0658141e-14 L40.344,1.0658141e-14 L40.344,8.596 C40.344,9.716 40.918,10.36 42.136,10.36 L43.102,10.36 Z M47.518,10.528 C49.618,10.528 50.92,9.044 50.92,6.692 C50.92,4.354 49.618,2.884 47.518,2.884 C45.432,2.884 44.13,4.354 44.13,6.692 C44.13,9.044 45.432,10.528 47.518,10.528 Z M47.518,9.086 C46.594,9.086 46.006,8.484 46.006,7.378 L46.006,6.02 C46.006,4.928 46.594,4.326 47.518,4.326 C48.456,4.326 49.044,4.928 49.044,6.02 L49.044,7.378 C49.044,8.484 48.456,9.086 47.518,9.086 Z M54.916,10.528 C56.12,10.528 56.708,9.87 56.96,9.142 L57.03,9.142 L57.03,10.36 L58.822,10.36 L58.822,3.052 L57.03,3.052 L57.03,7.882 C57.03,8.666 56.316,9.044 55.602,9.044 C54.748,9.044 54.37,8.498 54.37,7.49 L54.37,3.052 L52.578,3.052 L52.578,7.672 C52.578,9.492 53.418,10.528 54.916,10.528 Z M63.504,10.528 C64.47,10.528 65.254,9.968 65.52,9.142 L65.59,9.142 L65.59,10.36 L67.382,10.36 L67.382,1.0658141e-14 L65.59,1.0658141e-14 L65.59,4.256 L65.52,4.256 C65.268,3.416 64.47,2.884 63.504,2.884 C61.67,2.884 60.648,4.256 60.648,6.692 C60.648,9.142 61.67,10.528 63.504,10.528 Z M64.078,9.044 C63.154,9.044 62.524,8.372 62.524,7.336 L62.524,6.076 C62.524,5.04 63.154,4.354 64.078,4.354 C64.932,4.354 65.59,4.816 65.59,5.53 L65.59,7.854 C65.59,8.61 64.932,9.044 64.078,9.044 Z" id="Cloud"></path>
                <path d="M3.92,10.36 L3.92,9.38 L2.548,9.38 L2.548,1.568 L3.92,1.568 L3.92,0.588 L-2.13162821e-14,0.588 L-2.13162821e-14,1.568 L1.372,1.568 L1.372,9.38 L-2.13162821e-14,9.38 L-2.13162821e-14,10.36 L3.92,10.36 Z M10.66,10.36 C12.102,10.36 13.18,9.142 13.18,7.532 C13.18,5.908 11.962,5.306 11.262,5.264 L11.262,5.18 C11.906,5.082 12.844,4.564 12.844,3.108 C12.844,1.582 11.85,0.588 10.24,0.588 L6.222,0.588 L6.222,10.36 L10.66,10.36 Z M10.1,4.816 L7.398,4.816 L7.398,1.624 L10.1,1.624 C11.024,1.624 11.584,2.114 11.584,2.982 L11.584,3.458 C11.584,4.326 11.024,4.816 10.1,4.816 Z M10.296,9.324 L7.398,9.324 L7.398,5.824 L10.296,5.824 C11.304,5.824 11.92,6.356 11.92,7.336 L11.92,7.812 C11.92,8.792 11.304,9.324 10.296,9.324 Z M16.672,10.36 L16.672,2.142 L16.742,2.142 L17.568,3.766 L19.892,8.022 L22.23,3.766 L23.056,2.128 L23.126,2.128 L23.126,10.36 L24.274,10.36 L24.274,0.588 L22.734,0.588 L19.92,5.852 L19.864,5.852 L17.064,0.588 L15.524,0.588 L15.524,10.36 L16.672,10.36 Z" id="IBM"></path>
            </g>
            <g id="menu">
                <rect id="background" x="0" y="0" width="48" height="48"></rect>
                <g id="Icon" transform="translate(14.000000, 14.000000)" filter="url(#filter-20)">
                    <g>
                        <path d="M2,14.8 L18,14.8 L18,16 L2,16 L2,14.8 Z M2,11.2 L18,11.2 L18,12.4 L2,12.4 L2,11.2 Z M2,7.6 L18,7.6 L18,8.8 L2,8.8 L2,7.6 Z M2,4 L18,4 L18,5.2 L2,5.2 L2,4 Z" id="Fill" fill="#FFFFFF"></path>
                    </g>
                </g>
            </g>
            <rect id="Rectangle" fill="#525252" x="662" y="20" width="50" height="9"></rect>
            <rect id="Rectangle" fill="#525252" x="737" y="20" width="50" height="9"></rect>
            <rect id="Rectangle" fill="#525252" x="812" y="20" width="50" height="9"></rect>
            <rect id="Rectangle" fill="#525252" x="985" y="20" width="106" height="9"></rect>
        </g>
    </g>
</svg>