<?xml version="1.0" encoding="UTF-8"?>
<svg width="1370px" height="620px" viewBox="0 0 1370 620" version="1.1" xmlns="http://www.w3.org/2000/svg" xmlns:xlink="http://www.w3.org/1999/xlink">
    <title>engine-required</title>
    <defs>
        <rect id="path-1" x="30" y="22" width="1312" height="602"></rect>
        <filter x="-1.1%" y="-2.1%" width="102.2%" height="104.8%" filterUnits="objectBoundingBox" id="filter-2">
            <feMorphology radius="0.5" operator="dilate" in="SourceAlpha" result="shadowSpreadOuter1"></feMorphology>
            <feOffset dx="0" dy="2" in="shadowSpreadOuter1" result="shadowOffsetOuter1"></feOffset>
            <feGaussianBlur stdDeviation="4" in="shadowOffsetOuter1" result="shadowBlurOuter1"></feGaussianBlur>
            <feColorMatrix values="0 0 0 0 0   0 0 0 0 0   0 0 0 0 0  0 0 0 0.5 0" type="matrix" in="shadowBlurOuter1"></feColorMatrix>
        </filter>
        <filter id="filter-3">
            <feColorMatrix in="SourceGraphic" type="matrix" values="0 0 0 0 1.000000 0 0 0 0 1.000000 0 0 0 0 1.000000 0 0 0 1.000000 0"></feColorMatrix>
        </filter>
        <polygon id="path-4" points="8.5 7.5 8.5 3.5 7.5 3.5 7.5 7.5 3.5 7.5 3.5 8.5 7.5 8.5 7.5 12.5 8.5 12.5 8.5 8.5 12.5 8.5 12.5 7.5"></polygon>
        <path d="M10,2.5 C11.7258898,2.5 13.125,3.89911016 13.125,5.625 C13.125,7.35088984 11.7258898,8.75 10,8.75 C8.27411016,8.75 6.875,7.35088984 6.875,5.625 C6.87696323,3.89992401 8.27492401,2.50196323 10,2.5 L10,2.5 Z M10,1.25 C7.58375422,1.25 5.625,3.20875422 5.625,5.625 C5.625,8.04124578 7.58375422,10 10,10 C12.4162458,10 14.375,8.04124578 14.375,5.625 C14.375,3.20875422 12.4162458,1.25 10,1.25 Z M16.25,18.75 L15,18.75 L15,15.625 C14.997968,13.8999525 13.6000475,12.502032 11.875,12.5 L8.125,12.5 C6.39995252,12.502032 5.00203196,13.8999525 5,15.625 L5,18.75 L3.75,18.75 L3.75,15.625 C3.75282413,13.209925 5.70992498,11.2528241 8.125,11.25 L11.875,11.25 C14.290075,11.2528241 16.2471759,13.209925 16.25,15.625 L16.25,18.75 Z" id="path-6"></path>
        <path d="M8,1 C4.13400675,1 1,4.13400675 1,8 C1,11.8659932 4.13400675,15 8,15 C11.8659932,15 15,11.8659932 15,8 C15,6.14348457 14.2625021,4.36300718 12.9497475,3.05025253 C11.6369928,1.73749788 9.85651543,1 8,1 Z" id="path-8"></path>
        <filter x="-20.8%" y="-19.5%" width="142.0%" height="139.0%" filterUnits="objectBoundingBox" id="filter-10">
            <feOffset dx="0" dy="1" in="SourceAlpha" result="shadowOffsetOuter1"></feOffset>
            <feGaussianBlur stdDeviation="0.4" in="shadowOffsetOuter1" result="shadowBlurOuter1"></feGaussianBlur>
            <feColorMatrix values="0 0 0 0 0   0 0 0 0 0   0 0 0 0 0  0 0 0 0.5 0" type="matrix" in="shadowBlurOuter1" result="shadowMatrixOuter1"></feColorMatrix>
            <feMerge>
                <feMergeNode in="shadowMatrixOuter1"></feMergeNode>
                <feMergeNode in="SourceGraphic"></feMergeNode>
            </feMerge>
        </filter>
    </defs>
    <g id="engine-required" stroke="none" stroke-width="1" fill="none" fill-rule="evenodd">
        <rect fill="#F3F3F3" opacity="0" x="0" y="0" width="1370" height="620"></rect>
        <g id="Rectangle">
            <use fill="black" fill-opacity="1" filter="url(#filter-2)" xlink:href="#path-1"></use>
            <use fill="#F4F4F4" fill-rule="evenodd" xlink:href="#path-1"></use>
        </g>
        <g id="Data-table" transform="translate(302.000000, 175.000000)">
            <g id="pagination-/-table-bar-/-advanced" transform="translate(0.000000, 266.000000)">
                <rect id="Rectangle" fill="#FFFFFF" x="0" y="0" width="1008" height="49"></rect>
                <polygon id="top-line" fill="#E0E0E0" transform="translate(504.000000, 0.500000) rotate(-270.000000) translate(-504.000000, -0.500000) " points="503.5 -503.5 504.5 -503.5 504.5 504.5 503.5 504.5"></polygon>
                <text id="of-40-pages" font-family="IBMPlexSans, IBM Plex Sans" font-size="14" font-weight="normal" line-spacing="18" letter-spacing="0.159999996" fill="#161616">
                    <tspan x="819" y="30">of 1 pages</tspan>
                </text>
                <text id="12" font-family="IBMPlexSans, IBM Plex Sans" font-size="14" font-weight="normal" line-spacing="18" letter-spacing="0.159999996" fill="#161616">
                    <tspan x="769" y="30">1</tspan>
                </text>
                <text id="1-–-100-of-1,228-items" font-family="IBMPlexSans, IBM Plex Sans" font-size="14" font-weight="normal" line-spacing="18" letter-spacing="0.159999996" fill="#393939">
                    <tspan x="209" y="30">1 – 2 of 2 items</tspan>
                </text>
                <text id="Number-of-items" font-family="IBMPlexSans, IBM Plex Sans" font-size="14" font-weight="normal" line-spacing="18" letter-spacing="0.159999996" fill="#161616">
                    <tspan x="126" y="30">100</tspan>
                </text>
                <text id="Items-per-page:" font-family="IBMPlexSans, IBM Plex Sans" font-size="14" font-weight="normal" line-spacing="18" letter-spacing="0.159999996" fill="#161616">
                    <tspan x="16" y="30">Items per page:</tspan>
                </text>
                <rect id="Fourth-divider" fill="#E0E0E0" x="959" y="0" width="1" height="49"></rect>
                <rect id="Third-divider" fill="#E0E0E0" x="910" y="0" width="1" height="49"></rect>
                <rect id="Second-divider" fill="#E0E0E0" x="752" y="0" width="1" height="49"></rect>
                <rect id="First-divider" fill="#E0E0E0" x="192" y="0" width="1" height="49"></rect>
                <g id="icon-/-navigation-/-caret-/-left-/-20" transform="translate(925.000000, 15.000000)" fill="#161616">
                    <polygon id="Fill" points="11.875 14.375 6.875 10 11.875 5.625"></polygon>
                </g>
                <g id="icon-/-navigation-/-caret-/-right-/-20" transform="translate(974.000000, 15.000000)" fill="#161616">
                    <polygon id="Fill" points="8.125 5.625 13.125 10 8.125 14.375"></polygon>
                </g>
                <g id="icon-/-navigation-/-chevron-/-down-/-20" transform="translate(791.000000, 15.000000)" fill="#161616">
                    <polygon id="Fill" points="10 13.75 3.75 7.5 4.625 6.625 10 12 15.375 6.625 16.25 7.5"></polygon>
                </g>
                <g id="icon-/-navigation-/-chevron-/-down-/-20" transform="translate(156.000000, 15.000000)" fill="#161616">
                    <polygon id="Fill" points="10 13.75 3.75 7.5 4.625 6.625 10 12 15.375 6.625 16.25 7.5"></polygon>
                </g>
            </g>
            <g id="overflow-menu" transform="translate(943.000000, 121.000000)">
                <g id="data-table-/-column-header">
                    <rect id="background" fill="#E0E0E0" x="0" y="0" width="66" height="48"></rect>
                    <text id="Column-header" font-family="IBMPlexSans-SemiBold, IBM Plex Sans" font-size="14" font-weight="500" line-spacing="18" letter-spacing="0.159999996"></text>
                </g>
                <g id="Row-2" transform="translate(0.000000, 96.000000)">
                    <rect id="background" fill="#FFFFFF" x="0" y="0" width="66" height="48"></rect>
                    <rect id="rule" fill="#E0E0E0" x="0" y="0" width="66" height="1"></rect>
                    <g id="icon-button-3" transform="translate(26.000000, 8.000000)">
                        <rect id="Background" x="0" y="0" width="32" height="32"></rect>
                        <g id="Icon" transform="translate(8.000000, 8.000000)" fill="#161616">
                            <path d="M8,4 C8.55228475,4 9,3.55228475 9,3 C9,2.44771525 8.55228475,2 8,2 C7.44771525,2 7,2.44771525 7,3 C7,3.55228475 7.44771525,4 8,4 Z M8,9 C8.55228475,9 9,8.55228475 9,8 C9,7.44771525 8.55228475,7 8,7 C7.44771525,7 7,7.44771525 7,8 C7,8.55228475 7.44771525,9 8,9 Z M8,14 C8.55228475,14 9,13.5522847 9,13 C9,12.4477153 8.55228475,12 8,12 C7.44771525,12 7,12.4477153 7,13 C7,13.5522847 7.44771525,14 8,14 Z" id="Fill"></path>
                        </g>
                    </g>
                    <g id="icon-button-1" transform="translate(-38.000000, 8.000000)">
                        <rect id="Background" x="0" y="0" width="32" height="32"></rect>
                    </g>
                </g>
                <g id="Row-1" transform="translate(0.000000, 48.000000)">
                    <rect id="background" fill="#FFFFFF" x="0" y="0" width="66" height="48"></rect>
                    <rect id="rule" fill="#E0E0E0" x="0" y="0" width="66" height="1"></rect>
                    <g id="icon-button-3" transform="translate(26.000000, 8.000000)">
                        <rect id="Background" x="0" y="0" width="32" height="32"></rect>
                        <g id="Icon" transform="translate(8.000000, 8.000000)" fill="#161616">
                            <path d="M8,4 C8.55228475,4 9,3.55228475 9,3 C9,2.44771525 8.55228475,2 8,2 C7.44771525,2 7,2.44771525 7,3 C7,3.55228475 7.44771525,4 8,4 Z M8,9 C8.55228475,9 9,8.55228475 9,8 C9,7.44771525 8.55228475,7 8,7 C7.44771525,7 7,7.44771525 7,8 C7,8.55228475 7.44771525,9 8,9 Z M8,14 C8.55228475,14 9,13.5522847 9,13 C9,12.4477153 8.55228475,12 8,12 C7.44771525,12 7,12.4477153 7,13 C7,13.5522847 7.44771525,14 8,14 Z" id="Fill"></path>
                        </g>
                    </g>
                    <g id="icon-button-1" transform="translate(-6.000000, 8.000000)">
                        <rect id="Background" x="0" y="0" width="32" height="32"></rect>
                    </g>
                </g>
            </g>
            <g id="column-4" transform="translate(707.000000, 121.000000)">
                <g id="data-table-/-column-header">
                    <rect id="background" fill="#E0E0E0" x="0" y="0" width="236" height="48"></rect>
                    <text id="Column-header" font-family="IBMPlexSans-SemiBold, IBM Plex Sans" font-size="14" font-weight="500" line-spacing="18" letter-spacing="0.159999996" fill="#161616">
                        <tspan x="16" y="29">Created</tspan>
                    </text>
                </g>
                <g id="Row-2" transform="translate(0.000000, 96.000000)">
                    <rect id="background" fill="#FFFFFF" x="0" y="0" width="236" height="48"></rect>
                    <rect id="rule" fill="#E0E0E0" x="0" y="0" width="236" height="1"></rect>
                    <text id="cell-text" font-family="IBMPlexSans, IBM Plex Sans" font-size="14" font-weight="normal" line-spacing="18" letter-spacing="0.159999996" fill="#393939">
                        <tspan x="16" y="29">cell text</tspan>
                    </text>
                </g>
                <g id="Row-2" transform="translate(0.000000, 48.000000)">
                    <rect id="background" fill="#FFFFFF" x="0" y="0" width="236" height="48"></rect>
                    <rect id="rule" fill="#E0E0E0" x="0" y="0" width="236" height="1"></rect>
                    <text id="cell-text" font-family="IBMPlexSans, IBM Plex Sans" font-size="14" font-weight="normal" line-spacing="18" letter-spacing="0.159999996" fill="#393939">
                        <tspan x="16" y="29">cell text</tspan>
                    </text>
                </g>
            </g>
            <g id="column-3" transform="translate(471.000000, 121.000000)">
                <g id="data-table-/-column-header">
                    <rect id="background" fill="#E0E0E0" x="0" y="0" width="236" height="48"></rect>
                    <text id="Column-header" font-family="IBMPlexSans-SemiBold, IBM Plex Sans" font-size="14" font-weight="500" line-spacing="18" letter-spacing="0.159999996" fill="#161616">
                        <tspan x="16" y="29">Description</tspan>
                    </text>
                </g>
                <g id="Row-2" transform="translate(0.000000, 96.000000)">
                    <rect id="background" fill="#FFFFFF" x="0" y="0" width="236" height="48"></rect>
                    <rect id="rule" fill="#E0E0E0" x="0" y="0" width="236" height="1"></rect>
                    <text id="cell-text" font-family="IBMPlexSans, IBM Plex Sans" font-size="14" font-weight="normal" line-spacing="18" letter-spacing="0.159999996" fill="#393939">
                        <tspan x="16" y="29">cell text</tspan>
                    </text>
                </g>
                <g id="Row-2" transform="translate(0.000000, 48.000000)">
                    <rect id="background" fill="#FFFFFF" x="0" y="0" width="236" height="48"></rect>
                    <rect id="rule" fill="#E0E0E0" x="0" y="0" width="236" height="1"></rect>
                    <text id="cell-text" font-family="IBMPlexSans, IBM Plex Sans" font-size="14" font-weight="normal" line-spacing="18" letter-spacing="0.159999996" fill="#393939">
                        <tspan x="16" y="29">cell text</tspan>
                    </text>
                </g>
            </g>
            <g id="column-2" transform="translate(236.000000, 121.000000)">
                <g id="data-table-/-column-header">
                    <rect id="background" fill="#E0E0E0" x="0" y="0" width="235" height="48"></rect>
                    <text id="Column-header" font-family="IBMPlexSans-SemiBold, IBM Plex Sans" font-size="14" font-weight="500" line-spacing="18" letter-spacing="0.159999996" fill="#161616">
                        <tspan x="16" y="29">Type</tspan>
                    </text>
                </g>
                <g id="Row-2" transform="translate(0.000000, 96.000000)">
                    <rect id="background" fill="#FFFFFF" x="0" y="0" width="235" height="48"></rect>
                    <rect id="rule" fill="#E0E0E0" x="0" y="0" width="235" height="1"></rect>
                    <text id="cell-text" font-family="IBMPlexSans, IBM Plex Sans" font-size="14" font-weight="normal" line-spacing="18" letter-spacing="0.159999996" fill="#393939">
                        <tspan x="16" y="29">IAM credentials</tspan>
                    </text>
                </g>
                <g id="Row-1" transform="translate(0.000000, 48.000000)">
                    <rect id="background" fill="#FFFFFF" x="0" y="0" width="235" height="48"></rect>
                    <rect id="rule" fill="#E0E0E0" x="0" y="0" width="235" height="1"></rect>
                    <text id="cell-text" font-family="IBMPlexSans, IBM Plex Sans" font-size="14" font-weight="normal" line-spacing="18" letter-spacing="0.159999996" fill="#393939">
                        <tspan x="16" y="29">Arbitrary secret</tspan>
                    </text>
                </g>
            </g>
            <g id="column-1" transform="translate(0.000000, 121.000000)">
                <g id="data-table-/-column-header">
                    <rect id="background" fill="#E0E0E0" x="0" y="0" width="236" height="48"></rect>
                    <text id="Column-header" font-family="IBMPlexSans-SemiBold, IBM Plex Sans" font-size="14" font-weight="500" line-spacing="18" letter-spacing="0.159999996" fill="#161616">
                        <tspan x="16" y="29">Name</tspan>
                    </text>
                </g>
                <g id="Row-2" transform="translate(0.000000, 96.000000)">
                    <rect id="background" fill="#FFFFFF" x="0" y="0" width="236" height="48"></rect>
                    <rect id="rule" fill="#E0E0E0" x="0" y="0" width="236" height="1"></rect>
                    <text id="cell-text" font-family="IBMPlexSans, IBM Plex Sans" font-size="14" font-weight="normal" line-spacing="18" letter-spacing="0.159999996" fill="#393939">
                        <tspan x="16" y="29">cell text</tspan>
                    </text>
                </g>
                <g id="Row-2" transform="translate(0.000000, 48.000000)">
                    <rect id="background" fill="#FFFFFF" x="0" y="0" width="236" height="48"></rect>
                    <rect id="rule" fill="#E0E0E0" x="0" y="0" width="236" height="1"></rect>
                    <text id="cell-text" font-family="IBMPlexSans, IBM Plex Sans" font-size="14" font-weight="normal" line-spacing="18" letter-spacing="0.159999996" fill="#393939">
                        <tspan x="16" y="29">cell text</tspan>
                    </text>
                </g>
            </g>
            <g id="data-table-/-toolbar-/-default-/-basic-/-_-1056px-+" transform="translate(0.000000, 74.000000)">
                <rect id="background" fill="#FFFFFF" x="0" y="0" width="982" height="48"></rect>
                <g id="search-/-default-/-01-enabled">
                    <rect id="Field-color" fill="#FFFFFF" x="0" y="0" width="664" height="48"></rect>
                    <rect id="bottom-border" x="0" y="47" width="664" height="1"></rect>
                    <g id="Spacer" transform="translate(616.000000, 0.000000)">
                        <rect id="spacer" x="0" y="0" width="48" height="48"></rect>
                    </g>
                    <text id="Placeholder-text" font-family="IBMPlexSans, IBM Plex Sans" font-size="14" font-weight="normal" line-spacing="18" letter-spacing="0.159999996" fill="#A8A8A8">
                        <tspan x="48" y="29">Search...</tspan>
                    </text>
                    <g id="icon-/-image-/-search-/-16" transform="translate(16.000000, 16.000000)" fill="#525252">
                        <path d="M15,14.3 L10.7,10 C12.6,7.7 12.3,4.2 10,2.3 C7.7,0.4 4.2,0.7 2.3,3 C0.4,5.3 0.7,8.8 3,10.7 C5,12.4 8,12.4 10,10.7 L14.3,15 L15,14.3 Z M2,6.5 C2,4 4,2 6.5,2 C9,2 11,4 11,6.5 C11,9 9,11 6.5,11 C4,11 2,9 2,6.5 Z" id="Fill"></path>
                    </g>
                </g>
                <g id="Group" transform="translate(709.352206, 0.000000)">
                    <g id="Filter">
                        <g id="filter-background">
                            <rect id="Background" x="0" y="0" width="48" height="48"></rect>
                        </g>
                        <g id="Filter-icon" transform="translate(16.000000, 16.000000)" fill="#161616">
                            <path d="M9,14 L7,14 C6.44771525,14 6,13.5522847 6,13 L6,9.205 L2.295,5.5 C2.10720611,5.31332485 2.00111639,5.05978842 2,4.795 L2,3 C2,2.44771525 2.44771525,2 3,2 L13,2 C13.5522847,2 14,2.44771525 14,3 L14,4.795 C13.9988836,5.05978842 13.8927939,5.31332485 13.705,5.5 L10,9.205 L10,13 C10,13.5522847 9.55228475,14 9,14 Z M3,3 L3,4.795 L7,8.795 L7,13 L9,13 L9,8.795 L13,4.795 L13,3 L3,3 Z" id="Fill"></path>
                        </g>
                    </g>
                    <g transform="translate(48.000000, 0.000000)" id="download">
                        <rect id="Background" x="0" y="0" width="48" height="48"></rect>
                        <g id="Icon" transform="translate(16.000000, 16.000000)" fill="#161616">
                            <path d="M13,12 L13,14 L3,14 L3,12 L2,12 L2,14 L2,14 C2,14.5522847 2.44771525,15 3,15 L13,15 C13.5522847,15 14,14.5522847 14,14 L14,14 L14,12 L13,12 Z M13,7 L12.295,6.295 L8.5,10.085 L8.5,1 L7.5,1 L7.5,10.085 L3.705,6.295 L3,7 L8,12 L13,7 L13,7 Z" id="Fill"></path>
                        </g>
                    </g>
                    <g transform="translate(96.000000, 0.000000)" id="refresh">
                        <rect id="Background" x="0" y="0" width="48" height="48"></rect>
                        <g id="Icon" transform="translate(16.000000, 16.000000)" fill="#161616">
                            <path d="M6,5 L3.39,5 C4.71806723,2.9589652 7.2301519,2.03417266 9.56461657,2.72689214 C11.8990812,3.41961163 13.500155,5.56492596 13.5,8 L14.5,8 C14.5028208,5.26026146 12.7874438,2.81290339 10.211088,1.88093466 C7.63473212,0.948965933 4.75061284,1.73250624 3,3.84 L3,2 L2,2 L2,6 L6,6 L6,5 Z M9.99999653,11 L12.61,11 C11.2819328,13.0410348 8.7698481,13.9658273 6.43538343,13.2731079 C4.10091875,12.5803884 2.49984502,10.435074 2.49999653,8 L1.49999653,8 C1.49717924,10.7397385 3.21255615,13.1870966 5.78891202,14.1190653 C8.36526788,15.0510341 11.2493872,14.2674938 12.9999965,12.16 L12.9999965,14 L13.9999965,14 L13.9999965,10 L9.99999653,10 L9.99999653,11 Z" id="Fill"></path>
                        </g>
                    </g>
                    <g transform="translate(144.000000, 0.000000)" id="settings">
                        <rect id="Background" x="0" y="0" width="48" height="48"></rect>
                        <g id="Icon" transform="translate(16.000000, 16.000000)" fill="#161616">
                            <path d="M13.5,8.38 C13.5,8.255 13.5,8.13 13.5,8 C13.5,7.87 13.5,7.745 13.5,7.615 L14.46,6.775 C14.8253604,6.45297065 14.9055936,5.91456366 14.65,5.5 L13.47,3.5 C13.2915505,3.19091596 12.9618992,3.00036607 12.605,3 C12.496325,2.99916743 12.3882411,3.01605556 12.285,3.05 L11.07,3.46 C10.86023,3.32060369 10.6414129,3.1953267 10.415,3.085 L10.16,1.825 C10.0656315,1.34988423 9.64430803,1.01071882 9.16,1.02 L6.82,1.02 C6.33569197,1.01071882 5.91436848,1.34988423 5.82,1.825 L5.565,3.085 C5.33696654,3.19530002 5.11648454,3.32057388 4.905,3.46 L3.715,3.03 C3.61064857,3.00281178 3.50258649,2.99268097 3.395,3 C3.03810081,3.00036607 2.7084495,3.19091596 2.53,3.5 L1.35,5.5 C1.10930024,5.91350678 1.19523212,6.43957758 1.555,6.755 L2.5,7.62 C2.5,7.745 2.5,7.87 2.5,8 C2.5,8.13 2.5,8.255 2.5,8.385 L1.555,9.225 C1.18462534,9.54299553 1.0979728,10.081932 1.35,10.5 L2.53,12.5 C2.7084495,12.809084 3.03810081,12.9996339 3.395,13 C3.50367496,13.0008326 3.61175894,12.9839444 3.715,12.95 L4.93,12.54 C5.13976998,12.6793963 5.35858712,12.8046733 5.585,12.915 L5.84,14.175 C5.93436848,14.6501158 6.35569197,14.9892812 6.84,14.98 L9.2,14.98 C9.68430803,14.9892812 10.1056315,14.6501158 10.2,14.175 L10.455,12.915 C10.6830335,12.8047 10.9035155,12.6794261 11.115,12.54 L12.325,12.95 C12.4282411,12.9839444 12.536325,13.0008326 12.645,13 C13.0018992,12.9996339 13.3315505,12.809084 13.51,12.5 L14.65,10.5 C14.8906998,10.0864932 14.8047679,9.56042242 14.445,9.245 L13.5,8.38 Z M12.605,12 L10.89,11.42 C10.4885323,11.760054 10.0296984,12.0258729 9.535,12.205 L9.18,14 L6.82,14 L6.465,12.225 C5.97421082,12.0407889 5.51785894,11.7754287 5.115,11.44 L3.395,12 L2.215,10 L3.575,8.8 C3.48254845,8.28242948 3.48254845,7.75257052 3.575,7.235 L2.215,6 L3.395,4 L5.11,4.58 C5.51146769,4.23994595 5.97030156,3.97412707 6.465,3.795 L6.82,2 L9.18,2 L9.535,3.775 C10.0257892,3.9592111 10.4821411,4.22457127 10.885,4.56 L12.605,4 L13.785,6 L12.425,7.2 C12.5174516,7.71757052 12.5174516,8.24742948 12.425,8.765 L13.785,10 L12.605,12 Z M8,11 C6.34314575,11 5,9.65685425 5,8 C5,6.34314575 6.34314575,5 8,5 C9.65685425,5 11,6.34314575 11,8 C11.0081032,8.79810602 10.6946355,9.56588494 10.1302602,10.1302602 C9.56588494,10.6946355 8.79810602,11.0081032 8,11 Z M8,6 C7.46584954,5.98755672 6.94987987,6.19427211 6.57207599,6.57207599 C6.19427211,6.94987987 5.98755672,7.46584954 6,8 C5.98755672,8.53415046 6.19427211,9.05012013 6.57207599,9.42792401 C6.94987987,9.80572789 7.46584954,10.0124433 8,10 C8.53415046,10.0124433 9.05012013,9.80572789 9.42792401,9.42792401 C9.80572789,9.05012013 10.0124433,8.53415046 10,8 C10.0124433,7.46584954 9.80572789,6.94987987 9.42792401,6.57207599 C9.05012013,6.19427211 8.53415046,5.98755672 8,6 Z" id="Fill"></path>
                        </g>
                    </g>
                    <g transform="translate(192.000000, 0.000000)" id="button-/-01-primary-/-small-/-02-text-and-icon-/-01-enabled">
                        <g id="Button">
                            <polygon id="Background" fill="#0F62FE" points="108 48 0 48 0 0 108 0"></polygon>
                            <g id="Spacer" transform="translate(44.000000, 0.000000)">
                                <rect id="spacer" x="0" y="0" width="64" height="48"></rect>
                            </g>
                            <text id="Label" font-family="IBMPlexSans, IBM Plex Sans" font-size="14" font-weight="normal" line-spacing="18" letter-spacing="0.159999996" fill="#FFFFFF">
                                <tspan x="16" y="29">Add</tspan>
                            </text>
                        </g>
                        <g id="Icon" transform="translate(76.000000, 16.000000)" filter="url(#filter-3)">
                            <g>
                                <mask id="mask-5" fill="white">
                                    <use xlink:href="#path-4"></use>
                                </mask>
                                <use id="icon-color" fill="#FFFFFF" xlink:href="#path-4"></use>
                            </g>
                        </g>
                    </g>
                </g>
            </g>
            <g id="data-table-/-Title">
                <rect id="background" fill="#F4F4F4" x="0" y="0" width="1008" height="66"></rect>
                <text id="Title" font-family="IBMPlexSans, IBM Plex Sans" font-size="20" font-weight="normal" line-spacing="28" fill="#161616">
                    <tspan x="16" y="36">Secrets</tspan>
                </text>
            </g>
        </g>
        <g id="_resource-detail-page-/-02-navigation-/-group" transform="translate(30.000000, 175.000000)">
            <rect id="background" fill="#F4F4F4" x="2.84217094e-14" y="0" width="256" height="688"></rect>
            <g id="page-link-2" transform="translate(0.000000, 48.000000)">
                <rect id="background" fill="#E0E0E0" transform="translate(128.000000, 16.000000) scale(-1, 1) translate(-128.000000, -16.000000) " x="0" y="0" width="256" height="32"></rect>
                <rect id="highlight" fill="#0F62FE" transform="translate(2.000000, 16.000000) scale(-1, 1) translate(-2.000000, -16.000000) " x="0" y="0" width="4" height="32"></rect>
                <text id="text" font-family="IBMPlexSans-SemiBold, IBM Plex Sans" font-size="14" font-weight="500" line-spacing="18" letter-spacing="0.159999996" fill="#161616">
                    <tspan x="32" y="21">Secrets</tspan>
                </text>
            </g>
        </g>
        <g id="_resource-detail-page-/-01-header-/-no-action-/-running-/-672+" transform="translate(30.000000, 71.000000)">
            <rect id="Rectangle" fill="#F3F3F3" x="0" y="0" width="1008" height="104"></rect>
            <g id="header-buttons" transform="translate(755.000000, 32.000000)">
                <g id="action" transform="translate(93.000000, 0.000000)">
                    <g id="Button">
                        <path d="M128.5,0.5 L128.5,39.5 L0.5,39.5 L0.5,0.5 L128.5,0.5 Z" id="Background" stroke="#0F62FE"></path>
                        <g id="Spacer" transform="translate(65.000000, 0.000000)">
                            <rect id="spacer" x="0" y="0" width="64" height="40"></rect>
                        </g>
                        <text id="Label" font-family="IBMPlexSans, IBM Plex Sans" font-size="14" font-weight="normal" line-spacing="18" letter-spacing="0.159999996" fill="#0F62FE">
                            <tspan x="16" y="25">Actions</tspan>
                        </text>
                    </g>
                    <g id="Icon" transform="translate(97.000000, 12.000000)" fill="#000000">
                        <polygon id="Fill" points="8 11 3 6 3.7 5.3 8 9.6 12.3 5.3 13 6"></polygon>
                    </g>
                </g>
                <g id="details">
                    <rect id="Background" x="0" y="0" width="77" height="40"></rect>
                    <g id="Spacer" transform="translate(61.000000, 0.000000)">
                        <rect id="spacer" x="0" y="0" width="16" height="40"></rect>
                    </g>
                    <text id="Label" font-family="IBMPlexSans, IBM Plex Sans" font-size="14" font-weight="normal" line-spacing="18" letter-spacing="0.159999996" fill="#0F62FE">
                        <tspan x="16" y="25">Details</tspan>
                    </text>
                </g>
            </g>
            <g id="Group" transform="translate(31.936634, 32.000000)">
                <g transform="translate(403.000000, 10.000000)">
                    <rect id="Background" x="0" y="0" width="32" height="32"></rect>
                    <g transform="translate(8.000000, 8.000000)" fill="#161616" id="Icon">
                        <path d="M1,13 L15,13 L15,14 L1,14 L1,13 Z M12.7,4.5 C13.1,4.1 13.1,3.5 12.7,3.1 L10.9,1.3 C10.5,0.9 9.9,0.9 9.5,1.3 L2,8.8 L2,12 L5.2,12 L12.7,4.5 Z M10.2,2 L12,3.8 L10.5,5.3 L8.7,3.5 L10.2,2 Z M3,11 L3,9.2 L8,4.2 L9.8,6 L4.8,11 L3,11 Z" id="Fill"></path>
                    </g>
                </g>
                <g transform="translate(356.000000, 14.000000)" id="tag-/-01-default-/-blue-/-01-enabled-copy">
                    <path d="M12,0 L27,0 C33.627417,5.58920087e-16 39,5.372583 39,12 C39,18.627417 33.627417,24 27,24 L12,24 C5.372583,24 2.58798134e-15,18.627417 0,12 C9.64732338e-16,5.372583 5.372583,2.99379359e-15 12,0 Z" id="Tag-color" fill="#D0E2FF"></path>
                    <g id="Spacer" transform="translate(31.000000, 0.000000)">
                        <rect id="spacer" x="0" y="0" width="8" height="24"></rect>
                    </g>
                    <text id="Label-text" font-family="IBMPlexSans, IBM Plex Sans" font-size="12" font-weight="normal" line-spacing="16" letter-spacing="0.319999993" fill="#0043CE">
                        <tspan x="8" y="16">test</tspan>
                    </text>
                </g>
                <g transform="translate(280.000000, 16.000000)" id="status">
                    <text id="01-running" font-family="IBMPlexSans, IBM Plex Sans" font-size="14" font-weight="normal" line-spacing="18" letter-spacing="0.159999996" fill="#161616">
                        <tspan x="20" y="14">Active</tspan>
                    </text>
                    <g id="status" transform="translate(0.000000, 1.000000)">
                        <path d="M8,1 C4.1,1 1,4.1 1,8 C1,11.9 4.1,15 8,15 C11.9,15 15,11.9 15,8 C15,4.1 11.9,1 8,1 Z M7,11 L4.3,8.3 L5.2,7.5 L7,9.3 L11,5.4 L11.9,6.2 L7,11 Z" id="Fill" fill="#24A148"></path>
                        <polygon id="Inner-Fill" fill="#FFFFFF" points="7 11 4.3 8.3 5.2 7.5 7 9.3 11 5.4 11.9 6.2"></polygon>
                    </g>
                </g>
                <text id="title" font-family="IBMPlexSans, IBM Plex Sans" font-size="28" font-weight="normal" line-spacing="40" fill="#161616">
                    <tspan x="0" y="29">my-secrets-manager</tspan>
                </text>
            </g>
            <g id="breadcrumb" transform="translate(32.000000, 13.000000)">
                <g id="Spacer" transform="translate(212.000000, 0.000000)">
                    <rect id="spacer" x="0" y="0" width="8" height="24"></rect>
                </g>
                <text id="-/-" font-family="IBMPlexSans, IBM Plex Sans" font-size="14" font-weight="normal" line-spacing="18" letter-spacing="0.159999996" fill="#161616">
                    <tspan x="92" y="17">/</tspan>
                </text>
                <g id="Spacer" transform="translate(98.000000, 0.000000)">
                    <rect id="spacer" x="0" y="0" width="8" height="24"></rect>
                </g>
                <text id="Breadcrumb-1" font-family="IBMPlexSans, IBM Plex Sans" font-size="14" font-weight="normal" line-spacing="18" letter-spacing="0.159999996" fill="#0F62FE">
                    <tspan x="0" y="17">Resource list</tspan>
                </text>
            </g>
        </g>
        <g id="global-nav" transform="translate(30.000000, 22.000000)">
            <rect id="background" fill="#171717" x="0" y="0" width="1312" height="48"></rect>
            <g id="User" transform="translate(1264.000000, 0.000000)">
                <rect id="background" x="0" y="0" width="48" height="48"></rect>
                <g id="Icon" transform="translate(14.000000, 14.000000)">
                    <mask id="mask-7" fill="white">
                        <use xlink:href="#path-6"></use>
                    </mask>
                    <use id="icon-color" fill="#C6C6C6" xlink:href="#path-6"></use>
                </g>
            </g>
            <g id="cost-estimator" transform="translate(1216.000000, 0.000000)">
                <rect id="background" x="0" y="0" width="48" height="48"></rect>
                <g id="Icon" transform="translate(14.000000, 14.000000)" fill="#C6C6C6">
                    <path d="M17.9375,12.6875 L16.25,11 L16.25,8.125 C16.2458533,4.91102718 13.8207808,2.21650217 10.625,1.875 L10.625,0.625 L9.375,0.625 L9.375,1.875 C6.19027615,2.2380563 3.77674244,4.91976043 3.75,8.125 L3.75,11 L2.0625,12.6875 C1.93904716,12.7989101 1.8705364,12.9587686 1.875,13.125 L1.875,15 C1.86382379,15.1689394 1.92607409,15.3344873 2.04579337,15.4542066 C2.16551265,15.5739259 2.33106065,15.6361762 2.5,15.625 L6.875,15.625 C6.875,17.3508898 8.27411016,18.75 10,18.75 C11.7258898,18.75 13.125,17.3508898 13.125,15.625 L17.5,15.625 C17.6689394,15.6361762 17.8344873,15.5739259 17.9542066,15.4542066 C18.0739259,15.3344873 18.1361762,15.1689394 18.125,15 L18.125,13.125 C18.1294636,12.9587686 18.0609528,12.7989101 17.9375,12.6875 L17.9375,12.6875 Z M10,17.5 C8.96446609,17.5 8.125,16.6605339 8.125,15.625 L11.875,15.625 C11.875,16.6605339 11.0355339,17.5 10,17.5 L10,17.5 Z M16.875,14.375 L3.125,14.375 L3.125,13.375 L4.8125,11.6875 C4.93595284,11.5760899 5.0044636,11.4162314 5,11.25 L5,8.125 C5,5.36357625 7.23857625,3.125 10,3.125 C12.7614237,3.125 15,5.36357625 15,8.125 L15,11.25 C14.9955364,11.4162314 15.0640472,11.5760899 15.1875,11.6875 L16.875,13.375 L16.875,14.375 Z" id="Fill"></path>
                </g>
            </g>
            <g id="terminal" transform="translate(1168.000000, 0.000000)">
                <rect id="background" x="0" y="0" width="48" height="48"></rect>
                <g id="Icon" transform="translate(14.000000, 14.000000)" fill="#C6C6C6">
                    <path d="M16.25,2.5 L16.25,17.5 L3.75,17.5 L3.75,2.5 L16.25,2.5 L16.25,2.5 Z M16.25,1.25 L3.75,1.25 C3.05964406,1.25 2.5,1.80964406 2.5,2.5 L2.5,17.5 C2.5,18.1903559 3.05964406,18.75 3.75,18.75 L16.25,18.75 C16.9403559,18.75 17.5,18.1903559 17.5,17.5 L17.5,2.5 C17.5,1.80964406 16.9403559,1.25 16.25,1.25 Z M5.625,14.375 L6.875,14.375 L6.875,15.625 L5.625,15.625 L5.625,14.375 Z M13.125,14.375 L14.375,14.375 L14.375,15.625 L13.125,15.625 L13.125,14.375 Z M5.625,11.25 L6.875,11.25 L6.875,12.5 L5.625,12.5 L5.625,11.25 Z M13.125,11.25 L14.375,11.25 L14.375,12.5 L13.125,12.5 L13.125,11.25 Z M5.625,8.125 L6.875,8.125 L6.875,9.375 L5.625,9.375 L5.625,8.125 Z M9.375,14.375 L10.625,14.375 L10.625,15.625 L9.375,15.625 L9.375,14.375 Z M9.375,11.25 L10.625,11.25 L10.625,12.5 L9.375,12.5 L9.375,11.25 Z M9.375,8.125 L10.625,8.125 L10.625,9.375 L9.375,9.375 L9.375,8.125 Z M13.125,8.125 L14.375,8.125 L14.375,9.375 L13.125,9.375 L13.125,8.125 Z M5.625,4.375 L14.375,4.375 L14.375,6.25 L5.625,6.25 L5.625,4.375 Z" id="Fill"></path>
                </g>
            </g>
            <g id="account-switcher-(placeholder)-copy-2" transform="translate(1120.000000, 0.000000)">
                <rect id="background" x="0" y="0" width="48" height="48"></rect>
                <g id="Icon" transform="translate(14.000000, 14.000000)" fill="#C6C6C6">
                    <path d="M16.25,2.50625 L3.75,2.50625 C3.05964406,2.50625 2.5,3.06589406 2.5,3.75625 L2.5,16.25625 C2.5,16.9466059 3.05964406,17.50625 3.75,17.50625 L16.25,17.50625 C16.9403559,17.50625 17.5,16.9466059 17.5,16.25625 L17.5,3.75625 C17.5,3.06589406 16.9403559,2.50625 16.25,2.50625 Z M16.25,3.75625 L16.25,6.25625 L3.75,6.25625 L3.75,3.75625 L16.25,3.75625 Z M3.75,16.25625 L3.75,7.50625 L16.25,7.50625 L16.25,16.25625 L3.75,16.25625 Z M6.725,10.1125 L8.4875,11.88125 L6.725,13.65 L7.60625,14.53125 L10.25625,11.88125 L7.60625,9.23125 L6.725,10.1125 L6.725,10.1125 Z" id="Fill"></path>
                </g>
            </g>
            <g id="Actions-/-Navigation-/-chevron--down-/-20" transform="translate(948.000000, 14.000000)" fill="#C6C6C6">
                <polygon id="Fill" points="10 13.75 3.75 7.5 4.625 6.625 10 12 15.375 6.625 16.25 7.5"></polygon>
            </g>
            <g id="Actions-/-Navigation-/-chevron--down-/-20" transform="translate(1100.000000, 14.000000)" fill="#C6C6C6">
                <polygon id="Fill" points="10 13.75 3.75 7.5 4.625 6.625 10 12 15.375 6.625 16.25 7.5"></polygon>
            </g>
            <rect id="Rectangle-Copy" fill="#393939" x="294" y="0" width="352" height="48"></rect>
            <g id="search" transform="translate(598.000000, 0.000000)">
                <rect id="background" x="0" y="0" width="48" height="48"></rect>
                <g id="Icon" transform="translate(14.000000, 14.000000)" fill="#C6C6C6">
                    <path d="M18.75,17.86875 L14.03125,13.125 C16.374581,10.2976003 16.0821769,6.1277481 13.3671855,3.65505497 C10.6521942,1.18236184 6.47324054,1.27990068 3.87657061,3.87657061 C1.27990068,6.47324054 1.18236184,10.6521942 3.65505497,13.3671855 C6.1277481,16.0821769 10.2976003,16.374581 13.125,14.03125 L17.86875,18.75 L18.75,17.86875 Z M3.125,8.75 C3.125,5.64339828 5.64339828,3.125 8.75,3.125 C11.8566017,3.125 14.375,5.64339828 14.375,8.75 C14.375,11.8566017 11.8566017,14.375 8.75,14.375 C5.64339828,14.375 3.125,11.8566017 3.125,8.75 Z" id="Fill"></path>
                </g>
            </g>
            <line x1="149.5" y1="12" x2="149.5" y2="36" id="Line" stroke="#3D3D3D" stroke-linecap="square"></line>
            <g id="Group" transform="translate(48.840000, 18.640000)" fill="#F4F4F4" fill-rule="nonzero">
                <path d="M35.102,10.528 C36.852,10.528 38.014,9.674 38.714,8.218 L37.216,7.336 C36.894,8.218 36.208,8.89 35.102,8.89 C33.73,8.89 32.848,7.938 32.848,6.258 L32.848,4.718 C32.848,3.052 33.73,2.058 35.102,2.058 C36.194,2.058 36.81,2.646 37.09,3.514 L38.672,2.674 C37.986,1.162 36.852,0.42 35.102,0.42 C32.526,0.42 30.888,2.254 30.888,5.544 C30.888,8.834 32.526,10.528 35.102,10.528 Z M43.102,10.36 L43.102,8.932 L42.136,8.932 L42.136,1.0658141e-14 L40.344,1.0658141e-14 L40.344,8.596 C40.344,9.716 40.918,10.36 42.136,10.36 L43.102,10.36 Z M47.518,10.528 C49.618,10.528 50.92,9.044 50.92,6.692 C50.92,4.354 49.618,2.884 47.518,2.884 C45.432,2.884 44.13,4.354 44.13,6.692 C44.13,9.044 45.432,10.528 47.518,10.528 Z M47.518,9.086 C46.594,9.086 46.006,8.484 46.006,7.378 L46.006,6.02 C46.006,4.928 46.594,4.326 47.518,4.326 C48.456,4.326 49.044,4.928 49.044,6.02 L49.044,7.378 C49.044,8.484 48.456,9.086 47.518,9.086 Z M54.916,10.528 C56.12,10.528 56.708,9.87 56.96,9.142 L57.03,9.142 L57.03,10.36 L58.822,10.36 L58.822,3.052 L57.03,3.052 L57.03,7.882 C57.03,8.666 56.316,9.044 55.602,9.044 C54.748,9.044 54.37,8.498 54.37,7.49 L54.37,3.052 L52.578,3.052 L52.578,7.672 C52.578,9.492 53.418,10.528 54.916,10.528 Z M63.504,10.528 C64.47,10.528 65.254,9.968 65.52,9.142 L65.59,9.142 L65.59,10.36 L67.382,10.36 L67.382,1.0658141e-14 L65.59,1.0658141e-14 L65.59,4.256 L65.52,4.256 C65.268,3.416 64.47,2.884 63.504,2.884 C61.67,2.884 60.648,4.256 60.648,6.692 C60.648,9.142 61.67,10.528 63.504,10.528 Z M64.078,9.044 C63.154,9.044 62.524,8.372 62.524,7.336 L62.524,6.076 C62.524,5.04 63.154,4.354 64.078,4.354 C64.932,4.354 65.59,4.816 65.59,5.53 L65.59,7.854 C65.59,8.61 64.932,9.044 64.078,9.044 Z" id="Cloud"></path>
                <path d="M3.92,10.36 L3.92,9.38 L2.548,9.38 L2.548,1.568 L3.92,1.568 L3.92,0.588 L-2.13162821e-14,0.588 L-2.13162821e-14,1.568 L1.372,1.568 L1.372,9.38 L-2.13162821e-14,9.38 L-2.13162821e-14,10.36 L3.92,10.36 Z M10.66,10.36 C12.102,10.36 13.18,9.142 13.18,7.532 C13.18,5.908 11.962,5.306 11.262,5.264 L11.262,5.18 C11.906,5.082 12.844,4.564 12.844,3.108 C12.844,1.582 11.85,0.588 10.24,0.588 L6.222,0.588 L6.222,10.36 L10.66,10.36 Z M10.1,4.816 L7.398,4.816 L7.398,1.624 L10.1,1.624 C11.024,1.624 11.584,2.114 11.584,2.982 L11.584,3.458 C11.584,4.326 11.024,4.816 10.1,4.816 Z M10.296,9.324 L7.398,9.324 L7.398,5.824 L10.296,5.824 C11.304,5.824 11.92,6.356 11.92,7.336 L11.92,7.812 C11.92,8.792 11.304,9.324 10.296,9.324 Z M16.672,10.36 L16.672,2.142 L16.742,2.142 L17.568,3.766 L19.892,8.022 L22.23,3.766 L23.056,2.128 L23.126,2.128 L23.126,10.36 L24.274,10.36 L24.274,0.588 L22.734,0.588 L19.92,5.852 L19.864,5.852 L17.064,0.588 L15.524,0.588 L15.524,10.36 L16.672,10.36 Z" id="IBM"></path>
            </g>
            <g id="menu">
                <rect id="background" x="0" y="0" width="48" height="48"></rect>
                <g id="Icon" transform="translate(14.000000, 14.000000)" fill="#FFFFFF">
                    <path d="M2,14.8 L18,14.8 L18,16 L2,16 L2,14.8 Z M2,11.2 L18,11.2 L18,12.4 L2,12.4 L2,11.2 Z M2,7.6 L18,7.6 L18,8.8 L2,8.8 L2,7.6 Z M2,4 L18,4 L18,5.2 L2,5.2 L2,4 Z" id="Fill"></path>
                </g>
            </g>
            <rect id="Rectangle" fill="#525252" x="662" y="20" width="50" height="9"></rect>
            <rect id="Rectangle" fill="#525252" x="737" y="20" width="50" height="9"></rect>
            <rect id="Rectangle" fill="#525252" x="812" y="20" width="50" height="9"></rect>
            <rect id="Rectangle" fill="#525252" x="886" y="20" width="50" height="9"></rect>
            <rect id="Rectangle" fill="#525252" x="985" y="20" width="106" height="9"></rect>
        </g>
        <g id="Skeleton" transform="translate(60.000000, 196.000000)">
            <rect id="Rectangle" fill="#D8D8D8" x="0" y="7" width="106" height="9"></rect>
            <rect id="Rectangle" fill="#FFFFFF" x="254" y="260" width="143" height="24"></rect>
            <rect id="Rectangle" fill="#FFFFFF" x="289" y="65" width="143" height="24"></rect>
            <rect id="Rectangle" fill="#FFFFFF" x="254" y="162" width="143" height="24"></rect>
            <rect id="Rectangle" fill="#F4F4F4" x="251" y="0" width="143" height="24"></rect>
            <rect id="Rectangle" fill="#E0E0E0" x="254" y="114" width="143" height="24"></rect>
            <rect id="Rectangle" fill="#FFFFFF" x="254" y="209" width="143" height="24"></rect>
            <rect id="Rectangle" fill="#D8D8D8" x="260" y="265" width="125" height="9"></rect>
            <rect id="Rectangle" fill="#D8D8D8" x="260" y="7" width="125" height="9"></rect>
            <rect id="Rectangle" fill="#E5E5E5" x="260" y="215" width="125" height="9"></rect>
            <rect id="Rectangle" fill="#E5E5E5" x="260" y="169" width="125" height="9"></rect>
            <rect id="Rectangle" fill="#D8D8D8" x="260" y="120" width="125" height="9"></rect>
            <rect id="Rectangle" fill="#E5E5E5" x="0" y="72" width="89" height="9"></rect>
            <rect id="Rectangle" fill="#E5E5E5" x="0" y="96" width="72" height="9"></rect>
            <rect id="Rectangle" fill="#E5E5E5" x="0" y="120" width="72" height="9"></rect>
        </g>
        <g id="Side-panel" transform="translate(30.000000, 69.000000)">
            <rect id="overlay-panel" fill-opacity="0.5" fill="#161616" x="0" y="0" width="1312" height="794"></rect>
            <rect id="side-panel-background" fill="#FFFFFF" x="319" y="0" width="992" height="794"></rect>
            <g id="Group" transform="translate(352.000000, 184.000000)">
                <g id="tile-/-selectable-/-01-enabled" fill="#F4F4F4">
                    <rect id="Background" x="0" y="0" width="449" height="138"></rect>
                </g>
                <g id="secure--profile" transform="translate(16.000000, 19.000000)">
                    <path d="M32.540625,35.7398437 L32.540625,32.9442188 C32.0160938,32.7403125 31.640625,32.236875 31.640625,31.640625 C31.640625,30.864375 32.270625,30.234375 33.046875,30.234375 C33.823125,30.234375 34.453125,30.864375 34.453125,31.640625 C34.453125,32.236875 34.0790625,32.7403125 33.553125,32.9442188 L33.553125,35.7398437 C33.553125,36.0196875 33.3267187,36.2460938 33.046875,36.2460938 C32.7670313,36.2460938 32.540625,36.0196875 32.540625,35.7398437 Z M44.1,22.5 L44.1,43.59375 C44.1,43.8735938 43.8735937,44.1 43.59375,44.1 L22.5,44.1 C22.2201563,44.1 21.99375,43.8735937 21.99375,43.59375 L21.99375,26.71875 L23.00625,26.71875 L23.00625,43.0875 L43.0875,43.0875 L43.0875,23.00625 L1.40625,23.00625 C1.12640625,23.00625 0.9,22.7798438 0.9,22.5 L0.9,1.40625 C0.9,1.12640625 1.12640625,0.9 1.40625,0.9 L22.5,0.9 C22.7798438,0.9 23.00625,1.12640625 23.00625,1.40625 L23.00625,18.28125 L21.99375,18.28125 L21.99375,1.9125 L1.9125,1.9125 L1.9125,21.99375 L5.11875,21.99375 L5.11875,18.2826563 C5.11875,15.5742188 6.7584375,13.1371875 9.208125,12.0571875 C8.4065625,11.30625 7.93546875,10.2557813 7.93546875,9.140625 C7.93546875,6.92296875 9.7396875,5.11875 11.9573438,5.11875 C14.175,5.11875 15.9792188,6.92296875 15.9792188,9.140625 C15.9792188,10.2571875 15.508125,11.3090625 14.70375,12.0585938 C17.150625,13.1414062 18.7875,15.5770312 18.7875,18.2826563 L18.7875,21.99375 L27.61875,21.99375 L27.61875,16.171875 C27.61875,13.179375 30.0529688,10.74375 33.0454688,10.74375 C36.039375,10.74375 38.475,13.1779688 38.475,16.171875 L38.4735938,21.99375 L43.59375,21.99375 C43.8735938,21.99375 44.1,22.2201563 44.1,22.5 Z M17.775,18.2826563 C17.775,15.699375 16.0171875,13.4029687 13.4985938,12.6998437 C13.3003125,12.6435937 13.1554688,12.4748437 13.1315625,12.2695313 C13.1076562,12.065625 13.2117187,11.8673438 13.3917188,11.7689063 C14.3620312,11.2359375 14.9667188,10.2290625 14.9667188,9.140625 C14.9667188,7.48125 13.6167187,6.13125 11.9573438,6.13125 C10.2979688,6.13125 8.94796875,7.48125 8.94796875,9.140625 C8.94796875,10.2276563 9.55125,11.2345313 10.5215625,11.7675 C10.7015625,11.8659375 10.8042188,12.0642188 10.7803125,12.2695313 C10.755,12.4734375 10.6101563,12.6435937 10.411875,12.6984375 C7.891875,13.4001563 6.13125,15.6965625 6.13125,18.2826563 L6.13125,21.99375 L17.775,21.99375 C17.775,21.99375 17.775,18.2826563 17.775,18.2826563 Z M37.4625,16.171875 C37.4625,13.7376562 35.4825,11.75625 33.046875,11.75625 C30.61125,11.75625 28.63125,13.7376562 28.63125,16.171875 L28.63125,21.99375 L37.4596875,21.99375 L37.4625,16.171875 Z" id="secure--profile_1_" fill="#000000" fill-rule="nonzero"></path>
                    <rect id="_Transparent_Rectangle" x="0" y="0" width="45" height="45"></rect>
                </g>
            </g>
            <g id="Group" transform="translate(816.000000, 184.000000)">
                <g id="tile-/-selectable-/-01-enabled" fill="#F4F4F4">
                    <rect id="Background" x="0" y="0" width="449" height="138"></rect>
                </g>
                <text id="IAM-credentials" font-family="IBMPlexSans-SemiBold, IBM Plex Sans" font-size="14" font-weight="500" line-spacing="18" letter-spacing="0.159999996" fill="#161616">
                    <tspan x="96" y="34">IAM credentials</tspan>
                </text>
                <text id="Create-a-dynamic-ser" font-family="IBMPlexSans, IBM Plex Sans" font-size="14" font-weight="normal" line-spacing="20" letter-spacing="0.159999996" fill="#161616">
                    <tspan x="96" y="53.234375">Create a dynamic service ID and API key to </tspan>
                    <tspan x="96" y="73.234375">access IBM Cloud resources.</tspan>
                </text>
                <g id="apiKey" transform="translate(19.000000, 23.000000)">
                    <path d="M43,29.6065574 L0,29.6065574 L0,0 L43,0 L43,29.6065574 Z M0,33.8360656 L43,33.8360656 M0,4.2295082 L43,4.2295082 M0,38.0655738 L43,38.0655738 M0,42.295082 L43,42.295082" id="Shape" stroke="#000000" stroke-linejoin="round"></path>
                    <path d="M40,2.5 C40,2.8 39.72,3 39.3,3 C38.88,3 38.6,2.8 38.6,2.5 C38.6,2.2 38.88,2 39.3,2 C39.72,2 40,2.2 40,2.5 Z M36.5,2 C36.08,2 35.8,2.2 35.8,2.5 C35.8,2.8 36.08,3 36.5,3 C36.92,3 37.2,2.8 37.2,2.5 C37.2,2.2 36.92,2 36.5,2 Z M33.7,2 C33.28,2 33,2.2 33,2.5 C33,2.8 33.28,3 33.7,3 C34.12,3 34.4,2.8 34.4,2.5 C34.4,2.2 34.12,2 33.7,2 Z" id="Shape" fill="#000000" fill-rule="nonzero"></path>
                    <path d="M4,9.71428571 L13,9.71428571 M4,14 L13,14 M4,18.2857143 L13,18.2857143" id="Shape" stroke="#000000" stroke-linejoin="round"></path>
                </g>
            </g>
            <g id="Group" transform="translate(352.000000, 338.000000)">
                <g id="tile-/-selectable-/-01-enabled" transform="translate(464.491247, 0.000000)" fill="#F4F4F4">
                    <rect id="Background" x="0" y="0" width="448.508753" height="138"></rect>
                </g>
                <rect id="Background" fill="#F4F4F4" x="0" y="0" width="448.508753" height="138"></rect>
                <g id="certificateIcon" transform="translate(23.973742, 22.000000)" stroke="#000000" stroke-linecap="round" stroke-linejoin="round">
                    <polyline id="Path" points="11.2376915 16.03125 13.6257009 18.421875 19.6659601 12.515625"></polyline>
                    <path d="M30.9036515,15.46875 C30.9036515,24.046875 24.0205655,30.9375 15.4518258,30.9375 C6.88308602,30.9375 0,24.046875 0,15.46875 C0,6.890625 6.88308602,0 15.4518258,0 C24.0205655,0 30.9036515,6.890625 30.9036515,15.46875 Z" id="do_not_1_"></path>
                    <polyline id="Path" points="22.4753829 29.53125 22.4753829 45 15.4518258 37.96875 8.4282686 45 8.4282686 29.53125"></polyline>
                    <path d="M27.1109307,15.46875 C27.1109307,21.9375 21.9134984,27.140625 15.4518258,27.140625 C8.99015317,27.140625 3.79272087,21.9375 3.79272087,15.46875 C3.79272087,9 8.99015317,3.796875 15.4518258,3.796875 C21.9134984,3.796875 27.1109307,9 27.1109307,15.46875 Z" id="do_not_2_"></path>
                </g>
            </g>
            <g id="Group" transform="translate(447.000000, 358.000000)">
                <g id="customSecret" transform="translate(387.000000, 4.000000)">
                    <g id="lock_alt" transform="translate(25.170732, 17.829268)">
                        <g id="lock_1_" transform="translate(4.719512, 0.000000)">
                            <ellipse id="Oval" fill="#000000" fill-rule="nonzero" cx="4.40487805" cy="18.446198" rx="1.25853659" ry="1.28321377"></ellipse>
                            <path d="M8.8097561,11.0677188 L8.8097561,4.97245337 C8.8097561,2.56642755 6.92195122,0.641606887 4.56219512,0.641606887 C2.20243902,0.641606887 0.314634146,2.56642755 0.314634146,4.97245337 L0.314634146,11.0677188 M4.40487805,18.446198 L4.40487805,21.4938307" id="Shape" stroke="#000000" stroke-linecap="round" stroke-linejoin="round"></path>
                        </g>
                        <rect id="Rectangle" stroke="#000000" stroke-linecap="round" stroke-linejoin="round" x="0.629268293" y="11.0677188" width="17.147561" height="15.7193687"></rect>
                    </g>
                    <g id="web_developer_2_">
                        <path d="M31.6922395,3.73890244 C31.6922395,4.22658537 31.368071,4.55170732 30.8818182,4.55170732 C30.3955654,4.55170732 30.0713969,4.22658537 30.0713969,3.73890244 C30.0713969,3.25121951 30.3955654,2.92609756 30.8818182,2.92609756 C31.368071,2.92609756 31.6922395,3.41378049 31.6922395,3.73890244 Z M27.640133,2.92609756 C27.1538803,2.92609756 26.8297118,3.25121951 26.8297118,3.73890244 C26.8297118,4.22658537 27.1538803,4.55170732 27.640133,4.55170732 C28.1263858,4.55170732 28.4505543,4.22658537 28.4505543,3.73890244 C28.4505543,3.41378049 28.1263858,2.92609756 27.640133,2.92609756 Z M24.3984479,2.92609756 C23.9121951,2.92609756 23.5880266,3.25121951 23.5880266,3.73890244 C23.5880266,4.22658537 23.9121951,4.55170732 24.3984479,4.55170732 C24.8847007,4.55170732 25.2088692,4.22658537 25.2088692,3.73890244 C25.2088692,3.41378049 24.8847007,2.92609756 24.3984479,2.92609756 Z" id="Shape" fill="#000000" fill-rule="nonzero"></path>
                        <path d="M26.0192905,31.3742683 L0.0858093126,31.3742683 L0.0858093126,0.487682927 L34.1235033,0.487682927 L34.1235033,18.3693902 M0.0858093126,6.99012195 L34.1235033,6.99012195 M3.32749446,11.8669512 L17.9150776,11.8669512 M3.32749446,16.7437805 L17.9150776,16.7437805 M3.32749446,21.6206098 L17.9150776,21.6206098" id="Shape" stroke="#000000" stroke-linejoin="round"></path>
                    </g>
                </g>
            </g>
            <text id="What-type-of-secret" font-family="IBMPlexSans, IBM Plex Sans" font-size="12" font-weight="normal" line-spacing="16" letter-spacing="0.32" fill="#161616">
                <tspan x="351" y="163">What type of secret do you want to add to your instance?</tspan>
            </text>
            <g id="progress-indicator-/-horizontal-/-group" transform="translate(351.000000, 95.000000)">
                <g id="Section-state" transform="translate(460.501622, 0.000000)">
                    <g id="Group" transform="translate(24.000000, 10.000000)" fill="#161616" font-family="IBMPlexSans, IBM Plex Sans" font-size="14" font-weight="normal" letter-spacing="0.159999996" line-spacing="18">
                        <g id="Text-state">
                            <text id="Step-text">
                                <tspan x="0" y="14">Provide details</tspan>
                            </text>
                        </g>
                    </g>
                    <g id="icon-/-toggle-/-radio-button-/-unchecked-/-16" transform="translate(0.000000, 12.000000)" fill="#161616">
                        <path d="M8,1 C4.13400675,1 1,4.13400675 1,8 C1,11.8659932 4.13400675,15 8,15 C11.8659932,15 15,11.8659932 15,8 C15,6.14348457 14.2625021,4.36300718 12.9497475,3.05025253 C11.6369928,1.73749788 9.85651543,1 8,1 Z M8,14 C4.6862915,14 2,11.3137085 2,8 C2,4.6862915 4.6862915,2 8,2 C11.3137085,2 14,4.6862915 14,8 C14,11.3137085 11.3137085,14 8,14 L8,14 Z" id="Fill"></path>
                    </g>
                    <rect id="Bar" fill="#E0E0E0" x="0" y="0" width="463.498378" height="2"></rect>
                </g>
                <g id="Section-state">
                    <text id="Optional-text" font-family="IBMPlexSans, IBM Plex Sans" font-size="12" font-weight="normal" line-spacing="16" letter-spacing="0.319999993"></text>
                    <g id="Group" transform="translate(24.000000, 10.000000)" fill="#161616" font-family="IBMPlexSans, IBM Plex Sans" font-size="14" font-weight="normal" letter-spacing="0.159999996" line-spacing="18">
                        <g id="Text-state">
                            <text id="Step-text">
                                <tspan x="0" y="14">Choose type</tspan>
                            </text>
                        </g>
                    </g>
                    <g id="icon-/-toggle-/-radio-button-/-filled-/-16" transform="translate(0.000000, 12.000000)">
                        <mask id="mask-9" fill="white">
                            <use xlink:href="#path-8"></use>
                        </mask>
                        <use id="icon-color" fill="#0F62FE" xlink:href="#path-8"></use>
                    </g>
                    <rect id="Bar" fill="#0F62FE" x="0" y="0" width="463.498378" height="2"></rect>
                </g>
            </g>
            <rect id="Rectangle" fill="#FFFFFF" x="833" y="106" width="191" height="16"></rect>
            <g id="Fill" transform="translate(1259.000000, 35.000000)" fill="#000000">
                <polygon points="15 5.875 14.125 5 10 9.125 5.875 5 5 5.875 9.125 10 5 14.125 5.875 15 10 10.875 14.125 15 15 14.125 10.875 10"></polygon>
            </g>
            <text id="Side-panel-title" font-family="IBMPlexSans, IBM Plex Sans" font-size="20" font-weight="normal" line-spacing="28" fill="#161616">
                <tspan x="352" y="53">Add a secret</tspan>
            </text>
            <g id="Skeleton" transform="translate(449.000000, 110.000000)">
                <g id="Group-2" transform="translate(0.000000, 99.000000)">
                    <rect id="Rectangle" fill="#E5E5E5" x="0" y="20" width="304" height="11"></rect>
                    <rect id="Rectangle" fill="#D8D8D8" x="0" y="0" width="120" height="11"></rect>
                    <rect id="Rectangle" fill="#E5E5E5" x="0" y="40" width="252" height="11"></rect>
                </g>
                <g id="Group-2" transform="translate(0.000000, 252.000000)">
                    <rect id="Rectangle" fill="#E5E5E5" x="0" y="20" width="304" height="11"></rect>
                    <rect id="Rectangle" fill="#D8D8D8" x="0" y="0" width="120" height="11"></rect>
                    <rect id="Rectangle" fill="#E5E5E5" x="0" y="40" width="252" height="11"></rect>
                </g>
                <g id="Group-2" transform="translate(464.000000, 252.000000)">
                    <rect id="Rectangle" fill="#E5E5E5" x="0" y="20" width="304" height="11"></rect>
                    <rect id="Rectangle" fill="#D8D8D8" x="0" y="0" width="120" height="11"></rect>
                    <rect id="Rectangle" fill="#E5E5E5" x="0" y="40" width="252" height="11"></rect>
                </g>
                <rect id="Rectangle" fill="#E5E5E5" x="384" y="0" width="113" height="11"></rect>
            </g>
        </g>
        <g id="Cursor/Hand/Pointing" transform="translate(1162.000000, 366.000000)">
            <g id="pointing" filter="url(#filter-10)" transform="translate(0.250000, 0.000000)">
                <path d="M4.0875,15.35 C3.7375,14.9 3.3,13.9875 2.5375,12.85 C2.1,12.225 1.025,11.0375 0.7,10.425 C0.465714238,10.0527882 0.397731488,9.5995699 0.5125,9.175 C0.708699961,8.36776104 1.47445146,7.83227049 2.3,7.925 C2.9385015,8.05326352 3.52527859,8.3662113 3.9875,8.825 C4.3102257,9.12896644 4.60708432,9.45927392 4.875,9.8125 C5.075,10.0625 5.125,10.1625 5.35,10.45 C5.575,10.7375 5.725,11.025 5.6125,10.6 C5.525,9.975 5.375,8.925 5.1625,7.9875 C5,7.275 4.9625,7.1625 4.8125,6.625 C4.6625,6.0875 4.575,5.6375 4.4125,5.025 C4.26395843,4.42321474 4.14713081,3.81404211 4.0625,3.2 C3.90494122,2.41463006 4.0195679,1.59901716 4.3875,0.8875 C4.82424128,0.476711903 5.46491298,0.368290538 6.0125,0.6125 C6.56324571,1.01917031 6.97387671,1.58706425 7.1875,2.2375 C7.51508149,3.03798568 7.73370123,3.87883082 7.8375,4.7375 C8.0375,5.9875 8.425,7.8125 8.4375,8.1875 C8.4375,7.725 8.35,6.75 8.4375,6.3125 C8.52419127,5.85640515 8.84119802,5.47788963 9.275,5.3125 C9.64726144,5.19828149 10.0410569,5.17259918 10.425,5.2375 C10.8125459,5.31851988 11.1558298,5.54143155 11.3875,5.8625 C11.6771012,6.59174124 11.8378237,7.36574702 11.8625,8.15 C11.8959732,7.4632331 12.0135167,6.78316021 12.2125,6.125 C12.4213801,5.83068651 12.7264153,5.61848815 13.075,5.525 C13.4882414,5.4494439 13.9117586,5.4494439 14.325,5.525 C14.6638681,5.63828855 14.9603013,5.85189482 15.175,6.1375 C15.4397132,6.80043246 15.5999529,7.50042711 15.65,8.2125 C15.65,8.3875 15.7375,7.725 16.0125,7.2875 C16.1554062,6.86324711 16.5137933,6.54746085 16.9526602,6.45909483 C17.3915271,6.37072882 17.8441995,6.52320796 18.1401602,6.85909483 C18.4361208,7.19498171 18.5304062,7.66324711 18.3875,8.0875 C18.3875,8.9 18.3875,8.8625 18.3875,9.4125 C18.3875,9.9625 18.3875,10.45 18.3875,10.9125 C18.3419516,11.6439741 18.241671,12.3710084 18.0875,13.0875 C17.8699686,13.7213985 17.567191,14.3227484 17.1875,14.875 C16.5805598,15.5499552 16.079068,16.3127283 15.7,17.1375 C15.6059478,17.5472546 15.5639497,17.9672352 15.575,18.3875 C15.5737456,18.7757913 15.6241887,19.1625216 15.725,19.5375 C15.2139239,19.5915279 14.6985761,19.5915279 14.1875,19.5375 C13.7,19.4625 13.1,18.4875 12.9375,18.1875 C12.8570974,18.0264158 12.6925353,17.924632 12.5125,17.924632 C12.3324647,17.924632 12.1679026,18.0264158 12.0875,18.1875 C11.8125,18.6625 11.2,19.525 10.775,19.575 C9.9375,19.675 8.2125,19.575 6.85,19.575 C6.85,19.575 7.075,18.325 6.5625,17.875 C6.05,17.425 5.525,16.9 5.1375,16.55 L4.0875,15.35 Z" id="Shape" fill="#FFFFFF" fill-rule="nonzero"></path>
                <path d="M4.0875,15.35 C3.7375,14.9 3.3,13.9875 2.5375,12.85 C2.1,12.225 1.025,11.0375 0.7,10.425 C0.465714238,10.0527882 0.397731488,9.5995699 0.5125,9.175 C0.708699961,8.36776104 1.47445146,7.83227049 2.3,7.925 C2.9385015,8.05326352 3.52527859,8.3662113 3.9875,8.825 C4.3102257,9.12896644 4.60708432,9.45927392 4.875,9.8125 C5.075,10.0625 5.125,10.1625 5.35,10.45 C5.575,10.7375 5.725,11.025 5.6125,10.6 C5.525,9.975 5.375,8.925 5.1625,7.9875 C5,7.275 4.9625,7.1625 4.8125,6.625 C4.6625,6.0875 4.575,5.6375 4.4125,5.025 C4.26395843,4.42321474 4.14713081,3.81404211 4.0625,3.2 C3.90494122,2.41463006 4.0195679,1.59901716 4.3875,0.8875 C4.82424128,0.476711903 5.46491298,0.368290538 6.0125,0.6125 C6.56324571,1.01917031 6.97387671,1.58706425 7.1875,2.2375 C7.51508149,3.03798568 7.73370123,3.87883082 7.8375,4.7375 C8.0375,5.9875 8.425,7.8125 8.4375,8.1875 C8.4375,7.725 8.35,6.75 8.4375,6.3125 C8.52419127,5.85640515 8.84119802,5.47788963 9.275,5.3125 C9.64726144,5.19828149 10.0410569,5.17259918 10.425,5.2375 C10.8125459,5.31851988 11.1558298,5.54143155 11.3875,5.8625 C11.6771012,6.59174124 11.8378237,7.36574702 11.8625,8.15 C11.8959732,7.4632331 12.0135167,6.78316021 12.2125,6.125 C12.4213801,5.83068651 12.7264153,5.61848815 13.075,5.525 C13.4882414,5.4494439 13.9117586,5.4494439 14.325,5.525 C14.6638681,5.63828855 14.9603013,5.85189482 15.175,6.1375 C15.4397132,6.80043246 15.5999529,7.50042711 15.65,8.2125 C15.65,8.3875 15.7375,7.725 16.0125,7.2875 C16.1554062,6.86324711 16.5137933,6.54746085 16.9526602,6.45909483 C17.3915271,6.37072882 17.8441995,6.52320796 18.1401602,6.85909483 C18.4361208,7.19498171 18.5304062,7.66324711 18.3875,8.0875 C18.3875,8.9 18.3875,8.8625 18.3875,9.4125 C18.3875,9.9625 18.3875,10.45 18.3875,10.9125 C18.3419516,11.6439741 18.241671,12.3710084 18.0875,13.0875 C17.8699686,13.7213985 17.567191,14.3227484 17.1875,14.875 C16.5805598,15.5499552 16.079068,16.3127283 15.7,17.1375 C15.6059478,17.5472546 15.5639497,17.9672352 15.575,18.3875 C15.5737456,18.7757913 15.6241887,19.1625216 15.725,19.5375 C15.2139239,19.5915279 14.6985761,19.5915279 14.1875,19.5375 C13.7,19.4625 13.1,18.4875 12.9375,18.1875 C12.8570974,18.0264158 12.6925353,17.924632 12.5125,17.924632 C12.3324647,17.924632 12.1679026,18.0264158 12.0875,18.1875 C11.8125,18.6625 11.2,19.525 10.775,19.575 C9.9375,19.675 8.2125,19.575 6.85,19.575 C6.85,19.575 7.075,18.325 6.5625,17.875 C6.05,17.425 5.525,16.9 5.1375,16.55 L4.0875,15.35 Z" id="Shape" stroke="#000000" stroke-width="0.75" stroke-linecap="round" stroke-linejoin="round"></path>
                <path d="M14.6875,16.0323632 L14.6875,11.7176366 C14.6875,11.459368 14.4776335,11.25 14.21875,11.25 C13.9598665,11.25 13.75,11.459368 13.75,11.7176366 L13.75,16.0323632 C13.75,16.2906317 13.9598665,16.4999998 14.21875,16.4999998 C14.4776335,16.4999998 14.6875,16.2906317 14.6875,16.0323632 Z" id="Shape" fill="#000000" fill-rule="nonzero"></path>
                <path d="M12.2124924,16.0307823 L12.1874924,11.7138397 C12.1860003,11.4561874 11.9749277,11.2485229 11.7160485,11.25 C11.4571693,11.2514929 11.2485159,11.4615652 11.25,11.7192174 L11.275008,16.0361601 C11.2765001,16.2938123 11.4875727,16.5014769 11.7464519,16.4999998 C12.005331,16.4985068 12.2139845,16.2884346 12.2124924,16.0307823 Z" id="Shape" fill="#000000" fill-rule="nonzero"></path>
                <path d="M8.75,11.7237392 L8.77500814,16.0317531 C8.77651764,16.2918708 8.98760429,16.5015083 9.24648336,16.4999998 C9.50536244,16.4984749 9.7140017,16.2863783 9.7124922,16.0262606 L9.6874922,11.7182467 C9.6859827,11.458129 9.47489606,11.2484915 9.21601698,11.25 C8.95713791,11.2515249 8.74849864,11.4636215 8.75,11.7237392 Z" id="Shape" fill="#000000" fill-rule="nonzero"></path>
            </g>
        </g>
        <g id="status-indicator-/-03-warning" transform="translate(942.000000, 351.500000)">
            <text id="Warning" font-family="IBMPlexSans, IBM Plex Sans" font-size="14" font-weight="normal" line-spacing="18" letter-spacing="0.159999996" fill="#161616">
                <tspan x="26" y="14">Engine configuration required</tspan>
            </text>
            <g id="status">
                <path d="M9,1.125 C4.66875,1.125 1.125,4.66875 1.125,9 C1.125,13.33125 4.66875,16.875 9,16.875 C13.33125,16.875 16.875,13.33125 16.875,9 C16.875,4.66875 13.33125,1.125 9,1.125 Z M8.38125,4.5 L9.61875,4.5 L9.61875,10.6875 L8.38125,10.6875 L8.38125,4.5 L8.38125,4.5 Z M9,14.0625 C8.55,14.0625 8.15625,13.66875 8.15625,13.21875 C8.15625,12.76875 8.55,12.375 9,12.375 C9.45,12.375 9.84375,12.76875 9.84375,13.21875 C9.84375,13.66875 9.45,14.0625 9,14.0625 Z" id="Fill" fill="#F1C21B"></path>
                <path d="M9.84375,13.21875 C9.84375,13.66875 9.45,14.0625 9,14.0625 C8.55,14.0625 8.15625,13.66875 8.15625,13.21875 C8.15625,12.76875 8.55,12.375 9,12.375 C9.45,12.375 9.84375,12.76875 9.84375,13.21875 Z M9.61875,4.5 L8.38125,4.5 L8.38125,10.6875 L9.61875,10.6875 L9.61875,4.5 Z" id="Inner-Fill" fill="#161616"></path>
            </g>
        </g>
        <line x1="9" y1="619" x2="1364" y2="619" id="Line-2" stroke="#5A6872" stroke-width="2" stroke-linecap="round"></line>
    </g>
</svg>