<?xml version="1.0" encoding="utf-8"?>
<svg id="Graphics" xmlns="http://www.w3.org/2000/svg" width="1056" height="311" viewBox="0 0 1056 311"><defs><style>.cls-1{fill:none;stroke:#dfe3e6;stroke-miterlimit:10;stroke-width:0.8573px;}.cls-2{fill:#f2f4f8;}.cls-3{fill:#0db5b3;}.cls-4{fill:#6ba5ff;}.cls-5{fill:#152935;}.cls-6{fill:#4589ff;}.cls-7{fill:#009d9a;}.cls-8{fill:#fff;}</style></defs><path class="cls-1" d="M189.2295,19.9993H874.4452A2.5548,2.5548,0,0,1,877,22.5541V280.5152a2.5548,2.5548,0,0,1-2.5548,2.5548H189.23a2.555,2.555,0,0,1-2.555-2.555V22.5542A2.5549,2.5549,0,0,1,189.2295,19.9993Z"/><rect class="cls-2" x="186.3499" y="117.57" width="691.1501" height="95"/><rect class="cls-3" x="186.6746" y="72.57" width="5" height="49"/><rect class="cls-4" x="186.6746" y="132.57" width="5" height="80"/><circle class="cls-3" cx="189.1746" cy="79.82" r="10"/><circle class="cls-4" cx="189.1746" cy="129.5928" r="10"/><path class="cls-5" d="M217.0723,63.7126a1.2017,1.2017,0,0,1-.9453-.3526,1.2664,1.2664,0,0,1-.315-.8769v-.9453a2.6756,2.6756,0,0,1,.0825-.7051,2.9588,2.9588,0,0,1,.2027-.54,2.4154,2.4154,0,0,1,.27-.4268c.1-.125.1948-.2432.2851-.3525a2.3241,2.3241,0,0,0,.3521-.5176,1.1115,1.1115,0,0,0,.0977-.458.8716.8716,0,0,0-.525-.8321,3.569,3.569,0,0,0-1.5449-.2627h-1.17v-.93h1.17a3.569,3.569,0,0,0,1.5449-.2627.872.872,0,0,0,.525-.833,1.1073,1.1073,0,0,0-.0977-.4571,2.3241,2.3241,0,0,0-.3521-.5176q-.1354-.1654-.2851-.3525a2.5,2.5,0,0,1-.27-.42,2.6887,2.6887,0,0,1-.2027-.54,2.7578,2.7578,0,0,1-.0825-.7128v-.9444a1.2689,1.2689,0,0,1,.315-.8779,1.2051,1.2051,0,0,1,.9453-.3525h2.64v.93h-2.8647v1.1553a2.0059,2.0059,0,0,0,.18.9453,5.0291,5.0291,0,0,0,.42.6446q.2548.331.48.6826a1.5165,1.5165,0,0,1,.2251.833,1.2942,1.2942,0,0,1-.4428,1.02,2.2306,2.2306,0,0,1-1.2075.4951v.0606a2.2384,2.2384,0,0,1,1.2075.4941,1.2977,1.2977,0,0,1,.4428,1.02,1.5113,1.5113,0,0,1-.2251.8321q-.2249.3529-.48.6826a5.0378,5.0378,0,0,0-.42.6455,2.0041,2.0041,0,0,0-.18.9443v1.1553h2.8647v.93Z"/><path class="cls-6" d="M232.8965,78.6979V74.5427h1.14v4.1552Zm2.6553,0V74.5427h1.14v4.1552Z"/><path class="cls-6" d="M240.7568,85.6432v-7.74h1.2v1.26h.06a3.1168,3.1168,0,0,1,.3-.5469,1.9218,1.9218,0,0,1,.4429-.458,2.2035,2.2035,0,0,1,.6225-.3145,2.6562,2.6562,0,0,1,.84-.12,2.5631,2.5631,0,0,1,1.95.7725,3.04,3.04,0,0,1,.7353,2.1826v4.9648h-1.2V80.8884a2.313,2.313,0,0,0-.4648-1.583,1.7419,1.7419,0,0,0-1.3652-.5176,2.8014,2.8014,0,0,0-.7051.09,2.0309,2.0309,0,0,0-.6148.27,1.3868,1.3868,0,0,0-.435.4649,1.2909,1.2909,0,0,0-.1651.66v5.37Z"/><path class="cls-6" d="M255.7114,85.6432a1.2416,1.2416,0,0,1-1.0049-.36,1.7457,1.7457,0,0,1-.375-.8994h-.0747a2.1719,2.1719,0,0,1-.8178,1.0566,2.6332,2.6332,0,0,1-1.5074.3828,2.8345,2.8345,0,0,1-1.935-.63,2.1729,2.1729,0,0,1-.72-1.7246,1.9492,1.9492,0,0,1,.7871-1.665,4.3188,4.3188,0,0,1,2.5424-.585h1.65v-.7607a1.6138,1.6138,0,0,0-.48-1.2744,1.9952,1.9952,0,0,0-1.3653-.4248,2.3917,2.3917,0,0,0-1.2749.3066,2.313,2.313,0,0,0-.7949.833l-.81-.6006a2.7281,2.7281,0,0,1,.4048-.5869,2.5738,2.5738,0,0,1,.63-.5078,3.4293,3.4293,0,0,1,.855-.3506,4.1094,4.1094,0,0,1,1.0654-.1289,3.2093,3.2093,0,0,1,2.1675.6914,2.4052,2.4052,0,0,1,.8022,1.9239v4.2695h1.08v1.0351Zm-3.57-.8252a2.993,2.993,0,0,0,.8477-.1123,2.4943,2.4943,0,0,0,.6674-.3,1.4069,1.4069,0,0,0,.4424-.45,1.0739,1.0739,0,0,0,.1577-.5625V82.1179h-1.65a3.158,3.158,0,0,0-1.5747.3.96.96,0,0,0-.4951.87v.3154a1.0463,1.0463,0,0,0,.4278.9072A1.9814,1.9814,0,0,0,252.1416,84.818Z"/><path class="cls-6" d="M258.0967,85.6432v-7.74h1.11v.9h.06a2.1337,2.1337,0,0,1,.51-.7656,1.6678,1.6678,0,0,1,1.98.0224,1.5183,1.5183,0,0,1,.4048.878h.0449a2.2685,2.2685,0,0,1,.6-.87,1.5769,1.5769,0,0,1,1.08-.3447,1.2715,1.2715,0,0,1,1.2676.66,4.4165,4.4165,0,0,1,.3223,1.89v5.37h-1.11V80.4684a3.2266,3.2266,0,0,0-.2026-1.373.764.764,0,0,0-.7427-.3828,1.0442,1.0442,0,0,0-.78.3076,1.2949,1.2949,0,0,0-.3.9375v5.6855h-1.11V80.4684a3.2348,3.2348,0,0,0-.2021-1.373.7509.7509,0,0,0-.7275-.3828,1.0688,1.0688,0,0,0-.7876.3076,1.2755,1.2755,0,0,0-.3077.9375v5.6855Z"/><path class="cls-6" d="M270.9209,85.8229a3.7957,3.7957,0,0,1-1.5073-.2851,3.16,3.16,0,0,1-1.14-.8174,3.7127,3.7127,0,0,1-.7275-1.2744,5.5111,5.5111,0,0,1,.0078-3.3379,3.8571,3.8571,0,0,1,.7275-1.2822,3.1128,3.1128,0,0,1,1.1172-.8174,3.5709,3.5709,0,0,1,1.4478-.2852,3.428,3.428,0,0,1,1.4175.2852,3.1765,3.1765,0,0,1,1.0874.7871,3.471,3.471,0,0,1,.69,1.1924,4.5775,4.5775,0,0,1,.24,1.5146v.57h-5.73v.36a2.63,2.63,0,0,0,.165.9443,2.1381,2.1381,0,0,0,.4722.75,2.1019,2.1019,0,0,0,.75.4883,2.6986,2.6986,0,0,0,.9824.1719,2.4807,2.4807,0,0,0,1.35-.3594,2.3312,2.3312,0,0,0,.87-.99l.8853.6a2.8808,2.8808,0,0,1-1.148,1.2832A3.6252,3.6252,0,0,1,270.9209,85.8229Zm-.0747-7.11a2.2955,2.2955,0,0,0-.915.1806,2.2247,2.2247,0,0,0-1.2076,1.2373,2.48,2.48,0,0,0-.1723.9375v.1045h4.44v-.164a2.6359,2.6359,0,0,0-.1577-.9307,2.2613,2.2613,0,0,0-.4351-.7275,1.8582,1.8582,0,0,0-.6748-.4727A2.279,2.279,0,0,0,270.8462,78.7126Z"/><path class="cls-6" d="M277.896,78.6979V74.5427h1.14v4.1552Zm2.6553,0V74.5427h1.14v4.1552Z"/><path class="cls-5" d="M288.7861,79.8376a1.1729,1.1729,0,0,1-.8623-.2549.8875.8875,0,0,1-.2475-.6445v-.27a.8876.8876,0,0,1,.2475-.6446,1.586,1.586,0,0,1,1.7246,0,.8872.8872,0,0,1,.2476.6446v.27a.8872.8872,0,0,1-.2476.6445A1.1726,1.1726,0,0,1,288.7861,79.8376Zm0,5.94a1.1773,1.1773,0,0,1-.8623-.2549.8881.8881,0,0,1-.2475-.6455v-.27a.8913.8913,0,0,1,.2475-.6455,1.586,1.586,0,0,1,1.7246,0,.891.891,0,0,1,.2476.6455v.27a.8878.8878,0,0,1-.2476.6455A1.177,1.177,0,0,1,288.7861,85.778Z"/><path class="cls-7" d="M304.8955,78.6979V74.5427h1.14v4.1552Zm2.6553,0V74.5427h1.14v4.1552Z"/><path class="cls-7" d="M312.5605,81.6677V80.4684l6.45-3.7353v1.2451l-5.3252,3.0147v.12l5.3252,3.0146V85.403Z"/><path class="cls-7" d="M324.92,85.8229a3.7961,3.7961,0,0,1-1.5073-.2851,3.16,3.16,0,0,1-1.14-.8174,3.7127,3.7127,0,0,1-.7275-1.2744,5.5111,5.5111,0,0,1,.0078-3.3379,3.8555,3.8555,0,0,1,.7276-1.2822,3.1116,3.1116,0,0,1,1.1171-.8174,3.5709,3.5709,0,0,1,1.4478-.2852,3.428,3.428,0,0,1,1.4175.2852,3.1765,3.1765,0,0,1,1.0874.7871,3.471,3.471,0,0,1,.69,1.1924,4.5775,4.5775,0,0,1,.24,1.5146v.57h-5.73v.36a2.63,2.63,0,0,0,.165.9443,2.1381,2.1381,0,0,0,.4722.75,2.1019,2.1019,0,0,0,.75.4883,2.6986,2.6986,0,0,0,.9824.1719,2.4807,2.4807,0,0,0,1.35-.3594,2.3312,2.3312,0,0,0,.87-.99l.8853.6a2.8808,2.8808,0,0,1-1.148,1.2832A3.6252,3.6252,0,0,1,324.92,85.8229Zm-.0747-7.11a2.2955,2.2955,0,0,0-.915.1806,2.2247,2.2247,0,0,0-1.2076,1.2373,2.48,2.48,0,0,0-.1723.9375v.1045h4.44v-.164a2.6359,2.6359,0,0,0-.1577-.9307,2.2613,2.2613,0,0,0-.4351-.7275,1.8582,1.8582,0,0,0-.6748-.4727A2.279,2.279,0,0,0,324.8457,78.7126Z"/><path class="cls-7" d="M330.7554,85.6432v-7.74h1.2v1.26h.06a3.1168,3.1168,0,0,1,.3-.5469,1.9237,1.9237,0,0,1,.4429-.458,2.2027,2.2027,0,0,1,.6226-.3145,2.6551,2.6551,0,0,1,.84-.12,2.5628,2.5628,0,0,1,1.95.7725,3.0391,3.0391,0,0,1,.7354,2.1826v4.9648h-1.2V80.8884a2.313,2.313,0,0,0-.4649-1.583,1.7418,1.7418,0,0,0-1.3652-.5176,2.802,2.802,0,0,0-.7051.09,2.03,2.03,0,0,0-.6147.27,1.3871,1.3871,0,0,0-.4351.4649,1.2919,1.2919,0,0,0-.165.66v5.37Z"/><path class="cls-7" d="M346.7,86.5358a1.858,1.858,0,0,1-.9751,1.7266,6.01,6.01,0,0,1-2.9248.5605,5.4488,5.4488,0,0,1-2.6929-.4951,1.5734,1.5734,0,0,1-.8174-1.4248,1.3517,1.3517,0,0,1,.33-.9746,1.9782,1.9782,0,0,1,.93-.5107v-.18a1.3469,1.3469,0,0,1-.51-.42,1.0907,1.0907,0,0,1-.18-.6455,1.0555,1.0555,0,0,1,.3974-.8994,2.7426,2.7426,0,0,1,.9976-.45v-.0595a2.4714,2.4714,0,0,1-1.1177-.9307,2.59,2.59,0,0,1-.3975-1.44,2.733,2.733,0,0,1,.21-1.08,2.3359,2.3359,0,0,1,.6074-.8477,2.8517,2.8517,0,0,1,.9527-.5478,3.69,3.69,0,0,1,1.23-.1944,3.514,3.514,0,0,1,1.53.3145V77.903a1.2423,1.2423,0,0,1,.21-.74.8243.8243,0,0,1,.72-.2949h1.4248V77.903h-1.74v.5254a2.4431,2.4431,0,0,1,.645.8545,2.819,2.819,0,0,1,.0073,2.19,2.4706,2.4706,0,0,1-.6074.8477,2.7477,2.7477,0,0,1-.9527.5469,3.762,3.762,0,0,1-1.2373.1953c-.13,0-.2548-.0049-.375-.0157s-.24-.0244-.36-.0449a2.27,2.27,0,0,0-.375.0986,1.5032,1.5032,0,0,0-.36.1817,1.0457,1.0457,0,0,0-.27.2656.5966.5966,0,0,0-.105.3486.45.45,0,0,0,.3452.462,2.9293,2.9293,0,0,0,.9.1142h1.71a3.393,3.393,0,0,1,2.1753.5606A1.853,1.853,0,0,1,346.7,86.5358Zm-1.125.0518a.8771.8771,0,0,0-.375-.7422,2.28,2.28,0,0,0-1.3052-.2774H341.21a1.0829,1.0829,0,0,0-.78,1.05,1.1463,1.1463,0,0,0,.4048.8779,1.9912,1.9912,0,0,0,1.35.3672h1.17a3.4247,3.4247,0,0,0,1.6352-.3223A1.03,1.03,0,0,0,345.5752,86.5876Zm-2.835-4.4541a1.83,1.83,0,0,0,1.3277-.4209,1.485,1.485,0,0,0,.4272-1.1094v-.4355a1.4633,1.4633,0,0,0-.4272-1.1026,1.8556,1.8556,0,0,0-1.3277-.4121,1.8278,1.8278,0,0,0-1.32.4121,1.4768,1.4768,0,0,0-.42,1.1026v.4355a1.4988,1.4988,0,0,0,.42,1.1094A1.803,1.803,0,0,0,342.74,82.1335Z"/><path class="cls-7" d="M348.875,84.6081h2.79v-5.67h-2.79V77.903h3.99v6.7051h2.61v1.0351h-6.6Zm3.39-8.4151a.9973.9973,0,0,1-.7348-.2177.7541.7541,0,0,1-.21-.5469v-.24a.7578.7578,0,0,1,.21-.5479,1.3486,1.3486,0,0,1,1.47,0,.7582.7582,0,0,1,.21.5479v.24a.7545.7545,0,0,1-.21.5469A.9983.9983,0,0,1,352.2651,76.193Z"/><path class="cls-7" d="M357.7549,85.6432v-7.74h1.2v1.26h.06a3.1108,3.1108,0,0,1,.3-.5469,1.9214,1.9214,0,0,1,.4428-.458,2.2027,2.2027,0,0,1,.6226-.3145,2.6551,2.6551,0,0,1,.84-.12,2.5628,2.5628,0,0,1,1.95.7725,3.0391,3.0391,0,0,1,.7354,2.1826v4.9648h-1.2V80.8884a2.313,2.313,0,0,0-.4649-1.583,1.7418,1.7418,0,0,0-1.3652-.5176,2.802,2.802,0,0,0-.7051.09,2.0314,2.0314,0,0,0-.6147.27,1.3871,1.3871,0,0,0-.4351.4649,1.2919,1.2919,0,0,0-.165.66v5.37Z"/><path class="cls-7" d="M369.9194,85.8229a3.7961,3.7961,0,0,1-1.5073-.2851,3.1586,3.1586,0,0,1-1.14-.8174,3.7129,3.7129,0,0,1-.7276-1.2744,5.5131,5.5131,0,0,1,.0078-3.3379,3.8572,3.8572,0,0,1,.7276-1.2822,3.112,3.112,0,0,1,1.1172-.8174,3.57,3.57,0,0,1,1.4477-.2852,3.428,3.428,0,0,1,1.4175.2852,3.1765,3.1765,0,0,1,1.0874.7871,3.4728,3.4728,0,0,1,.69,1.1924,4.58,4.58,0,0,1,.24,1.5146v.57h-5.73v.36a2.63,2.63,0,0,0,.165.9443,2.1381,2.1381,0,0,0,.4722.75,2.1019,2.1019,0,0,0,.75.4883,2.699,2.699,0,0,0,.9824.1719,2.48,2.48,0,0,0,1.35-.3594,2.3305,2.3305,0,0,0,.87-.99l.8853.6a2.8811,2.8811,0,0,1-1.1479,1.2832A3.6255,3.6255,0,0,1,369.9194,85.8229Zm-.0747-7.11a2.2958,2.2958,0,0,0-.915.1806,2.2241,2.2241,0,0,0-1.2075,1.2373,2.4784,2.4784,0,0,0-.1724.9375v.1045h4.44v-.164a2.6359,2.6359,0,0,0-.1577-.9307,2.261,2.261,0,0,0-.435-.7275,1.86,1.86,0,0,0-.6748-.4727A2.28,2.28,0,0,0,369.8447,78.7126Z"/><path class="cls-7" d="M375.1846,88.1784V87.0827h7.2v1.0957Z"/><path class="cls-7" d="M388.0547,85.8229a3.6244,3.6244,0,0,1-1.4927-.292,3.1037,3.1037,0,0,1-1.1025-.8183,3.5367,3.5367,0,0,1-.6822-1.2744,5.5989,5.5989,0,0,1-.2329-1.6651,5.4364,5.4364,0,0,1,.24-1.665,3.7053,3.7053,0,0,1,.69-1.2822,2.9926,2.9926,0,0,1,1.0952-.8174,3.5933,3.5933,0,0,1,1.47-.2852,3.1171,3.1171,0,0,1,1.83.4951,2.9048,2.9048,0,0,1,1.0352,1.29l-.96.51a1.8125,1.8125,0,0,0-.6977-.9306,2.108,2.108,0,0,0-1.2075-.3291,2.423,2.423,0,0,0-.9375.1719,1.931,1.931,0,0,0-.6973.4873,2.0518,2.0518,0,0,0-.4277.75,3.013,3.013,0,0,0-.1426.9453v1.32a3.0026,3.0026,0,0,0,.1426.9443,2.0444,2.0444,0,0,0,.4277.75,1.9185,1.9185,0,0,0,.7051.4883,2.52,2.52,0,0,0,.96.1719,2.19,2.19,0,0,0,1.29-.3594,2.4935,2.4935,0,0,0,.81-.99l.8555.5849a3.08,3.08,0,0,1-1.0728,1.29A3.2391,3.2391,0,0,1,388.0547,85.8229Z"/><path class="cls-7" d="M396.7842,85.8229a3.61,3.61,0,0,1-1.4624-.2851,3.0413,3.0413,0,0,1-1.11-.8174,3.6469,3.6469,0,0,1-.6977-1.2744,5.9276,5.9276,0,0,1,0-3.3379,3.6314,3.6314,0,0,1,.6977-1.2822,3.04,3.04,0,0,1,1.11-.8174,3.8919,3.8919,0,0,1,2.9248,0,3.04,3.04,0,0,1,1.11.8174,3.641,3.641,0,0,1,.6978,1.2822,5.93,5.93,0,0,1,0,3.3379,3.6567,3.6567,0,0,1-.6978,1.2744,3.0409,3.0409,0,0,1-1.11.8174A3.61,3.61,0,0,1,396.7842,85.8229Zm0-1.0351a2.22,2.22,0,0,0,1.62-.6,2.5,2.5,0,0,0,.6147-1.86V81.2184a2.4985,2.4985,0,0,0-.6147-1.86,2.4885,2.4885,0,0,0-3.24,0,2.4964,2.4964,0,0,0-.6148,1.86v1.1094a2.4981,2.4981,0,0,0,.6148,1.86A2.2194,2.2194,0,0,0,396.7842,84.7878Z"/><path class="cls-7" d="M402.7544,85.6432v-7.74h1.2v1.26h.06a3.1038,3.1038,0,0,1,.3-.5469,1.9214,1.9214,0,0,1,.4428-.458,2.2041,2.2041,0,0,1,.6226-.3145,2.6551,2.6551,0,0,1,.84-.12,2.5628,2.5628,0,0,1,1.95.7725,3.0391,3.0391,0,0,1,.7354,2.1826v4.9648h-1.2V80.8884a2.3135,2.3135,0,0,0-.4648-1.583,1.7421,1.7421,0,0,0-1.3653-.5176,2.802,2.802,0,0,0-.7051.09,2.0314,2.0314,0,0,0-.6147.27,1.3871,1.3871,0,0,0-.4351.4649,1.2919,1.2919,0,0,0-.165.66v5.37Z"/><path class="cls-7" d="M411.5293,84.6081h2.61v-5.67h-2.76V77.903h2.76v-1.59a1.9247,1.9247,0,0,1,.4126-1.2754,1.5935,1.5935,0,0,1,1.2973-.4951h2.5952v1.0351h-3.1049V77.903h3.1049v1.0352h-3.1049v5.67h2.76v1.0351h-6.57Z"/><path class="cls-7" d="M420.874,84.6081h2.79v-5.67h-2.79V77.903h3.99v6.7051h2.61v1.0351h-6.6Zm3.39-8.4151a.9975.9975,0,0,1-.7349-.2177.7545.7545,0,0,1-.21-.5469v-.24a.7582.7582,0,0,1,.21-.5479,1.3486,1.3486,0,0,1,1.47,0,.7578.7578,0,0,1,.21.5479v.24a.7541.7541,0,0,1-.21.5469A.998.998,0,0,1,424.2642,76.193Z"/><path class="cls-7" d="M436.6987,86.5358a1.858,1.858,0,0,1-.9751,1.7266,6.01,6.01,0,0,1-2.9248.5605,5.4484,5.4484,0,0,1-2.6928-.4951,1.5732,1.5732,0,0,1-.8174-1.4248,1.3513,1.3513,0,0,1,.33-.9746,1.9779,1.9779,0,0,1,.93-.5107v-.18a1.3457,1.3457,0,0,1-.51-.42,1.0907,1.0907,0,0,1-.18-.6455,1.0555,1.0555,0,0,1,.3974-.8994,2.7426,2.7426,0,0,1,.9976-.45v-.0595a2.4719,2.4719,0,0,1-1.1177-.9307,2.59,2.59,0,0,1-.3974-1.44,2.733,2.733,0,0,1,.21-1.08,2.3361,2.3361,0,0,1,.6075-.8477,2.8512,2.8512,0,0,1,.9526-.5478,3.6906,3.6906,0,0,1,1.23-.1944,3.5143,3.5143,0,0,1,1.53.3145V77.903a1.2429,1.2429,0,0,1,.21-.74.8245.8245,0,0,1,.72-.2949h1.4248V77.903h-1.74v.5254a2.4419,2.4419,0,0,1,.645.8545,2.819,2.819,0,0,1,.0073,2.19,2.4693,2.4693,0,0,1-.6074.8477,2.7463,2.7463,0,0,1-.9526.5469,3.762,3.762,0,0,1-1.2373.1953c-.13,0-.2549-.0049-.375-.0157s-.24-.0244-.36-.0449a2.27,2.27,0,0,0-.375.0986,1.5007,1.5007,0,0,0-.36.1817,1.0461,1.0461,0,0,0-.27.2656.5966.5966,0,0,0-.1049.3486.45.45,0,0,0,.3452.462,2.9293,2.9293,0,0,0,.9.1142h1.71a3.393,3.393,0,0,1,2.1753.5606A1.853,1.853,0,0,1,436.6987,86.5358Zm-1.125.0518a.8771.8771,0,0,0-.375-.7422,2.28,2.28,0,0,0-1.3051-.2774h-2.6851a1.083,1.083,0,0,0-.78,1.05,1.1466,1.1466,0,0,0,.4048.8779,1.9912,1.9912,0,0,0,1.35.3672h1.17a3.4254,3.4254,0,0,0,1.6353-.3223A1.03,1.03,0,0,0,435.5737,86.5876Zm-2.8349-4.4541a1.83,1.83,0,0,0,1.3276-.4209,1.4846,1.4846,0,0,0,.4273-1.1094v-.4355a1.463,1.463,0,0,0-.4273-1.1026,1.8553,1.8553,0,0,0-1.3276-.4121,1.8276,1.8276,0,0,0-1.32.4121,1.4768,1.4768,0,0,0-.42,1.1026v.4355a1.4988,1.4988,0,0,0,.42,1.1094A1.8028,1.8028,0,0,0,432.7388,82.1335Z"/><path class="cls-7" d="M443.6138,84.3835h-.06a3.1239,3.1239,0,0,1-.3.5469,1.9315,1.9315,0,0,1-.4429.458,2.2059,2.2059,0,0,1-.6225.3144,2.6551,2.6551,0,0,1-.84.12,2.5631,2.5631,0,0,1-1.95-.7724,3.04,3.04,0,0,1-.7353-2.1826V77.903h1.2v4.7549a2.3127,2.3127,0,0,0,.4648,1.583,1.7424,1.7424,0,0,0,1.3652.5176,2.764,2.764,0,0,0,.7051-.0908,2.0105,2.0105,0,0,0,.6148-.27,1.4074,1.4074,0,0,0,.435-.458,1.2818,1.2818,0,0,0,.1651-.667v-5.37h1.2v7.74h-1.2Z"/><path class="cls-7" d="M447.4385,84.6081h2.2651v-5.67h-2.2651V77.903h3.4653v1.95h.0747a2.5728,2.5728,0,0,1,.9077-1.4326,2.6994,2.6994,0,0,1,1.7027-.5176h1.08v1.2h-1.4546a2.3442,2.3442,0,0,0-1.6729.5986,2.0529,2.0529,0,0,0-.6372,1.57v3.336h3v1.0351h-6.4653Z"/><path class="cls-7" d="M462.708,85.6432a1.2416,1.2416,0,0,1-1.0049-.36,1.7457,1.7457,0,0,1-.375-.8994h-.0747a2.1721,2.1721,0,0,1-.8179,1.0566,2.6328,2.6328,0,0,1-1.5073.3828,2.8344,2.8344,0,0,1-1.935-.63,2.1729,2.1729,0,0,1-.72-1.7246,1.9492,1.9492,0,0,1,.7871-1.665,4.3191,4.3191,0,0,1,2.5425-.585h1.65v-.7607a1.6135,1.6135,0,0,0-.48-1.2744,1.9949,1.9949,0,0,0-1.3652-.4248,2.3917,2.3917,0,0,0-1.2749.3066,2.313,2.313,0,0,0-.7949.833l-.81-.6006a2.7281,2.7281,0,0,1,.4048-.5869,2.5738,2.5738,0,0,1,.63-.5078,3.4278,3.4278,0,0,1,.855-.3506,4.1094,4.1094,0,0,1,1.0654-.1289,3.2093,3.2093,0,0,1,2.1675.6914,2.4055,2.4055,0,0,1,.8022,1.9239v4.2695h1.08v1.0351Zm-3.57-.8252a2.9923,2.9923,0,0,0,.8476-.1123,2.4935,2.4935,0,0,0,.6675-.3,1.4069,1.4069,0,0,0,.4424-.45,1.0739,1.0739,0,0,0,.1577-.5625V82.1179h-1.65a3.158,3.158,0,0,0-1.5747.3.9594.9594,0,0,0-.4951.87v.3154a1.0464,1.0464,0,0,0,.4277.9072A1.982,1.982,0,0,0,459.1382,84.818Z"/><path class="cls-7" d="M469.1582,85.6432a1.5964,1.5964,0,0,1-1.2974-.4941,1.9149,1.9149,0,0,1-.4126-1.2725V78.9382h-2.58V77.903h1.92a.5881.5881,0,0,0,.7051-.7051V75.1725h1.1552V77.903h3.5249v1.0352h-3.5249v5.67h3.5249v1.0351Z"/><path class="cls-7" d="M474.873,84.6081h2.79v-5.67h-2.79V77.903h3.99v6.7051h2.61v1.0351h-6.6Zm3.39-8.4151a.9977.9977,0,0,1-.7349-.2177.7544.7544,0,0,1-.21-.5469v-.24a.7581.7581,0,0,1,.21-.5479,1.3486,1.3486,0,0,1,1.47,0,.7578.7578,0,0,1,.21.5479v.24a.7541.7541,0,0,1-.21.5469A.998.998,0,0,1,478.2632,76.193Z"/><path class="cls-7" d="M486.7832,85.8229a3.61,3.61,0,0,1-1.4624-.2851,3.0413,3.0413,0,0,1-1.11-.8174,3.65,3.65,0,0,1-.6977-1.2744,5.9276,5.9276,0,0,1,0-3.3379,3.6345,3.6345,0,0,1,.6977-1.2822,3.04,3.04,0,0,1,1.11-.8174,3.8919,3.8919,0,0,1,2.9248,0,3.04,3.04,0,0,1,1.11.8174,3.6409,3.6409,0,0,1,.6977,1.2822,5.9276,5.9276,0,0,1,0,3.3379,3.6565,3.6565,0,0,1-.6977,1.2744,3.0413,3.0413,0,0,1-1.11.8174A3.61,3.61,0,0,1,486.7832,85.8229Zm0-1.0351a2.2194,2.2194,0,0,0,1.62-.6,2.5,2.5,0,0,0,.6148-1.86V81.2184a2.4985,2.4985,0,0,0-.6148-1.86,2.4885,2.4885,0,0,0-3.24,0,2.4964,2.4964,0,0,0-.6148,1.86v1.1094a2.4981,2.4981,0,0,0,.6148,1.86A2.2194,2.2194,0,0,0,486.7832,84.7878Z"/><path class="cls-7" d="M492.7529,85.6432v-7.74h1.2v1.26h.06a3.1168,3.1168,0,0,1,.3-.5469,1.9218,1.9218,0,0,1,.4429-.458,2.2035,2.2035,0,0,1,.6225-.3145,2.6562,2.6562,0,0,1,.84-.12,2.5631,2.5631,0,0,1,1.95.7725,3.04,3.04,0,0,1,.7353,2.1826v4.9648h-1.2V80.8884a2.313,2.313,0,0,0-.4648-1.583,1.7419,1.7419,0,0,0-1.3652-.5176,2.8014,2.8014,0,0,0-.7051.09,2.0309,2.0309,0,0,0-.6148.27,1.3868,1.3868,0,0,0-.435.4649,1.2909,1.2909,0,0,0-.1651.66v5.37Z"/><path class="cls-7" d="M501.1826,88.1784V87.0827h7.2v1.0957Z"/><path class="cls-7" d="M510.7529,85.6432v-7.74h1.2v1.26h.06a3.1168,3.1168,0,0,1,.3-.5469,1.9218,1.9218,0,0,1,.4429-.458,2.2035,2.2035,0,0,1,.6225-.3145,2.6562,2.6562,0,0,1,.84-.12,2.5631,2.5631,0,0,1,1.95.7725,3.04,3.04,0,0,1,.7353,2.1826v4.9648h-1.2V80.8884a2.313,2.313,0,0,0-.4648-1.583,1.7419,1.7419,0,0,0-1.3652-.5176,2.8014,2.8014,0,0,0-.7051.09,2.0309,2.0309,0,0,0-.6148.27,1.3868,1.3868,0,0,0-.435.4649,1.2909,1.2909,0,0,0-.1651.66v5.37Z"/><path class="cls-7" d="M525.7075,85.6432a1.2416,1.2416,0,0,1-1.0049-.36,1.7457,1.7457,0,0,1-.375-.8994h-.0747a2.1719,2.1719,0,0,1-.8178,1.0566,2.6332,2.6332,0,0,1-1.5074.3828,2.8345,2.8345,0,0,1-1.935-.63,2.1729,2.1729,0,0,1-.72-1.7246,1.9493,1.9493,0,0,1,.7872-1.665,4.3186,4.3186,0,0,1,2.5424-.585h1.65v-.7607a1.6135,1.6135,0,0,0-.48-1.2744,1.9948,1.9948,0,0,0-1.3652-.4248,2.3917,2.3917,0,0,0-1.2749.3066,2.313,2.313,0,0,0-.7949.833l-.81-.6006a2.7281,2.7281,0,0,1,.4048-.5869,2.5738,2.5738,0,0,1,.63-.5078,3.4293,3.4293,0,0,1,.855-.3506,4.1094,4.1094,0,0,1,1.0654-.1289,3.2093,3.2093,0,0,1,2.1675.6914,2.4052,2.4052,0,0,1,.8022,1.9239v4.2695h1.08v1.0351Zm-3.57-.8252a2.993,2.993,0,0,0,.8477-.1123,2.4943,2.4943,0,0,0,.6674-.3,1.4069,1.4069,0,0,0,.4424-.45,1.0739,1.0739,0,0,0,.1577-.5625V82.1179h-1.65a3.158,3.158,0,0,0-1.5747.3.96.96,0,0,0-.4951.87v.3154a1.0464,1.0464,0,0,0,.4277.9072A1.982,1.982,0,0,0,522.1377,84.818Z"/><path class="cls-7" d="M528.0923,85.6432v-7.74h1.11v.9h.06a2.1337,2.1337,0,0,1,.51-.7656,1.6678,1.6678,0,0,1,1.98.0224,1.5183,1.5183,0,0,1,.4048.878h.0449a2.2685,2.2685,0,0,1,.6-.87,1.5769,1.5769,0,0,1,1.08-.3447,1.2715,1.2715,0,0,1,1.2676.66,4.4165,4.4165,0,0,1,.3223,1.89v5.37h-1.11V80.4684a3.2266,3.2266,0,0,0-.2026-1.373.764.764,0,0,0-.7427-.3828,1.0442,1.0442,0,0,0-.78.3076,1.2949,1.2949,0,0,0-.3.9375v5.6855h-1.11V80.4684a3.2344,3.2344,0,0,0-.2022-1.373.7509.7509,0,0,0-.7275-.3828,1.069,1.069,0,0,0-.7876.3076,1.2755,1.2755,0,0,0-.3077.9375v5.6855Z"/><path class="cls-7" d="M540.917,85.8229a3.7957,3.7957,0,0,1-1.5073-.2851,3.1589,3.1589,0,0,1-1.14-.8174,3.7127,3.7127,0,0,1-.7275-1.2744,5.5111,5.5111,0,0,1,.0078-3.3379,3.8571,3.8571,0,0,1,.7275-1.2822,3.1128,3.1128,0,0,1,1.1172-.8174,3.5709,3.5709,0,0,1,1.4478-.2852,3.428,3.428,0,0,1,1.4175.2852,3.1765,3.1765,0,0,1,1.0874.7871,3.471,3.471,0,0,1,.69,1.1924,4.5775,4.5775,0,0,1,.24,1.5146v.57h-5.73v.36a2.63,2.63,0,0,0,.165.9443,2.1381,2.1381,0,0,0,.4722.75,2.1,2.1,0,0,0,.75.4883,2.6986,2.6986,0,0,0,.9824.1719,2.4807,2.4807,0,0,0,1.35-.3594,2.3312,2.3312,0,0,0,.87-.99l.8853.6a2.8808,2.8808,0,0,1-1.148,1.2832A3.6254,3.6254,0,0,1,540.917,85.8229Zm-.0747-7.11a2.2963,2.2963,0,0,0-.9151.1806,2.225,2.225,0,0,0-1.2075,1.2373,2.48,2.48,0,0,0-.1723.9375v.1045h4.44v-.164a2.6359,2.6359,0,0,0-.1577-.9307,2.2613,2.2613,0,0,0-.4351-.7275,1.8582,1.8582,0,0,0-.6748-.4727A2.279,2.279,0,0,0,540.8423,78.7126Z"/><path class="cls-7" d="M546.5571,84.1579l5.3252-3.0147v-.12l-5.3252-3.0146V76.7331l6.45,3.7353v1.1993l-6.45,3.7353Z"/><path class="cls-7" d="M556.8921,78.6979V74.5427h1.14v4.1552Zm2.6553,0V74.5427h1.14v4.1552Z"/><path class="cls-5" d="M567.1367,83.6032h1.9351l-1.7251,4.1553h-1.0049Z"/><path class="cls-6" d="M232.8965,102.6979V98.5427h1.14v4.1552Zm2.6553,0V98.5427h1.14v4.1552Z"/><path class="cls-6" d="M244.1616,109.6432a1.5962,1.5962,0,0,1-1.2973-.4941,1.9149,1.9149,0,0,1-.4126-1.2725v-4.9384h-2.58V101.903h1.92a.588.588,0,0,0,.7051-.7051V99.1725h1.1553v2.7305h3.5249v1.0352h-3.5249v5.67h3.5249v1.0351Z"/><path class="cls-6" d="M255.2915,101.903h1.2l-3.84,9.4346a3.2989,3.2989,0,0,1-.3.5781,1.51,1.51,0,0,1-.39.4053,1.67,1.67,0,0,1-.54.2392,3.0006,3.0006,0,0,1-.75.083h-1.14v-1.0351h1.8l.87-2.1152-3.12-7.59h1.23l1.3052,3.24,1.1548,2.94h.06l1.1553-2.94Z"/><path class="cls-6" d="M258.7114,101.903h1.2v1.26h.06a2.5068,2.5068,0,0,1,2.3847-1.44,2.6319,2.6319,0,0,1,2.2276,1.0645,5.9528,5.9528,0,0,1,0,5.9707,2.6321,2.6321,0,0,1-2.2276,1.0644,2.5069,2.5069,0,0,1-2.3847-1.4394h-.06v4.26h-1.2Zm3.18,6.8555a2.0844,2.0844,0,0,0,1.6274-.6377,2.4175,2.4175,0,0,0,.5777-1.6875v-1.32a2.4175,2.4175,0,0,0-.5777-1.6875,2.0844,2.0844,0,0,0-1.6274-.6377,2.71,2.71,0,0,0-.7651.1054,1.9436,1.9436,0,0,0-.63.3077,1.4951,1.4951,0,0,0-.4273.4951,1.4146,1.4146,0,0,0-.1577.6816v2.79a1.4161,1.4161,0,0,0,.1577.6826,1.4961,1.4961,0,0,0,.4273.4951,1.9618,1.9618,0,0,0,.63.3076A2.71,2.71,0,0,0,261.8916,108.7585Z"/><path class="cls-6" d="M270.9209,109.8229a3.7957,3.7957,0,0,1-1.5073-.2851,3.16,3.16,0,0,1-1.14-.8174,3.7127,3.7127,0,0,1-.7275-1.2744,5.5111,5.5111,0,0,1,.0078-3.3379,3.8571,3.8571,0,0,1,.7275-1.2822,3.1128,3.1128,0,0,1,1.1172-.8174,3.5709,3.5709,0,0,1,1.4478-.2852,3.428,3.428,0,0,1,1.4175.2852,3.1765,3.1765,0,0,1,1.0874.7871,3.471,3.471,0,0,1,.69,1.1924,4.5775,4.5775,0,0,1,.24,1.5146v.57h-5.73v.36a2.63,2.63,0,0,0,.165.9443,2.1381,2.1381,0,0,0,.4722.75,2.1019,2.1019,0,0,0,.75.4883,2.6986,2.6986,0,0,0,.9824.1719,2.4807,2.4807,0,0,0,1.35-.3594,2.3312,2.3312,0,0,0,.87-.99l.8853.6a2.8808,2.8808,0,0,1-1.148,1.2832A3.6252,3.6252,0,0,1,270.9209,109.8229Zm-.0747-7.11a2.2955,2.2955,0,0,0-.915.1806,2.2247,2.2247,0,0,0-1.2076,1.2373,2.48,2.48,0,0,0-.1723.9375v.1045h4.44v-.164a2.6359,2.6359,0,0,0-.1577-.9307,2.2613,2.2613,0,0,0-.4351-.7275,1.8582,1.8582,0,0,0-.6748-.4727A2.279,2.279,0,0,0,270.8462,102.7126Z"/><path class="cls-6" d="M277.896,102.6979V98.5427h1.14v4.1552Zm2.6553,0V98.5427h1.14v4.1552Z"/><path class="cls-5" d="M288.7861,103.8376a1.1729,1.1729,0,0,1-.8623-.2549.8875.8875,0,0,1-.2475-.6445v-.27a.8876.8876,0,0,1,.2475-.6446,1.586,1.586,0,0,1,1.7246,0,.8872.8872,0,0,1,.2476.6446v.27a.8872.8872,0,0,1-.2476.6445A1.1726,1.1726,0,0,1,288.7861,103.8376Zm0,5.94a1.1773,1.1773,0,0,1-.8623-.2549.8881.8881,0,0,1-.2475-.6455v-.27a.8913.8913,0,0,1,.2475-.6455,1.586,1.586,0,0,1,1.7246,0,.891.891,0,0,1,.2476.6455v.27a.8878.8878,0,0,1-.2476.6455A1.177,1.177,0,0,1,288.7861,109.778Z"/><path class="cls-7" d="M304.8955,102.6979V98.5427h1.14v4.1552Zm2.6553,0V98.5427h1.14v4.1552Z"/><path class="cls-7" d="M312.5605,105.6677v-1.1993l6.45-3.7353v1.2451l-5.3252,3.0147v.12l5.3252,3.0146v1.2754Z"/><path class="cls-7" d="M324.92,109.8229a3.7961,3.7961,0,0,1-1.5073-.2851,3.16,3.16,0,0,1-1.14-.8174,3.7127,3.7127,0,0,1-.7275-1.2744,5.5111,5.5111,0,0,1,.0078-3.3379,3.8555,3.8555,0,0,1,.7276-1.2822,3.1116,3.1116,0,0,1,1.1171-.8174,3.5709,3.5709,0,0,1,1.4478-.2852,3.428,3.428,0,0,1,1.4175.2852,3.1765,3.1765,0,0,1,1.0874.7871,3.471,3.471,0,0,1,.69,1.1924,4.5775,4.5775,0,0,1,.24,1.5146v.57h-5.73v.36a2.63,2.63,0,0,0,.165.9443,2.1381,2.1381,0,0,0,.4722.75,2.1019,2.1019,0,0,0,.75.4883,2.6986,2.6986,0,0,0,.9824.1719,2.4807,2.4807,0,0,0,1.35-.3594,2.3312,2.3312,0,0,0,.87-.99l.8853.6a2.8808,2.8808,0,0,1-1.148,1.2832A3.6252,3.6252,0,0,1,324.92,109.8229Zm-.0747-7.11a2.2955,2.2955,0,0,0-.915.1806,2.2247,2.2247,0,0,0-1.2076,1.2373,2.48,2.48,0,0,0-.1723.9375v.1045h4.44v-.164a2.6359,2.6359,0,0,0-.1577-.9307,2.2613,2.2613,0,0,0-.4351-.7275,1.8582,1.8582,0,0,0-.6748-.4727A2.279,2.279,0,0,0,324.8457,102.7126Z"/><path class="cls-7" d="M330.7554,109.6432v-7.74h1.2v1.26h.06a3.1168,3.1168,0,0,1,.3-.5469,1.9237,1.9237,0,0,1,.4429-.458,2.2027,2.2027,0,0,1,.6226-.3145,2.6551,2.6551,0,0,1,.84-.12,2.5628,2.5628,0,0,1,1.95.7725,3.0391,3.0391,0,0,1,.7354,2.1826v4.9648h-1.2v-4.7548a2.313,2.313,0,0,0-.4649-1.583,1.7418,1.7418,0,0,0-1.3652-.5176,2.802,2.802,0,0,0-.7051.09,2.03,2.03,0,0,0-.6147.27,1.3871,1.3871,0,0,0-.4351.4649,1.2919,1.2919,0,0,0-.165.66v5.37Z"/><path class="cls-7" d="M346.7,110.5358a1.858,1.858,0,0,1-.9751,1.7266,6.01,6.01,0,0,1-2.9248.5605,5.4488,5.4488,0,0,1-2.6929-.4951,1.5734,1.5734,0,0,1-.8174-1.4248,1.3517,1.3517,0,0,1,.33-.9746,1.9782,1.9782,0,0,1,.93-.5107v-.18a1.3469,1.3469,0,0,1-.51-.42,1.0907,1.0907,0,0,1-.18-.6455,1.0555,1.0555,0,0,1,.3974-.8994,2.7426,2.7426,0,0,1,.9976-.45v-.0595a2.4714,2.4714,0,0,1-1.1177-.9307,2.59,2.59,0,0,1-.3975-1.44,2.733,2.733,0,0,1,.21-1.08,2.3359,2.3359,0,0,1,.6074-.8477,2.8517,2.8517,0,0,1,.9527-.5478,3.69,3.69,0,0,1,1.23-.1944,3.514,3.514,0,0,1,1.53.3145v-.1348a1.2423,1.2423,0,0,1,.21-.74.8243.8243,0,0,1,.72-.2949h1.4248v1.0351h-1.74v.5254a2.4431,2.4431,0,0,1,.645.8545,2.819,2.819,0,0,1,.0073,2.19,2.4706,2.4706,0,0,1-.6074.8477,2.7477,2.7477,0,0,1-.9527.5469,3.762,3.762,0,0,1-1.2373.1953c-.13,0-.2548-.0049-.375-.0157s-.24-.0244-.36-.0449a2.27,2.27,0,0,0-.375.0986,1.5032,1.5032,0,0,0-.36.1817,1.0457,1.0457,0,0,0-.27.2656.5966.5966,0,0,0-.105.3486.45.45,0,0,0,.3452.462,2.9293,2.9293,0,0,0,.9.1142h1.71a3.393,3.393,0,0,1,2.1753.5606A1.853,1.853,0,0,1,346.7,110.5358Zm-1.125.0518a.8771.8771,0,0,0-.375-.7422,2.28,2.28,0,0,0-1.3052-.2774H341.21a1.0829,1.0829,0,0,0-.78,1.05,1.1463,1.1463,0,0,0,.4048.8779,1.9912,1.9912,0,0,0,1.35.3672h1.17a3.4247,3.4247,0,0,0,1.6352-.3223A1.03,1.03,0,0,0,345.5752,110.5876Zm-2.835-4.4541a1.83,1.83,0,0,0,1.3277-.4209,1.485,1.485,0,0,0,.4272-1.1094v-.4355a1.4633,1.4633,0,0,0-.4272-1.1026,1.8556,1.8556,0,0,0-1.3277-.4121,1.8278,1.8278,0,0,0-1.32.4121,1.4768,1.4768,0,0,0-.42,1.1026v.4355a1.4988,1.4988,0,0,0,.42,1.1094A1.803,1.803,0,0,0,342.74,106.1335Z"/><path class="cls-7" d="M348.875,108.6081h2.79v-5.67h-2.79V101.903h3.99v6.7051h2.61v1.0351h-6.6Zm3.39-8.4151a.9973.9973,0,0,1-.7348-.2177.7541.7541,0,0,1-.21-.5469v-.24a.7578.7578,0,0,1,.21-.5479,1.3486,1.3486,0,0,1,1.47,0,.7582.7582,0,0,1,.21.5479v.24a.7545.7545,0,0,1-.21.5469A.9983.9983,0,0,1,352.2651,100.193Z"/><path class="cls-7" d="M357.7549,109.6432v-7.74h1.2v1.26h.06a3.1108,3.1108,0,0,1,.3-.5469,1.9214,1.9214,0,0,1,.4428-.458,2.2027,2.2027,0,0,1,.6226-.3145,2.6551,2.6551,0,0,1,.84-.12,2.5628,2.5628,0,0,1,1.95.7725,3.0391,3.0391,0,0,1,.7354,2.1826v4.9648h-1.2v-4.7548a2.313,2.313,0,0,0-.4649-1.583,1.7418,1.7418,0,0,0-1.3652-.5176,2.802,2.802,0,0,0-.7051.09,2.0314,2.0314,0,0,0-.6147.27,1.3871,1.3871,0,0,0-.4351.4649,1.2919,1.2919,0,0,0-.165.66v5.37Z"/><path class="cls-7" d="M369.9194,109.8229a3.7961,3.7961,0,0,1-1.5073-.2851,3.1586,3.1586,0,0,1-1.14-.8174,3.7129,3.7129,0,0,1-.7276-1.2744,5.5131,5.5131,0,0,1,.0078-3.3379,3.8572,3.8572,0,0,1,.7276-1.2822,3.112,3.112,0,0,1,1.1172-.8174,3.57,3.57,0,0,1,1.4477-.2852,3.428,3.428,0,0,1,1.4175.2852,3.1765,3.1765,0,0,1,1.0874.7871,3.4728,3.4728,0,0,1,.69,1.1924,4.58,4.58,0,0,1,.24,1.5146v.57h-5.73v.36a2.63,2.63,0,0,0,.165.9443,2.1381,2.1381,0,0,0,.4722.75,2.1019,2.1019,0,0,0,.75.4883,2.699,2.699,0,0,0,.9824.1719,2.48,2.48,0,0,0,1.35-.3594,2.3305,2.3305,0,0,0,.87-.99l.8853.6a2.8811,2.8811,0,0,1-1.1479,1.2832A3.6255,3.6255,0,0,1,369.9194,109.8229Zm-.0747-7.11a2.2958,2.2958,0,0,0-.915.1806,2.2241,2.2241,0,0,0-1.2075,1.2373,2.4784,2.4784,0,0,0-.1724.9375v.1045h4.44v-.164a2.6359,2.6359,0,0,0-.1577-.9307,2.261,2.261,0,0,0-.435-.7275,1.86,1.86,0,0,0-.6748-.4727A2.28,2.28,0,0,0,369.8447,102.7126Z"/><path class="cls-7" d="M375.1846,112.1784v-1.0957h7.2v1.0957Z"/><path class="cls-7" d="M388.0547,109.8229a3.6244,3.6244,0,0,1-1.4927-.292,3.1037,3.1037,0,0,1-1.1025-.8183,3.5367,3.5367,0,0,1-.6822-1.2744,5.5989,5.5989,0,0,1-.2329-1.6651,5.4364,5.4364,0,0,1,.24-1.665,3.7053,3.7053,0,0,1,.69-1.2822,2.9926,2.9926,0,0,1,1.0952-.8174,3.5933,3.5933,0,0,1,1.47-.2852,3.1171,3.1171,0,0,1,1.83.4951,2.9048,2.9048,0,0,1,1.0352,1.29l-.96.51a1.8125,1.8125,0,0,0-.6977-.9306,2.108,2.108,0,0,0-1.2075-.3291,2.423,2.423,0,0,0-.9375.1719,1.931,1.931,0,0,0-.6973.4873,2.0518,2.0518,0,0,0-.4277.75,3.013,3.013,0,0,0-.1426.9453v1.32a3.0026,3.0026,0,0,0,.1426.9443,2.0444,2.0444,0,0,0,.4277.75,1.9185,1.9185,0,0,0,.7051.4883,2.52,2.52,0,0,0,.96.1719,2.19,2.19,0,0,0,1.29-.3594,2.4935,2.4935,0,0,0,.81-.99l.8555.5849a3.08,3.08,0,0,1-1.0728,1.29A3.2391,3.2391,0,0,1,388.0547,109.8229Z"/><path class="cls-7" d="M396.7842,109.8229a3.61,3.61,0,0,1-1.4624-.2851,3.0413,3.0413,0,0,1-1.11-.8174,3.6469,3.6469,0,0,1-.6977-1.2744,5.9276,5.9276,0,0,1,0-3.3379,3.6314,3.6314,0,0,1,.6977-1.2822,3.04,3.04,0,0,1,1.11-.8174,3.8919,3.8919,0,0,1,2.9248,0,3.04,3.04,0,0,1,1.11.8174,3.641,3.641,0,0,1,.6978,1.2822,5.93,5.93,0,0,1,0,3.3379,3.6567,3.6567,0,0,1-.6978,1.2744,3.0409,3.0409,0,0,1-1.11.8174A3.61,3.61,0,0,1,396.7842,109.8229Zm0-1.0351a2.22,2.22,0,0,0,1.62-.6,2.5,2.5,0,0,0,.6147-1.86v-1.1094a2.4985,2.4985,0,0,0-.6147-1.86,2.4885,2.4885,0,0,0-3.24,0,2.4964,2.4964,0,0,0-.6148,1.86v1.1094a2.4981,2.4981,0,0,0,.6148,1.86A2.2194,2.2194,0,0,0,396.7842,108.7878Z"/><path class="cls-7" d="M402.7544,109.6432v-7.74h1.2v1.26h.06a3.1038,3.1038,0,0,1,.3-.5469,1.9214,1.9214,0,0,1,.4428-.458,2.2041,2.2041,0,0,1,.6226-.3145,2.6551,2.6551,0,0,1,.84-.12,2.5628,2.5628,0,0,1,1.95.7725,3.0391,3.0391,0,0,1,.7354,2.1826v4.9648h-1.2v-4.7548a2.3135,2.3135,0,0,0-.4648-1.583,1.7421,1.7421,0,0,0-1.3653-.5176,2.802,2.802,0,0,0-.7051.09,2.0314,2.0314,0,0,0-.6147.27,1.3871,1.3871,0,0,0-.4351.4649,1.2919,1.2919,0,0,0-.165.66v5.37Z"/><path class="cls-7" d="M411.5293,108.6081h2.61v-5.67h-2.76V101.903h2.76v-1.59a1.9247,1.9247,0,0,1,.4126-1.2754,1.5935,1.5935,0,0,1,1.2973-.4951h2.5952v1.0351h-3.1049v2.3252h3.1049v1.0352h-3.1049v5.67h2.76v1.0351h-6.57Z"/><path class="cls-7" d="M420.874,108.6081h2.79v-5.67h-2.79V101.903h3.99v6.7051h2.61v1.0351h-6.6Zm3.39-8.4151a.9975.9975,0,0,1-.7349-.2177.7545.7545,0,0,1-.21-.5469v-.24a.7582.7582,0,0,1,.21-.5479,1.3486,1.3486,0,0,1,1.47,0,.7578.7578,0,0,1,.21.5479v.24a.7541.7541,0,0,1-.21.5469A.998.998,0,0,1,424.2642,100.193Z"/><path class="cls-7" d="M436.6987,110.5358a1.858,1.858,0,0,1-.9751,1.7266,6.01,6.01,0,0,1-2.9248.5605,5.4484,5.4484,0,0,1-2.6928-.4951,1.5732,1.5732,0,0,1-.8174-1.4248,1.3513,1.3513,0,0,1,.33-.9746,1.9779,1.9779,0,0,1,.93-.5107v-.18a1.3457,1.3457,0,0,1-.51-.42,1.0907,1.0907,0,0,1-.18-.6455,1.0555,1.0555,0,0,1,.3974-.8994,2.7426,2.7426,0,0,1,.9976-.45v-.0595a2.4719,2.4719,0,0,1-1.1177-.9307,2.59,2.59,0,0,1-.3974-1.44,2.733,2.733,0,0,1,.21-1.08,2.3361,2.3361,0,0,1,.6075-.8477,2.8512,2.8512,0,0,1,.9526-.5478,3.6906,3.6906,0,0,1,1.23-.1944,3.5143,3.5143,0,0,1,1.53.3145v-.1348a1.2429,1.2429,0,0,1,.21-.74.8245.8245,0,0,1,.72-.2949h1.4248v1.0351h-1.74v.5254a2.4419,2.4419,0,0,1,.645.8545,2.819,2.819,0,0,1,.0073,2.19,2.4693,2.4693,0,0,1-.6074.8477,2.7463,2.7463,0,0,1-.9526.5469,3.762,3.762,0,0,1-1.2373.1953c-.13,0-.2549-.0049-.375-.0157s-.24-.0244-.36-.0449a2.27,2.27,0,0,0-.375.0986,1.5007,1.5007,0,0,0-.36.1817,1.0461,1.0461,0,0,0-.27.2656.5966.5966,0,0,0-.1049.3486.45.45,0,0,0,.3452.462,2.9293,2.9293,0,0,0,.9.1142h1.71a3.393,3.393,0,0,1,2.1753.5606A1.853,1.853,0,0,1,436.6987,110.5358Zm-1.125.0518a.8771.8771,0,0,0-.375-.7422,2.28,2.28,0,0,0-1.3051-.2774h-2.6851a1.083,1.083,0,0,0-.78,1.05,1.1466,1.1466,0,0,0,.4048.8779,1.9912,1.9912,0,0,0,1.35.3672h1.17a3.4254,3.4254,0,0,0,1.6353-.3223A1.03,1.03,0,0,0,435.5737,110.5876Zm-2.8349-4.4541a1.83,1.83,0,0,0,1.3276-.4209,1.4846,1.4846,0,0,0,.4273-1.1094v-.4355a1.463,1.463,0,0,0-.4273-1.1026,1.8553,1.8553,0,0,0-1.3276-.4121,1.8276,1.8276,0,0,0-1.32.4121,1.4768,1.4768,0,0,0-.42,1.1026v.4355a1.4988,1.4988,0,0,0,.42,1.1094A1.8028,1.8028,0,0,0,432.7388,106.1335Z"/><path class="cls-7" d="M443.6138,108.3835h-.06a3.1239,3.1239,0,0,1-.3.5469,1.9315,1.9315,0,0,1-.4429.458,2.2059,2.2059,0,0,1-.6225.3144,2.6551,2.6551,0,0,1-.84.12,2.5631,2.5631,0,0,1-1.95-.7724,3.04,3.04,0,0,1-.7353-2.1826V101.903h1.2v4.7549a2.3127,2.3127,0,0,0,.4648,1.583,1.7424,1.7424,0,0,0,1.3652.5176,2.764,2.764,0,0,0,.7051-.0908,2.0105,2.0105,0,0,0,.6148-.27,1.4074,1.4074,0,0,0,.435-.458,1.2818,1.2818,0,0,0,.1651-.667v-5.37h1.2v7.74h-1.2Z"/><path class="cls-7" d="M447.4385,108.6081h2.2651v-5.67h-2.2651V101.903h3.4653v1.95h.0747a2.5728,2.5728,0,0,1,.9077-1.4326,2.6994,2.6994,0,0,1,1.7027-.5176h1.08v1.2h-1.4546a2.3442,2.3442,0,0,0-1.6729.5986,2.0529,2.0529,0,0,0-.6372,1.57v3.336h3v1.0351h-6.4653Z"/><path class="cls-7" d="M462.708,109.6432a1.2416,1.2416,0,0,1-1.0049-.36,1.7457,1.7457,0,0,1-.375-.8994h-.0747a2.1721,2.1721,0,0,1-.8179,1.0566,2.6328,2.6328,0,0,1-1.5073.3828,2.8344,2.8344,0,0,1-1.935-.63,2.1729,2.1729,0,0,1-.72-1.7246,1.9492,1.9492,0,0,1,.7871-1.665,4.3191,4.3191,0,0,1,2.5425-.585h1.65v-.7607a1.6135,1.6135,0,0,0-.48-1.2744,1.9949,1.9949,0,0,0-1.3652-.4248,2.3917,2.3917,0,0,0-1.2749.3066,2.313,2.313,0,0,0-.7949.833l-.81-.6006a2.7281,2.7281,0,0,1,.4048-.5869,2.5738,2.5738,0,0,1,.63-.5078,3.4278,3.4278,0,0,1,.855-.3506,4.1094,4.1094,0,0,1,1.0654-.1289,3.2093,3.2093,0,0,1,2.1675.6914,2.4055,2.4055,0,0,1,.8022,1.9239v4.2695h1.08v1.0351Zm-3.57-.8252a2.9923,2.9923,0,0,0,.8476-.1123,2.4935,2.4935,0,0,0,.6675-.3,1.4069,1.4069,0,0,0,.4424-.45,1.0739,1.0739,0,0,0,.1577-.5625v-1.2753h-1.65a3.158,3.158,0,0,0-1.5747.3.9594.9594,0,0,0-.4951.87v.3154a1.0464,1.0464,0,0,0,.4277.9072A1.982,1.982,0,0,0,459.1382,108.818Z"/><path class="cls-7" d="M469.1582,109.6432a1.5964,1.5964,0,0,1-1.2974-.4941,1.9149,1.9149,0,0,1-.4126-1.2725v-4.9384h-2.58V101.903h1.92a.5881.5881,0,0,0,.7051-.7051V99.1725h1.1552v2.7305h3.5249v1.0352h-3.5249v5.67h3.5249v1.0351Z"/><path class="cls-7" d="M474.873,108.6081h2.79v-5.67h-2.79V101.903h3.99v6.7051h2.61v1.0351h-6.6Zm3.39-8.4151a.9977.9977,0,0,1-.7349-.2177.7544.7544,0,0,1-.21-.5469v-.24a.7581.7581,0,0,1,.21-.5479,1.3486,1.3486,0,0,1,1.47,0,.7578.7578,0,0,1,.21.5479v.24a.7541.7541,0,0,1-.21.5469A.998.998,0,0,1,478.2632,100.193Z"/><path class="cls-7" d="M486.7832,109.8229a3.61,3.61,0,0,1-1.4624-.2851,3.0413,3.0413,0,0,1-1.11-.8174,3.65,3.65,0,0,1-.6977-1.2744,5.9276,5.9276,0,0,1,0-3.3379,3.6345,3.6345,0,0,1,.6977-1.2822,3.04,3.04,0,0,1,1.11-.8174,3.8919,3.8919,0,0,1,2.9248,0,3.04,3.04,0,0,1,1.11.8174,3.6409,3.6409,0,0,1,.6977,1.2822,5.9276,5.9276,0,0,1,0,3.3379,3.6565,3.6565,0,0,1-.6977,1.2744,3.0413,3.0413,0,0,1-1.11.8174A3.61,3.61,0,0,1,486.7832,109.8229Zm0-1.0351a2.2194,2.2194,0,0,0,1.62-.6,2.5,2.5,0,0,0,.6148-1.86v-1.1094a2.4985,2.4985,0,0,0-.6148-1.86,2.4885,2.4885,0,0,0-3.24,0,2.4964,2.4964,0,0,0-.6148,1.86v1.1094a2.4981,2.4981,0,0,0,.6148,1.86A2.2194,2.2194,0,0,0,486.7832,108.7878Z"/><path class="cls-7" d="M492.7529,109.6432v-7.74h1.2v1.26h.06a3.1168,3.1168,0,0,1,.3-.5469,1.9218,1.9218,0,0,1,.4429-.458,2.2035,2.2035,0,0,1,.6225-.3145,2.6562,2.6562,0,0,1,.84-.12,2.5631,2.5631,0,0,1,1.95.7725,3.04,3.04,0,0,1,.7353,2.1826v4.9648h-1.2v-4.7548a2.313,2.313,0,0,0-.4648-1.583,1.7419,1.7419,0,0,0-1.3652-.5176,2.8014,2.8014,0,0,0-.7051.09,2.0309,2.0309,0,0,0-.6148.27,1.3868,1.3868,0,0,0-.435.4649,1.2909,1.2909,0,0,0-.1651.66v5.37Z"/><path class="cls-7" d="M501.1826,112.1784v-1.0957h7.2v1.0957Z"/><path class="cls-7" d="M514.1577,109.6432a1.5962,1.5962,0,0,1-1.2973-.4941,1.9149,1.9149,0,0,1-.4126-1.2725v-4.9384h-2.58V101.903h1.92a.5881.5881,0,0,0,.7051-.7051V99.1725h1.1552v2.7305h3.525v1.0352h-3.525v5.67h3.525v1.0351Z"/><path class="cls-7" d="M525.2876,101.903h1.2l-3.84,9.4346a3.2921,3.2921,0,0,1-.3.5781,1.51,1.51,0,0,1-.39.4053,1.67,1.67,0,0,1-.54.2392,3.0006,3.0006,0,0,1-.75.083h-1.14v-1.0351h1.8l.87-2.1152-3.12-7.59h1.23l1.3052,3.24,1.1548,2.94h.06l1.1553-2.94Z"/><path class="cls-7" d="M528.707,101.903h1.2v1.26h.06a2.5068,2.5068,0,0,1,2.3848-1.44,2.6318,2.6318,0,0,1,2.2275,1.0645,5.9528,5.9528,0,0,1,0,5.9707,2.632,2.632,0,0,1-2.2275,1.0644,2.5069,2.5069,0,0,1-2.3848-1.4394h-.06v4.26h-1.2Zm3.18,6.8555a2.0844,2.0844,0,0,0,1.6274-.6377,2.4175,2.4175,0,0,0,.5777-1.6875v-1.32a2.4175,2.4175,0,0,0-.5777-1.6875,2.0844,2.0844,0,0,0-1.6274-.6377,2.71,2.71,0,0,0-.7651.1054,1.9436,1.9436,0,0,0-.63.3077,1.4951,1.4951,0,0,0-.4273.4951,1.4146,1.4146,0,0,0-.1577.6816v2.79a1.4161,1.4161,0,0,0,.1577.6826,1.4961,1.4961,0,0,0,.4273.4951,1.9618,1.9618,0,0,0,.63.3076A2.71,2.71,0,0,0,531.8872,108.7585Z"/><path class="cls-7" d="M540.917,109.8229a3.7957,3.7957,0,0,1-1.5073-.2851,3.1589,3.1589,0,0,1-1.14-.8174,3.7127,3.7127,0,0,1-.7275-1.2744,5.5111,5.5111,0,0,1,.0078-3.3379,3.8571,3.8571,0,0,1,.7275-1.2822,3.1128,3.1128,0,0,1,1.1172-.8174,3.5709,3.5709,0,0,1,1.4478-.2852,3.428,3.428,0,0,1,1.4175.2852,3.1765,3.1765,0,0,1,1.0874.7871,3.471,3.471,0,0,1,.69,1.1924,4.5775,4.5775,0,0,1,.24,1.5146v.57h-5.73v.36a2.63,2.63,0,0,0,.165.9443,2.1381,2.1381,0,0,0,.4722.75,2.1,2.1,0,0,0,.75.4883,2.6986,2.6986,0,0,0,.9824.1719,2.4807,2.4807,0,0,0,1.35-.3594,2.3312,2.3312,0,0,0,.87-.99l.8853.6a2.8808,2.8808,0,0,1-1.148,1.2832A3.6254,3.6254,0,0,1,540.917,109.8229Zm-.0747-7.11a2.2963,2.2963,0,0,0-.9151.1806,2.225,2.225,0,0,0-1.2075,1.2373,2.48,2.48,0,0,0-.1723.9375v.1045h4.44v-.164a2.6359,2.6359,0,0,0-.1577-.9307,2.2613,2.2613,0,0,0-.4351-.7275,1.8582,1.8582,0,0,0-.6748-.4727A2.279,2.279,0,0,0,540.8423,102.7126Z"/><path class="cls-7" d="M546.5571,108.1579l5.3252-3.0147v-.12l-5.3252-3.0146v-1.2754l6.45,3.7353v1.1993l-6.45,3.7353Z"/><path class="cls-7" d="M556.8921,102.6979V98.5427h1.14v4.1552Zm2.6553,0V98.5427h1.14v4.1552Z"/><path class="cls-5" d="M567.1367,107.6032h1.9351l-1.7251,4.1553h-1.0049Z"/><path class="cls-6" d="M232.8965,126.6979v-4.1552h1.14v4.1552Zm2.6553,0v-4.1552h1.14v4.1552Z"/><path class="cls-6" d="M244.0566,133.8229a3.6239,3.6239,0,0,1-1.4926-.292,3.1032,3.1032,0,0,1-1.1026-.8183,3.5365,3.5365,0,0,1-.6821-1.2744,5.5956,5.5956,0,0,1-.2329-1.6651,5.44,5.44,0,0,1,.24-1.665,3.7071,3.7071,0,0,1,.69-1.2822,2.9926,2.9926,0,0,1,1.0952-.8174,3.5931,3.5931,0,0,1,1.47-.2852,3.1174,3.1174,0,0,1,1.83.4951,2.9053,2.9053,0,0,1,1.0351,1.29l-.96.51a1.8132,1.8132,0,0,0-.6978-.9306,2.1078,2.1078,0,0,0-1.2075-.3291,2.423,2.423,0,0,0-.9375.1719,1.9327,1.9327,0,0,0-.6973.4873,2.0518,2.0518,0,0,0-.4277.75,3.0159,3.0159,0,0,0-.1426.9453v1.32a3.0055,3.0055,0,0,0,.1426.9443,2.0444,2.0444,0,0,0,.4277.75,1.9194,1.9194,0,0,0,.7051.4883,2.5207,2.5207,0,0,0,.96.1719,2.19,2.19,0,0,0,1.29-.3594,2.4928,2.4928,0,0,0,.81-.99l.8555.5849a3.08,3.08,0,0,1-1.0728,1.29A3.2394,3.2394,0,0,1,244.0566,133.8229Z"/><path class="cls-6" d="M252.7866,133.8229a3.61,3.61,0,0,1-1.4624-.2851,3.0409,3.0409,0,0,1-1.11-.8174,3.6487,3.6487,0,0,1-.6978-1.2744,5.93,5.93,0,0,1,0-3.3379,3.6331,3.6331,0,0,1,.6978-1.2822,3.04,3.04,0,0,1,1.11-.8174,3.8919,3.8919,0,0,1,2.9248,0,3.04,3.04,0,0,1,1.11.8174,3.6393,3.6393,0,0,1,.6977,1.2822,5.9276,5.9276,0,0,1,0,3.3379,3.6549,3.6549,0,0,1-.6977,1.2744,3.0413,3.0413,0,0,1-1.11.8174A3.61,3.61,0,0,1,252.7866,133.8229Zm0-1.0351a2.2194,2.2194,0,0,0,1.62-.6,2.5,2.5,0,0,0,.6148-1.86v-1.1094a2.4985,2.4985,0,0,0-.6148-1.86,2.4885,2.4885,0,0,0-3.24,0,2.4964,2.4964,0,0,0-.6147,1.86v1.1094a2.4981,2.4981,0,0,0,.6147,1.86A2.22,2.22,0,0,0,252.7866,132.7878Z"/><path class="cls-6" d="M258.7568,133.6432v-7.74h1.2v1.26h.06a3.1168,3.1168,0,0,1,.3-.5469,1.9218,1.9218,0,0,1,.4429-.458,2.2035,2.2035,0,0,1,.6225-.3145,2.6562,2.6562,0,0,1,.84-.12,2.5631,2.5631,0,0,1,1.95.7725,3.04,3.04,0,0,1,.7353,2.1826v4.9648h-1.2v-4.7548a2.313,2.313,0,0,0-.4648-1.583,1.7419,1.7419,0,0,0-1.3652-.5176,2.8014,2.8014,0,0,0-.7051.09,2.0309,2.0309,0,0,0-.6148.27,1.3868,1.3868,0,0,0-.435.4649,1.2909,1.2909,0,0,0-.1651.66v5.37Z"/><path class="cls-6" d="M267.5312,132.6081h2.61v-5.67h-2.76V125.903h2.76v-1.59a1.9247,1.9247,0,0,1,.4126-1.2754,1.5935,1.5935,0,0,1,1.2974-.4951h2.5952v1.0351h-3.105v2.3252h3.105v1.0352h-3.105v5.67h2.76v1.0351h-6.57Z"/><path class="cls-6" d="M276.876,132.6081h2.79v-5.67h-2.79V125.903h3.99v6.7051h2.61v1.0351h-6.6Zm3.39-8.4151a.9977.9977,0,0,1-.7349-.2177.7544.7544,0,0,1-.21-.5469v-.24a.7581.7581,0,0,1,.21-.5479,1.3487,1.3487,0,0,1,1.47,0,.7581.7581,0,0,1,.21.5479v.24a.7544.7544,0,0,1-.21.5469A.9985.9985,0,0,1,280.2661,124.193Z"/><path class="cls-6" d="M292.7012,134.5358a1.858,1.858,0,0,1-.9751,1.7266,6.01,6.01,0,0,1-2.9248.56,5.4488,5.4488,0,0,1-2.6929-.4951,1.5734,1.5734,0,0,1-.8174-1.4248,1.3517,1.3517,0,0,1,.33-.9746,1.9782,1.9782,0,0,1,.93-.5107v-.18a1.3461,1.3461,0,0,1-.51-.42,1.0907,1.0907,0,0,1-.18-.6455,1.0555,1.0555,0,0,1,.3975-.8994,2.7421,2.7421,0,0,1,.9975-.45v-.06a2.4716,2.4716,0,0,1-1.1176-.9307,2.589,2.589,0,0,1-.3975-1.4395,2.7313,2.7313,0,0,1,.21-1.08,2.3359,2.3359,0,0,1,.6074-.8477,2.8512,2.8512,0,0,1,.9526-.5478,3.691,3.691,0,0,1,1.23-.1944,3.514,3.514,0,0,1,1.53.3145v-.1348a1.2423,1.2423,0,0,1,.21-.74.8242.8242,0,0,1,.72-.2949h1.4248v1.0351h-1.74v.5254a2.4419,2.4419,0,0,1,.645.8545,2.82,2.82,0,0,1,.0074,2.19,2.4706,2.4706,0,0,1-.6074.8477,2.7477,2.7477,0,0,1-.9527.5469,3.762,3.762,0,0,1-1.2373.1953c-.13,0-.2549-.0049-.375-.0157s-.24-.0244-.36-.0449a2.27,2.27,0,0,0-.375.0986,1.5044,1.5044,0,0,0-.36.1817,1.0441,1.0441,0,0,0-.27.2656.5966.5966,0,0,0-.105.3486.45.45,0,0,0,.3452.462,2.9293,2.9293,0,0,0,.9.1142h1.71a3.393,3.393,0,0,1,2.1753.5606A1.853,1.853,0,0,1,292.7012,134.5358Zm-1.125.0518a.8771.8771,0,0,0-.375-.7422,2.28,2.28,0,0,0-1.3052-.2774h-2.6851a1.0829,1.0829,0,0,0-.78,1.05,1.1465,1.1465,0,0,0,.4047.8779,1.9915,1.9915,0,0,0,1.35.3672h1.17a3.4247,3.4247,0,0,0,1.6352-.3223A1.03,1.03,0,0,0,291.5762,134.5876Zm-2.835-4.4541a1.83,1.83,0,0,0,1.3276-.4209,1.4846,1.4846,0,0,0,.4273-1.1094v-.4355a1.463,1.463,0,0,0-.4273-1.1026,1.8552,1.8552,0,0,0-1.3276-.4121,1.8278,1.8278,0,0,0-1.32.4121,1.4768,1.4768,0,0,0-.42,1.1026v.4355a1.4988,1.4988,0,0,0,.42,1.1094A1.803,1.803,0,0,0,288.7412,130.1335Z"/><path class="cls-6" d="M295.8955,126.6979v-4.1552h1.14v4.1552Zm2.6553,0v-4.1552h1.14v4.1552Z"/><path class="cls-5" d="M306.7856,127.8376a1.1729,1.1729,0,0,1-.8623-.2549.8875.8875,0,0,1-.2475-.6445v-.27a.8876.8876,0,0,1,.2475-.6446,1.586,1.586,0,0,1,1.7246,0,.8872.8872,0,0,1,.2476.6446v.27a.8872.8872,0,0,1-.2476.6445A1.1726,1.1726,0,0,1,306.7856,127.8376Zm0,5.94a1.1773,1.1773,0,0,1-.8623-.2549.8881.8881,0,0,1-.2475-.6455v-.2695a.8913.8913,0,0,1,.2475-.6455,1.586,1.586,0,0,1,1.7246,0,.891.891,0,0,1,.2476.6455v.2695a.8878.8878,0,0,1-.2476.6455A1.177,1.177,0,0,1,306.7856,133.778Z"/><path class="cls-5" d="M325.0708,135.7126a1.2018,1.2018,0,0,1-.9453-.3526,1.2664,1.2664,0,0,1-.315-.8769v-.9453a2.6711,2.6711,0,0,1,.0826-.7051,2.9588,2.9588,0,0,1,.2026-.54,2.4211,2.4211,0,0,1,.27-.4268c.1-.125.1948-.2432.2852-.3525a2.3266,2.3266,0,0,0,.352-.5176,1.11,1.11,0,0,0,.0977-.458.8716.8716,0,0,0-.5249-.8321,3.57,3.57,0,0,0-1.5449-.2627h-1.17v-.93h1.17a3.57,3.57,0,0,0,1.5449-.2627.8719.8719,0,0,0,.5249-.833,1.1057,1.1057,0,0,0-.0977-.4571,2.3266,2.3266,0,0,0-.352-.5176q-.1356-.1654-.2852-.3525a2.5064,2.5064,0,0,1-.27-.42,2.6888,2.6888,0,0,1-.2026-.54,2.7532,2.7532,0,0,1-.0826-.7128v-.9444a1.2689,1.2689,0,0,1,.315-.8779,1.2052,1.2052,0,0,1,.9453-.3525h2.64v.93h-2.8647v1.1553a2.0057,2.0057,0,0,0,.18.9453,5.0175,5.0175,0,0,0,.42.6446q.2548.3311.48.6826a1.5165,1.5165,0,0,1,.2251.833,1.2943,1.2943,0,0,1-.4429,1.0195,2.2306,2.2306,0,0,1-1.2075.4951v.0606a2.2384,2.2384,0,0,1,1.2075.4941,1.2978,1.2978,0,0,1,.4429,1.02,1.5113,1.5113,0,0,1-.2251.8321q-.2249.3529-.48.6826a5.0262,5.0262,0,0,0-.42.6455,2.004,2.004,0,0,0-.18.9443v1.1553H327.71v.93Z"/><path class="cls-6" d="M259.8965,150.6979v-4.1552h1.14v4.1552Zm2.6553,0v-4.1552h1.14v4.1552Z"/><path class="cls-6" d="M267.561,153.6677v-1.1993l6.45-3.7353v1.2451l-5.3252,3.0147v.12l5.3252,3.0146v1.2754Z"/><path class="cls-6" d="M276.7109,149.903h1.2v1.26h.06a2.5068,2.5068,0,0,1,2.3848-1.44,2.6317,2.6317,0,0,1,2.2275,1.0645,5.9528,5.9528,0,0,1,0,5.9707,2.6319,2.6319,0,0,1-2.2275,1.0644,2.5069,2.5069,0,0,1-2.3848-1.4394h-.06v4.26h-1.2Zm3.18,6.8555a2.0848,2.0848,0,0,0,1.6275-.6377,2.418,2.418,0,0,0,.5776-1.6875v-1.32a2.418,2.418,0,0,0-.5776-1.6875,2.0848,2.0848,0,0,0-1.6275-.6377,2.71,2.71,0,0,0-.7651.1054,1.9436,1.9436,0,0,0-.63.3077,1.4951,1.4951,0,0,0-.4273.4951,1.4146,1.4146,0,0,0-.1577.6816v2.79a1.4161,1.4161,0,0,0,.1577.6826,1.4961,1.4961,0,0,0,.4273.4951,1.9618,1.9618,0,0,0,.63.3076A2.71,2.71,0,0,0,279.8911,156.7585Z"/><path class="cls-6" d="M285.4409,156.6081h2.2652v-5.67h-2.2652V149.903h3.4653v1.95h.0748a2.5723,2.5723,0,0,1,.9077-1.4326,2.6991,2.6991,0,0,1,1.7026-.5176h1.08v1.2h-1.4546a2.3441,2.3441,0,0,0-1.6728.5986,2.053,2.053,0,0,0-.6373,1.57v3.336h3v1.0351h-6.4653Z"/><path class="cls-6" d="M297.7856,157.8229a3.61,3.61,0,0,1-1.4624-.2851,3.0417,3.0417,0,0,1-1.11-.8174,3.6487,3.6487,0,0,1-.6978-1.2744,5.93,5.93,0,0,1,0-3.3379,3.6331,3.6331,0,0,1,.6978-1.2822,3.0406,3.0406,0,0,1,1.11-.8174,3.8919,3.8919,0,0,1,2.9248,0,3.04,3.04,0,0,1,1.11.8174,3.641,3.641,0,0,1,.6978,1.2822,5.93,5.93,0,0,1,0,3.3379,3.6567,3.6567,0,0,1-.6978,1.2744,3.0413,3.0413,0,0,1-1.11.8174A3.61,3.61,0,0,1,297.7856,157.8229Zm0-1.0351a2.22,2.22,0,0,0,1.62-.6,2.5005,2.5005,0,0,0,.6147-1.86v-1.1094a2.4989,2.4989,0,0,0-.6147-1.86,2.4887,2.4887,0,0,0-3.24,0,2.4968,2.4968,0,0,0-.6147,1.86v1.1094a2.4985,2.4985,0,0,0,.6147,1.86A2.22,2.22,0,0,0,297.7856,156.7878Z"/><path class="cls-6" d="M303.71,149.903h1.2v1.26h.06a2.5068,2.5068,0,0,1,2.3848-1.44,2.6316,2.6316,0,0,1,2.2275,1.0645,5.9528,5.9528,0,0,1,0,5.9707,2.6317,2.6317,0,0,1-2.2275,1.0644,2.5069,2.5069,0,0,1-2.3848-1.4394h-.06v4.26h-1.2Zm3.18,6.8555a2.0848,2.0848,0,0,0,1.6275-.6377,2.418,2.418,0,0,0,.5776-1.6875v-1.32a2.418,2.418,0,0,0-.5776-1.6875,2.0848,2.0848,0,0,0-1.6275-.6377,2.71,2.71,0,0,0-.7651.1054,1.9436,1.9436,0,0,0-.63.3077,1.4937,1.4937,0,0,0-.4272.4951,1.4134,1.4134,0,0,0-.1578.6816v2.79a1.415,1.415,0,0,0,.1578.6826,1.4947,1.4947,0,0,0,.4272.4951,1.9618,1.9618,0,0,0,.63.3076A2.71,2.71,0,0,0,306.8906,156.7585Z"/><path class="cls-6" d="M315.92,157.8229a3.7961,3.7961,0,0,1-1.5073-.2851,3.16,3.16,0,0,1-1.14-.8174,3.7127,3.7127,0,0,1-.7275-1.2744,5.5111,5.5111,0,0,1,.0078-3.3379,3.8555,3.8555,0,0,1,.7276-1.2822,3.1116,3.1116,0,0,1,1.1171-.8174,3.5709,3.5709,0,0,1,1.4478-.2852,3.428,3.428,0,0,1,1.4175.2852,3.1765,3.1765,0,0,1,1.0874.7871,3.471,3.471,0,0,1,.69,1.1924,4.5775,4.5775,0,0,1,.24,1.5146v.57h-5.73v.36a2.63,2.63,0,0,0,.165.9443,2.1381,2.1381,0,0,0,.4722.75,2.1019,2.1019,0,0,0,.75.4883,2.6986,2.6986,0,0,0,.9824.1719,2.4807,2.4807,0,0,0,1.35-.3594,2.3312,2.3312,0,0,0,.87-.99l.8853.6a2.8808,2.8808,0,0,1-1.148,1.2832A3.6252,3.6252,0,0,1,315.92,157.8229Zm-.0747-7.11a2.2955,2.2955,0,0,0-.915.1806,2.2247,2.2247,0,0,0-1.2076,1.2373,2.48,2.48,0,0,0-.1723.9375v.1045h4.44v-.164a2.6359,2.6359,0,0,0-.1577-.9307,2.2613,2.2613,0,0,0-.4351-.7275,1.8582,1.8582,0,0,0-.6748-.4727A2.279,2.279,0,0,0,315.8457,150.7126Z"/><path class="cls-6" d="M321.44,156.6081h2.2652v-5.67H321.44V149.903h3.4654v1.95h.0747a2.5723,2.5723,0,0,1,.9077-1.4326,2.6991,2.6991,0,0,1,1.7026-.5176h1.08v1.2h-1.4546a2.3441,2.3441,0,0,0-1.6728.5986,2.0529,2.0529,0,0,0-.6372,1.57v3.336h3v1.0351H321.44Z"/><path class="cls-6" d="M334.16,157.6432a1.5963,1.5963,0,0,1-1.2974-.4941,1.9149,1.9149,0,0,1-.4126-1.2725v-4.9384h-2.58V149.903h1.92a.588.588,0,0,0,.7051-.7051v-2.0254H333.65v2.73h3.5249v1.0352H333.65v5.67h3.5249v1.0351Z"/><path class="cls-6" d="M345.29,149.903h1.2l-3.84,9.4346a3.2855,3.2855,0,0,1-.3.5781,1.51,1.51,0,0,1-.39.4053,1.67,1.67,0,0,1-.54.2392,3,3,0,0,1-.75.083h-1.14v-1.0351h1.8l.87-2.1152-3.12-7.59h1.23l1.3051,3.24,1.1548,2.9395h.06l1.1553-2.9395Z"/><path class="cls-6" d="M348.1851,160.1784v-1.0957h7.2v1.0957Z"/><path class="cls-6" d="M357.7549,157.6432v-7.74h1.2v1.26h.06a3.1108,3.1108,0,0,1,.3-.5469,1.9214,1.9214,0,0,1,.4428-.458,2.2027,2.2027,0,0,1,.6226-.3145,2.6551,2.6551,0,0,1,.84-.12,2.5628,2.5628,0,0,1,1.95.7725,3.0391,3.0391,0,0,1,.7354,2.1826v4.9648h-1.2v-4.7548a2.313,2.313,0,0,0-.4649-1.583,1.7418,1.7418,0,0,0-1.3652-.5176,2.802,2.802,0,0,0-.7051.09,2.0314,2.0314,0,0,0-.6147.27,1.3871,1.3871,0,0,0-.4351.4649,1.2919,1.2919,0,0,0-.165.66v5.37Z"/><path class="cls-6" d="M372.71,157.6432a1.2415,1.2415,0,0,1-1.0049-.36,1.7457,1.7457,0,0,1-.375-.8994h-.0747a2.1721,2.1721,0,0,1-.8179,1.0566,2.6328,2.6328,0,0,1-1.5073.3828,2.8346,2.8346,0,0,1-1.9351-.63,2.1729,2.1729,0,0,1-.72-1.7246,1.9492,1.9492,0,0,1,.7871-1.665,4.3191,4.3191,0,0,1,2.5425-.585h1.65v-.7607a1.6139,1.6139,0,0,0-.48-1.2744,1.9949,1.9949,0,0,0-1.3652-.4248,2.3912,2.3912,0,0,0-1.2749.3066,2.3141,2.3141,0,0,0-.795.833l-.81-.6006a2.7245,2.7245,0,0,1,.4048-.5869,2.5738,2.5738,0,0,1,.63-.5078,3.4286,3.4286,0,0,1,.8549-.3506,4.11,4.11,0,0,1,1.0655-.1289,3.209,3.209,0,0,1,2.1674.6914,2.4053,2.4053,0,0,1,.8023,1.9239v4.2695h1.08v1.0351Zm-3.57-.8252a2.993,2.993,0,0,0,.8477-.1123,2.4935,2.4935,0,0,0,.6675-.3,1.4079,1.4079,0,0,0,.4424-.45,1.0749,1.0749,0,0,0,.1577-.5625v-1.2753h-1.65a3.158,3.158,0,0,0-1.5747.3.9594.9594,0,0,0-.4951.87v.3154a1.0462,1.0462,0,0,0,.4277.9072A1.9816,1.9816,0,0,0,369.14,156.818Z"/><path class="cls-6" d="M375.0947,157.6432v-7.74h1.11v.9h.06a2.1362,2.1362,0,0,1,.51-.7656,1.668,1.668,0,0,1,1.98.0224,1.519,1.519,0,0,1,.4048.878h.0449a2.2663,2.2663,0,0,1,.6-.87,1.5767,1.5767,0,0,1,1.08-.3447,1.2714,1.2714,0,0,1,1.2675.66,4.4149,4.4149,0,0,1,.3223,1.89v5.37h-1.11v-5.1748a3.225,3.225,0,0,0-.2026-1.373.7639.7639,0,0,0-.7427-.3828,1.0443,1.0443,0,0,0-.78.3076,1.2954,1.2954,0,0,0-.3.9375v5.6855h-1.11v-5.1748a3.2344,3.2344,0,0,0-.2022-1.373.7508.7508,0,0,0-.7275-.3828,1.069,1.069,0,0,0-.7876.3076,1.2754,1.2754,0,0,0-.3076.9375v5.6855Z"/><path class="cls-6" d="M387.9194,157.8229a3.7961,3.7961,0,0,1-1.5073-.2851,3.1586,3.1586,0,0,1-1.14-.8174,3.7129,3.7129,0,0,1-.7276-1.2744,5.5131,5.5131,0,0,1,.0078-3.3379,3.8572,3.8572,0,0,1,.7276-1.2822,3.112,3.112,0,0,1,1.1172-.8174,3.57,3.57,0,0,1,1.4477-.2852,3.428,3.428,0,0,1,1.4175.2852,3.1765,3.1765,0,0,1,1.0874.7871,3.4728,3.4728,0,0,1,.69,1.1924,4.58,4.58,0,0,1,.24,1.5146v.57h-5.73v.36a2.63,2.63,0,0,0,.165.9443,2.1381,2.1381,0,0,0,.4722.75,2.1019,2.1019,0,0,0,.75.4883,2.699,2.699,0,0,0,.9824.1719,2.48,2.48,0,0,0,1.35-.3594,2.3305,2.3305,0,0,0,.87-.99l.8853.6a2.8811,2.8811,0,0,1-1.1479,1.2832A3.6255,3.6255,0,0,1,387.9194,157.8229Zm-.0747-7.11a2.2958,2.2958,0,0,0-.915.1806,2.2241,2.2241,0,0,0-1.2075,1.2373,2.4784,2.4784,0,0,0-.1724.9375v.1045h4.44v-.164a2.6359,2.6359,0,0,0-.1577-.9307,2.261,2.261,0,0,0-.435-.7275,1.86,1.86,0,0,0-.6748-.4727A2.28,2.28,0,0,0,387.8447,150.7126Z"/><path class="cls-6" d="M393.5591,156.1579l5.3252-3.0147v-.12l-5.3252-3.0146v-1.2754l6.45,3.7353v1.1993l-6.45,3.7353Z"/><path class="cls-6" d="M403.894,150.6979v-4.1552h1.14v4.1552Zm2.6553,0v-4.1552h1.14v4.1552Z"/><path class="cls-5" d="M414.7842,151.8376a1.1726,1.1726,0,0,1-.8623-.2549.8872.8872,0,0,1-.2476-.6445v-.27a.8872.8872,0,0,1,.2476-.6446,1.586,1.586,0,0,1,1.7246,0,.8876.8876,0,0,1,.2475.6446v.27a.8875.8875,0,0,1-.2475.6445A1.1729,1.1729,0,0,1,414.7842,151.8376Zm0,5.94a1.177,1.177,0,0,1-.8623-.2549.8878.8878,0,0,1-.2476-.6455v-.2695a.891.891,0,0,1,.2476-.6455,1.586,1.586,0,0,1,1.7246,0,.8913.8913,0,0,1,.2475.6455v.2695a.8881.8881,0,0,1-.2475.6455A1.1773,1.1773,0,0,1,414.7842,157.778Z"/><path class="cls-7" d="M430.8936,150.6979v-4.1552h1.14v4.1552Zm2.6552,0v-4.1552h1.14v4.1552Z"/><path class="cls-7" d="M438.5586,153.6677v-1.1993l6.45-3.7353v1.2451l-5.3252,3.0147v.12l5.3252,3.0146v1.2754Z"/><path class="cls-7" d="M450.0186,157.6432l-2.7749-7.74h1.2148l1.11,3.24,1.2,3.4952h.06l1.2-3.4952,1.11-3.24h1.185l-2.7749,7.74Z"/><path class="cls-7" d="M462.708,157.6432a1.2416,1.2416,0,0,1-1.0049-.36,1.7457,1.7457,0,0,1-.375-.8994h-.0747a2.1721,2.1721,0,0,1-.8179,1.0566,2.6328,2.6328,0,0,1-1.5073.3828,2.8344,2.8344,0,0,1-1.935-.63,2.1729,2.1729,0,0,1-.72-1.7246,1.9492,1.9492,0,0,1,.7871-1.665,4.3191,4.3191,0,0,1,2.5425-.585h1.65v-.7607a1.6135,1.6135,0,0,0-.48-1.2744,1.9949,1.9949,0,0,0-1.3652-.4248,2.3917,2.3917,0,0,0-1.2749.3066,2.313,2.313,0,0,0-.7949.833l-.81-.6006a2.7281,2.7281,0,0,1,.4048-.5869,2.5738,2.5738,0,0,1,.63-.5078,3.4278,3.4278,0,0,1,.855-.3506,4.1094,4.1094,0,0,1,1.0654-.1289,3.2093,3.2093,0,0,1,2.1675.6914,2.4055,2.4055,0,0,1,.8022,1.9239v4.2695h1.08v1.0351Zm-3.57-.8252a2.9923,2.9923,0,0,0,.8476-.1123,2.4935,2.4935,0,0,0,.6675-.3,1.4069,1.4069,0,0,0,.4424-.45,1.0739,1.0739,0,0,0,.1577-.5625v-1.2753h-1.65a3.158,3.158,0,0,0-1.5747.3.9594.9594,0,0,0-.4951.87v.3154a1.0464,1.0464,0,0,0,.4277.9072A1.982,1.982,0,0,0,459.1382,156.818Z"/><path class="cls-7" d="M465.4834,156.6081h2.7v-9.03h-2.7v-1.0351h3.9v10.0654h2.7v1.0351h-6.6Z"/><path class="cls-7" d="M479.6133,156.3835h-.06a3.1239,3.1239,0,0,1-.3.5469,1.93,1.93,0,0,1-.4429.458,2.2059,2.2059,0,0,1-.6225.3144,2.6551,2.6551,0,0,1-.84.12,2.5631,2.5631,0,0,1-1.95-.7724,3.04,3.04,0,0,1-.7353-2.1826V149.903h1.2v4.7549a2.3127,2.3127,0,0,0,.4648,1.583,1.7425,1.7425,0,0,0,1.3653.5176,2.7638,2.7638,0,0,0,.705-.0908,2.0105,2.0105,0,0,0,.6148-.27,1.4064,1.4064,0,0,0,.435-.458,1.2818,1.2818,0,0,0,.1651-.667v-5.37h1.2v7.74h-1.2Z"/><path class="cls-7" d="M486.918,157.8229a3.7966,3.7966,0,0,1-1.5074-.2851,3.1586,3.1586,0,0,1-1.14-.8174,3.7127,3.7127,0,0,1-.7275-1.2744,5.5111,5.5111,0,0,1,.0078-3.3379,3.8571,3.8571,0,0,1,.7275-1.2822,3.112,3.112,0,0,1,1.1172-.8174,3.5709,3.5709,0,0,1,1.4478-.2852,3.4275,3.4275,0,0,1,1.4174.2852,3.1765,3.1765,0,0,1,1.0874.7871,3.4728,3.4728,0,0,1,.69,1.1924,4.58,4.58,0,0,1,.24,1.5146v.57h-5.73v.36a2.6275,2.6275,0,0,0,.1651.9443,2.1379,2.1379,0,0,0,.4721.75,2.1019,2.1019,0,0,0,.75.4883,2.7,2.7,0,0,0,.9825.1719,2.4807,2.4807,0,0,0,1.35-.3594,2.3318,2.3318,0,0,0,.87-.99l.8852.6a2.8805,2.8805,0,0,1-1.1479,1.2832A3.6254,3.6254,0,0,1,486.918,157.8229Zm-.0747-7.11a2.2963,2.2963,0,0,0-.9151.1806,2.225,2.225,0,0,0-1.2075,1.2373,2.48,2.48,0,0,0-.1724.9375v.1045h4.44v-.164a2.6382,2.6382,0,0,0-.1577-.9307,2.2613,2.2613,0,0,0-.4351-.7275,1.859,1.859,0,0,0-.6748-.4727A2.279,2.279,0,0,0,486.8433,150.7126Z"/><path class="cls-7" d="M492.5576,156.1579l5.3252-3.0147v-.12l-5.3252-3.0146v-1.2754l6.45,3.7353v1.1993l-6.45,3.7353Z"/><path class="cls-7" d="M502.8926,150.6979v-4.1552h1.14v4.1552Zm2.6553,0v-4.1552h1.14v4.1552Z"/><path class="cls-5" d="M513.1377,155.6032h1.9351l-1.7251,4.1553h-1.0049Z"/><path class="cls-6" d="M259.8965,174.6979v-4.1552h1.14v4.1552Zm2.6553,0v-4.1552h1.14v4.1552Z"/><path class="cls-6" d="M267.561,177.6677v-1.1993l6.45-3.7353v1.2451l-5.3252,3.0147v.12l5.3252,3.0146v1.2754Z"/><path class="cls-6" d="M276.7109,173.903h1.2v1.26h.06a2.5068,2.5068,0,0,1,2.3848-1.44,2.6317,2.6317,0,0,1,2.2275,1.0645,5.9528,5.9528,0,0,1,0,5.9707,2.6319,2.6319,0,0,1-2.2275,1.0644,2.5069,2.5069,0,0,1-2.3848-1.4394h-.06v4.26h-1.2Zm3.18,6.8555a2.0848,2.0848,0,0,0,1.6275-.6377,2.418,2.418,0,0,0,.5776-1.6875v-1.32a2.418,2.418,0,0,0-.5776-1.6875,2.0848,2.0848,0,0,0-1.6275-.6377,2.71,2.71,0,0,0-.7651.1054,1.9436,1.9436,0,0,0-.63.3077,1.4951,1.4951,0,0,0-.4273.4951,1.4146,1.4146,0,0,0-.1577.6816v2.79a1.4161,1.4161,0,0,0,.1577.6826,1.4961,1.4961,0,0,0,.4273.4951,1.9618,1.9618,0,0,0,.63.3076A2.71,2.71,0,0,0,279.8911,180.7585Z"/><path class="cls-6" d="M285.4409,180.6081h2.2652v-5.67h-2.2652V173.903h3.4653v1.95h.0748a2.5723,2.5723,0,0,1,.9077-1.4326,2.6991,2.6991,0,0,1,1.7026-.5176h1.08v1.2h-1.4546a2.3441,2.3441,0,0,0-1.6728.5986,2.053,2.053,0,0,0-.6373,1.57v3.336h3v1.0351h-6.4653Z"/><path class="cls-6" d="M297.7856,181.8229a3.61,3.61,0,0,1-1.4624-.2851,3.0417,3.0417,0,0,1-1.11-.8174,3.6487,3.6487,0,0,1-.6978-1.2744,5.93,5.93,0,0,1,0-3.3379,3.6331,3.6331,0,0,1,.6978-1.2822,3.0406,3.0406,0,0,1,1.11-.8174,3.8919,3.8919,0,0,1,2.9248,0,3.04,3.04,0,0,1,1.11.8174,3.641,3.641,0,0,1,.6978,1.2822,5.93,5.93,0,0,1,0,3.3379,3.6567,3.6567,0,0,1-.6978,1.2744,3.0413,3.0413,0,0,1-1.11.8174A3.61,3.61,0,0,1,297.7856,181.8229Zm0-1.0351a2.22,2.22,0,0,0,1.62-.6,2.5005,2.5005,0,0,0,.6147-1.86v-1.1094a2.4989,2.4989,0,0,0-.6147-1.86,2.4887,2.4887,0,0,0-3.24,0,2.4968,2.4968,0,0,0-.6147,1.86v1.1094a2.4985,2.4985,0,0,0,.6147,1.86A2.22,2.22,0,0,0,297.7856,180.7878Z"/><path class="cls-6" d="M303.71,173.903h1.2v1.26h.06a2.5068,2.5068,0,0,1,2.3848-1.44,2.6316,2.6316,0,0,1,2.2275,1.0645,5.9528,5.9528,0,0,1,0,5.9707,2.6317,2.6317,0,0,1-2.2275,1.0644,2.5069,2.5069,0,0,1-2.3848-1.4394h-.06v4.26h-1.2Zm3.18,6.8555a2.0848,2.0848,0,0,0,1.6275-.6377,2.418,2.418,0,0,0,.5776-1.6875v-1.32a2.418,2.418,0,0,0-.5776-1.6875,2.0848,2.0848,0,0,0-1.6275-.6377,2.71,2.71,0,0,0-.7651.1054,1.9436,1.9436,0,0,0-.63.3077,1.4937,1.4937,0,0,0-.4272.4951,1.4134,1.4134,0,0,0-.1578.6816v2.79a1.415,1.415,0,0,0,.1578.6826,1.4947,1.4947,0,0,0,.4272.4951,1.9618,1.9618,0,0,0,.63.3076A2.71,2.71,0,0,0,306.8906,180.7585Z"/><path class="cls-6" d="M315.92,181.8229a3.7961,3.7961,0,0,1-1.5073-.2851,3.16,3.16,0,0,1-1.14-.8174,3.7127,3.7127,0,0,1-.7275-1.2744,5.5111,5.5111,0,0,1,.0078-3.3379,3.8555,3.8555,0,0,1,.7276-1.2822,3.1116,3.1116,0,0,1,1.1171-.8174,3.5709,3.5709,0,0,1,1.4478-.2852,3.428,3.428,0,0,1,1.4175.2852,3.1765,3.1765,0,0,1,1.0874.7871,3.471,3.471,0,0,1,.69,1.1924,4.5775,4.5775,0,0,1,.24,1.5146v.57h-5.73v.36a2.63,2.63,0,0,0,.165.9443,2.1381,2.1381,0,0,0,.4722.75,2.1019,2.1019,0,0,0,.75.4883,2.6986,2.6986,0,0,0,.9824.1719,2.4807,2.4807,0,0,0,1.35-.3594,2.3312,2.3312,0,0,0,.87-.99l.8853.6a2.8808,2.8808,0,0,1-1.148,1.2832A3.6252,3.6252,0,0,1,315.92,181.8229Zm-.0747-7.11a2.2955,2.2955,0,0,0-.915.1806,2.2247,2.2247,0,0,0-1.2076,1.2373,2.48,2.48,0,0,0-.1723.9375v.1045h4.44v-.164a2.6359,2.6359,0,0,0-.1577-.9307,2.2613,2.2613,0,0,0-.4351-.7275,1.8582,1.8582,0,0,0-.6748-.4727A2.279,2.279,0,0,0,315.8457,174.7126Z"/><path class="cls-6" d="M321.44,180.6081h2.2652v-5.67H321.44V173.903h3.4654v1.95h.0747a2.5723,2.5723,0,0,1,.9077-1.4326,2.6991,2.6991,0,0,1,1.7026-.5176h1.08v1.2h-1.4546a2.3441,2.3441,0,0,0-1.6728.5986,2.0529,2.0529,0,0,0-.6372,1.57v3.336h3v1.0351H321.44Z"/><path class="cls-6" d="M334.16,181.6432a1.5963,1.5963,0,0,1-1.2974-.4941,1.9149,1.9149,0,0,1-.4126-1.2725v-4.9384h-2.58V173.903h1.92a.588.588,0,0,0,.7051-.7051v-2.0254H333.65v2.73h3.5249v1.0352H333.65v5.67h3.5249v1.0351Z"/><path class="cls-6" d="M345.29,173.903h1.2l-3.84,9.4346a3.2855,3.2855,0,0,1-.3.5781,1.51,1.51,0,0,1-.39.4053,1.67,1.67,0,0,1-.54.2392,3,3,0,0,1-.75.083h-1.14v-1.0351h1.8l.87-2.1152-3.12-7.59h1.23l1.3051,3.24,1.1548,2.9395h.06l1.1553-2.9395Z"/><path class="cls-6" d="M348.1851,184.1784v-1.0957h7.2v1.0957Z"/><path class="cls-6" d="M357.7549,181.6432v-7.74h1.2v1.26h.06a3.1108,3.1108,0,0,1,.3-.5469,1.9214,1.9214,0,0,1,.4428-.458,2.2027,2.2027,0,0,1,.6226-.3145,2.6551,2.6551,0,0,1,.84-.12,2.5628,2.5628,0,0,1,1.95.7725,3.0391,3.0391,0,0,1,.7354,2.1826v4.9648h-1.2v-4.7548a2.313,2.313,0,0,0-.4649-1.583,1.7418,1.7418,0,0,0-1.3652-.5176,2.802,2.802,0,0,0-.7051.09,2.0314,2.0314,0,0,0-.6147.27,1.3871,1.3871,0,0,0-.4351.4649,1.2919,1.2919,0,0,0-.165.66v5.37Z"/><path class="cls-6" d="M372.71,181.6432a1.2415,1.2415,0,0,1-1.0049-.36,1.7457,1.7457,0,0,1-.375-.8994h-.0747a2.1721,2.1721,0,0,1-.8179,1.0566,2.6328,2.6328,0,0,1-1.5073.3828,2.8346,2.8346,0,0,1-1.9351-.63,2.1729,2.1729,0,0,1-.72-1.7246,1.9492,1.9492,0,0,1,.7871-1.665,4.3191,4.3191,0,0,1,2.5425-.585h1.65v-.7607a1.6139,1.6139,0,0,0-.48-1.2744,1.9949,1.9949,0,0,0-1.3652-.4248,2.3912,2.3912,0,0,0-1.2749.3066,2.3141,2.3141,0,0,0-.795.833l-.81-.6006a2.7245,2.7245,0,0,1,.4048-.5869,2.5738,2.5738,0,0,1,.63-.5078,3.4286,3.4286,0,0,1,.8549-.3506,4.11,4.11,0,0,1,1.0655-.1289,3.209,3.209,0,0,1,2.1674.6914,2.4053,2.4053,0,0,1,.8023,1.9239v4.2695h1.08v1.0351Zm-3.57-.8252a2.993,2.993,0,0,0,.8477-.1123,2.4935,2.4935,0,0,0,.6675-.3,1.4079,1.4079,0,0,0,.4424-.45,1.0749,1.0749,0,0,0,.1577-.5625v-1.2753h-1.65a3.158,3.158,0,0,0-1.5747.3.9594.9594,0,0,0-.4951.87v.3154a1.0462,1.0462,0,0,0,.4277.9072A1.9816,1.9816,0,0,0,369.14,180.818Z"/><path class="cls-6" d="M375.0947,181.6432v-7.74h1.11v.9h.06a2.1362,2.1362,0,0,1,.51-.7656,1.668,1.668,0,0,1,1.98.0224,1.519,1.519,0,0,1,.4048.878h.0449a2.2663,2.2663,0,0,1,.6-.87,1.5767,1.5767,0,0,1,1.08-.3447,1.2714,1.2714,0,0,1,1.2675.66,4.4149,4.4149,0,0,1,.3223,1.89v5.37h-1.11v-5.1748a3.225,3.225,0,0,0-.2026-1.373.7639.7639,0,0,0-.7427-.3828,1.0443,1.0443,0,0,0-.78.3076,1.2954,1.2954,0,0,0-.3.9375v5.6855h-1.11v-5.1748a3.2344,3.2344,0,0,0-.2022-1.373.7508.7508,0,0,0-.7275-.3828,1.069,1.069,0,0,0-.7876.3076,1.2754,1.2754,0,0,0-.3076.9375v5.6855Z"/><path class="cls-6" d="M387.9194,181.8229a3.7961,3.7961,0,0,1-1.5073-.2851,3.1586,3.1586,0,0,1-1.14-.8174,3.7129,3.7129,0,0,1-.7276-1.2744,5.5131,5.5131,0,0,1,.0078-3.3379,3.8572,3.8572,0,0,1,.7276-1.2822,3.112,3.112,0,0,1,1.1172-.8174,3.57,3.57,0,0,1,1.4477-.2852,3.428,3.428,0,0,1,1.4175.2852,3.1765,3.1765,0,0,1,1.0874.7871,3.4728,3.4728,0,0,1,.69,1.1924,4.58,4.58,0,0,1,.24,1.5146v.57h-5.73v.36a2.63,2.63,0,0,0,.165.9443,2.1381,2.1381,0,0,0,.4722.75,2.1019,2.1019,0,0,0,.75.4883,2.699,2.699,0,0,0,.9824.1719,2.48,2.48,0,0,0,1.35-.3594,2.3305,2.3305,0,0,0,.87-.99l.8853.6a2.8811,2.8811,0,0,1-1.1479,1.2832A3.6255,3.6255,0,0,1,387.9194,181.8229Zm-.0747-7.11a2.2958,2.2958,0,0,0-.915.1806,2.2241,2.2241,0,0,0-1.2075,1.2373,2.4784,2.4784,0,0,0-.1724.9375v.1045h4.44v-.164a2.6359,2.6359,0,0,0-.1577-.9307,2.261,2.261,0,0,0-.435-.7275,1.86,1.86,0,0,0-.6748-.4727A2.28,2.28,0,0,0,387.8447,174.7126Z"/><path class="cls-6" d="M393.5591,180.1579l5.3252-3.0147v-.12l-5.3252-3.0146v-1.2754l6.45,3.7353v1.1993l-6.45,3.7353Z"/><path class="cls-6" d="M403.894,174.6979v-4.1552h1.14v4.1552Zm2.6553,0v-4.1552h1.14v4.1552Z"/><path class="cls-5" d="M414.7842,175.8376a1.1726,1.1726,0,0,1-.8623-.2549.8872.8872,0,0,1-.2476-.6445v-.27a.8872.8872,0,0,1,.2476-.6446,1.586,1.586,0,0,1,1.7246,0,.8876.8876,0,0,1,.2475.6446v.27a.8875.8875,0,0,1-.2475.6445A1.1729,1.1729,0,0,1,414.7842,175.8376Zm0,5.94a1.177,1.177,0,0,1-.8623-.2549.8878.8878,0,0,1-.2476-.6455v-.2695a.891.891,0,0,1,.2476-.6455,1.586,1.586,0,0,1,1.7246,0,.8913.8913,0,0,1,.2475.6455v.2695a.8881.8881,0,0,1-.2475.6455A1.1773,1.1773,0,0,1,414.7842,181.778Z"/><path class="cls-7" d="M430.8936,174.6979v-4.1552h1.14v4.1552Zm2.6552,0v-4.1552h1.14v4.1552Z"/><path class="cls-7" d="M438.5586,177.6677v-1.1993l6.45-3.7353v1.2451l-5.3252,3.0147v.12l5.3252,3.0146v1.2754Z"/><path class="cls-7" d="M450.0186,181.6432l-2.7749-7.74h1.2148l1.11,3.24,1.2,3.4952h.06l1.2-3.4952,1.11-3.24h1.185l-2.7749,7.74Z"/><path class="cls-7" d="M462.708,181.6432a1.2416,1.2416,0,0,1-1.0049-.36,1.7457,1.7457,0,0,1-.375-.8994h-.0747a2.1721,2.1721,0,0,1-.8179,1.0566,2.6328,2.6328,0,0,1-1.5073.3828,2.8344,2.8344,0,0,1-1.935-.63,2.1729,2.1729,0,0,1-.72-1.7246,1.9492,1.9492,0,0,1,.7871-1.665,4.3191,4.3191,0,0,1,2.5425-.585h1.65v-.7607a1.6135,1.6135,0,0,0-.48-1.2744,1.9949,1.9949,0,0,0-1.3652-.4248,2.3917,2.3917,0,0,0-1.2749.3066,2.313,2.313,0,0,0-.7949.833l-.81-.6006a2.7281,2.7281,0,0,1,.4048-.5869,2.5738,2.5738,0,0,1,.63-.5078,3.4278,3.4278,0,0,1,.855-.3506,4.1094,4.1094,0,0,1,1.0654-.1289,3.2093,3.2093,0,0,1,2.1675.6914,2.4055,2.4055,0,0,1,.8022,1.9239v4.2695h1.08v1.0351Zm-3.57-.8252a2.9923,2.9923,0,0,0,.8476-.1123,2.4935,2.4935,0,0,0,.6675-.3,1.4069,1.4069,0,0,0,.4424-.45,1.0739,1.0739,0,0,0,.1577-.5625v-1.2753h-1.65a3.158,3.158,0,0,0-1.5747.3.9594.9594,0,0,0-.4951.87v.3154a1.0464,1.0464,0,0,0,.4277.9072A1.982,1.982,0,0,0,459.1382,180.818Z"/><path class="cls-7" d="M465.4834,180.6081h2.7v-9.03h-2.7v-1.0351h3.9v10.0654h2.7v1.0351h-6.6Z"/><path class="cls-7" d="M479.6133,180.3835h-.06a3.1239,3.1239,0,0,1-.3.5469,1.93,1.93,0,0,1-.4429.458,2.2059,2.2059,0,0,1-.6225.3144,2.6551,2.6551,0,0,1-.84.12,2.5631,2.5631,0,0,1-1.95-.7724,3.04,3.04,0,0,1-.7353-2.1826V173.903h1.2v4.7549a2.3127,2.3127,0,0,0,.4648,1.583,1.7425,1.7425,0,0,0,1.3653.5176,2.7638,2.7638,0,0,0,.705-.0908,2.0105,2.0105,0,0,0,.6148-.27,1.4064,1.4064,0,0,0,.435-.458,1.2818,1.2818,0,0,0,.1651-.667v-5.37h1.2v7.74h-1.2Z"/><path class="cls-7" d="M486.918,181.8229a3.7966,3.7966,0,0,1-1.5074-.2851,3.1586,3.1586,0,0,1-1.14-.8174,3.7127,3.7127,0,0,1-.7275-1.2744,5.5111,5.5111,0,0,1,.0078-3.3379,3.8571,3.8571,0,0,1,.7275-1.2822,3.112,3.112,0,0,1,1.1172-.8174,3.5709,3.5709,0,0,1,1.4478-.2852,3.4275,3.4275,0,0,1,1.4174.2852,3.1765,3.1765,0,0,1,1.0874.7871,3.4728,3.4728,0,0,1,.69,1.1924,4.58,4.58,0,0,1,.24,1.5146v.57h-5.73v.36a2.6275,2.6275,0,0,0,.1651.9443,2.1379,2.1379,0,0,0,.4721.75,2.1019,2.1019,0,0,0,.75.4883,2.7,2.7,0,0,0,.9825.1719,2.4807,2.4807,0,0,0,1.35-.3594,2.3318,2.3318,0,0,0,.87-.99l.8852.6a2.8805,2.8805,0,0,1-1.1479,1.2832A3.6254,3.6254,0,0,1,486.918,181.8229Zm-.0747-7.11a2.2963,2.2963,0,0,0-.9151.1806,2.225,2.225,0,0,0-1.2075,1.2373,2.48,2.48,0,0,0-.1724.9375v.1045h4.44v-.164a2.6382,2.6382,0,0,0-.1577-.9307,2.2613,2.2613,0,0,0-.4351-.7275,1.859,1.859,0,0,0-.6748-.4727A2.279,2.279,0,0,0,486.8433,174.7126Z"/><path class="cls-7" d="M492.5576,180.1579l5.3252-3.0147v-.12l-5.3252-3.0146v-1.2754l6.45,3.7353v1.1993l-6.45,3.7353Z"/><path class="cls-7" d="M502.8926,174.6979v-4.1552h1.14v4.1552Zm2.6553,0v-4.1552h1.14v4.1552Z"/><path class="cls-5" d="M234.5015,194.2429a1.2054,1.2054,0,0,1,.9453.3525,1.2693,1.2693,0,0,1,.3149.8779v.9444a2.7754,2.7754,0,0,1-.0825.7128,2.7256,2.7256,0,0,1-.2026.54,2.5068,2.5068,0,0,1-.27.42q-.15.1875-.2851.3525a2.331,2.331,0,0,0-.3521.5176,1.0993,1.0993,0,0,0-.0976.4571.8719.8719,0,0,0,.5249.833,3.5677,3.5677,0,0,0,1.5449.2627h1.17v.93h-1.17a3.5677,3.5677,0,0,0-1.5449.2627.8716.8716,0,0,0-.5249.8321,1.1034,1.1034,0,0,0,.0976.458,2.331,2.331,0,0,0,.3521.5176c.09.1093.185.2275.2851.3525a2.4214,2.4214,0,0,1,.27.4268,3.0035,3.0035,0,0,1,.2026.54,2.6924,2.6924,0,0,1,.0825.7051v.9453a1.2668,1.2668,0,0,1-.3149.8769,1.202,1.202,0,0,1-.9453.3526h-2.64v-.93h2.8648v-1.1553a2.004,2.004,0,0,0-.18-.9443,5.0369,5.0369,0,0,0-.42-.6455q-.255-.33-.48-.6826a1.5113,1.5113,0,0,1-.2251-.8321,1.2959,1.2959,0,0,1,.4429-1.02,2.238,2.238,0,0,1,1.2075-.4941v-.0606a2.23,2.23,0,0,1-1.2075-.4951,1.2924,1.2924,0,0,1-.4429-1.0195,1.5165,1.5165,0,0,1,.2251-.833q.2249-.3516.48-.6826a5.0282,5.0282,0,0,0,.42-.6446,2.0057,2.0057,0,0,0,.18-.9453v-1.1553h-2.8648v-.93Z"/><path class="cls-5" d="M216.502,218.2429a1.2054,1.2054,0,0,1,.9453.3525,1.2693,1.2693,0,0,1,.3149.8779v.9444a2.7754,2.7754,0,0,1-.0825.7128,2.7256,2.7256,0,0,1-.2026.54,2.5068,2.5068,0,0,1-.27.42q-.15.1875-.2851.3525a2.331,2.331,0,0,0-.3521.5176,1.0993,1.0993,0,0,0-.0976.4571.8719.8719,0,0,0,.5249.833,3.5677,3.5677,0,0,0,1.5449.2627h1.17v.93h-1.17a3.5677,3.5677,0,0,0-1.5449.2627.8716.8716,0,0,0-.5249.8321,1.1034,1.1034,0,0,0,.0976.458,2.331,2.331,0,0,0,.3521.5176c.09.1093.185.2275.2851.3525a2.4214,2.4214,0,0,1,.27.4268,3.0035,3.0035,0,0,1,.2026.54,2.6924,2.6924,0,0,1,.0825.7051v.9453a1.2668,1.2668,0,0,1-.3149.8769,1.202,1.202,0,0,1-.9453.3526h-2.64v-.93h2.8648v-1.1553a2.004,2.004,0,0,0-.18-.9443,5.0477,5.0477,0,0,0-.42-.6455q-.255-.33-.48-.6826a1.5113,1.5113,0,0,1-.2251-.8321,1.2961,1.2961,0,0,1,.4428-1.02,2.2387,2.2387,0,0,1,1.2076-.4941v-.0606a2.2309,2.2309,0,0,1-1.2076-.4951,1.2926,1.2926,0,0,1-.4428-1.0195,1.5165,1.5165,0,0,1,.2251-.833q.2249-.3516.48-.6826a5.0389,5.0389,0,0,0,.42-.6446,2.0057,2.0057,0,0,0,.18-.9453v-1.1553h-2.8648v-.93Z"/><path class="cls-8" d="M186.6082,84.0058V82.8783h2.23v-6.02L186.68,78.1049l-.5279-.9951,2.5909-1.4756H190.17v7.2441h2.0269v1.1275Z"/><path class="cls-8" d="M192.0769,133.85h-5.6845V132.555l2.6743-2.3868a3.1067,3.1067,0,0,0,1.3193-2.1948v-.1558a1.2411,1.2411,0,0,0-1.3554-1.3071A1.5616,1.5616,0,0,0,187.46,127.83l-1.1875-.4562a2.8134,2.8134,0,0,1,2.8662-2.0384,2.42,2.42,0,0,1,2.6865,2.4823c0,1.3555-.8994,2.2428-2.0025,3.1905l-1.9672,1.6909h4.2216Z"/></svg>