<?xml version="1.0" encoding="utf-8"?><svg id="Graphics" xmlns="http://www.w3.org/2000/svg" viewBox="0 0 1056 544"><defs><style>.cls-1{fill:none;stroke:#dfe3e6;stroke-miterlimit:10;stroke-width:0.8573px;}.cls-2{fill:#f2f4f8;}.cls-3{fill:#0db5b3;}.cls-4{fill:#6ba5ff;}.cls-5{font-size:15px;font-family:IBMPlexMono, IBM Plex Mono;}.cls-10,.cls-16,.cls-5,.cls-8{fill:#152935;}.cls-6{fill:#78a9ff;}.cls-14,.cls-7{fill:#4589ff;}.cls-12,.cls-13,.cls-14,.cls-8{letter-spacing:0em;}.cls-12,.cls-9{fill:#009d9a;}.cls-11{fill:#3c6df0;}.cls-15{fill:#ee5396;}.cls-16{letter-spacing:-0.0001em;}.cls-17{fill:#008673;}.cls-18{fill:#fff;}</style></defs><path class="cls-1" d="M189.2295,19.9993H874.4452A2.5548,2.5548,0,0,1,877,22.5541v495.961a2.5548,2.5548,0,0,1-2.5548,2.5548H189.23a2.555,2.555,0,0,1-2.555-2.555V22.5542A2.5549,2.5549,0,0,1,189.2295,19.9993Z"/><rect class="cls-2" x="186.3499" y="369.57" width="691.1501" height="95"/><rect class="cls-3" x="186.6746" y="72.57" width="5" height="297"/><rect class="cls-4" x="186.6746" y="373.57" width="5" height="91"/><circle class="cls-3" cx="189.1746" cy="79.82" r="10"/><circle class="cls-4" cx="189.1746" cy="370.5928" r="10"/><text class="cls-5" transform="translate(212.2871 61.643)">{ <tspan class="cls-6"><tspan x="0" y="24" xml:space="preserve">  </tspan><tspan class="cls-7" x="17.9995" y="24">&quot;name&quot;</tspan><tspan class="cls-8" x="71.999" y="24">: </tspan><tspan class="cls-9" x="89.9985" y="24">&quot;my-username-password&quot;</tspan><tspan class="cls-10" x="287.9956" y="24">,</tspan></tspan><tspan class="cls-11"><tspan x="0" y="48" xml:space="preserve">  </tspan><tspan class="cls-7" x="17.9995" y="48">&quot;id&quot;</tspan><tspan class="cls-10" x="53.999" y="48">: </tspan><tspan class="cls-12" x="71.999" y="48">&quot;cb7a2502-8ede-47d6-b5b6-1b7af6b6f563&quot;</tspan><tspan class="cls-8" x="413.9941" y="48">,</tspan></tspan><tspan x="0" y="72" xml:space="preserve">  </tspan><tspan class="cls-7" x="17.9995" y="72">&quot;description&quot;</tspan><tspan class="cls-13" x="134.998" y="72">: </tspan><tspan class="cls-9" x="152.9976" y="72">&quot;Description for this secret.&quot;</tspan><tspan x="422.9937" y="72">,</tspan><tspan class="cls-11"><tspan x="0" y="96"> </tspan><tspan class="cls-14" x="9" y="96" xml:space="preserve"> &quot;secret_type&quot;</tspan><tspan class="cls-8" x="134.998" y="96">: </tspan><tspan class="cls-9" x="152.9976" y="96">&quot;username_password&quot;</tspan><tspan class="cls-10" x="323.9951" y="96">,</tspan><tspan x="0" y="120" xml:space="preserve">  </tspan><tspan class="cls-7" x="17.9995" y="120">&quot;secret_group_id&quot;</tspan><tspan class="cls-8" x="170.9976" y="120">: </tspan><tspan class="cls-9" x="188.9971" y="120">&quot;bc656587-8fda-4d05-9ad8-b1de1ec7e712&quot;</tspan><tspan class="cls-10" x="530.9927" y="120">,</tspan><tspan x="0" y="144" xml:space="preserve">  </tspan><tspan class="cls-7" x="17.9995" y="144">&quot;state&quot;</tspan><tspan class="cls-10" x="80.9985" y="144">: </tspan><tspan class="cls-15" x="98.9985" y="144">1</tspan><tspan class="cls-8" x="107.9985" y="144">,</tspan><tspan x="0" y="168" xml:space="preserve">  </tspan><tspan class="cls-7" x="17.9995" y="168">&quot;state_description&quot;</tspan><tspan class="cls-10" x="188.9971" y="168">: </tspan><tspan class="cls-12" x="206.9971" y="168">&quot;Active&quot;</tspan><tspan class="cls-10" x="278.9956" y="168">,</tspan></tspan><tspan class="cls-7"><tspan x="0" y="192" xml:space="preserve">  &quot;created_by&quot;</tspan><tspan class="cls-10" x="125.998" y="192">: </tspan><tspan class="cls-9" x="143.9976" y="192">&quot;iam-ServiceId-e4a2f0a4-3c76-4bef-b1f2-fbeae11c0f21&quot;</tspan><tspan class="cls-16" x="611.9917" y="192">,</tspan></tspan><tspan class="cls-11"><tspan x="0" y="216" xml:space="preserve">  </tspan><tspan class="cls-7" x="17.9995" y="216">&quot;creation_date&quot;</tspan><tspan class="cls-10" x="152.9976" y="216">: </tspan><tspan class="cls-12" x="170.9976" y="216">&quot;2020-10-05T21:33:11Z&quot;</tspan><tspan class="cls-10" x="368.9946" y="216">,</tspan></tspan><tspan class="cls-6"><tspan x="0" y="240"> </tspan><tspan class="cls-14" x="9" y="240" xml:space="preserve"> &quot;labels&quot;</tspan><tspan class="cls-10" x="89.9985" y="240">: [</tspan><tspan x="0" y="264" xml:space="preserve">    </tspan><tspan class="cls-9" x="35.9995" y="264">&quot;dev&quot;</tspan><tspan class="cls-10" x="80.9985" y="264">,</tspan></tspan><tspan class="cls-17"><tspan x="0" y="288" xml:space="preserve">    </tspan><tspan class="cls-9" x="35.9995" y="288">&quot;us-south&quot;</tspan></tspan><tspan x="0" y="312" xml:space="preserve">  ],</tspan><tspan x="0" y="336" xml:space="preserve">  </tspan><tspan class="cls-7" x="17.9995" y="336">&quot;secret_data&quot;</tspan><tspan class="cls-13" x="134.998" y="336">: { </tspan><tspan class="cls-6"><tspan x="0" y="360" xml:space="preserve">     </tspan><tspan class="cls-14" x="44.9995" y="360">&quot;username&quot;</tspan><tspan class="cls-8" x="134.998" y="360">: </tspan><tspan class="cls-9" x="152.9976" y="360">&quot;user123&quot;</tspan><tspan class="cls-8" x="233.9966" y="360">,</tspan><tspan x="0" y="384" xml:space="preserve">     </tspan><tspan class="cls-14" x="44.9995" y="384">&quot;password&quot;</tspan><tspan class="cls-8" x="134.998" y="384">: </tspan><tspan class="cls-9" x="152.9976" y="384">&quot;cloudy-rainy-coffee-book&quot;</tspan></tspan><tspan x="0" y="408" xml:space="preserve">  }</tspan><tspan x="0" y="432">}</tspan></text><path class="cls-18" d="M186.6082,84.0058V82.8783h2.23v-6.02L186.68,78.1049l-.5279-.9951,2.5909-1.4756H190.17v7.2441h2.0269v1.1275Z"/><path class="cls-18" d="M192.0769,374.85h-5.6845V373.555l2.6743-2.3868a3.1067,3.1067,0,0,0,1.3193-2.1948v-.1558a1.2411,1.2411,0,0,0-1.3554-1.3071A1.5616,1.5616,0,0,0,187.46,368.83l-1.1875-.4562a2.8134,2.8134,0,0,1,2.8662-2.0384,2.42,2.42,0,0,1,2.6865,2.4823c0,1.3555-.8994,2.2428-2.0025,3.19l-1.9672,1.6909h4.2216Z"/></svg>