<?xml version="1.0" encoding="utf-8"?>
<!-- Generator: Adobe Illustrator 26.5.0, SVG Export Plug-In . SVG Version: 6.00 Build 0)  -->
<svg version="1.1" id="Graphics" xmlns="http://www.w3.org/2000/svg" xmlns:xlink="http://www.w3.org/1999/xlink" x="0px" y="0px"
	 viewBox="0 0 1056 544" style="enable-background:new 0 0 1056 544;" xml:space="preserve">
<style type="text/css">
	.st0{fill:none;stroke:#DFE3E6;stroke-width:0.8573;stroke-miterlimit:10;}
	.st1{fill:#F2F4F8;}
	.st2{fill:#0DB5B3;}
	.st3{fill:#6BA5FF;}
	.st4{fill:#152935;}
	.st5{font-family:'IBMPlexMono';}
	.st6{font-size:15px;}
	.st7{fill:#78A9FF;}
	.st8{fill:#4589FF;}
	.st9{fill:#009D9A;}
	.st10{fill:#3C6DF0;}
	.st11{fill:#EE5396;}
	.st12{fill:#008673;}
	.st13{fill:#FFFFFF;}
</style>
<path class="st0" d="M189.2,20h685.2c1.4,0,2.6,1.1,2.6,2.6c0,0,0,0,0,0v496c0,1.4-1.1,2.6-2.6,2.6l0,0H189.2
	c-1.4,0-2.6-1.1-2.6-2.6v-496C186.7,21.1,187.8,20,189.2,20z"/>
<rect x="186.3" y="369.6" class="st1" width="691.2" height="95"/>
<rect x="186.7" y="72.6" class="st2" width="5" height="297"/>
<rect x="186.7" y="373.6" class="st3" width="5" height="91"/>
<circle class="st2" cx="189.2" cy="79.8" r="10"/>
<circle class="st3" cx="189.2" cy="370.6" r="10"/>
<text transform="matrix(1 0 0 1 212.2871 61.643)" class="st4 st5 st6">{ </text>
<text transform="matrix(1 0 0 1 212.2871 85.643)" class="st7 st5 st6">  </text>
<text transform="matrix(1 0 0 1 230.2866 85.643)" class="st8 st5 st6">&quot;name&quot;</text>
<text transform="matrix(1 0 0 1 284.2861 85.643)" class="st4 st5 st6">: </text>
<text transform="matrix(1 0 0 1 302.2856 85.643)" class="st9 st5 st6">&quot;my-username-password&quot;</text>
<text transform="matrix(1 0 0 1 500.2827 85.643)" class="st4 st5 st6">,</text>
<text transform="matrix(1 0 0 1 212.2871 109.643)" class="st10 st5 st6">  </text>
<text transform="matrix(1 0 0 1 230.2866 109.643)" class="st8 st5 st6">&quot;id&quot;</text>
<text transform="matrix(1 0 0 1 266.2861 109.643)" class="st4 st5 st6">: </text>
<text transform="matrix(1 0 0 1 284.2861 109.643)" class="st9 st5 st6">&quot;cb7a2502-8ede-47d6-b5b6-1b7af6b6f563&quot;</text>
<text transform="matrix(1 0 0 1 626.2812 109.643)" class="st4 st5 st6">,</text>
<text transform="matrix(1 0 0 1 212.2871 133.643)" class="st4 st5 st6">  </text>
<text transform="matrix(1 0 0 1 230.2866 133.643)" class="st8 st5 st6">&quot;description&quot;</text>
<text transform="matrix(1 0 0 1 347.2851 133.643)" class="st4 st5 st6">: </text>
<text transform="matrix(1 0 0 1 365.2847 133.643)" class="st9 st5 st6">&quot;Description for this secret.&quot;</text>
<text transform="matrix(1 0 0 1 635.2808 133.643)" class="st4 st5 st6">,</text>
<text transform="matrix(1 0 0 1 212.2871 157.643)" class="st10 st5 st6"> </text>
<text transform="matrix(1 0 0 1 221.2871 157.643)" class="st8 st5 st6"> &quot;secret_type&quot;</text>
<text transform="matrix(1 0 0 1 347.2851 157.643)" class="st4 st5 st6">: </text>
<text transform="matrix(1 0 0 1 365.2847 157.643)" class="st9 st5 st6">&quot;username_password&quot;</text>
<text transform="matrix(1 0 0 1 536.2822 157.643)" class="st4 st5 st6">,</text>
<text transform="matrix(1 0 0 1 212.2871 181.643)" class="st10 st5 st6">  </text>
<text transform="matrix(1 0 0 1 230.2866 181.643)" class="st8 st5 st6">&quot;secret_group_id&quot;</text>
<text transform="matrix(1 0 0 1 383.2847 181.643)" class="st4 st5 st6">: </text>
<text transform="matrix(1 0 0 1 401.2842 181.643)" class="st9 st5 st6">&quot;bc656587-8fda-4d05-9ad8-b1de1ec7e712&quot;</text>
<text transform="matrix(1 0 0 1 743.2798 181.643)" class="st4 st5 st6">,</text>
<text transform="matrix(1 0 0 1 212.2871 205.643)" class="st10 st5 st6">  </text>
<text transform="matrix(1 0 0 1 230.2866 205.643)" class="st8 st5 st6">&quot;state&quot;</text>
<text transform="matrix(1 0 0 1 293.2856 205.643)" class="st4 st5 st6">: </text>
<text transform="matrix(1 0 0 1 311.2856 205.643)" class="st11 st5 st6">1</text>
<text transform="matrix(1 0 0 1 320.2856 205.643)" class="st4 st5 st6">,</text>
<text transform="matrix(1 0 0 1 212.2871 229.643)" class="st10 st5 st6">  </text>
<text transform="matrix(1 0 0 1 230.2866 229.643)" class="st8 st5 st6">&quot;state_description&quot;</text>
<text transform="matrix(1 0 0 1 401.2842 229.643)" class="st4 st5 st6">: </text>
<text transform="matrix(1 0 0 1 419.2842 229.643)" class="st9 st5 st6">&quot;Active&quot;</text>
<text transform="matrix(1 0 0 1 491.2827 229.643)" class="st4 st5 st6">,</text>
<text transform="matrix(1 0 0 1 212.2871 253.643)" class="st8 st5 st6">  &quot;created_by&quot;</text>
<text transform="matrix(1 0 0 1 338.2851 253.643)" class="st4 st5 st6">: </text>
<text transform="matrix(1 0 0 1 356.2847 253.643)" class="st9 st5 st6">&quot;iam-ServiceId-e4a2f0a4-3c76-4bef-b1f2-fbeae11c0f21&quot;</text>
<text transform="matrix(1 0 0 1 824.2788 253.643)" class="st4 st5 st6">,</text>
<text transform="matrix(1 0 0 1 212.2871 277.643)" class="st10 st5 st6">  </text>
<text transform="matrix(1 0 0 1 230.2866 277.643)" class="st8 st5 st6">&quot;created_at&quot;</text>
<text transform="matrix(1 0 0 1 365.2847 277.643)" class="st4 st5 st6">: </text>
<text transform="matrix(1 0 0 1 383.2847 277.643)" class="st9 st5 st6">&quot;2020-10-05T21:33:11Z&quot;</text>
<text transform="matrix(1 0 0 1 581.2817 277.643)" class="st4 st5 st6">,</text>
<text transform="matrix(1 0 0 1 212.2871 301.643)" class="st7 st5 st6"> </text>
<text transform="matrix(1 0 0 1 221.2871 301.643)" class="st8 st5 st6"> &quot;labels&quot;</text>
<text transform="matrix(1 0 0 1 302.2856 301.643)" class="st4 st5 st6">: [</text>
<text transform="matrix(1 0 0 1 212.2871 325.643)" class="st7 st5 st6">    </text>
<text transform="matrix(1 0 0 1 248.2866 325.643)" class="st9 st5 st6">&quot;dev&quot;</text>
<text transform="matrix(1 0 0 1 293.2856 325.643)" class="st4 st5 st6">,</text>
<text transform="matrix(1 0 0 1 212.2871 349.643)" class="st12 st5 st6">    </text>
<text transform="matrix(1 0 0 1 248.2866 349.643)" class="st9 st5 st6">&quot;us-south&quot;</text>
<text transform="matrix(1 0 0 1 212.2871 373.643)" class="st4 st5 st6">  ],</text>
<text transform="matrix(1 0 0 1 212.2871 397.643)" class="st4 st5 st6">  </text>
<text transform="matrix(1 0 0 1 212.2871 421.643)" class="st7 st5 st6">     </text>
<text transform="matrix(1 0 0 1 250.8964 398.7778)" class="st8 st5 st6">&quot;username&quot;</text>
<text transform="matrix(1 0 0 1 344.6899 398.7778)" class="st4 st5 st6">: </text>
<text transform="matrix(1 0 0 1 358.8946 398.7778)" class="st9 st5 st6">&quot;user123&quot;</text>
<text transform="matrix(1 0 0 1 446.2837 421.643)" class="st4 st5 st6">,</text>
<text transform="matrix(1 0 0 1 212.2871 445.643)" class="st7 st5 st6">     </text>
<text transform="matrix(1 0 0 1 250.8963 421.6422)" class="st8 st5 st6">&quot;password&quot;</text>
<text transform="matrix(1 0 0 1 343.8949 419.6034)" class="st4 st5 st6">: </text>
<text transform="matrix(1 0 0 1 361.5045 421.643)" class="st9 st5 st6">&quot;cloudy-rainy-coffee-book&quot;</text>
<text transform="matrix(1 0 0 1 219.7119 457.0004)" class="st4 st5 st6">}</text>
<path class="st13" d="M186.6,84v-1.1h2.2v-6l-2.2,1.2l-0.5-1l2.6-1.5h1.4v7.2h2V84H186.6z"/>
<path class="st13" d="M192.1,374.9h-5.7v-1.3l2.7-2.4c0.7-0.5,1.2-1.3,1.3-2.2v-0.2c0-0.7-0.5-1.3-1.2-1.3c-0.1,0-0.1,0-0.2,0
	c-0.8,0-1.4,0.5-1.6,1.3l-1.2-0.5c0.4-1.3,1.6-2.1,2.9-2c1.3-0.1,2.5,0.8,2.7,2.1c0,0.1,0,0.2,0,0.3c0,1.4-0.9,2.2-2,3.2l-2,1.7h4.2
	L192.1,374.9z"/>
</svg>
