<svg id="Background" xmlns="http://www.w3.org/2000/svg" width="171" height="45" viewBox="0 0 171 45"><defs><style>.cls-1{fill:#106dff;}.cls-2{fill:#fff;}</style></defs><rect class="cls-1" width="171" height="45"/><polygon class="cls-2" points="145.587 15.5 144.586 16.475 149.893 21.8 135.788 21.8 135.788 23.2 149.893 23.2 144.586 28.501 145.587 29.5 152.587 22.5 145.587 15.5"/><path class="cls-2" d="M26.0137,25.313h-.042a1.93,1.93,0,0,1-.8887,1.1318,3.3467,3.3467,0,0,1-1.8271.4512,4.0381,4.0381,0,0,1-1.6451-.3291,3.4592,3.4592,0,0,1-1.2812-.9658,4.6342,4.6342,0,0,1-.833-1.5821,7.1731,7.1731,0,0,1-.3008-2.1767,7.2872,7.2872,0,0,1,.2939-2.1631,4.4107,4.4107,0,0,1,.84-1.582,3.6166,3.6166,0,0,1,1.3164-.9732,4.2232,4.2232,0,0,1,1.708-.3359,3.9142,3.9142,0,0,1,2.1978.581A3.8579,3.8579,0,0,1,26.91,18.9165l-.9659.5879a2.6792,2.6792,0,0,0-2.59-1.68,2.9165,2.9165,0,0,0-1.1763.2315,2.6835,2.6835,0,0,0-.917.6528,2.94,2.94,0,0,0-.5947,1.0127,3.91,3.91,0,0,0-.21,1.32v1.5869a3.981,3.981,0,0,0,.21,1.3281,2.9224,2.9224,0,0,0,.5947,1.0186,2.6119,2.6119,0,0,0,.9449.6533,3.2726,3.2726,0,0,0,1.26.2315,3.3957,3.3957,0,0,0,.959-.1328,2.3949,2.3949,0,0,0,.7979-.4014,1.8792,1.8792,0,0,0,.539-.668,2.1385,2.1385,0,0,0,.1963-.9492v-.9707H23.8018V21.7017H27.106V26.728H26.0137Z"/><path class="cls-2" d="M32.0337,26.896a3.2656,3.2656,0,0,1-1.33-.2656,2.8661,2.8661,0,0,1-1.0288-.7637,3.59,3.59,0,0,1-.665-1.19,5.22,5.22,0,0,1,0-3.1152,3.5911,3.5911,0,0,1,.665-1.1973,2.8737,2.8737,0,0,1,1.0288-.7626,3.2639,3.2639,0,0,1,1.33-.2657,3.2163,3.2163,0,0,1,1.3232.2657,2.96,2.96,0,0,1,1.0288.7626,3.5285,3.5285,0,0,1,.6719,1.1973,5.21,5.21,0,0,1,0,3.1152,3.5275,3.5275,0,0,1-.6719,1.19,2.9522,2.9522,0,0,1-1.0288.7637A3.2178,3.2178,0,0,1,32.0337,26.896Zm0-.9941a2.037,2.037,0,0,0,1.4839-.56,2.2876,2.2876,0,0,0,.5742-1.708V22.5981a2.2876,2.2876,0,0,0-.5742-1.708,2.2445,2.2445,0,0,0-2.9678,0,2.2876,2.2876,0,0,0-.5742,1.708v1.0362a2.2876,2.2876,0,0,0,.5742,1.708A2.0354,2.0354,0,0,0,32.0337,25.9019Z"/><path class="cls-2" d="M42.0435,26.728a1.1469,1.1469,0,0,1-.8892-.3281,1.2206,1.2206,0,0,1-.3008-.8594V20.4976h-1.19v-.9932h.6723a.66.66,0,0,0,.4971-.1475.764.764,0,0,0,.1328-.5107V17.502h1.0078v2.0024h1.5821v.9932H41.9731v5.2363h1.47v.9941Z"/><path class="cls-2" d="M48.0356,26.896a3.2651,3.2651,0,0,1-1.33-.2656,2.8653,2.8653,0,0,1-1.0288-.7637,3.5905,3.5905,0,0,1-.6651-1.19,5.22,5.22,0,0,1,0-3.1152,3.5913,3.5913,0,0,1,.6651-1.1973,2.8729,2.8729,0,0,1,1.0288-.7626,3.2635,3.2635,0,0,1,1.33-.2657,3.2167,3.2167,0,0,1,1.3233.2657,2.9612,2.9612,0,0,1,1.0288.7626A3.5285,3.5285,0,0,1,51.06,21.562a5.21,5.21,0,0,1,0,3.1152,3.5275,3.5275,0,0,1-.6719,1.19,2.9531,2.9531,0,0,1-1.0288.7637A3.2183,3.2183,0,0,1,48.0356,26.896Zm0-.9941a2.0369,2.0369,0,0,0,1.4839-.56,2.2877,2.2877,0,0,0,.5743-1.708V22.5981A2.2877,2.2877,0,0,0,49.52,20.89a2.2444,2.2444,0,0,0-2.9677,0,2.2873,2.2873,0,0,0-.5743,1.708v1.0362a2.2873,2.2873,0,0,0,.5743,1.708A2.0352,2.0352,0,0,0,48.0356,25.9019Z"/><path class="cls-2" d="M58.0454,26.728a1.1469,1.1469,0,0,1-.8892-.3281,1.221,1.221,0,0,1-.3007-.8594V20.4976h-1.19v-.9932h.6724a.66.66,0,0,0,.4971-.1475.764.764,0,0,0,.1328-.5107V17.502h1.0078v2.0024h1.582v.9932h-1.582v5.2363h1.47v.9941Z"/><path class="cls-2" d="M65.8154,25.5649h-.0561a3.3527,3.3527,0,0,1-.273.4922,1.8158,1.8158,0,0,1-.3989.43,1.8465,1.8465,0,0,1-.5742.2979,2.4942,2.4942,0,0,1-.7837.1113,2.2892,2.2892,0,0,1-1.7783-.7207,2.9155,2.9155,0,0,1-.6577-2.0371V19.5044h1.12v4.4473q0,1.95,1.6518,1.95a2.4882,2.4882,0,0,0,.6509-.084,1.7936,1.7936,0,0,0,.56-.253,1.2711,1.2711,0,0,0,.3921-.4277,1.25,1.25,0,0,0,.1469-.624V19.5044h1.12V26.728h-1.12Z"/><path class="cls-2" d="M70.9116,26.728a1.1466,1.1466,0,0,1-.8891-.3281,1.2206,1.2206,0,0,1-.3008-.8594V20.4976h-1.19v-.9932h.6724a.66.66,0,0,0,.4971-.1475.764.764,0,0,0,.1328-.5107V17.502h1.0078v2.0024h1.582v.9932h-1.582v5.2363h1.47v.9941Z"/><path class="cls-2" d="M76.9033,26.896a3.2659,3.2659,0,0,1-1.33-.2656,2.867,2.867,0,0,1-1.0288-.7637,3.5921,3.5921,0,0,1-.665-1.19,5.22,5.22,0,0,1,0-3.1152,3.5929,3.5929,0,0,1,.665-1.1973,2.8746,2.8746,0,0,1,1.0288-.7626,3.2643,3.2643,0,0,1,1.33-.2657,3.2167,3.2167,0,0,1,1.3233.2657,2.9622,2.9622,0,0,1,1.0288.7626,3.5283,3.5283,0,0,1,.6718,1.1973,5.21,5.21,0,0,1,0,3.1152,3.5273,3.5273,0,0,1-.6718,1.19,2.9541,2.9541,0,0,1-1.0288.7637A3.2183,3.2183,0,0,1,76.9033,26.896Zm0-.9941a2.0369,2.0369,0,0,0,1.4839-.56,2.2876,2.2876,0,0,0,.5742-1.708V22.5981a2.2876,2.2876,0,0,0-.5742-1.708,2.2445,2.2445,0,0,0-2.9678,0,2.2876,2.2876,0,0,0-.5742,1.708v1.0362a2.2876,2.2876,0,0,0,.5742,1.708A2.0356,2.0356,0,0,0,76.9033,25.9019Z"/><path class="cls-2" d="M82.0132,26.728V19.5044h1.12v1.33h.07a2.1894,2.1894,0,0,1,.7-.9248,2.1509,2.1509,0,0,1,1.3858-.4053h.434v1.12h-.6577a2.5317,2.5317,0,0,0-1.4214.3428,1.01,1.01,0,0,0-.5107.86v4.9Z"/><path class="cls-2" d="M87.7109,17.81a.6837.6837,0,0,1-.5249-.1748.6459.6459,0,0,1-.1611-.4551V16.998a.6457.6457,0,0,1,.1611-.455.8755.8755,0,0,1,1.05,0,.6453.6453,0,0,1,.1612.455V17.18a.6455.6455,0,0,1-.1612.4551A.6842.6842,0,0,1,87.7109,17.81Zm-.56,1.6943h1.12V26.728h-1.12Z"/><path class="cls-2" d="M95.9009,26.728a1.1005,1.1005,0,0,1-.9029-.3359,1.665,1.665,0,0,1-.3432-.84h-.07a1.8661,1.8661,0,0,1-.7842,1.0079,2.4381,2.4381,0,0,1-1.3018.3359,2.5353,2.5353,0,0,1-1.7851-.5879,2.0639,2.0639,0,0,1-.6368-1.5957,1.8229,1.8229,0,0,1,.7491-1.5684,3.98,3.98,0,0,1,2.3305-.5459H94.585v-.7138a1.5605,1.5605,0,0,0-.42-1.1758,1.7885,1.7885,0,0,0-1.288-.4063,1.9366,1.9366,0,0,0-1.0992.294,2.4191,2.4191,0,0,0-.7348.7842l-.6719-.63a2.544,2.544,0,0,1,.938-1.001,2.9523,2.9523,0,0,1,1.624-.4131,2.9858,2.9858,0,0,1,2.044.6426,2.2612,2.2612,0,0,1,.728,1.7881v3.9668h.8257v.9941Zm-3.22-.7842a2.85,2.85,0,0,0,.77-.0976,1.895,1.895,0,0,0,.6015-.28,1.3777,1.3777,0,0,0,.3921-.42,1.0019,1.0019,0,0,0,.14-.5176v-1.19H93.1011a2.71,2.71,0,0,0-1.4073.28.9035.9035,0,0,0-.4409.8115v.2939a.98.98,0,0,0,.3848.8262A1.6772,1.6772,0,0,0,92.6812,25.9438Z"/><path class="cls-2" d="M99.3169,26.728a1.142,1.142,0,0,1-.8887-.3291,1.1837,1.1837,0,0,1-.3012-.833V16.3682h1.12v9.3657h1.0639v.9941Z"/></svg>