<svg xmlns="http://www.w3.org/2000/svg" viewBox="0 0 198.23 47.82"><defs><style>.cls-1{fill:#78a9ff;}.cls-2{fill:#4589ff;}.cls-3{fill:#0043ce;}.cls-4{fill:#001d6c;}.cls-5{fill:#a6c8ff;}.cls-6{fill:none;stroke:#0f62fe;stroke-miterlimit:10;stroke-width:2.32px;}.cls-7,.cls-8{fill:#002d9c;}.cls-8{font-size:15.35px;font-family:IBMPlexSans, IBM Plex Sans;}</style></defs><g id="Graphics"><path class="cls-1" d="M14.21,33.69A2.24,2.24,0,1,1,12,35.93a2.24,2.24,0,0,1,2.24-2.24m0-2.23a4.48,4.48,0,1,0,4.47,4.47A4.47,4.47,0,0,0,14.21,31.46Z"/><path class="cls-2" d="M25.4,11.31a2.24,2.24,0,1,1-2.24,2.24,2.24,2.24,0,0,1,2.24-2.24m0-2.24a4.48,4.48,0,1,0,4.47,4.48A4.48,4.48,0,0,0,25.4,9.07Z"/><path class="cls-3" d="M36.59,11.31a2.24,2.24,0,1,1-2.24,2.24,2.24,2.24,0,0,1,2.24-2.24m0-2.24a4.48,4.48,0,1,0,4.48,4.48A4.49,4.49,0,0,0,36.59,9.07Z"/><path class="cls-4" d="M27.64,33.69v4.48H23.16V33.69h4.48m2.23-2.23H20.92v8.95h9Z"/><path class="cls-5" d="M37.71,31.61V25.86a2.24,2.24,0,0,0-2.24-2.24H15.32V18h3.36v-9H9.73v9h3.36v5.59a2.23,2.23,0,0,0,2.23,2.24H35.47v5.75a4.47,4.47,0,1,0,2.24,0ZM12,11.31h4.47v4.48H12ZM36.59,38.17a2.24,2.24,0,1,1,2.24-2.24A2.24,2.24,0,0,1,36.59,38.17Z"/><circle class="cls-6" cx="36.59" cy="35.93" r="3.49"/><path class="cls-7" d="M16.44,11.31v4.48H12V11.31h4.47m2.24-2.24H9.73v9h9Z"/></g><g id="Text"><text class="cls-8" transform="translate(48 29.53)">Add arbitrary secrets</text></g></svg>