<svg xmlns="http://www.w3.org/2000/svg" width="189.2211" height="47.8204" viewBox="0 0 189.2211 47.8204"><defs><style>.cls-1{fill:#002d9c;}.cls-2{fill:#78a9ff;}.cls-3{fill:#4589ff;}.cls-4{fill:#0043ce;}.cls-5{fill:#001d6c;}.cls-6{fill:#a6c8ff;}.cls-7{fill:none;stroke:#0f62fe;stroke-miterlimit:10;stroke-width:2.3164px;}</style></defs><g id="Text"><path class="cls-1" d="M56.1277,29.5343l-1.0742-3.1612H50.7264l-1.0742,3.1612H48.3484l3.7442-10.711h1.6416l3.7441,10.711ZM52.9207,20.02h-.0762l-1.81,5.2173h3.6973Z"/><path class="cls-1" d="M64.199,28.26h-.0615a2.416,2.416,0,0,1-2.3164,1.4589,3.0055,3.0055,0,0,1-1.335-.292,2.8929,2.8929,0,0,1-1.02-.8291,3.7719,3.7719,0,0,1-.6445-1.3037,6.7438,6.7438,0,0,1,0-3.4375,3.7842,3.7842,0,0,1,.6445-1.3042,2.898,2.898,0,0,1,1.02-.8286,3.0066,3.0066,0,0,1,1.335-.2915,2.6953,2.6953,0,0,1,1.419.357,2.2224,2.2224,0,0,1,.8974,1.1015h.0615V18.1788h1.2276V29.5343H64.199Zm-2.041.3691a2.843,2.843,0,0,0,.791-.1084,1.98,1.98,0,0,0,.6524-.3154,1.5488,1.5488,0,0,0,.4365-.5088,1.4341,1.4341,0,0,0,.1611-.6865V24.0484a1.2208,1.2208,0,0,0-.1611-.6093,1.5265,1.5265,0,0,0-.4365-.4859,2.2267,2.2267,0,0,0-.6524-.3159,2.678,2.678,0,0,0-.791-.1157,2.1141,2.1141,0,0,0-1.6416.6552,2.4544,2.4544,0,0,0-.5986,1.72V26.254a2.4522,2.4522,0,0,0,.5986,1.72A2.1142,2.1142,0,0,0,62.158,28.629Z"/><path class="cls-1" d="M73.0994,28.26h-.0615a2.416,2.416,0,0,1-2.3164,1.4589,3.0055,3.0055,0,0,1-1.335-.292,2.8929,2.8929,0,0,1-1.02-.8291,3.7719,3.7719,0,0,1-.6445-1.3037,6.7438,6.7438,0,0,1,0-3.4375,3.7842,3.7842,0,0,1,.6445-1.3042,2.898,2.898,0,0,1,1.02-.8286,3.0066,3.0066,0,0,1,1.335-.2915,2.6947,2.6947,0,0,1,1.4189.357,2.2221,2.2221,0,0,1,.8975,1.1015h.0615V18.1788H74.327V29.5343H73.0994Zm-2.041.3691a2.8435,2.8435,0,0,0,.791-.1084,1.98,1.98,0,0,0,.6524-.3154,1.5488,1.5488,0,0,0,.4365-.5088,1.4341,1.4341,0,0,0,.1611-.6865V24.0484a1.2208,1.2208,0,0,0-.1611-.6093,1.5265,1.5265,0,0,0-.4365-.4859,2.2267,2.2267,0,0,0-.6524-.3159,2.6785,2.6785,0,0,0-.791-.1157,2.1141,2.1141,0,0,0-1.6416.6552,2.4544,2.4544,0,0,0-.5986,1.72V26.254a2.4522,2.4522,0,0,0,.5986,1.72A2.1142,2.1142,0,0,0,71.0584,28.629Z"/><path class="cls-1" d="M83.5027,29.7188a3.6451,3.6451,0,0,1-1.4882-.292,3.0389,3.0389,0,0,1-1.1123-.8291,3.6755,3.6755,0,0,1-.6905-1.3037,6.3174,6.3174,0,0,1,0-3.4375,3.6873,3.6873,0,0,1,.6905-1.3042,3.0443,3.0443,0,0,1,1.1123-.8286,3.6466,3.6466,0,0,1,1.4882-.2915,3.1776,3.1776,0,0,1,1.8956.5137,3.1416,3.1416,0,0,1,1.0664,1.3428l-1.0284.5219a1.8621,1.8621,0,0,0-.706-.9516,2.12,2.12,0,0,0-1.2276-.3374,2.4634,2.4634,0,0,0-.9668.1762,1.9022,1.9022,0,0,0-.69.4913,2.0717,2.0717,0,0,0-.414.7519,3.1792,3.1792,0,0,0-.1377.9585V26.25a2.57,2.57,0,0,0,.5595,1.7109,2.03,2.03,0,0,0,1.6494.668,2.2278,2.2278,0,0,0,2.1485-1.3809l.8906.5987a3.148,3.148,0,0,1-1.1435,1.3652A3.3424,3.3424,0,0,1,83.5027,29.7188Z"/><path class="cls-1" d="M93.1551,28.26h-.0615a3.7788,3.7788,0,0,1-.2989.539,2.0163,2.0163,0,0,1-.4375.4717,2.048,2.048,0,0,1-.6289.3262,2.7449,2.7449,0,0,1-.8593.122,2.509,2.509,0,0,1-1.9493-.791,3.1936,3.1936,0,0,1-.7207-2.2324V21.6163h1.2276v4.875q0,2.1372,1.8105,2.1377a2.7539,2.7539,0,0,0,.7139-.0928,1.951,1.951,0,0,0,.6133-.2763,1.403,1.403,0,0,0,.43-.4688,1.3681,1.3681,0,0,0,.1611-.6846v-5.49h1.2275v7.918H93.1551Z"/><path class="cls-1" d="M99.369,29.7188a3.7,3.7,0,0,1-1.8477-.4228,4.2008,4.2008,0,0,1-1.2822-1.1279l.875-.7051a3.437,3.437,0,0,0,1.0283.8974,2.6775,2.6775,0,0,0,1.32.3145,1.9471,1.9471,0,0,0,1.2188-.3379,1.2261,1.2261,0,0,0,.1386-1.7412,1.8287,1.8287,0,0,0-1.082-.4531l-.6289-.0918a5.2169,5.2169,0,0,1-1.0137-.2383,2.8237,2.8237,0,0,1-.8047-.4287,1.8577,1.8577,0,0,1-.5371-.668,2.177,2.177,0,0,1-.1924-.9516,2.2952,2.2952,0,0,1,.2149-1.02,2.0624,2.0624,0,0,1,.5908-.729,2.5812,2.5812,0,0,1,.8984-.4375,4.1454,4.1454,0,0,1,1.1192-.1455,3.4986,3.4986,0,0,1,1.6191.3374,3.6053,3.6053,0,0,1,1.1426.9361l-.8125.7363a2.4452,2.4452,0,0,0-.7676-.6675,2.4728,2.4728,0,0,0-1.2734-.2988,1.7556,1.7556,0,0,0-1.1582.33,1.11,1.11,0,0,0-.3906.8979.9372.9372,0,0,0,.3906.8438,2.9134,2.9134,0,0,0,1.1269.3838l.6153.0918a3.29,3.29,0,0,1,1.8711.76,1.9958,1.9958,0,0,1,.5527,1.4658,2.2435,2.2435,0,0,1-.7832,1.8106A3.2331,3.2331,0,0,1,99.369,29.7188Z"/><path class="cls-1" d="M106.2137,29.5343a1.2585,1.2585,0,0,1-.9746-.3594,1.3406,1.3406,0,0,1-.33-.9424V22.7057h-1.3037V21.6163h.7363a.7232.7232,0,0,0,.5449-.1611.8393.8393,0,0,0,.1455-.56V19.422h1.1045v2.1943h1.7344v1.0894h-1.7344v5.7387h1.6114v1.09Z"/><path class="cls-1" d="M112.8426,29.7188a3.5658,3.5658,0,0,1-1.458-.292,3.131,3.131,0,0,1-1.1279-.8359,3.9293,3.9293,0,0,1-.7286-1.3047,5.72,5.72,0,0,1,0-3.4145,3.9209,3.9209,0,0,1,.7286-1.312,3.1382,3.1382,0,0,1,1.1279-.836,3.5673,3.5673,0,0,1,1.458-.2915,3.5208,3.5208,0,0,1,1.45.2915,3.2422,3.2422,0,0,1,1.1279.836,3.8667,3.8667,0,0,1,.7363,1.312,5.7184,5.7184,0,0,1,0,3.4145,3.8748,3.8748,0,0,1-.7363,1.3047,3.2345,3.2345,0,0,1-1.1279.8359A3.5193,3.5193,0,0,1,112.8426,29.7188Zm0-1.09a2.2293,2.2293,0,0,0,1.626-.6143,2.5054,2.5054,0,0,0,.63-1.872V25.0069a2.5065,2.5065,0,0,0-.63-1.8716,2.4622,2.4622,0,0,0-3.253,0,2.5063,2.5063,0,0,0-.6289,1.8716v1.1358a2.5052,2.5052,0,0,0,.6289,1.872A2.2333,2.2333,0,0,0,112.8426,28.629Z"/><path class="cls-1" d="M118.4442,29.5343v-7.918h1.2275v1.2744h.0615a3.9962,3.9962,0,0,1,.3145-.57,1.9445,1.9445,0,0,1,.43-.4634,1.9676,1.9676,0,0,1,.5908-.3115,2.5033,2.5033,0,0,1,.7978-.1138,2.8834,2.8834,0,0,1,1.4424.3726,2.2528,2.2528,0,0,1,.9815,1.2241h.0312a2.4207,2.4207,0,0,1,.8057-1.1177,2.4736,2.4736,0,0,1,1.6035-.479,2.3741,2.3741,0,0,1,1.8955.79,3.3123,3.3123,0,0,1,.6826,2.2329v5.0791h-1.2275v-4.875a2.594,2.594,0,0,0-.4151-1.6,1.56,1.56,0,0,0-1.3193-.5381,2.5786,2.5786,0,0,0-.6982.0923,1.9018,1.9018,0,0,0-.5909.2768,1.3441,1.3441,0,0,0-.414.4693,1.3843,1.3843,0,0,0-.1533.6689v5.5054h-1.2276v-4.875a2.5947,2.5947,0,0,0-.415-1.6,1.523,1.523,0,0,0-1.2891-.5381,2.656,2.656,0,0,0-.7051.0923,1.8827,1.8827,0,0,0-.5986.2768,1.4282,1.4282,0,0,0-.4219.4693,1.3342,1.3342,0,0,0-.1611.6689v5.5054Z"/><path class="cls-1" d="M137.84,29.7188a3.7035,3.7035,0,0,1-1.8487-.4228,4.1973,4.1973,0,0,1-1.2812-1.1279l.874-.7051a3.4491,3.4491,0,0,0,1.0283.8974,2.6775,2.6775,0,0,0,1.32.3145,1.952,1.952,0,0,0,1.22-.3379,1.2248,1.2248,0,0,0,.1377-1.7412,1.8264,1.8264,0,0,0-1.0821-.4531l-.6289-.0918a5.2238,5.2238,0,0,1-1.0127-.2383,2.8277,2.8277,0,0,1-.8056-.4287,1.8569,1.8569,0,0,1-.5372-.668,2.1772,2.1772,0,0,1-.1914-.9516,2.2816,2.2816,0,0,1,.2149-1.02,2.0421,2.0421,0,0,1,.5908-.729,2.5759,2.5759,0,0,1,.8975-.4375,4.1468,4.1468,0,0,1,1.12-.1455,3.4986,3.4986,0,0,1,1.6191.3374,3.6262,3.6262,0,0,1,1.1426.9361l-.8125.7363a2.4206,2.4206,0,0,0-2.041-.9663,1.7606,1.7606,0,0,0-1.1592.33,1.1134,1.1134,0,0,0-.3906.8979.9394.9394,0,0,0,.3906.8438,2.92,2.92,0,0,0,1.1279.3838l.6143.0918a3.2932,3.2932,0,0,1,1.8721.76,2,2,0,0,1,.5527,1.4658,2.2435,2.2435,0,0,1-.7832,1.8106A3.2331,3.2331,0,0,1,137.84,29.7188Z"/><path class="cls-1" d="M145.9109,29.7188a3.5578,3.5578,0,0,1-1.4658-.292,3.1633,3.1633,0,0,1-1.12-.8359,3.8473,3.8473,0,0,1-.7207-1.3047,5.889,5.889,0,0,1,0-3.4145,3.84,3.84,0,0,1,.7207-1.312,3.1707,3.1707,0,0,1,1.12-.836,3.5593,3.5593,0,0,1,1.4658-.2915,3.3606,3.3606,0,0,1,1.4268.29,3.1555,3.1555,0,0,1,1.0742.8028,3.5816,3.5816,0,0,1,.6836,1.2158,4.8071,4.8071,0,0,1,.2373,1.5449v.58H143.64v.3691a2.7115,2.7115,0,0,0,.1611.9434,2.2436,2.2436,0,0,0,.4609.76,2.0942,2.0942,0,0,0,.7364.5058,2.5271,2.5271,0,0,0,.99.1846,2.3985,2.3985,0,0,0,1.3115-.3535,2.3126,2.3126,0,0,0,.8672-1.0127l.875.6338a3.06,3.06,0,0,1-1.1973,1.32A3.6128,3.6128,0,0,1,145.9109,29.7188Zm0-7.2587a2.3344,2.3344,0,0,0-.9208.1757,2.06,2.06,0,0,0-.7129.4956,2.3111,2.3111,0,0,0-.4688.7544,2.6193,2.6193,0,0,0-.1689.9532v.1074h4.374v-.168a2.4116,2.4116,0,0,0-.5752-1.685A1.9648,1.9648,0,0,0,145.9109,22.46Z"/><path class="cls-1" d="M154.3055,29.7188a3.65,3.65,0,0,1-1.4893-.292,3.0405,3.0405,0,0,1-1.1123-.8291,3.6769,3.6769,0,0,1-.69-1.3037,6.3431,6.3431,0,0,1,0-3.4375,3.6888,3.6888,0,0,1,.69-1.3042,3.046,3.046,0,0,1,1.1123-.8286,3.6519,3.6519,0,0,1,1.4893-.2915,3.1761,3.1761,0,0,1,1.8945.5137,3.14,3.14,0,0,1,1.0664,1.3428l-1.0273.5219a1.8677,1.8677,0,0,0-.7061-.9516,2.1237,2.1237,0,0,0-1.2275-.3374,2.463,2.463,0,0,0-.9668.1762,1.8837,1.8837,0,0,0-.69.4913,2.0737,2.0737,0,0,0-.4151.7519,3.1792,3.1792,0,0,0-.1377.9585V26.25a2.57,2.57,0,0,0,.56,1.7109,2.0329,2.0329,0,0,0,1.65.668,2.2285,2.2285,0,0,0,2.1484-1.3809l.89.5987A3.1482,3.1482,0,0,1,156.2,29.212,3.3387,3.3387,0,0,1,154.3055,29.7188Z"/><path class="cls-1" d="M159.0779,29.5343v-7.918h1.2276v1.4575h.0762a2.397,2.397,0,0,1,.7675-1.0127,2.36,2.36,0,0,1,1.52-.4448h.4755v1.2275h-.7216a2.7742,2.7742,0,0,0-1.5576.376,1.1089,1.1089,0,0,0-.56.9439v5.3706Z"/><path class="cls-1" d="M167.6854,29.7188a3.5579,3.5579,0,0,1-1.4659-.292,3.1633,3.1633,0,0,1-1.12-.8359,3.8473,3.8473,0,0,1-.7207-1.3047,5.889,5.889,0,0,1,0-3.4145,3.84,3.84,0,0,1,.7207-1.312,3.1707,3.1707,0,0,1,1.12-.836,3.5594,3.5594,0,0,1,1.4659-.2915,3.36,3.36,0,0,1,1.4267.29,3.1555,3.1555,0,0,1,1.0742.8028,3.58,3.58,0,0,1,.6836,1.2158,4.8071,4.8071,0,0,1,.2373,1.5449v.58h-5.6933v.3691a2.7115,2.7115,0,0,0,.1611.9434,2.2436,2.2436,0,0,0,.4609.76,2.0951,2.0951,0,0,0,.7364.5058,2.5271,2.5271,0,0,0,.99.1846,2.3985,2.3985,0,0,0,1.3115-.3535,2.3126,2.3126,0,0,0,.8672-1.0127l.875.6338a3.06,3.06,0,0,1-1.1972,1.32A3.6132,3.6132,0,0,1,167.6854,29.7188Zm0-7.2587a2.3345,2.3345,0,0,0-.9209.1757,2.06,2.06,0,0,0-.7129.4956,2.3111,2.3111,0,0,0-.4688.7544,2.6193,2.6193,0,0,0-.1689.9532v.1074h4.374v-.168a2.4116,2.4116,0,0,0-.5752-1.685A1.9646,1.9646,0,0,0,167.6854,22.46Z"/><path class="cls-1" d="M174.8826,29.5343a1.2585,1.2585,0,0,1-.9746-.3594,1.341,1.341,0,0,1-.33-.9424V22.7057h-1.3037V21.6163h.7364a.7233.7233,0,0,0,.5449-.1611.8393.8393,0,0,0,.1455-.56V19.422h1.1045v2.1943H176.54v1.0894h-1.7344v5.7387h1.6113v1.09Z"/><path class="cls-1" d="M180.8973,29.7188a3.7035,3.7035,0,0,1-1.8487-.4228,4.1985,4.1985,0,0,1-1.2812-1.1279l.874-.7051a3.4491,3.4491,0,0,0,1.0283.8974,2.6776,2.6776,0,0,0,1.32.3145,1.9519,1.9519,0,0,0,1.22-.3379,1.2248,1.2248,0,0,0,.1377-1.7412,1.8261,1.8261,0,0,0-1.0821-.4531l-.6289-.0918a5.2238,5.2238,0,0,1-1.0127-.2383,2.8277,2.8277,0,0,1-.8056-.4287,1.8556,1.8556,0,0,1-.5371-.668,2.1758,2.1758,0,0,1-.1914-.9516,2.2816,2.2816,0,0,1,.2148-1.02,2.0421,2.0421,0,0,1,.5908-.729,2.5759,2.5759,0,0,1,.8975-.4375,4.1468,4.1468,0,0,1,1.12-.1455,3.4986,3.4986,0,0,1,1.6191.3374,3.6262,3.6262,0,0,1,1.1426.9361l-.8125.7363a2.4206,2.4206,0,0,0-2.041-.9663,1.7606,1.7606,0,0,0-1.1592.33,1.1134,1.1134,0,0,0-.3906.8979.9394.9394,0,0,0,.3906.8438,2.92,2.92,0,0,0,1.128.3838l.6142.0918a3.2932,3.2932,0,0,1,1.8721.76,2,2,0,0,1,.5527,1.4658,2.2435,2.2435,0,0,1-.7832,1.8106A3.2331,3.2331,0,0,1,180.8973,29.7188Z"/><path class="cls-2" d="M14.2055,33.6947a2.2383,2.2383,0,1,1-2.2383,2.2383,2.2383,2.2383,0,0,1,2.2383-2.2383m0-2.2383a4.4766,4.4766,0,1,0,4.4766,4.4766A4.4767,4.4767,0,0,0,14.2055,31.4564Z"/><path class="cls-3" d="M25.397,11.3118A2.2383,2.2383,0,1,1,23.1587,13.55a2.2383,2.2383,0,0,1,2.2383-2.2383m0-2.2383A4.4766,4.4766,0,1,0,29.8736,13.55,4.4765,4.4765,0,0,0,25.397,9.0735Z"/><path class="cls-4" d="M36.5885,11.3118A2.2383,2.2383,0,1,1,34.35,13.55a2.2383,2.2383,0,0,1,2.2383-2.2383m0-2.2383A4.4766,4.4766,0,1,0,41.065,13.55,4.4765,4.4765,0,0,0,36.5885,9.0735Z"/><path class="cls-5" d="M27.6353,33.6947v4.4766H23.1587V33.6947h4.4766m2.2383-2.2383H20.92V40.41h8.9532Z"/><path class="cls-6" d="M37.7076,31.6131V25.8607a2.2383,2.2383,0,0,0-2.2383-2.2383H15.3247V18.0267h3.3574V9.0735H9.7289v8.9532h3.3575v5.5957a2.2383,2.2383,0,0,0,2.2383,2.2383H35.4693v5.7524a4.4766,4.4766,0,1,0,2.2383,0Zm-25.74-20.3013h4.4766v4.4766H11.9672Zm24.6213,26.86a2.2383,2.2383,0,1,1,2.2382-2.2383A2.2383,2.2383,0,0,1,36.5885,38.1713Z"/><circle class="cls-7" cx="36.5885" cy="35.933" r="3.4853"/><path class="cls-1" d="M16.4438,11.3118v4.4766H11.9672V11.3118h4.4766m2.2383-2.2383H9.7289v8.9532h8.9532Z"/></g></svg>