<svg xmlns="http://www.w3.org/2000/svg" viewBox="0 0 207.44 47.82"><defs><style>.cls-1{fill:#a6c8ff;}.cls-2{fill:#4589ff;}.cls-3{fill:#0043ce;stroke:#0043ce;stroke-miterlimit:10;}.cls-4{font-size:15.35px;fill:#002d9c;font-family:IBMPlexSans, IBM Plex Sans;}</style></defs><g id="Graphics"><polygon class="cls-1" points="39.15 40.42 32.43 40.42 32.43 38.19 36.91 38.19 36.91 11.31 32.43 11.31 32.43 9.07 39.15 9.07 39.15 40.42"/><path class="cls-2" d="M33.45,28.77a5.06,5.06,0,0,0-3-3.63,5.12,5.12,0,0,0-3.92,0,5.38,5.38,0,0,0-.71.39l-3.15-3.14A5.07,5.07,0,1,0,21.11,24l3.15,3.14a5,5,0,1,0,9.19,3.7A5.38,5.38,0,0,0,33.45,28.77Zm-15-6.26a2.8,2.8,0,1,1,2.8-2.8A2.8,2.8,0,0,1,18.43,22.51Z"/><polygon class="cls-1" points="14.52 40.42 7.8 40.42 7.8 9.07 14.52 9.07 14.52 11.31 10.04 11.31 10.04 38.19 14.52 38.19 14.52 40.42"/><path class="cls-3" d="M18.43,17.47a2.24,2.24,0,1,1-2.23,2.24,2.24,2.24,0,0,1,2.23-2.24m0-2.24a4.48,4.48,0,1,0,4.48,4.48A4.48,4.48,0,0,0,18.43,15.23Z"/><circle class="cls-1" cx="28.51" cy="29.79" r="5.04"/></g><g id="Text"><text class="cls-4" transform="translate(45.3 29.53)">Create IAM credentials</text></g></svg>