<svg xmlns="http://www.w3.org/2000/svg" width="207.4368" height="47.8204" viewBox="0 0 207.4368 47.8204"><defs><style>.cls-1{fill:#002d9c;}.cls-2{fill:#a6c8ff;}.cls-3{fill:#4589ff;}.cls-4{fill:#0043ce;stroke:#0043ce;stroke-miterlimit:10;}</style></defs><g id="Text"><path class="cls-1" d="M50.5016,29.7188a3.8743,3.8743,0,0,1-3.1768-1.39A6.3354,6.3354,0,0,1,46.19,24.24a6.6075,6.6075,0,0,1,1.1347-4.1508,3.807,3.807,0,0,1,3.1768-1.45,3.7439,3.7439,0,0,1,3.6826,2.3325l-1.043.6289a2.9767,2.9767,0,0,0-.9824-1.3272,2.6692,2.6692,0,0,0-1.6572-.499,2.8151,2.8151,0,0,0-1.2354.2622,2.5493,2.5493,0,0,0-.9209.7466,3.5006,3.5006,0,0,0-.5751,1.1553,5.2537,5.2537,0,0,0-.1993,1.501v1.602a4.0013,4.0013,0,0,0,.7676,2.6025,2.6352,2.6352,0,0,0,2.1631.94,2.7432,2.7432,0,0,0,1.7187-.5293A3.061,3.061,0,0,0,53.233,26.65l1.0284.6445a4.12,4.12,0,0,1-1.458,1.78A4.0075,4.0075,0,0,1,50.5016,29.7188Z"/><path class="cls-1" d="M56.1334,29.5343V21.6158H57.361v1.4575h.0771a2.3873,2.3873,0,0,1,.7666-1.0127,2.36,2.36,0,0,1,1.52-.4448H60.2v1.2276h-.7216a2.769,2.769,0,0,0-1.5567.3759,1.1081,1.1081,0,0,0-.5605.9439v5.3711Z"/><path class="cls-1" d="M64.7418,29.7188a3.5511,3.5511,0,0,1-1.4658-.292,3.1624,3.1624,0,0,1-1.12-.8359,3.8137,3.8137,0,0,1-.7207-1.3047,5.8685,5.8685,0,0,1,0-3.415,3.8088,3.8088,0,0,1,.7207-1.312,3.17,3.17,0,0,1,1.12-.836,3.5526,3.5526,0,0,1,1.4658-.2915,3.3626,3.3626,0,0,1,1.4268.2906,3.1549,3.1549,0,0,1,1.0742.8027,3.563,3.563,0,0,1,.6826,1.2158,4.78,4.78,0,0,1,.2383,1.5454v.58H62.47v.3691a2.7116,2.7116,0,0,0,.1612.9434,2.2279,2.2279,0,0,0,.4609.76,2.0856,2.0856,0,0,0,.7363.5058,2.5194,2.5194,0,0,0,.9893.1846,2.4019,2.4019,0,0,0,1.3125-.3535,2.3126,2.3126,0,0,0,.8672-1.0127l.874.6338a3.0572,3.0572,0,0,1-1.1963,1.32A3.6176,3.6176,0,0,1,64.7418,29.7188Zm0-7.2592a2.3367,2.3367,0,0,0-.9209.1757,2.0724,2.0724,0,0,0-.7138.4957,2.3224,2.3224,0,0,0-.4678.7543,2.62,2.62,0,0,0-.169.9537v.1074h4.3741v-.1685a2.4074,2.4074,0,0,0-.5762-1.685A1.9627,1.9627,0,0,0,64.7418,22.46Z"/><path class="cls-1" d="M75.943,29.5343a1.2052,1.2052,0,0,1-.9893-.3682,1.828,1.828,0,0,1-.3759-.9209h-.0772a2.0428,2.0428,0,0,1-.8594,1.1045,2.6612,2.6612,0,0,1-1.4267.3691,2.7747,2.7747,0,0,1-1.9561-.6445,2.2633,2.2633,0,0,1-.6982-1.75,2,2,0,0,1,.82-1.7187,4.3733,4.3733,0,0,1,2.5557-.5987h1.5644v-.7827a1.7125,1.7125,0,0,0-.46-1.289,1.965,1.965,0,0,0-1.4121-.4449,2.1237,2.1237,0,0,0-1.2041.3223,2.6559,2.6559,0,0,0-.8057.8594l-.7363-.6905A2.7924,2.7924,0,0,1,70.91,21.8844a3.24,3.24,0,0,1,1.78-.4527,3.2729,3.2729,0,0,1,2.24.7041,2.4776,2.4776,0,0,1,.7979,1.96v4.3486h.9062v1.09Zm-3.5293-.8594a3.1382,3.1382,0,0,0,.8447-.1074,2.0656,2.0656,0,0,0,.6592-.3067,1.5076,1.5076,0,0,0,.43-.4609,1.095,1.095,0,0,0,.1533-.5674V25.9278h-1.626a2.9619,2.9619,0,0,0-1.5419.3076.99.99,0,0,0-.4834.89v.3223a1.0708,1.0708,0,0,0,.4218.9052A1.8375,1.8375,0,0,0,72.4137,28.6749Z"/><path class="cls-1" d="M80.1325,29.5343a1.26,1.26,0,0,1-.9747-.3594,1.34,1.34,0,0,1-.3291-.9424V22.7052H77.5241V21.6158H78.26a.7232.7232,0,0,0,.5449-.1611.8391.8391,0,0,0,.1455-.56V19.4215h1.1055v2.1943H81.79v1.0894H80.0563v5.7392h1.6113v1.09Z"/><path class="cls-1" d="M86.7467,29.7188a3.5508,3.5508,0,0,1-1.4658-.292,3.1624,3.1624,0,0,1-1.12-.8359,3.812,3.812,0,0,1-.7207-1.3047,5.8685,5.8685,0,0,1,0-3.415,3.8071,3.8071,0,0,1,.7207-1.312,3.17,3.17,0,0,1,1.12-.836,3.5523,3.5523,0,0,1,1.4658-.2915,3.3626,3.3626,0,0,1,1.4268.2906,3.1549,3.1549,0,0,1,1.0742.8027,3.563,3.563,0,0,1,.6826,1.2158,4.78,4.78,0,0,1,.2383,1.5454v.58H84.4752v.3691a2.7093,2.7093,0,0,0,.1612.9434,2.2279,2.2279,0,0,0,.4609.76,2.0847,2.0847,0,0,0,.7363.5058,2.519,2.519,0,0,0,.9893.1846,2.4021,2.4021,0,0,0,1.3125-.3535,2.3132,2.3132,0,0,0,.8672-1.0127l.874.6338a3.0578,3.0578,0,0,1-1.1963,1.32A3.6179,3.6179,0,0,1,86.7467,29.7188Zm0-7.2592a2.3367,2.3367,0,0,0-.9209.1757,2.0715,2.0715,0,0,0-.7138.4957,2.3224,2.3224,0,0,0-.4678.7543,2.62,2.62,0,0,0-.169.9537v.1074h4.3741v-.1685a2.4074,2.4074,0,0,0-.5762-1.685A1.9627,1.9627,0,0,0,86.7467,22.46Z"/><path class="cls-1" d="M95.4313,29.5343V28.46h1.5039v-8.563H95.4313V18.8228h4.2969v1.0743H98.2243V28.46h1.5039v1.0742Z"/><path class="cls-1" d="M108.7819,29.5343l-1.0742-3.1612h-4.3272l-1.0742,3.1612h-1.3047l3.7451-10.7115h1.6416l3.7442,10.7115ZM105.5748,20.02h-.0771l-1.8106,5.2178h3.6983Z"/><path class="cls-1" d="M120.2594,20.5108h-.0762l-.9052,1.7954-2.5625,4.6656-2.5625-4.6656-.9063-1.7954h-.0762v9.0235h-1.2587V18.8228h1.7187l3.0693,5.77h.0772l3.084-5.77h1.6572V29.5343h-1.2588Z"/><path class="cls-1" d="M130.817,29.7188a3.65,3.65,0,0,1-1.4892-.292,3.0389,3.0389,0,0,1-1.1123-.8291,3.6755,3.6755,0,0,1-.69-1.3037,6.3449,6.3449,0,0,1,0-3.438,3.6882,3.6882,0,0,1,.69-1.3042,3.0443,3.0443,0,0,1,1.1123-.8286,3.6515,3.6515,0,0,1,1.4892-.2915,3.1764,3.1764,0,0,1,1.8946.5137,3.1416,3.1416,0,0,1,1.0664,1.3428l-1.0274.522a1.8674,1.8674,0,0,0-.706-.9517,2.124,2.124,0,0,0-1.2276-.3374,2.4615,2.4615,0,0,0-.9668.1763,1.884,1.884,0,0,0-.69.4912,2.0721,2.0721,0,0,0-.415.7519,3.18,3.18,0,0,0-.1377.959V26.25a2.57,2.57,0,0,0,.5595,1.7109,2.0332,2.0332,0,0,0,1.65.668,2.2287,2.2287,0,0,0,2.1485-1.3809l.89.5987a3.1473,3.1473,0,0,1-1.1435,1.3652A3.339,3.339,0,0,1,130.817,29.7188Z"/><path class="cls-1" d="M135.59,29.5343V21.6158h1.2275v1.4575h.0762a2.3973,2.3973,0,0,1,.7676-1.0127,2.36,2.36,0,0,1,1.5195-.4448h.4756v1.2276h-.7217a2.7745,2.7745,0,0,0-1.5576.3759,1.1093,1.1093,0,0,0-.56.9439v5.3711Z"/><path class="cls-1" d="M144.1979,29.7188a3.5571,3.5571,0,0,1-1.4658-.292,3.1624,3.1624,0,0,1-1.12-.8359,3.8458,3.8458,0,0,1-.7208-1.3047,5.8907,5.8907,0,0,1,0-3.415,3.8406,3.8406,0,0,1,.7208-1.312,3.17,3.17,0,0,1,1.12-.836,3.5586,3.5586,0,0,1,1.4658-.2915,3.359,3.359,0,0,1,1.4267.2906,3.1543,3.1543,0,0,1,1.0743.8027,3.5832,3.5832,0,0,1,.6836,1.2158,4.808,4.808,0,0,1,.2373,1.5454v.58h-5.6934v.3691a2.7115,2.7115,0,0,0,.1611.9434,2.2454,2.2454,0,0,0,.461.76,2.0938,2.0938,0,0,0,.7363.5058,2.5274,2.5274,0,0,0,.99.1846,2.399,2.399,0,0,0,1.3116-.3535,2.3124,2.3124,0,0,0,.8671-1.0127l.875.6338a3.0594,3.0594,0,0,1-1.1972,1.32A3.613,3.613,0,0,1,144.1979,29.7188Zm0-7.2592a2.3367,2.3367,0,0,0-.9209.1757,2.0586,2.0586,0,0,0-.7129.4957,2.3113,2.3113,0,0,0-.4688.7543,2.62,2.62,0,0,0-.1689.9537v.1074H146.3v-.1685a2.4116,2.4116,0,0,0-.5752-1.685A1.9646,1.9646,0,0,0,144.1979,22.46Z"/><path class="cls-1" d="M154.7086,28.26h-.0615a2.416,2.416,0,0,1-2.3164,1.4589,3.0122,3.0122,0,0,1-1.3359-.292,2.9,2.9,0,0,1-1.02-.8291,3.7707,3.7707,0,0,1-.6436-1.3037,6.7457,6.7457,0,0,1,0-3.438,3.7839,3.7839,0,0,1,.6436-1.3042,2.9051,2.9051,0,0,1,1.02-.8286,3.0133,3.0133,0,0,1,1.3359-.2915,2.6947,2.6947,0,0,1,1.4189.357,2.2225,2.2225,0,0,1,.8975,1.1015h.0615V18.1783h1.2276v11.356h-1.2276Zm-2.041.3691a2.832,2.832,0,0,0,.79-.1084,1.9617,1.9617,0,0,0,.6523-.3154,1.54,1.54,0,0,0,.4375-.5088,1.4341,1.4341,0,0,0,.1611-.6865v-2.962a1.2208,1.2208,0,0,0-.1611-.6093,1.518,1.518,0,0,0-.4375-.4859,2.2055,2.2055,0,0,0-.6523-.3159,2.6677,2.6677,0,0,0-.79-.1157,2.1125,2.1125,0,0,0-1.6416.6553,2.45,2.45,0,0,0-.5986,1.72V26.254a2.4477,2.4477,0,0,0,.5986,1.72A2.1129,2.1129,0,0,0,152.6676,28.629Z"/><path class="cls-1" d="M161.5221,29.7188a3.5571,3.5571,0,0,1-1.4658-.292,3.1624,3.1624,0,0,1-1.12-.8359,3.8439,3.8439,0,0,1-.7207-1.3047,5.8884,5.8884,0,0,1,0-3.415,3.8387,3.8387,0,0,1,.7207-1.312,3.17,3.17,0,0,1,1.12-.836,3.5586,3.5586,0,0,1,1.4658-.2915,3.36,3.36,0,0,1,1.4268.2906,3.1549,3.1549,0,0,1,1.0742.8027,3.5816,3.5816,0,0,1,.6836,1.2158,4.808,4.808,0,0,1,.2373,1.5454v.58h-5.6934v.3691a2.7093,2.7093,0,0,0,.1612.9434,2.2436,2.2436,0,0,0,.4609.76,2.0938,2.0938,0,0,0,.7363.5058,2.5276,2.5276,0,0,0,.99.1846,2.3989,2.3989,0,0,0,1.3115-.3535,2.3132,2.3132,0,0,0,.8672-1.0127l.875.6338a3.06,3.06,0,0,1-1.1973,1.32A3.613,3.613,0,0,1,161.5221,29.7188Zm0-7.2592a2.3367,2.3367,0,0,0-.9209.1757,2.0586,2.0586,0,0,0-.7129.4957,2.3094,2.3094,0,0,0-.4687.7543,2.62,2.62,0,0,0-.169.9537v.1074h4.374v-.1685a2.4115,2.4115,0,0,0-.5751-1.685A1.9648,1.9648,0,0,0,161.5221,22.46Z"/><path class="cls-1" d="M166.97,29.5343V21.6158h1.2276V22.89h.0615a2.5737,2.5737,0,0,1,.82-1.0634,2.3224,2.3224,0,0,1,1.42-.3951,2.486,2.486,0,0,1,1.9415.79,3.2177,3.2177,0,0,1,.7128,2.2329v5.08h-1.2275V24.6588q0-2.1379-1.7949-2.1377a2.7493,2.7493,0,0,0-.7139.0923,2.0611,2.0611,0,0,0-.6211.2768,1.3642,1.3642,0,0,0-.4375.4693,1.3342,1.3342,0,0,0-.1611.6689v5.5059Z"/><path class="cls-1" d="M177.4352,29.5343a1.2585,1.2585,0,0,1-.9746-.3594,1.341,1.341,0,0,1-.33-.9424V22.7052h-1.3037V21.6158h.7363a.7232.7232,0,0,0,.5449-.1611.8391.8391,0,0,0,.1456-.56V19.4215h1.1044v2.1943h1.7344v1.0894H177.358v5.7392h1.6114v1.09Z"/><path class="cls-1" d="M181.6852,19.7589a.75.75,0,0,1-.5752-.1919.705.705,0,0,1-.1768-.4985v-.2a.705.705,0,0,1,.1768-.4985.958.958,0,0,1,1.15,0,.7049.7049,0,0,1,.1767.4985v.2a.7049.7049,0,0,1-.1767.4985A.75.75,0,0,1,181.6852,19.7589Zm-.6133,1.8569H182.3v7.9185h-1.2276Z"/><path class="cls-1" d="M190.6627,29.5343a1.205,1.205,0,0,1-.9892-.3682,1.8193,1.8193,0,0,1-.376-.9209H189.22a2.0431,2.0431,0,0,1-.8593,1.1045,2.6616,2.6616,0,0,1-1.4268.3691,2.7785,2.7785,0,0,1-1.957-.6445,2.2665,2.2665,0,0,1-.6983-1.75,2,2,0,0,1,.8213-1.7187,4.3678,4.3678,0,0,1,2.5547-.5987H189.22v-.7827a1.7125,1.7125,0,0,0-.46-1.289,1.968,1.968,0,0,0-1.4121-.4449,2.1237,2.1237,0,0,0-1.2041.3223,2.657,2.657,0,0,0-.8057.8594l-.7373-.6905a2.796,2.796,0,0,1,1.0283-1.0971,3.24,3.24,0,0,1,1.78-.4527,3.2764,3.2764,0,0,1,2.24.7041,2.4773,2.4773,0,0,1,.7979,1.96v4.3486h.9053v1.09Zm-3.5293-.8594a3.1367,3.1367,0,0,0,.8438-.1074,2.0707,2.0707,0,0,0,.66-.3067,1.5076,1.5076,0,0,0,.43-.4609,1.0941,1.0941,0,0,0,.1533-.5674V25.9278h-1.6259a2.9665,2.9665,0,0,0-1.543.3076.99.99,0,0,0-.4834.89v.3223a1.0732,1.0732,0,0,0,.4219.9052A1.84,1.84,0,0,0,187.1334,28.6749Z"/><path class="cls-1" d="M194.4059,29.5343a1.2568,1.2568,0,0,1-.9746-.36,1.3011,1.3011,0,0,1-.3291-.9131V18.1783H194.33V28.4444h1.166v1.09Z"/><path class="cls-1" d="M199.6539,29.7188a3.7033,3.7033,0,0,1-1.8486-.4228,4.1973,4.1973,0,0,1-1.2812-1.1279l.874-.7051a3.4491,3.4491,0,0,0,1.0283.8974,2.6775,2.6775,0,0,0,1.32.3145,1.9515,1.9515,0,0,0,1.22-.3379,1.2248,1.2248,0,0,0,.1377-1.7412,1.8258,1.8258,0,0,0-1.082-.4531l-.6289-.0918a5.22,5.22,0,0,1-1.0127-.2383,2.83,2.83,0,0,1-.8057-.4287,1.8552,1.8552,0,0,1-.5371-.6685,2.1772,2.1772,0,0,1-.1914-.9516,2.2816,2.2816,0,0,1,.2149-1.02,2.0419,2.0419,0,0,1,.5908-.729,2.5759,2.5759,0,0,1,.8975-.4375,4.1468,4.1468,0,0,1,1.12-.1455,3.4986,3.4986,0,0,1,1.6191.3374,3.6273,3.6273,0,0,1,1.1426.9361l-.8125.7363a2.4206,2.4206,0,0,0-2.041-.9663,1.761,1.761,0,0,0-1.1592.33,1.1131,1.1131,0,0,0-.3906.8979.9391.9391,0,0,0,.3906.8438,2.9184,2.9184,0,0,0,1.1279.3843l.6143.0918a3.2925,3.2925,0,0,1,1.872.76,1.9994,1.9994,0,0,1,.5528,1.4658,2.2435,2.2435,0,0,1-.7832,1.8106A3.2332,3.2332,0,0,1,199.6539,29.7188Z"/><polygon class="cls-2" points="39.149 40.425 32.43 40.425 32.43 38.186 36.909 38.186 36.909 11.313 32.43 11.313 32.43 9.074 39.149 9.074 39.149 40.425"/><path class="cls-3" d="M33.4493,28.7691a5.0416,5.0416,0,0,0-6.8974-3.6278,5.5227,5.5227,0,0,0-.7166.3919l-3.1464-3.1464A5.0721,5.0721,0,1,0,21.11,23.9656l3.1463,3.1463a5.0194,5.0194,0,0,0,2.2954,7.3229,5.0416,5.0416,0,0,0,6.8974-3.6278A5.2081,5.2081,0,0,0,33.4493,28.7691ZM18.4341,22.51a2.7993,2.7993,0,1,1,2.7992-2.7993A2.7993,2.7993,0,0,1,18.4341,22.51Z"/><polygon class="cls-2" points="14.515 40.425 7.797 40.425 7.797 9.074 14.515 9.074 14.515 11.313 10.036 11.313 10.036 38.186 14.515 38.186 14.515 40.425"/><path class="cls-4" d="M18.4341,17.4724a2.2383,2.2383,0,1,1-2.2383,2.2383,2.2383,2.2383,0,0,1,2.2383-2.2383m0-2.2383a4.4766,4.4766,0,1,0,4.4765,4.4766A4.4765,4.4765,0,0,0,18.4341,15.2341Z"/><circle class="cls-2" cx="28.5111" cy="29.788" r="5.0386"/></g></svg>