<?xml version="1.0" encoding="utf-8"?>
<svg xmlns="http://www.w3.org/2000/svg" viewBox="0 0 1076 654"><defs><style>.cls-1{fill:#f0f0f0;}.cls-11,.cls-12,.cls-13,.cls-15,.cls-16,.cls-2,.cls-7,.cls-9{fill:none;}.cls-2,.cls-3,.cls-7,.cls-8{stroke:#fff;}.cls-11,.cls-12,.cls-13,.cls-15,.cls-16,.cls-2,.cls-7{stroke-linecap:round;}.cls-11,.cls-12,.cls-13,.cls-15,.cls-16,.cls-2,.cls-3,.cls-8{stroke-miterlimit:10;}.cls-2,.cls-3{stroke-width:1.0318px;}.cls-4{fill:#002d9c;}.cls-5,.cls-8{fill:#fff;}.cls-6{fill:#0f62fe;}.cls-7,.cls-9{stroke-linejoin:round;}.cls-11,.cls-12,.cls-13,.cls-15,.cls-16,.cls-8,.cls-9{stroke-width:0.5px;}.cls-9{stroke:#6f6f6f;}.cls-10{fill:#6f6f6f;}.cls-11,.cls-12,.cls-13,.cls-15,.cls-16{stroke:#a56eff;}.cls-12{stroke-dasharray:2.848 1.8987 2.848 1.8987;}.cls-13{stroke-dasharray:2.848 1.8987 2.848 1.8987 2.848 1.8987;}.cls-14{fill:#a56eff;}.cls-15{stroke-dasharray:2.9788 1.9859 2.9788 1.9859;}.cls-16{stroke-dasharray:2.9788 1.9859 2.9788 1.9859 2.9788 1.9859;}.cls-17{fill:#bebebe;}.cls-18{font-size:17.6098px;font-family:IBMPlexSans-Medium, IBM Plex Sans;font-weight:500;}.cls-19{font-size:13.7791px;font-family:IBMPlexSans, IBM Plex Sans;}.cls-20{letter-spacing:-0.004em;}.cls-21{letter-spacing:-0.004em;}.cls-22{letter-spacing:-0.006em;}.cls-23{letter-spacing:-0.017em;}.cls-24{font-size:16px;font-family:IBMPlexSans-SemiBold, IBM Plex Sans;font-weight:600;}.cls-25{letter-spacing:-0.004em;}.cls-26{letter-spacing:-0.011em;}.cls-27{letter-spacing:0em;}.cls-28{letter-spacing:-0.006em;}.cls-29{letter-spacing:0em;}.cls-30{letter-spacing:-0.005em;}.cls-31{letter-spacing:-0.005em;}.cls-32{letter-spacing:-0.005em;}.cls-33{letter-spacing:0em;}</style></defs><g id="Graphics"><rect class="cls-1" x="847.0286" y="25.57" width="197.2015" height="218"/><rect class="cls-1" x="262.7985" y="25.57" width="197.2015" height="218"/><circle cx="67.6251" cy="133.9756" r="37.9116" transform="translate(-79.4114 164.0238) rotate(-74.7672)"/><path class="cls-2" d="M78.5527,121.117a10.21,10.21,0,1,1-10.21-10.21,10.21,10.21,0,0,1,10.21,10.21"/><path class="cls-2" d="M48.4323,156.5153a20.4253,20.4253,0,0,1,40.0114-.256"/><circle class="cls-2" cx="68.4654" cy="133.9756" r="30.1599" transform="translate(-76.6448 173.7251) rotate(-78.2507)"/><circle class="cls-3" cx="48.4323" cy="156.5154" r="2.3238" transform="translate(-68.3034 41.5566) rotate(-28.2452)"/><circle cx="67.6251" cy="560.4115" r="37.9117" transform="translate(-422.3566 280.1399) rotate(-53.3496)"/><path class="cls-2" d="M78.5527,547.5529a10.21,10.21,0,1,1-10.21-10.21,10.21,10.21,0,0,1,10.21,10.21"/><path class="cls-2" d="M48.4323,582.9513a20.4252,20.4252,0,0,1,40.0114-.256"/><circle class="cls-2" cx="68.4654" cy="560.4115" r="30.16" transform="translate(-320.9906 151.6664) rotate(-36.6504)"/><path class="cls-3" d="M49.7519,584.864a2.3237,2.3237,0,1,1,.5931-3.2323A2.3238,2.3238,0,0,1,49.7519,584.864Z"/><circle class="cls-4" cx="360.0392" cy="133.9756" r="37.9116" transform="translate(-23.9785 144.3716) rotate(-21.9616)"/><path id="id--badge" class="cls-5" d="M373.06,153.9756H347.0184a.4685.4685,0,0,1-.4688-.4688v-32.552a.4686.4686,0,0,1,.4688-.4688h9.9479v-6.0416a.4684.4684,0,0,1,.4687-.4688h5.2084a.4684.4684,0,0,1,.4687.4688v6.0416H373.06a.4685.4685,0,0,1,.4688.4688v32.552A.4684.4684,0,0,1,373.06,153.9756Zm-25.5729-.9375h25.1042V121.4235h-9.4792v3.4375a.4685.4685,0,0,1-.4687.4688H357.435a.4685.4685,0,0,1-.4687-.4688v-3.4375h-9.4792Zm10.4167-28.6458h4.2708v-9.4792h-4.2708Zm3.4375,25.6771h-9.1146v-.9375h9.1146Zm6.51-2.6042h-15.625v-.9375h15.625Zm.4688-3.0729h-.9375a7.2911,7.2911,0,0,0-5.6993-6.91.4687.4687,0,0,1-.082-.8841,3.8476,3.8476,0,1,0-3.1224,0,.4687.4687,0,0,1-.082.8841,7.2907,7.2907,0,0,0-5.7018,6.91h-.9375a8.1857,8.1857,0,0,1,5.3815-7.5052,4.7865,4.7865,0,1,1,5.8,0A8.1859,8.1859,0,0,1,368.3205,144.3923Z"/><circle class="cls-6" cx="360.0392" cy="407.5976" r="37.9117" transform="translate(-99.417 698.5685) rotate(-80.891)"/><path id="secure--profile" class="cls-5" d="M369.3361,419.8568v-2.5886a1.3021,1.3021,0,1,1,.9375,0v2.5886a.4688.4688,0,0,1-.9375,0Zm10.7031-12.2592v19.5313a.4684.4684,0,0,1-.4687.4687H360.0392a.4684.4684,0,0,1-.4687-.4687v-15.625h.9375V426.66h18.5937V408.0664H340.508a.4684.4684,0,0,1-.4688-.4688V388.0664a.4685.4685,0,0,1,.4688-.4688h19.5312a.4686.4686,0,0,1,.4688.4688v15.625h-.9375V388.5352H340.9767v18.5937h2.9688v-3.4362a6.3319,6.3319,0,0,1,3.7864-5.7643,3.7246,3.7246,0,1,1,5.0886.0013,6.3351,6.3351,0,0,1,3.7812,5.763v3.4362h8.1771v-5.3906a5.0261,5.0261,0,1,1,10.0521,0l-.0013,5.3906h4.7409A.4684.4684,0,0,1,380.0392,407.5976Zm-24.375-3.9049a5.4026,5.4026,0,0,0-3.96-5.1693.4681.4681,0,0,1-.099-.8619,2.7871,2.7871,0,1,0-2.6575-.0013.4683.4683,0,0,1-.1016.8619,5.4026,5.4026,0,0,0-3.9635,5.1706v3.4362h10.7812Zm18.2292-1.9544a4.0886,4.0886,0,1,0-8.1771,0v5.3906h8.1745Z"/><circle class="cls-6" cx="652.6299" cy="133.9756" r="37.9117" transform="translate(417.0243 757.1651) rotate(-80.891)"/><path id="retrieve--and--rank" class="cls-5" d="M671.9629,153.9756l-14.3381-14.3407a14.84,14.84,0,1,1,2.1388-19.1279h12.5325v.9408H660.3516a14.8456,14.8456,0,0,1,1.2987,2.9789h10.6458v.9407H661.909a14.8253,14.8253,0,0,1,.3985,2.9789h9.9886v.9407h-9.99a14.72,14.72,0,0,1-.3972,2.979h10.3871v.9407H661.6529a14.8662,14.8662,0,0,1-3.363,5.7645l14.3406,14.3394Zm-24.4913-39.0593a13.9017,13.9017,0,1,0,8.588,24.8271h-2.7464a.47.47,0,0,1-.47-.47v-3.92a.47.47,0,0,1,.47-.47h6.666a13.7932,13.7932,0,0,0,1.1811-3.6348h-9.769a.47.47,0,0,1-.47-.47v-3.92a.47.47,0,0,1,.47-.47h9.77a13.8361,13.8361,0,0,0-1.18-3.6322h-6.6673a.47.47,0,0,1-.47-.47v-3.92a.47.47,0,0,1,.47-.47h2.749A13.8352,13.8352,0,0,0,647.4716,114.9163Zm6.3133,23.885h3.3526a13.988,13.988,0,0,0,2.34-2.9776h-5.6926Zm-1.9233-8.4938h9.432a13.9705,13.9705,0,0,0,0-2.98h-9.432Zm1.9233-8.4926h5.6926a13.99,13.99,0,0,0-2.3387-2.9789h-3.3539Zm-5.0067,17.9272h-7.8393a.47.47,0,0,1-.47-.47v-3.92a.47.47,0,0,1,.47-.47h7.8393a.47.47,0,0,1,.47.47v3.92A.47.47,0,0,1,648.7782,139.7421Zm-7.369-.9408h6.8986v-2.9776h-6.8986Zm6.0624-7.5544H637.0192a.47.47,0,0,1-.47-.47v-3.92a.47.47,0,0,1,.47-.47h10.4524a.47.47,0,0,1,.47.47v3.92A.47.47,0,0,1,647.4716,131.2469Zm-9.982-.9394h9.5117v-2.979H637.49Zm11.2886-7.5519h-7.8393a.47.47,0,0,1-.47-.47v-3.92a.47.47,0,0,1,.47-.47h7.8393a.47.47,0,0,1,.47.47v3.92A.47.47,0,0,1,648.7782,122.7556Zm-7.369-.9407h6.8986V118.836h-6.8986Z"/><circle class="cls-6" cx="945.038" cy="133.9756" r="37.9116"/><path class="cls-7" d="M940.0932,142.4787a35.6032,35.6032,0,0,1,4.0345-.2251c8.0891,0,14.6466,2.624,14.6466,5.861"/><path class="cls-7" d="M958.7743,148.1146c0,3.2369-6.5575,5.861-14.6466,5.861s-14.6465-2.6241-14.6465-5.861c0-2.0231,2.5615-3.8068,6.4575-4.86"/><line class="cls-7" x1="929.4813" y1="148.1147" x2="929.4813" y2="119.7862"/><line class="cls-7" x1="958.7743" y1="148.1147" x2="958.7743" y2="121.7983"/><line class="cls-7" x1="950.1167" y1="114.5911" x2="950.1167" y2="134.614"/><line class="cls-7" x1="938.1036" y1="114.5911" x2="938.1036" y2="140.8333"/><line class="cls-7" x1="944.1211" y1="114.1092" x2="944.1211" y2="144.9482"/><circle class="cls-7" cx="944.1211" cy="146.7492" r="1.8204"/><circle class="cls-7" cx="950.1167" cy="136.4343" r="1.8204"/><circle class="cls-7" cx="937.9519" cy="142.6535" r="1.8204"/><path class="cls-7" d="M957.9316,121.8008c-2.0181,2.2709-7.4365,3.8968-13.8039,3.8968-8.089,0-14.6465-2.624-14.6465-5.861s6.5575-5.861,14.6465-5.861c6.5724,0,12.1337,1.7323,13.9881,4.1181"/><circle class="cls-7" cx="958.7743" cy="119.978" r="1.8204"/><circle cx="681.0723" cy="109.9233" r="12.6372"/><path id="time--lapse" class="cls-8" d="M677.6831,112.0891l-.1808-.3129,3.39-1.9568v-5.4209h.3616v5.6293Zm3.3892,5.1873a7.35,7.35,0,1,1,4.7017-1.6981v-2.6414h-.3621v3.1944h3.1943V115.77H686.107a7.7154,7.7154,0,1,0-5.0347,1.8685Z"/><line class="cls-9" x1="314.8238" y1="135.2994" x2="105.7897" y2="135.2994"/><polygon class="cls-10" points="313.365 130.313 322 135.299 313.365 140.286 313.365 130.313"/><line class="cls-11" x1="360.0392" y1="209.8402" x2="360.0392" y2="211.3402"/><line class="cls-12" x1="360.0392" y1="213.2389" x2="360.0392" y2="221.783"/><line class="cls-13" x1="360.0392" y1="222.7324" x2="360.0392" y2="349.9444"/><line class="cls-11" x1="360.0392" y1="350.8938" x2="360.0392" y2="352.3938"/><polygon class="cls-14" points="355.053 211.299 360.039 202.664 365.026 211.299 355.053 211.299"/><polygon class="cls-14" points="355.053 350.935 360.039 359.57 365.026 350.935 355.053 350.935"/><line class="cls-11" x1="653.0071" y1="210.2462" x2="653.0071" y2="211.7462"/><line class="cls-15" x1="653.0071" y1="213.7321" x2="653.0071" y2="222.6686"/><path class="cls-16" d="M653.0071,223.6616V541.1663c0,14.247-10.4908,25.7965-23.4318,25.7965H107.9929"/><line class="cls-11" x1="107" y1="566.9628" x2="105.5" y2="566.9628"/><polygon class="cls-14" points="648.021 211.705 653.007 203.07 657.993 211.705 648.021 211.705"/><circle class="cls-17" cx="652.6299" cy="287.0083" r="12.6372"/><text class="cls-18" transform="translate(647.2942 292.2825)">3</text><circle class="cls-17" cx="360.0392" cy="287.0083" r="12.6372"/><text class="cls-18" transform="translate(354.703 292.2825)">2</text><circle class="cls-17" cx="180.928" cy="133.9756" r="12.6372"/><text class="cls-18" transform="translate(175.5918 139.2497)">1</text><line class="cls-9" x1="607.0627" y1="135.2994" x2="398.0287" y2="135.2994"/><polygon class="cls-10" points="605.604 130.313 614.239 135.299 605.604 140.286 605.604 130.313"/><line class="cls-9" x1="900.0627" y1="135.2994" x2="691.0286" y2="135.2994"/><polygon class="cls-10" points="898.604 130.313 907.239 135.299 898.604 140.286 898.604 130.313"/><circle class="cls-17" cx="763.5849" cy="133.9756" r="12.6372"/><text class="cls-18" transform="translate(758.249 139.2508)">4</text></g><g id="Text"><text class="cls-19" transform="translate(899.1045 193.841)">S<tspan class="cls-20" x="8.0059" y="0">t</tspan><tspan x="12.7871" y="0">o</tspan><tspan class="cls-21" x="20.5029" y="0">r</tspan><tspan x="25.5049" y="0">a</tspan><tspan class="cls-22" x="32.8633" y="0">g</tspan><tspan x="40.0557" y="0">e buc</tspan><tspan class="cls-23" x="73.6211" y="0">k</tspan><tspan x="80.6484" y="0">et</tspan></text><text class="cls-24" transform="translate(866.879 61.4984)">Cloud Object <tspan class="cls-25" x="99.0703" y="0">St</tspan><tspan x="114.7021" y="0">o</tspan><tspan class="cls-26" x="123.71" y="0">r</tspan><tspan class="cls-27" x="129.8223" y="0">a</tspan><tspan class="cls-28" x="138.7656" y="0">g</tspan><tspan class="cls-29" x="147.3896" y="0">e</tspan></text><text class="cls-19" transform="translate(629.1572 193.841)">API <tspan class="cls-23" x="25.9453" y="0">k</tspan><tspan class="cls-30" x="32.9727" y="0">e</tspan><tspan x="40.4688" y="0">y</tspan></text><path d="M306.9072,466.6637v-.9648h1.35V458.01h-1.35v-.9638h3.8574v.9638h-1.35v7.6885h1.35v.9648Z"/><path d="M317.24,465.5065h-.0547a2.1429,2.1429,0,0,1-2.081,1.3223c-1.7774,0-2.8936-1.4463-2.8936-3.72s1.1162-3.7207,2.8936-3.7207a2.0776,2.0776,0,0,1,2.081,1.3232h.0547v-4.2441h1.1026v10.1962H317.24Zm0-1.1162v-2.6455c0-.7852-.8261-1.3643-1.832-1.3643a1.94,1.94,0,0,0-2.0117,2.1221v1.2129a1.9394,1.9394,0,0,0,2.0117,2.1211C316.4141,465.8366,317.24,465.3132,317.24,464.39Z"/><path d="M320.1621,463.1091c0-2.26,1.2676-3.7207,3.1973-3.7207,1.9013,0,3.0722,1.4609,3.0722,3.4726v.5235h-5.1123v.331a2.0145,2.0145,0,0,0,2.1084,2.1494,2.062,2.062,0,0,0,1.9571-1.2265l.7851.5644a2.9832,2.9832,0,0,1-2.81,1.626C321.43,466.8288,320.1621,465.3688,320.1621,463.1091Zm1.1572-.6475v.0957h3.9268v-.1514a1.89,1.89,0,0,0-1.8867-2.0937A2.0212,2.0212,0,0,0,321.3193,462.4616Z"/><path d="M328.25,466.6637v-7.1093h1.1025v1.1572h.0547a2.0161,2.0161,0,0,1,2.0117-1.3232c1.461,0,2.3838.9921,2.3838,2.7148v4.56h-1.1015v-4.3681c0-1.2676-.5518-1.9151-1.6123-1.9151-.8819,0-1.7364.4415-1.7364,1.3506v4.9326Z"/><path d="M337.6475,466.6637a1.0859,1.0859,0,0,1-1.1719-1.1708v-4.9747h-1.1709v-.9638h.6611c.4688,0,.62-.166.62-.6485v-1.3222h.9922v1.9707h1.5576v.9638h-1.5576v5.1807h1.4473v.9648Z"/><path d="M340.7891,457.2663v-.1787c0-.3721.207-.62.6757-.62s.6748.248.6748.62v.1787c0,.3721-.207.62-.6748.62S340.7891,457.6384,340.7891,457.2663Zm.124,2.2881h1.1025v7.1093h-1.1025Z"/><path d="M345.9287,466.6637a1.0859,1.0859,0,0,1-1.1719-1.1708v-4.9747h-1.1709v-.9638h.6612c.4687,0,.62-.166.62-.6485v-1.3222h.9922v1.9707h1.5576v.9638h-1.5576v5.1807h1.4472v.9648Z"/><path d="M353.5762,459.5544h1.0888l-3.1836,8.7627c-.3164.8545-.6054,1.1025-1.6533,1.1025h-.5644v-.9648H350.38l.5371-1.5157-2.6592-7.3847H349.36l1.708,4.8359.331,1.1572h.0684l.3857-1.1572Z"/><path d="M364.8877,465.5339a3.4446,3.4446,0,0,1-2.7969,1.2949,2.6531,2.6531,0,0,1-2.9482-2.6592,3.0683,3.0683,0,0,1,1.9707-2.7139,3.2594,3.2594,0,0,1-1.0889-2.26,2.3248,2.3248,0,0,1,2.4942-2.3155,2.1,2.1,0,0,1,2.3144,2.0674c0,1.2676-.9922,1.9834-2.2041,2.6592l2.1631,2.3281a7.51,7.51,0,0,0,.4541-2.3281h1.874v.9365h-.9785a7.2174,7.2174,0,0,1-.6611,2.1221l1.874,1.998h-1.4326Zm-.6191-.6612-2.5772-2.7832a2.085,2.085,0,0,0-1.4053,1.9287v.2071c0,1.0058.7442,1.64,1.9014,1.64A2.5381,2.5381,0,0,0,364.2686,464.8727Zm-3.1553-5.7734v.165a2.8489,2.8489,0,0,0,.9228,1.7227c.8682-.4688,1.7364-1.0889,1.7364-1.8467v-.165a1.1969,1.1969,0,0,0-1.31-1.1709A1.2893,1.2893,0,0,0,361.1133,459.0993Z"/><path d="M378.2676,466.6637l-.9649-2.8388H373.417l-.9639,2.8388h-1.1709l3.3614-9.6171h1.4746l3.3623,9.6171Zm-2.88-8.5429h-.0684l-1.6259,4.6846h3.32Z"/><path d="M380.4453,463.1091c0-2.2735,1.1709-3.7207,3.169-3.7207a2.6651,2.6651,0,0,1,2.6591,1.667l-.9228.4687a1.7126,1.7126,0,0,0-1.7363-1.1572,1.9087,1.9087,0,0,0-1.9834,2.1357v1.2129a1.9091,1.9091,0,0,0,1.9834,2.1357,2.0084,2.0084,0,0,0,1.93-1.24l.7989.5371a2.8038,2.8038,0,0,1-2.7285,1.6807C381.6162,466.8288,380.4453,465.3825,380.4453,463.1091Z"/><path d="M387.293,463.1091c0-2.2735,1.1709-3.7207,3.1689-3.7207a2.6652,2.6652,0,0,1,2.6592,1.667l-.9229.4687a1.7125,1.7125,0,0,0-1.7363-1.1572,1.9087,1.9087,0,0,0-1.9834,2.1357v1.2129a1.9091,1.9091,0,0,0,1.9834,2.1357,2.0085,2.0085,0,0,0,1.93-1.24l.7988.5371a2.8036,2.8036,0,0,1-2.7285,1.6807C388.4639,466.8288,387.293,465.3825,387.293,463.1091Z"/><path d="M394.1416,463.1091c0-2.26,1.2676-3.7207,3.1973-3.7207,1.9013,0,3.0722,1.4609,3.0722,3.4726v.5235h-5.1123v.331a2.0145,2.0145,0,0,0,2.1084,2.1494,2.062,2.062,0,0,0,1.9571-1.2265l.7851.5644a2.9832,2.9832,0,0,1-2.81,1.626C395.4092,466.8288,394.1416,465.3688,394.1416,463.1091Zm1.1572-.6475v.0957h3.9278v-.1514a1.8909,1.8909,0,0,0-1.8877-2.0937A2.0211,2.0211,0,0,0,395.2988,462.4616Z"/><path d="M401.5547,465.4372l.7851-.6338a2.581,2.581,0,0,0,2.1084,1.0889c.9366,0,1.4883-.4278,1.4883-1.1573,0-.5517-.3037-.9785-1.24-1.1162l-.5654-.083c-1.3086-.1924-2.2871-.73-2.2871-2.0527,0-1.4053,1.0888-2.0947,2.5351-2.0947a2.9633,2.9633,0,0,1,2.4805,1.1435l-.7305.6621a2.1905,2.1905,0,0,0-1.832-.8681c-.91,0-1.3916.4267-1.3916,1.1015,0,.69.4814.9649,1.3633,1.1026l.5517.083c1.57.2343,2.1768.9228,2.1768,1.998,0,1.3779-1.0059,2.2178-2.6319,2.2178A3.3027,3.3027,0,0,1,401.5547,465.4372Z"/><path d="M408.1826,465.4372l.7852-.6338a2.5809,2.5809,0,0,0,2.1084,1.0889c.9365,0,1.4883-.4278,1.4883-1.1573,0-.5517-.3038-.9785-1.24-1.1162l-.5654-.083c-1.3086-.1924-2.2871-.73-2.2871-2.0527,0-1.4053,1.0888-2.0947,2.5351-2.0947a2.9633,2.9633,0,0,1,2.4805,1.1435l-.7305.6621a2.1905,2.1905,0,0,0-1.832-.8681c-.91,0-1.3916.4267-1.3916,1.1015,0,.69.4814.9649,1.3633,1.1026l.5517.083c1.57.2343,2.1768.9228,2.1768,1.998,0,1.3779-1.0059,2.2178-2.6318,2.2178A3.3029,3.3029,0,0,1,408.1826,465.4372Z"/><path d="M309.6357,475.0973h-.0693l-.8125,1.6114-2.3018,4.1894-2.2871-4.1894-.8125-1.5977h-.0693v8.0879h-1.13v-9.6172h1.5156l2.7559,5.1807h.0557l2.7695-5.1807h1.5156v9.6172h-1.13Z"/><path d="M318.3848,483.1989a1.1476,1.1476,0,0,1-1.2256-1.1572H317.09a2.0066,2.0066,0,0,1-2.0527,1.3222,2.0966,2.0966,0,0,1-2.3838-2.1494c0-1.3359.9639-2.08,3.0313-2.08H317.09v-.7032c0-1.0058-.5507-1.5566-1.6806-1.5566a1.9853,1.9853,0,0,0-1.8057,1.06l-.6611-.62a2.7024,2.7024,0,0,1,2.5215-1.3916c1.709,0,2.7285.8955,2.7285,2.3975v3.9131h.8125v.9648Zm-1.295-2.0664v-1.1719h-1.4609c-1.2539,0-1.8184.3858-1.8184,1.0752v.2891c0,.7031.5508,1.1025,1.4053,1.1025C316.3047,482.4274,317.09,481.862,317.09,481.1325Z"/><path d="M320.5762,483.1989V476.09h1.1025v1.1573h.0547a2.0161,2.0161,0,0,1,2.0117-1.3233c1.461,0,2.3838.9922,2.3838,2.7149v4.56h-1.1016v-4.3682c0-1.2675-.5517-1.915-1.6123-1.915-.8818,0-1.7363.4414-1.7363,1.3506v4.9326Z"/><path d="M333.5693,483.1989a1.1475,1.1475,0,0,1-1.2255-1.1572h-.0694a2.0066,2.0066,0,0,1-2.0527,1.3222,2.0966,2.0966,0,0,1-2.3838-2.1494c0-1.3359.9639-2.08,3.0312-2.08h1.4053v-.7032c0-1.0058-.5508-1.5566-1.6806-1.5566a1.9852,1.9852,0,0,0-1.8057,1.06l-.6611-.62a2.7023,2.7023,0,0,1,2.5214-1.3916c1.709,0,2.7286.8955,2.7286,2.3975v3.9131h.8125v.9648Zm-1.2949-2.0664v-1.1719h-1.4609c-1.2539,0-1.8184.3858-1.8184,1.0752v.2891c0,.7031.5508,1.1025,1.4053,1.1025C331.4893,482.4274,332.2744,481.862,332.2744,481.1325Z"/><path d="M338.31,486.12c-2.2188,0-3.128-.6338-3.128-1.75a1.3334,1.3334,0,0,1,1.13-1.3779v-.1514a1.03,1.03,0,0,1-.6338-.9922c0-.7158.51-1.06,1.2256-1.24v-.0547a2.3113,2.3113,0,0,1-1.3359-2.1768,2.4363,2.4363,0,0,1,2.6728-2.4531,3.199,3.199,0,0,1,1.3506.2754v-.124c0-.5508.2344-.95.8262-.95h1.0615v.9648h-1.3506v.4541a2.3643,2.3643,0,0,1,.8125,1.833,2.44,2.44,0,0,1-2.6865,2.4522,3.6658,3.6658,0,0,1-.6885-.0684c-.4687.1241-.9375.3575-.9375.7989,0,.4267.4414.5371,1.0889.5371h1.5156c1.7637,0,2.5215.7168,2.5215,1.8877C341.7539,485.445,340.5967,486.12,338.31,486.12Zm.9365-2.99h-2.37a.994.994,0,0,0-.6612.9648c0,.62.4268,1.13,1.543,1.13h1.02c1.2266,0,1.9434-.3857,1.9434-1.1572C340.7207,483.5016,340.3486,483.13,339.2461,483.13Zm.5371-4.5606v-.3857c0-.9365-.5918-1.3779-1.5293-1.3779s-1.5293.4414-1.5293,1.3779v.3857c0,.9375.5928,1.378,1.5293,1.378S339.7832,479.5065,339.7832,478.569Z"/><path d="M342.43,479.6442c0-2.26,1.2676-3.7207,3.1973-3.7207,1.9013,0,3.0722,1.461,3.0722,3.4727v.5234h-5.1123v.3311a2.0145,2.0145,0,0,0,2.1084,2.1494,2.0617,2.0617,0,0,0,1.957-1.2266l.7852.5645a2.9833,2.9833,0,0,1-2.81,1.6259C343.6973,483.3639,342.43,481.904,342.43,479.6442Zm1.1572-.6474v.0957h3.9268v-.1514a1.89,1.89,0,0,0-1.8867-2.0938A2.0211,2.0211,0,0,0,343.5869,478.9968Z"/><path d="M350.5176,483.1989V476.09H351.62v1.1573h.0547a1.9146,1.9146,0,0,1,1.916-1.3233,2.1887,2.1887,0,0,1,2.1768,1.4473h.0273a2.1332,2.1332,0,0,1,2.1631-1.4473c1.4473,0,2.3154.9922,2.3154,2.7149v4.56h-1.1025v-4.3682c0-1.2539-.4824-1.915-1.5566-1.915-.8682,0-1.668.4414-1.668,1.3506v4.9326h-1.1016v-4.3682c0-1.2675-.4824-1.915-1.53-1.915-.8672,0-1.6944.4414-1.6944,1.3506v4.9326Z"/><path d="M362.0234,479.6442c0-2.26,1.2676-3.7207,3.1973-3.7207,1.9014,0,3.0723,1.461,3.0723,3.4727v.5234h-5.1123v.3311a2.0145,2.0145,0,0,0,2.1084,2.1494,2.0618,2.0618,0,0,0,1.957-1.2266l.7851.5645a2.9832,2.9832,0,0,1-2.81,1.6259C363.291,483.3639,362.0234,481.904,362.0234,479.6442Zm1.1573-.6474v.0957h3.9267v-.1514a1.89,1.89,0,0,0-1.8867-2.0938A2.0211,2.0211,0,0,0,363.1807,478.9968Z"/><path d="M370.1113,483.1989V476.09h1.1026v1.1573h.0547a2.016,2.016,0,0,1,2.0117-1.3233c1.4609,0,2.3838.9922,2.3838,2.7149v4.56h-1.1016v-4.3682c0-1.2675-.5518-1.915-1.6123-1.915-.8818,0-1.7363.4414-1.7363,1.3506v4.9326Z"/><path d="M379.5088,483.1989a1.086,1.086,0,0,1-1.1719-1.1709v-4.9746H377.166V476.09h.6611c.4688,0,.62-.166.62-.6484v-1.3223h.9922V476.09h1.5576v.9639H379.44v5.1807h1.4472v.9648Z"/><path d="M388.4932,472.7272H389.54a8.0311,8.0311,0,0,0-2.5078,5.5938v1.1855a8.0706,8.0706,0,0,0,2.5078,5.58h-1.0468a8.9026,8.9026,0,0,1,0-12.3594Z"/><path d="M390.2979,483.1989v-.9648h1.35v-7.6885h-1.35v-.9639h3.8574v.9639h-1.3506v7.6885h1.3506v.9648Z"/><path d="M402.2852,483.1989,401.32,480.36h-3.8857l-.9639,2.8389H395.3l3.3613-9.6172h1.4746l3.3623,9.6172Zm-2.88-8.543h-.0684l-1.626,4.6846h3.32Z"/><path d="M412.5781,475.0973h-.0693l-.8125,1.6114-2.3018,4.1894-2.2871-4.1894-.8125-1.5977h-.0693v8.0879h-1.13v-9.6172h1.5156l2.7559,5.1807h.0557l2.7685-5.1807h1.5166v9.6172h-1.13Z"/><path d="M415.9678,485.0866H414.92a8.07,8.07,0,0,0,2.5078-5.58V478.321a8.0269,8.0269,0,0,0-2.5078-5.5938h1.0479a8.9028,8.9028,0,0,1,0,12.3594Z"/><text class="cls-24" transform="translate(298.0398 61.4982)">Sec<tspan class="cls-31" x="26.9116" y="0">r</tspan><tspan class="cls-29" x="33.1196" y="0">ets Mana</tspan><tspan class="cls-28" x="100.1587" y="0">g</tspan><tspan class="cls-29" x="108.7827" y="0">er</tspan></text><path d="M53.311,193.841l-.9643-2.8384H48.4609l-.9643,2.8384H46.3252l3.3618-9.6177h1.4746l3.3618,9.6177Zm-2.88-8.543h-.0689l-1.626,4.6851h3.3208Z"/><path d="M60.5591,192.6838h-.0552a2.1437,2.1437,0,0,1-2.0806,1.3227c-1.7773,0-2.8935-1.4468-2.8935-3.72s1.1162-3.72,2.8935-3.72a2.0768,2.0768,0,0,1,2.0806,1.3223h.0552v-4.2437h1.102V193.841h-1.102Zm0-1.1162v-2.6455c0-.7857-.8267-1.3643-1.8325-1.3643a1.94,1.94,0,0,0-2.0118,2.1221v1.2124a1.94,1.94,0,0,0,2.0118,2.122C59.7324,193.0143,60.5591,192.4909,60.5591,191.5676Z"/><path d="M64.0039,193.841v-7.11H65.106v1.1573h.0551a1.9132,1.9132,0,0,1,1.9151-1.3223,2.188,2.188,0,0,1,2.1772,1.4463h.0274a2.1326,2.1326,0,0,1,2.1635-1.4463c1.4468,0,2.3145.9917,2.3145,2.7143v4.5606H72.6567v-4.3677c0-1.2539-.4824-1.9155-1.5571-1.9155-.8682,0-1.667.4409-1.667,1.3506v4.9326H68.33v-4.3677c0-1.2676-.482-1.9155-1.5293-1.9155-.8682,0-1.6948.4409-1.6948,1.3506v4.9326Z"/><path d="M75.9087,184.444v-.1792c0-.372.2065-.62.6748-.62s.6753.2481.6753.62v.1792c0,.3721-.2066.62-.6753.62S75.9087,184.8161,75.9087,184.444Zm.124,2.2871h1.1021v7.11H76.0327Z"/><path d="M79.4775,193.841v-7.11H80.58v1.1573h.0552a2.0155,2.0155,0,0,1,2.0117-1.3223c1.46,0,2.3838.9917,2.3838,2.7143v4.5606H83.9277v-4.3677c0-1.2676-.5507-1.9155-1.6118-1.9155-.8818,0-1.7363.4409-1.7363,1.3506v4.9326Z"/><path d="M58.0439,209.2189h-.0551a1.976,1.976,0,0,1-1.9976,1.3228c-1.4609,0-2.3974-.9922-2.3974-2.7144v-4.561h1.102v4.3677c0,1.268.5649,1.9155,1.626,1.9155.8681,0,1.7221-.4273,1.7221-1.3643v-4.9189h1.1026v7.11H58.0439Z"/><path d="M60.814,209.15l.7851-.6343a2.5817,2.5817,0,0,0,2.1084,1.0889c.937,0,1.4878-.4273,1.4878-1.1577,0-.5508-.3027-.9781-1.24-1.1158l-.565-.083c-1.3091-.1928-2.2876-.73-2.2876-2.0527,0-1.4058,1.0889-2.0943,2.5357-2.0943a2.9593,2.9593,0,0,1,2.48,1.1436l-.73.6611a2.1947,2.1947,0,0,0-1.833-.8681c-.9092,0-1.3916.4272-1.3916,1.1025,0,.689.4824.9644,1.3642,1.1021l.5513.083c1.5708.2339,2.1767.9228,2.1767,1.9975,0,1.378-1.0058,2.2188-2.6313,2.2188A3.3042,3.3042,0,0,1,60.814,209.15Z"/><path d="M67.6758,206.8215c0-2.26,1.2676-3.72,3.1968-3.72,1.9013,0,3.0727,1.46,3.0727,3.4722v.5235H68.8335v.3305a2.0133,2.0133,0,0,0,2.1079,2.1494,2.0606,2.0606,0,0,0,1.9565-1.226l.7857.5649a2.9843,2.9843,0,0,1-2.811,1.626C68.9434,210.5417,67.6758,209.0807,67.6758,206.8215Zm1.1577-.648v.0967H72.76v-.1519a1.8911,1.8911,0,0,0-1.8877-2.0942A2.0209,2.0209,0,0,0,68.8335,206.1735Z"/><path d="M75.7642,210.3762v-7.11h1.102v1.3091h.0689a2.0424,2.0424,0,0,1,2.0532-1.3091h.4272v1.1025h-.6479c-1.1851,0-1.9014.51-1.9014,1.1846v4.8228Z"/><text class="cls-19" transform="translate(314.7272 193.841)">IAM c<tspan class="cls-32" x="35.7012" y="0">r</tspan><tspan class="cls-33" x="40.689" y="0">edential</tspan></text><text class="cls-19" transform="translate(51.7334 617.8591)">User</text></g></svg>