<?xml version="1.0" encoding="utf-8"?>
<!-- Generator: Adobe Illustrator 26.0.1, SVG Export Plug-In . SVG Version: 6.00 Build 0)  -->
<svg version="1.1" xmlns="http://www.w3.org/2000/svg" xmlns:xlink="http://www.w3.org/1999/xlink" x="0px" y="0px"
	 viewBox="0 0 1056 568" style="enable-background:new 0 0 1056 568;" xml:space="preserve">
<style type="text/css">
	.st0{fill:#F0F0F0;}
	.st1{fill:none;stroke:#FFFFFF;stroke-width:1.0318;stroke-linecap:round;stroke-miterlimit:10;}
	.st2{stroke:#FFFFFF;stroke-width:1.0318;stroke-miterlimit:10;}
	.st3{fill:#002D9C;}
	.st4{fill:#FFFFFF;}
	.st5{fill:#FFFFFF;stroke:#FFFFFF;stroke-width:0.5;stroke-miterlimit:10;}
	.st6{fill:none;stroke:#6F6F6F;stroke-width:0.5;stroke-linejoin:round;}
	.st7{fill:#6F6F6F;}
	.st8{fill:none;}
	.st9{fill:none;stroke:#6F6F6F;stroke-width:0.5;stroke-miterlimit:10;}
	.st10{fill:#BEBEBE;}
	.st11{font-family:'IBMPlexSans-Medium';}
	.st12{font-size:17.6098px;}
	.st13{fill:#CCCCCC;}
	.st14{font-family:'IBMPlexMono-LightItalic';}
	.st15{font-size:15px;}
	.st16{fill:none;stroke:#A56EFF;stroke-linecap:round;stroke-miterlimit:10;}
	.st17{fill:none;stroke:#A56EFF;stroke-linecap:round;stroke-miterlimit:10;stroke-dasharray:3.0148,2.0099,3.0148,2.0099;}
	
		.st18{fill:none;stroke:#A56EFF;stroke-linecap:round;stroke-miterlimit:10;stroke-dasharray:3.0148,2.0099,3.0148,2.0099,3.0148,2.0099;}
	.st19{fill:#A56EFF;}
	.st20{fill:none;stroke:#A56EFF;stroke-linecap:round;stroke-miterlimit:10;stroke-dasharray:3.0494,2.033,3.0494,2.033;}
	
		.st21{fill:none;stroke:#A56EFF;stroke-linecap:round;stroke-miterlimit:10;stroke-dasharray:3.0494,2.033,3.0494,2.033,3.0494,2.033;}
	.st22{font-family:'IBMPlexSans';}
	.st23{font-size:14px;}
	.st24{fill:#106DFF;}
	.st25{fill:#106DFF;stroke:#FFFFFF;stroke-width:1.0318;stroke-linecap:round;stroke-linejoin:round;stroke-miterlimit:10;}
	.st26{fill:none;stroke:#A56EFF;stroke-linecap:round;stroke-miterlimit:10;stroke-dasharray:3.02,2.0133,3.02,2.0133;}
	.st27{fill:none;stroke:#A56EFF;stroke-linecap:round;stroke-miterlimit:10;stroke-dasharray:3.02,2.0133,3.02,2.0133,3.02,2.0133;}
	.st28{font-family:'IBMPlexSans-SemiBold';}
	.st29{font-size:16px;}
	.st30{font-size:13.7791px;}
	.st31{font-family:'IBMPlexSans-SemiBoldItalic';}
	.st32{fill:#757575;}
	.st33{fill:none;stroke:#FFFFFF;stroke-width:1.0318;stroke-linecap:round;stroke-linejoin:round;stroke-miterlimit:10;}
	.st34{fill:none;stroke:#FFFFFF;stroke-width:1.0318;stroke-linecap:round;stroke-linejoin:round;}
	.st35{fill:#757575;stroke:#FFFFFF;stroke-width:1.0318;stroke-linecap:round;stroke-linejoin:round;stroke-miterlimit:10;}
</style>
<g id="Graphics">
	<rect x="625" y="53.07" class="st0" width="398" height="398"/>
	<rect x="265.8" y="53.07" class="st0" width="197.2" height="218"/>
	<g>
		<ellipse transform="matrix(0.7071 -0.7071 0.7071 0.7071 -93.4949 97.2346)" cx="70.63" cy="161.48" rx="37.91" ry="37.91"/>
		<path class="st1" d="M81.55,148.62c0,5.64-4.57,10.21-10.21,10.21s-10.21-4.57-10.21-10.21c0-5.64,4.57-10.21,10.21-10.21
			S81.55,142.98,81.55,148.62"/>
		<path class="st1" d="M51.43,184.02c1.85-9.37,10.12-16.44,20.03-16.44c9.82,0,18.03,6.94,19.98,16.18"/>
		<circle class="st1" cx="71.47" cy="161.48" r="30.16"/>
		<path class="st2" d="M52.75,185.93c-1.06,0.73-2.5,0.46-3.23-0.59c-0.73-1.06-0.46-2.5,0.59-3.23c1.06-0.73,2.5-0.46,3.23,0.59
			C54.07,183.75,53.81,185.2,52.75,185.93z"/>
	</g>
	<g>
		
			<ellipse transform="matrix(0.1549 -0.9879 0.9879 0.1549 147.2639 495.1115)" class="st3" cx="363.04" cy="161.48" rx="37.91" ry="37.91"/>
		<path id="id--badge_1_" class="st4" d="M376.06,181.48h-26.04c-0.26,0-0.47-0.21-0.47-0.47v-32.55c0-0.26,0.21-0.47,0.47-0.47
			h9.95v-6.04c0-0.26,0.21-0.47,0.47-0.47h5.21c0.26,0,0.47,0.21,0.47,0.47v6.04h9.95c0.26,0,0.47,0.21,0.47,0.47v32.55
			C376.53,181.27,376.32,181.48,376.06,181.48z M350.49,180.54h25.1v-31.61h-9.48v3.44c0,0.26-0.21,0.47-0.47,0.47h-5.21
			c-0.26,0-0.47-0.21-0.47-0.47v-3.44h-9.48V180.54z M360.9,151.89h4.27v-9.48h-4.27V151.89z M364.34,177.57h-9.11v-0.94h9.11
			V177.57z M370.85,174.97h-15.62v-0.94h15.62V174.97z M371.32,171.89h-0.94c0-3.22-2.4-6.13-5.7-6.91
			c-0.2-0.05-0.34-0.21-0.36-0.41c-0.02-0.2,0.09-0.39,0.28-0.47c1.39-0.62,2.29-2,2.29-3.51c0-2.12-1.73-3.85-3.85-3.85
			c-2.12,0-3.85,1.73-3.85,3.85c0,1.52,0.9,2.9,2.29,3.51c0.18,0.08,0.29,0.27,0.28,0.47c-0.02,0.2-0.16,0.37-0.36,0.41
			c-3.3,0.78-5.7,3.69-5.7,6.91h-0.94c0-3.3,2.21-6.31,5.38-7.51c-1.17-0.89-1.89-2.29-1.89-3.8c0-2.64,2.15-4.79,4.79-4.79
			c2.64,0,4.79,2.15,4.79,4.79c0,1.51-0.72,2.91-1.89,3.8C369.11,165.59,371.32,168.59,371.32,171.89z"/>
	</g>
	<g>
		<g>
			<line class="st6" x1="317.82" y1="162.8" x2="108.79" y2="162.8"/>
			<g>
				<polygon class="st7" points="316.36,157.81 325,162.8 316.36,167.79 				"/>
			</g>
		</g>
	</g>
	<g>
		<g>
			<path class="st9" d="M69,253.07v233.84c0,15,12.52,27.16,27.96,27.16h785.08c15.44,0,27.96-12.16,27.96-27.16v-75.66"/>
			<g>
				<polygon class="st7" points="914.99,412.71 910,404.07 905.01,412.71 				"/>
			</g>
		</g>
	</g>
	<g>
		<g>
			<circle class="st10" cx="69.07" cy="371.51" r="12.64"/>
		</g>
		<text transform="matrix(1 0 0 1 63.7341 376.7825)" class="st11 st12">2</text>
	</g>
	<g>
		<g>
			<circle class="st10" cx="183.93" cy="161.48" r="12.64"/>
		</g>
		<text transform="matrix(1 0 0 1 178.5918 166.7497)" class="st11 st12">1</text>
	</g>
	<g>
		<g>
			<line class="st6" x1="735.93" y1="223.87" x2="735.93" y2="271.07"/>
			<g>
				<polygon class="st7" points="730.94,225.33 735.93,216.69 740.91,225.33 				"/>
			</g>
		</g>
	</g>
	<rect x="659" y="123.56" class="st13" width="331" height="91"/>
	<text transform="matrix(1 0 0 1 99.4022 376.0008)" class="st14 st15">kubectl apply -f external-secret-example.yml</text>
	<g>
		<g>
			<line class="st6" x1="781.18" y1="309.57" x2="871" y2="309.57"/>
			<g>
				<polygon class="st7" points="782.64,314.56 774,309.57 782.64,304.58 				"/>
			</g>
		</g>
	</g>
	<g>
		<g>
			<circle class="st10" cx="825.61" cy="311.51" r="12.64"/>
		</g>
		<text transform="matrix(1 0 0 1 820.2755 316.7825)" class="st11 st12">3</text>
	</g>
	<g>
		<g>
			<text transform="matrix(1 0 0 1 684.4512 370.9082)"><tspan x="0" y="0" class="st22 st23">External Secrets </tspan><tspan x="23.37" y="16.8" class="st22 st23">Operator</tspan></text>
		</g>
		<g>
			<circle class="st24" cx="735.93" cy="307.95" r="37.91"/>
			<g>
				<polyline class="st25" points="713.97,321.04 735.9,333.77 757.83,321.04 				"/>
				<polyline class="st25" points="757.77,295.57 735.84,282.84 713.91,295.57 				"/>
				<line class="st25" x1="713.91" y1="295.57" x2="713.91" y2="321.04"/>
				<line class="st25" x1="725.1" y1="301.98" x2="725.1" y2="315.25"/>
				<line class="st25" x1="757.9" y1="295.57" x2="757.9" y2="321.04"/>
				<line class="st25" x1="735.9" y1="308.31" x2="735.9" y2="333.05"/>
				<line class="st25" x1="735.9" y1="295.96" x2="735.9" y2="321.62"/>
				<line class="st25" x1="725.1" y1="302.13" x2="725.1" y2="326.91"/>
				<line class="st25" x1="746.71" y1="302.13" x2="746.71" y2="326.79"/>
				<circle class="st25" cx="735.9" cy="282.84" r="2.32"/>
				<circle class="st25" cx="735.9" cy="308.31" r="2.32"/>
				<circle class="st25" cx="735.9" cy="295.96" r="2.32"/>
				<path class="st25" d="M725.1,304.45c-1.28,0-2.32-1.04-2.32-2.32c0-1.28,1.04-2.32,2.32-2.32c1.28,0,2.32,1.04,2.32,2.32
					C727.41,303.41,726.38,304.45,725.1,304.45z"/>
				<path class="st25" d="M746.71,304.45c-1.28,0-2.32-1.04-2.32-2.32c0-1.28,1.04-2.32,2.32-2.32s2.32,1.04,2.32,2.32
					C749.02,303.41,747.99,304.45,746.71,304.45z"/>
				
					<ellipse transform="matrix(0.3849 -0.923 0.923 0.3849 179.11 847.1496)" class="st25" cx="725.1" cy="289.2" rx="2.32" ry="2.32"/>
				<circle class="st25" cx="746.71" cy="289.2" r="2.32"/>
				
					<ellipse transform="matrix(0.1593 -0.9872 0.9872 0.1593 345.3571 996.7003)" class="st25" cx="757.9" cy="295.57" rx="2.32" ry="2.32"/>
				<path class="st25" d="M713.91,297.89c-1.28,0-2.32-1.04-2.32-2.32c0-1.28,1.04-2.32,2.32-2.32c1.28,0,2.32,1.04,2.32,2.32
					C716.22,296.85,715.19,297.89,713.91,297.89z"/>
			</g>
		</g>
	</g>
	<g>
		<g>
			<line class="st16" x1="689.32" y1="309.56" x2="687.82" y2="309.56"/>
			<line class="st26" x1="685.81" y1="309.55" x2="676.75" y2="309.54"/>
			<path class="st27" d="M675.74,309.54l-109.06-0.16c-13.88,0.1-25.19-11.12-25.19-25v-98.06c0-13.81-11.19-25-25-25l-105.77-0.01"
				/>
			<line class="st16" x1="409.72" y1="161.31" x2="408.22" y2="161.31"/>
			<g>
				<polygon class="st19" points="687.87,304.57 696.5,309.57 687.86,314.54 				"/>
			</g>
			<g>
				<polygon class="st19" points="409.68,156.32 401.05,161.31 409.68,166.29 				"/>
			</g>
		</g>
	</g>
	<g>
		<g>
			<circle class="st10" cx="540.58" cy="237.48" r="12.64"/>
		</g>
		<text transform="matrix(1 0 0 1 535.249 242.7509)" class="st11 st12">4</text>
	</g>
</g>
<g id="Text">
	<text transform="matrix(1 0 0 1 645.879 88.9984)" class="st28 st29">Kubernetes cluster</text>
	<text transform="matrix(1 0 0 1 301.0398 88.9982)" class="st28 st29">Secrets Manager</text>
	<text transform="matrix(1 0 0 1 49.0083 221.341)"><tspan x="0" y="0" class="st22 st30">Admin </tspan><tspan x="6.48" y="16.54" class="st22 st30">user</tspan></text>
	<text transform="matrix(1 0 0 1 324.7062 221.341)"><tspan x="0" y="0" class="st31 st30">my-test-app </tspan><tspan x="19.2" y="16.54" class="st22 st30">secret</tspan></text>
	<text transform="matrix(1 0 0 1 785.9672 165.0896)"><tspan x="0" y="0" class="st31 st30">my-test-app </tspan><tspan x="1.24" y="16.54" class="st22 st30"> namespace</tspan></text>
	<g>
		
			<ellipse transform="matrix(0.1583 -0.9874 0.9874 0.1583 460.8057 1156.7999)" class="st32" cx="908.93" cy="308.11" rx="37.91" ry="37.91"/>
		<g>
			<line class="st33" x1="896.61" y1="287.03" x2="909.39" y2="309.11"/>
			<line class="st33" x1="887.31" y1="296.32" x2="909.39" y2="309.11"/>
			<line class="st33" x1="883.82" y1="309.11" x2="909.39" y2="309.11"/>
			<line class="st33" x1="909.39" y1="283.73" x2="909.39" y2="309.11"/>
			<line class="st33" x1="922.18" y1="287.22" x2="909.39" y2="309.11"/>
			<line class="st33" x1="931.47" y1="296.32" x2="909.39" y2="309.11"/>
			<line class="st33" x1="934.96" y1="309.11" x2="909.39" y2="309.11"/>
			<g>
				<path class="st34" d="M934.96,309.11c0,14.12-11.45,25.57-25.57,25.57c-14.12,0-25.57-11.45-25.57-25.57"/>
			</g>
			<g>
				<path class="st34" d="M883.82,309.11c0-14.12,11.45-25.57,25.57-25.57c14.12,0,25.57,11.45,25.57,25.57"/>
			</g>
			<path class="st35" d="M909.39,311.43c-1.28,0-2.32-1.04-2.32-2.32c0-1.28,1.04-2.32,2.32-2.32c1.28,0,2.32,1.04,2.32,2.32
				C911.72,310.39,910.68,311.43,909.39,311.43z"/>
			<path class="st35" d="M909.39,285.87c-1.28,0-2.32-1.04-2.32-2.32c0-1.28,1.04-2.32,2.32-2.32c1.28,0,2.32,1.04,2.32,2.32
				C911.72,284.83,910.68,285.87,909.39,285.87z"/>
			<circle class="st35" cx="896.61" cy="287.03" r="2.32"/>
			<path class="st35" d="M922.18,289.35c-1.28,0-2.32-1.04-2.32-2.32c0-1.28,1.04-2.32,2.32-2.32c1.28,0,2.32,1.04,2.32,2.32
				C924.5,288.31,923.46,289.35,922.18,289.35z"/>
			<circle class="st35" cx="931.47" cy="296.32" r="2.32"/>
			<path class="st35" d="M887.31,298.65c-1.28,0-2.32-1.04-2.32-2.32c0-1.28,1.04-2.32,2.32-2.32c1.28,0,2.32,1.04,2.32,2.32
				C889.64,297.61,888.59,298.65,887.31,298.65z"/>
			<circle class="st35" cx="883.82" cy="309.11" r="2.32"/>
			
				<ellipse transform="matrix(0.1595 -0.9872 0.9872 0.1595 480.6544 1182.7814)" class="st35" cx="934.96" cy="309.11" rx="2.32" ry="2.32"/>
		</g>
		<text transform="matrix(1 0 0 1 872.5938 371.0676)"><tspan x="0" y="0" class="st22 st30">Kubernetes </tspan><tspan x="3.5" y="16.54" class="st22 st30">API server</tspan></text>
	</g>
</g>
</svg>
