<?xml version="1.0" encoding="utf-8"?>
<!-- Generator: Adobe Illustrator 26.0.1, SVG Export Plug-In . SVG Version: 6.00 Build 0)  -->
<svg version="1.1" xmlns="http://www.w3.org/2000/svg" xmlns:xlink="http://www.w3.org/1999/xlink" x="0px" y="0px"
	 viewBox="0 0 1321 727" style="enable-background:new 0 0 1321 727;" xml:space="preserve">
<style type="text/css">
	.st0{fill:#F0F0F0;}
	.st1{fill:none;stroke:#FFFFFF;stroke-width:1.0318;stroke-linecap:round;stroke-miterlimit:10;}
	.st2{stroke:#FFFFFF;stroke-width:1.0318;stroke-miterlimit:10;}
	.st3{font-family:'IBMPlexSans-Bold';}
	.st4{font-size:18px;}
	.st5{fill:none;stroke:#A0A0A0;stroke-linecap:round;stroke-linejoin:round;stroke-miterlimit:10;stroke-dasharray:0,4,0,4,0,4;}
	.st6{fill:none;stroke:#6F6F6F;stroke-width:0.5;stroke-linejoin:round;}
	.st7{fill:#6F6F6F;}
	.st8{fill:none;}
	.st9{fill:none;stroke:#6F6F6F;stroke-width:0.5;stroke-miterlimit:10;}
	.st10{fill:none;stroke:#A56EFF;stroke-linecap:round;stroke-miterlimit:10;}
	.st11{fill:none;stroke:#A56EFF;stroke-linecap:round;stroke-miterlimit:10;stroke-dasharray:2.9545,1.9697,2.9545,1.9697;}
	
		.st12{fill:none;stroke:#A56EFF;stroke-linecap:round;stroke-miterlimit:10;stroke-dasharray:2.9545,1.9697,2.9545,1.9697,2.9545,1.9697;}
	.st13{fill:#A56EFF;}
	.st14{font-family:'IBMPlexSans';}
	.st15{font-size:13.7791px;}
	.st16{fill:none;stroke:#FFFFFF;stroke-width:1.0318;stroke-linecap:round;stroke-linejoin:round;stroke-miterlimit:10;}
	.st17{fill:none;stroke:#FFFFFF;stroke-width:1.0318;stroke-linecap:round;stroke-linejoin:round;}
	.st18{fill:#757575;stroke:#FFFFFF;stroke-width:1.0318;stroke-linecap:round;stroke-linejoin:round;stroke-miterlimit:10;}
	.st19{fill:#757575;}
	.st20{font-family:'IBMPlexSans-Text';}
	.st21{fill:#0DB5B3;}
	.st22{fill:#0DB5B3;stroke:#FFFFFF;stroke-width:1.0318;stroke-linecap:round;stroke-linejoin:round;stroke-miterlimit:10;}
	.st23{fill:url(#SVGID_1_);}
	.st24{fill:url(#SVGID_00000027584135024326445400000011528291446990660788_);}
	.st25{fill:#BEBEBE;}
	.st26{font-family:'IBMPlexSans-Medium';}
	.st27{font-size:17.6098px;}
	.st28{fill:#CCCCCC;stroke:#B3B3B3;stroke-width:0.5;stroke-miterlimit:10;}
	.st29{font-size:16px;}
	.st30{font-size:14px;}
	.st31{fill:#106DFF;}
	.st32{fill:#106DFF;stroke:#FFFFFF;stroke-width:1.0318;stroke-linecap:round;stroke-linejoin:round;stroke-miterlimit:10;}
	.st33{fill:#B3B3B3;}
	.st34{font-size:15px;}
	.st35{font-family:'IBMPlexMono-LightItalic';}
	.st36{fill:#CCCCCC;stroke:#B3B3B3;stroke-miterlimit:10;}
	.st37{fill:#CCCCCC;}
	.st38{fill:none;stroke:#6F6F6F;stroke-width:0.5;stroke-linejoin:round;stroke-dasharray:2.9231,1.9487,2.9231,1.9487;}
	
		.st39{fill:none;stroke:#6F6F6F;stroke-width:0.5;stroke-linejoin:round;stroke-dasharray:2.9231,1.9487,2.9231,1.9487,2.9231,1.9487;}
	.st40{fill:none;stroke:#6F6F6F;stroke-width:0.5;stroke-linecap:round;stroke-miterlimit:10;}
	.st41{fill:none;stroke:#A56EFF;stroke-linecap:round;stroke-miterlimit:10;stroke-dasharray:2.8543,1.9029,2.8543,1.9029;}
	
		.st42{fill:none;stroke:#A56EFF;stroke-linecap:round;stroke-miterlimit:10;stroke-dasharray:2.8543,1.9029,2.8543,1.9029,2.8543,1.9029;}
	.st43{fill:#FFFFFF;stroke:#B3B3B3;stroke-miterlimit:10;}
	.st44{fill:#4090FC;}
	.st45{fill:#FFFFFF;}
</style>
<g id="Graphics">
	<rect x="285" y="88.78" class="st0" width="669" height="529.79"/>
	<text transform="matrix(1 0 0 1 289.2315 25.4982)" class="st3 st4">IBM Cloud</text>
	<line class="st5" x1="224.6" y1="0.57" x2="224.6" y2="639.57"/>
	<g>
		<g>
			<path class="st9" d="M530.5,60.52H113.38C102.13,60.52,93,71.43,93,84.89l-0.5,73.68"/>
			<g>
				<rect x="530" y="57.27" class="st7" width="1" height="6.5"/>
			</g>
		</g>
	</g>
	<g>
		<g>
			<line class="st9" x1="832.7" y1="162.39" x2="832.7" y2="81.36"/>
			<g>
				<polygon class="st7" points="837.68,160.93 832.7,169.57 827.71,160.93 				"/>
			</g>
			<g>
				<path class="st7" d="M834.58,81.45c0-1.04-0.84-1.88-1.88-1.88c-1.04,0-1.88,0.84-1.88,1.88c0,1.04,0.84,1.88,1.88,1.88
					C833.73,83.33,834.58,82.49,834.58,81.45z"/>
			</g>
		</g>
	</g>
	<g>
		<g>
			<line class="st10" x1="1131.98" y1="613.25" x2="1131.98" y2="614.75"/>
			<line class="st11" x1="1131.98" y1="616.72" x2="1131.99" y2="625.58"/>
			<path class="st12" d="M1131.99,626.56l0.01,10.29c0,13.38-10.51,24.22-23.47,24.22l-250.83-0.03c-13.81,0-25-10.49-25-23.43
				l0-76.05"/>
			<line class="st10" x1="832.7" y1="560.57" x2="832.7" y2="559.07"/>
			<g>
				<polygon class="st13" points="1126.99,614.71 1131.97,606.07 1136.97,614.7 				"/>
			</g>
		</g>
	</g>
	<g>
		<g>
			<ellipse transform="matrix(0.7071 -0.7071 0.7071 0.7071 -119.5824 126.2658)" cx="92.63" cy="207.48" rx="37.91" ry="37.91"/>
			<path class="st1" d="M103.55,194.62c0,5.64-4.57,10.21-10.21,10.21s-10.21-4.57-10.21-10.21c0-5.64,4.57-10.21,10.21-10.21
				S103.55,188.98,103.55,194.62"/>
			<path class="st1" d="M73.43,230.02c1.85-9.37,10.12-16.44,20.03-16.44c9.82,0,18.03,6.94,19.98,16.18"/>
			
				<ellipse transform="matrix(0.7071 -0.7071 0.7071 0.7071 -119.3363 126.86)" class="st1" cx="93.47" cy="207.48" rx="30.16" ry="30.16"/>
			<path class="st2" d="M74.75,231.93c-1.06,0.73-2.5,0.46-3.23-0.59c-0.73-1.06-0.46-2.5,0.59-3.23c1.06-0.73,2.5-0.46,3.23,0.59
				S75.81,231.21,74.75,231.93z"/>
		</g>
		<text transform="matrix(1 0 0 1 76.7334 264.9292)" class="st14 st15">User</text>
	</g>
	<text transform="matrix(1 0 0 1 315.6031 133.0396)" class="st20 st4">Kubernetes cluster</text>
	<g>
		<g>
			<line class="st6" x1="832.7" y1="417.39" x2="832.7" y2="306.75"/>
			<g>
				<polygon class="st7" points="837.68,415.93 832.7,424.57 827.71,415.93 				"/>
			</g>
			<g>
				<polygon class="st7" points="837.68,308.21 832.7,299.57 827.71,308.21 				"/>
			</g>
		</g>
	</g>
	<g>
		<g>
			<path class="st25" d="M512.71,62.29c0-6.98,5.66-12.64,12.64-12.64c6.98,0,12.64,5.66,12.64,12.64c0,6.98-5.66,12.64-12.64,12.64
				C518.36,74.93,512.71,69.27,512.71,62.29"/>
		</g>
		<text transform="matrix(1 0 0 1 520.0068 67.5685)" class="st26 st27">1</text>
	</g>
	<rect x="323.29" y="169.57" class="st28" width="350" height="326"/>
	<text transform="matrix(1 0 0 1 340.7817 203.9534)" class="st20 st29">Namespace</text>
	<g>
		
			<ellipse transform="matrix(0.1583 -0.9874 0.9874 0.1583 496.0045 996.8293)" class="st19" cx="832.7" cy="207.48" rx="37.91" ry="37.91"/>
		<g>
			<line class="st16" x1="820.38" y1="186.4" x2="833.16" y2="208.48"/>
			<line class="st16" x1="811.08" y1="195.69" x2="833.16" y2="208.48"/>
			<line class="st16" x1="807.59" y1="208.48" x2="833.16" y2="208.48"/>
			<line class="st16" x1="833.16" y1="183.1" x2="833.16" y2="208.48"/>
			<line class="st16" x1="845.94" y1="186.59" x2="833.16" y2="208.48"/>
			<line class="st16" x1="855.24" y1="195.69" x2="833.16" y2="208.48"/>
			<line class="st16" x1="858.73" y1="208.48" x2="833.16" y2="208.48"/>
			<g>
				<path class="st17" d="M858.73,208.48c0,14.12-11.45,25.57-25.57,25.57c-14.12,0-25.57-11.45-25.57-25.57"/>
			</g>
			<g>
				<path class="st17" d="M807.59,208.48c0-14.12,11.45-25.57,25.57-25.57c14.12,0,25.57,11.45,25.57,25.57"/>
			</g>
			<circle class="st18" cx="833.16" cy="208.48" r="2.32"/>
			<circle class="st18" cx="833.16" cy="182.91" r="2.32"/>
			<circle class="st18" cx="820.38" cy="186.4" r="2.32"/>
			<circle class="st18" cx="845.94" cy="186.4" r="2.32"/>
			<circle class="st18" cx="855.24" cy="195.69" r="2.32"/>
			
				<ellipse transform="matrix(0.1595 -0.9872 0.9872 0.1595 488.5458 965.1856)" class="st18" cx="811.08" cy="195.69" rx="2.32" ry="2.32"/>
			<circle class="st18" cx="807.59" cy="208.48" r="2.32"/>
			<circle class="st18" cx="858.73" cy="208.48" r="2.32"/>
		</g>
		<text transform="matrix(1 0 0 1 796.3618 270.4364)"><tspan x="0" y="0" class="st14 st15">Kubernetes </tspan><tspan x="3.5" y="16.54" class="st14 st15">API server</tspan></text>
	</g>
	<g>
		<g>
			<text transform="matrix(1 0 0 1 781.8657 525.6594)"><tspan x="0" y="0" class="st14 st30">External Secrets </tspan><tspan x="23.37" y="16.8" class="st14 st30">Operator</tspan></text>
		</g>
		<g>
			<circle class="st31" cx="833.34" cy="462.7" r="37.91"/>
			<g>
				<polyline class="st32" points="811.39,475.79 833.32,488.53 855.25,475.79 				"/>
				<polyline class="st32" points="855.18,450.32 833.25,437.59 811.32,450.32 				"/>
				<line class="st32" x1="811.32" y1="450.32" x2="811.32" y2="475.79"/>
				<line class="st32" x1="822.51" y1="456.73" x2="822.51" y2="470"/>
				<line class="st32" x1="855.31" y1="450.32" x2="855.31" y2="475.79"/>
				<line class="st32" x1="833.32" y1="463.06" x2="833.32" y2="487.81"/>
				<line class="st32" x1="833.32" y1="450.71" x2="833.32" y2="476.37"/>
				<line class="st32" x1="822.51" y1="456.88" x2="822.51" y2="481.66"/>
				<line class="st32" x1="844.12" y1="456.88" x2="844.12" y2="481.54"/>
				
					<ellipse transform="matrix(0.1595 -0.9872 0.9872 0.1595 268.4185 1190.4431)" class="st32" cx="833.32" cy="437.59" rx="2.32" ry="2.32"/>
				
					<ellipse transform="matrix(0.1595 -0.9872 0.9872 0.1595 243.2762 1211.8494)" class="st32" cx="833.32" cy="463.06" rx="2.32" ry="2.32"/>
				
					<ellipse transform="matrix(0.1595 -0.9872 0.9872 0.1595 255.4664 1201.4706)" class="st32" cx="833.32" cy="450.71" rx="2.32" ry="2.32"/>
				<path class="st32" d="M822.51,459.2c-1.28,0-2.32-1.04-2.32-2.32c0-1.28,1.04-2.32,2.32-2.32c1.28,0,2.32,1.04,2.32,2.32
					C824.83,458.16,823.79,459.2,822.51,459.2z"/>
				<path class="st32" d="M844.12,459.2c-1.28,0-2.32-1.04-2.32-2.32c0-1.28,1.04-2.32,2.32-2.32s2.32,1.04,2.32,2.32
					C846.44,458.16,845.4,459.2,844.12,459.2z"/>
				<circle class="st32" cx="822.51" cy="443.96" r="2.32"/>
				<circle class="st32" cx="844.12" cy="443.96" r="2.32"/>
				<circle class="st32" cx="855.31" cy="450.32" r="2.32"/>
				<path class="st32" d="M811.32,452.64c-1.28,0-2.32-1.04-2.32-2.32c0-1.28,1.04-2.32,2.32-2.32c1.28,0,2.32,1.04,2.32,2.32
					C813.64,451.6,812.6,452.64,811.32,452.64z"/>
			</g>
		</g>
	</g>
	<rect x="348.29" y="242.57" class="st33" width="300" height="57"/>
	<rect x="348.29" y="319.57" class="st33" width="300" height="57"/>
	<rect x="348.29" y="396.57" class="st33" width="300" height="57"/>
	<text transform="matrix(1 0 0 1 443.3157 275.5551)" class="st20 st34">External Secrets</text>
	<text transform="matrix(1 0 0 1 481.5425 352.5551)" class="st20 st34">Pods</text>
	<text transform="matrix(1 0 0 1 472.6849 429.5549)" class="st20 st34">Secrets</text>
	<rect x="1009" y="126.57" class="st0" width="250" height="477"/>
	<text transform="matrix(1 0 0 1 549.0062 65.9296)" class="st35 st34">kubectl apply -f external-secret-example.yml</text>
	<text transform="matrix(1 0 0 1 1066.7435 193.4888)" class="st20 st4">Secrets Manager</text>
	<rect x="1039.76" y="229.57" class="st36" width="190.24" height="156"/>
	<text transform="matrix(1 0 0 1 1081.5298 263.9534)" class="st14 st29">Secret group A</text>
	<rect x="1039.98" y="420.11" class="st37" width="190.24" height="60.46"/>
	<rect x="1039.98" y="495.11" class="st37" width="190.24" height="60.46"/>
	<g>
		<g>
			<circle class="st25" cx="832.93" cy="357.37" r="12.64"/>
		</g>
		<text transform="matrix(1 0 0 1 827.5918 362.6481)" class="st26 st27">2</text>
	</g>
	<g>
		<g>
			<line class="st6" x1="1230" y1="403.3" x2="1228.5" y2="403.3"/>
			<line class="st38" x1="1226.55" y1="403.3" x2="1217.78" y2="403.3"/>
			<line class="st39" x1="1216.81" y1="403.3" x2="1042.4" y2="403.3"/>
			<line class="st6" x1="1041.42" y1="403.3" x2="1039.92" y2="403.3"/>
		</g>
	</g>
	<text transform="matrix(1 0 0 1 1082.2886 454.0469)" class="st14 st29">Secret group B</text>
	<text transform="matrix(1 0 0 1 1083.2246 528.9556)" class="st14 st29">Secret group C</text>
	<g>
		<g>
			<path class="st40" d="M768.5,527.07l-246.2-0.5c-14.25,0-25.8-10.17-25.8-22.71v-42.62"/>
			<g>
				<polygon class="st7" points="501.49,462.71 496.5,454.07 491.51,462.71 				"/>
			</g>
		</g>
	</g>
	<g>
		<g>
			<circle class="st25" cx="893.87" cy="660.93" r="12.64"/>
		</g>
		<text transform="matrix(1 0 0 1 888.5342 666.2028)" class="st26 st27">3</text>
	</g>
	<g>
		<g>
			<circle class="st25" cx="550.2" cy="525.76" r="12.64"/>
		</g>
		<text transform="matrix(1 0 0 1 544.8652 531.0309)" class="st26 st27">4</text>
	</g>
	<g>
		<g>
			<line class="st10" x1="889.68" y1="463.9" x2="891.18" y2="463.9"/>
			<line class="st41" x1="893.09" y1="463.9" x2="901.65" y2="463.9"/>
			<line class="st42" x1="902.6" y1="463.9" x2="1001.55" y2="463.88"/>
			<line class="st10" x1="1002.5" y1="463.88" x2="1004" y2="463.88"/>
			<g>
				<polygon class="st13" points="891.14,468.88 882.51,463.9 891.14,458.91 				"/>
			</g>
		</g>
	</g>
	<g>
		
			<ellipse transform="matrix(0.2104 -0.9776 0.9776 0.2104 771.3546 1208.4084)" class="st43" cx="1133.74" cy="126.7" rx="37.91" ry="37.91"/>
	</g>
	<g>
		<path id="bigger_rectangle_2_" class="st44" d="M1147.43,142.28h-27.55c-1.25,0-2.23-0.97-2.23-2.23V112.5
			c0-1.25,0.97-2.23,2.23-2.23h27.55c1.25,0,2.23,0.97,2.23,2.23v27.69C1149.51,141.3,1148.54,142.28,1147.43,142.28z"/>
		<path id="black_ractangle_2_" d="M1144.37,139.36h-21.57c-1.25,0-2.23-0.97-2.23-2.23v-21.57c0-1.25,0.97-2.23,2.23-2.23h21.57
			c1.25,0,2.23,0.97,2.23,2.23v21.57C1146.59,138.38,1145.62,139.36,1144.37,139.36z"/>
		<rect id="second_vault_handle_2_" x="1119.14" y="117.83" class="st45" width="3.06" height="5.01"/>
		<rect id="first_vault_handle_2_" x="1119.11" y="129.83" class="st45" width="3.06" height="5.01"/>
		<path id="big_white_circle_2_" class="st45" d="M1134.63,116.26c5.53,0,10.02,4.49,10.02,10.02c0,5.53-4.48,10.02-10.02,10.02
			c-5.53,0-10.02-4.48-10.02-10.02C1124.61,120.75,1129.09,116.26,1134.63,116.26z"/>
		<path id="blue_circle_2_" class="st44" d="M1134.63,119.32c3.84,0,6.96,3.11,6.96,6.96c0,3.84-3.11,6.96-6.96,6.96
			c-3.84,0-6.96-3.11-6.96-6.96C1127.67,122.44,1130.79,119.32,1134.63,119.32z"/>
		<rect id="white_handle_2_" x="1134.63" y="124.89" class="st45" width="11.97" height="3.06"/>
		<path id="black_circle_2_" d="M1134.63,123.36c1.61,0,2.92,1.31,2.92,2.92c0,1.61-1.31,2.92-2.92,2.92
			c-1.61,0-2.92-1.31-2.92-2.92C1131.71,124.66,1133.01,123.36,1134.63,123.36z"/>
		<path id="white_circle_2_" class="st45" d="M1136.57,121.83c0.85,0,1.53,0.69,1.53,1.53s-0.69,1.53-1.53,1.53
			c-0.85,0-1.53-0.69-1.53-1.53S1135.73,121.83,1136.57,121.83z"/>
	</g>
	<text transform="matrix(1 0 0 1 1082.4871 307.3375)"><tspan x="0" y="0" class="st14 st30">Arbitrary secrets</tspan><tspan x="1.11" y="16.8" class="st14 st30">User credentials </tspan><tspan x="24.78" y="33.6" class="st14 st30">API keys</tspan></text>
</g>
<g id="Text">
</g>
</svg>
