<?xml version="1.0" encoding="utf-8"?>
<!-- Generator: Adobe Illustrator 25.0.0, SVG Export Plug-In . SVG Version: 6.00 Build 0)  -->
<svg version="1.1" xmlns="http://www.w3.org/2000/svg" xmlns:xlink="http://www.w3.org/1999/xlink" x="0px" y="0px"
	 viewBox="0 0 1231 580" style="enable-background:new 0 0 1231 580;" xml:space="preserve">
<style type="text/css">
	.st0{fill:#F0F0F0;}
	.st1{opacity:0.5;fill:#757575;}
	.st2{fill:none;stroke:#FFFFFF;stroke-linejoin:round;stroke-miterlimit:10;}
	.st3{fill:#002D9C;}
	.st4{fill:none;stroke:#FFFFFF;stroke-linecap:round;stroke-linejoin:round;stroke-miterlimit:10;}
	.st5{fill:none;stroke:#FFFFFF;stroke-linecap:round;stroke-linejoin:round;}
	.st6{fill:#002D9C;stroke:#FFFFFF;stroke-linecap:round;stroke-linejoin:round;stroke-miterlimit:10;}
	.st7{fill:#006161;}
	.st8{fill:#BEBEBE;stroke:#FFFFFF;stroke-miterlimit:10;}
	.st9{fill:#0DB5B3;}
	.st10{fill:#0DB5B3;stroke:#FFFFFF;stroke-miterlimit:10;}
	.st11{fill:none;stroke:#FFFFFF;stroke-miterlimit:10;}
	.st12{fill:#006161;stroke:#FFFFFF;stroke-width:1.0318;stroke-linecap:round;stroke-linejoin:round;stroke-miterlimit:10;}
	.st13{fill:#106DFF;stroke:#FFFFFF;stroke-width:1.0318;stroke-linecap:round;stroke-linejoin:round;stroke-miterlimit:10;}
	.st14{fill:none;stroke:#6F6F6F;stroke-width:0.5;stroke-linejoin:round;}
	.st15{fill:#6F6F6F;}
	.st16{fill:none;}
	.st17{fill:none;stroke:#A56EFF;stroke-width:0.75;stroke-linecap:round;stroke-miterlimit:10;}
	
		.st18{fill:none;stroke:#A56EFF;stroke-width:0.75;stroke-linecap:round;stroke-miterlimit:10;stroke-dasharray:3.0248,2.0166,3.0248,2.0166;}
	
		.st19{fill:none;stroke:#A56EFF;stroke-width:0.75;stroke-linecap:round;stroke-miterlimit:10;stroke-dasharray:3.0248,2.0166,3.0248,2.0166,3.0248,2.0166;}
	
		.st20{fill:none;stroke:#A56EFF;stroke-width:0.75;stroke-linecap:round;stroke-miterlimit:10;stroke-dasharray:3.0187,2.0124,3.0187,2.0124;}
	
		.st21{fill:none;stroke:#A56EFF;stroke-width:0.75;stroke-linecap:round;stroke-miterlimit:10;stroke-dasharray:3.0187,2.0124,3.0187,2.0124,3.0187,2.0124;}
	.st22{fill:none;stroke:#8A3FFC;stroke-width:0.5;stroke-linecap:round;}
	
		.st23{fill:none;stroke:#A56EFF;stroke-width:0.75;stroke-linecap:round;stroke-miterlimit:10;stroke-dasharray:2.906,1.9373,2.906,1.9373;}
	
		.st24{fill:none;stroke:#A56EFF;stroke-width:0.75;stroke-linecap:round;stroke-miterlimit:10;stroke-dasharray:2.906,1.9373,2.906,1.9373,2.906,1.9373;}
	.st25{fill:#A56EFF;}
	.st26{fill:none;stroke:#A0A0A0;stroke-linecap:round;stroke-linejoin:round;stroke-miterlimit:10;stroke-dasharray:0,4,0,4,0,4;}
	
		.st27{fill:none;stroke:#A56EFF;stroke-width:0.75;stroke-linecap:round;stroke-miterlimit:10;stroke-dasharray:2.9709,1.9806,2.9709,1.9806;}
	
		.st28{fill:none;stroke:#A56EFF;stroke-width:0.75;stroke-linecap:round;stroke-miterlimit:10;stroke-dasharray:2.9709,1.9806,2.9709,1.9806,2.9709,1.9806;}
	
		.st29{fill:none;stroke:#A56EFF;stroke-width:0.75;stroke-linecap:round;stroke-miterlimit:10;stroke-dasharray:3.1904,2.127,3.1904,2.127;}
	
		.st30{fill:none;stroke:#A56EFF;stroke-width:0.75;stroke-linecap:round;stroke-miterlimit:10;stroke-dasharray:3.1904,2.127,3.1904,2.127,3.1904,2.127;}
	.st31{fill:none;stroke:#757575;stroke-width:0.5;stroke-linecap:round;}
	.st32{fill:#757575;}
	.st33{fill:#E8DAFF;}
	.st34{fill:#BEBEBE;}
	.st35{font-family:'IBMPlexSans-Medium';}
	.st36{font-size:17.6098px;}
	.st37{font-family:'IBMPlexSans';}
	.st38{font-size:13.7791px;}
	.st39{font-size:14px;}
	.st40{fill:#491D8B;}
	.st41{font-size:11px;}
	.st42{font-family:'IBMPlexSans-SemiBold';}
	.st43{font-size:16px;}
	.st44{font-family:'IBMPlexSans-SemiBoldItalic';}
</style>
<g id="Graphics">
	<rect x="134.8" y="48.1" class="st0" width="197.2" height="218"/>
	<rect x="422.6" y="48.1" class="st0" width="197.2" height="486"/>
	<rect x="708.4" y="47.2" class="st0" width="197.2" height="219.9"/>
	<g>
		<g>
			<circle class="st1" cx="518.6" cy="158.3" r="37.9"/>
			<g id="envelope">
				<path class="st2" d="M539.1,173.3h-40.9v-30h40.9V173.3z M498.2,143.3l20.5,19.1l20.5-19.1"/>
				<line class="st2" x1="498.2" y1="173.3" x2="514.5" y2="158.3"/>
				<line class="st2" x1="522.7" y1="158.3" x2="539.1" y2="173.3"/>
			</g>
		</g>
	</g>
	<g>
		
			<ellipse transform="matrix(0.1583 -0.9874 0.9874 0.1583 10.5694 873.9935)" class="st3" cx="517.9" cy="430.8" rx="37.9" ry="37.9"/>
		<g>
			<line class="st4" x1="505.6" y1="409.7" x2="518.4" y2="431.8"/>
			<line class="st4" x1="496.3" y1="419" x2="518.4" y2="431.8"/>
			<line class="st4" x1="492.8" y1="431.8" x2="518.4" y2="431.8"/>
			<line class="st4" x1="518.4" y1="406.4" x2="518.4" y2="431.8"/>
			<line class="st4" x1="531.2" y1="409.9" x2="518.4" y2="431.8"/>
			<line class="st4" x1="540.5" y1="419" x2="518.4" y2="431.8"/>
			<line class="st4" x1="544" y1="431.8" x2="518.4" y2="431.8"/>
			<g>
				<path class="st5" d="M544,431.8c0,14.1-11.4,25.6-25.6,25.6c-14.1,0-25.6-11.4-25.6-25.6"/>
			</g>
			<g>
				<path class="st5" d="M492.8,431.8c0-14.1,11.4-25.6,25.6-25.6c14.1,0,25.6,11.4,25.6,25.6"/>
			</g>
			<path class="st6" d="M518.4,434.1c-1.3,0-2.3-1-2.3-2.3s1-2.3,2.3-2.3c1.3,0,2.3,1,2.3,2.3S519.7,434.1,518.4,434.1z"/>
			<path class="st6" d="M518.4,408.6c-1.3,0-2.3-1-2.3-2.3c0-1.3,1-2.3,2.3-2.3c1.3,0,2.3,1,2.3,2.3
				C520.7,407.5,519.7,408.6,518.4,408.6z"/>
			<circle class="st6" cx="505.6" cy="409.7" r="2.3"/>
			<path class="st6" d="M531.2,412c-1.3,0-2.3-1-2.3-2.3c0-1.3,1-2.3,2.3-2.3c1.3,0,2.3,1,2.3,2.3C533.5,411,532.5,412,531.2,412z"
				/>
			<circle class="st6" cx="540.5" cy="419" r="2.3"/>
			<path class="st6" d="M496.3,421.3c-1.3,0-2.3-1-2.3-2.3c0-1.3,1-2.3,2.3-2.3c1.3,0,2.3,1,2.3,2.3
				C498.6,420.3,497.6,421.3,496.3,421.3z"/>
			<circle class="st6" cx="492.8" cy="431.8" r="2.3"/>
			
				<ellipse transform="matrix(0.1595 -0.9872 0.9872 0.1595 30.9185 899.9022)" class="st6" cx="544" cy="431.8" rx="2.3" ry="2.3"/>
		</g>
	</g>
	<g>
		<g>
			<circle class="st7" cx="1050.5" cy="297.4" r="37.9"/>
		</g>
	</g>
	<g>
		
			<ellipse transform="matrix(0.1583 -0.9874 0.9874 0.1583 143.1372 762.6926)" class="st1" cx="518.9" cy="297.4" rx="37.9" ry="37.9"/>
		<g id="mobile--chat">
			<circle id="XMLID_283_" class="st8" cx="518.3" cy="312.7" r="1.3"/>
			<path class="st2" d="M530.3,297.4v20h-24v-40h24v4 M506.3,308.1h24 M540.9,281.4h-14.7c-1.5,0-2.7,1.2-2.7,2.7v13.3v5.3l5.3-5.3
				h12c1.5,0,2.7-1.2,2.7-2.7v-10.7C543.6,282.6,542.4,281.4,540.9,281.4z M527.6,286.7h12 M527.6,292.1h12"/>
		</g>
	</g>
	<g>
		
			<ellipse transform="matrix(0.1583 -0.9874 0.9874 0.1583 523.9294 929.2043)" class="st9" cx="807" cy="157.3" rx="37.9" ry="37.9"/>
		<g id="code--syntax_2_">
			<path class="st10" d="M822.3,141.9c0,0.3-0.3,0.6-0.6,0.6s-0.6-0.3-0.6-0.6c0-0.3,0.3-0.6,0.6-0.6S822.3,141.5,822.3,141.9z
				 M819.2,141.3c-0.3,0-0.6,0.3-0.6,0.6c0,0.3,0.3,0.6,0.6,0.6c0.3,0,0.6-0.3,0.6-0.6C819.8,141.5,819.6,141.3,819.2,141.3z
				 M816.8,141.3c-0.3,0-0.6,0.3-0.6,0.6c0,0.3,0.3,0.6,0.6,0.6s0.6-0.3,0.6-0.6C817.4,141.5,817.1,141.3,816.8,141.3z"/>
			<path class="st2" d="M824.7,174h-36.4v-34h36.4V174z M788.3,143.7h36.4 M802.8,166.8l7.3-17"/>
			<path class="st11" d="M800.4,153.4l-4.9,4.9l4.9,4.9 M812.6,163.1l4.9-4.9l-4.9-4.9"/>
		</g>
	</g>
	<g>
		<g>
			<circle class="st7" cx="1048.5" cy="157.3" r="37.9"/>
			<g>
				<polyline class="st12" points="1026.5,170.4 1048.4,183.1 1070.4,170.4 				"/>
				<polyline class="st12" points="1070.3,144.9 1048.4,132.2 1026.5,144.9 				"/>
				<line class="st13" x1="1026.5" y1="144.9" x2="1026.5" y2="170.4"/>
				<line class="st13" x1="1037.6" y1="151.3" x2="1037.6" y2="164.6"/>
				<line class="st13" x1="1070.4" y1="144.9" x2="1070.4" y2="170.4"/>
				<line class="st13" x1="1048.4" y1="157.6" x2="1048.4" y2="182.4"/>
				<line class="st13" x1="1048.4" y1="145.3" x2="1048.4" y2="171"/>
				<line class="st13" x1="1037.6" y1="151.5" x2="1037.6" y2="176.2"/>
				<line class="st13" x1="1059.3" y1="151.5" x2="1059.3" y2="176.1"/>
				<circle class="st12" cx="1048.4" cy="132.2" r="2.3"/>
				<circle class="st12" cx="1048.4" cy="157.6" r="2.3"/>
				<circle class="st12" cx="1048.4" cy="145.3" r="2.3"/>
				<path class="st12" d="M1037.6,153.8c-1.3,0-2.3-1-2.3-2.3c0-1.3,1-2.3,2.3-2.3s2.3,1,2.3,2.3
					C1040,152.7,1038.9,153.8,1037.6,153.8z"/>
				<path class="st12" d="M1059.3,153.8c-1.3,0-2.3-1-2.3-2.3c0-1.3,1-2.3,2.3-2.3s2.3,1,2.3,2.3
					C1061.6,152.7,1060.5,153.8,1059.3,153.8z"/>
				
					<ellipse transform="matrix(0.3849 -0.923 0.923 0.3849 510.4272 1042.9397)" class="st12" cx="1037.6" cy="138.5" rx="2.3" ry="2.3"/>
				<circle class="st12" cx="1059.3" cy="138.5" r="2.3"/>
				
					<ellipse transform="matrix(0.1593 -0.9872 0.9872 0.1593 756.8464 1178.5908)" class="st12" cx="1070.4" cy="144.9" rx="2.3" ry="2.3"/>
				<path class="st12" d="M1026.5,147.2c-1.3,0-2.3-1-2.3-2.3c0-1.3,1-2.3,2.3-2.3c1.3,0,2.3,1,2.3,2.3
					C1028.8,146.2,1027.7,147.2,1026.5,147.2z"/>
			</g>
		</g>
	</g>
	<path id="slack_2_" class="st11" d="M1044.9,285.4c-2.3,0-4.2-1.9-4.2-4.2c0-2.3,1.9-4.2,4.2-4.2c2.3,0,4.2,1.9,4.2,4.2v4.2H1044.9
		z M1049.1,293.6v-2.4c0-1.7-1.3-3-3-3h-13.6c-1.7,0-3,1.3-3,3v2.4c0,1.6,1.3,3,3,3h13.6C1047.7,296.6,1049.1,295.3,1049.1,293.6z
		 M1063.1,296.6h4.2c2.3,0,4.2-1.9,4.2-4.2c0-2.3-1.9-4.2-4.2-4.2s-4.2,1.9-4.2,4.2V296.6z M1054.9,296.6h2.4c1.7,0,3-1.4,3-3V280
		c0-1.6-1.3-3-3-3h-2.4c-1.6,0-3,1.4-3,3v13.6C1051.9,295.3,1053.2,296.6,1054.9,296.6z M1051.9,310.6v4.2c0,2.3,1.9,4.2,4.2,4.2
		s4.2-1.9,4.2-4.2c0-2.3-1.9-4.2-4.2-4.2H1051.9z M1051.9,302.4v2.4c0,1.6,1.4,3,3,3h13.6c1.6,0,3-1.3,3-3v-2.4c0-1.6-1.4-3-3-3
		h-13.6C1053.2,299.4,1051.9,300.8,1051.9,302.4z M1037.9,299.4h-4.2c-2.3,0-4.2,1.9-4.2,4.2c0,2.3,1.9,4.2,4.2,4.2s4.2-1.9,4.2-4.2
		V299.4z M1046.1,299.4h-2.4c-1.7,0-3,1.4-3,3V316c0,1.6,1.3,3,3,3h2.4c1.7,0,3-1.4,3-3v-13.6
		C1049.1,300.8,1047.7,299.4,1046.1,299.4z"/>
	<g>
		<g>
			<ellipse transform="matrix(0.1549 -0.9879 0.9879 0.1549 40.5129 362.3132)" cx="232" cy="157.5" rx="37.9" ry="37.9"/>
		</g>
		<path id="document--security" class="st2" d="M234,176.5h-19v-38h22.8l7.6,7.6v8.9 M237.8,138.5v7.6h7.6 M220.1,151.1h20.3
			 M220.1,156.2l12.7,0 M220.1,161.3h12.7 M220.1,166.3h12.7 M220.1,171.4h12.7 M236.6,158.7v9.5c0,4.5,3.7,8.2,8.2,8.2
			s8.2-3.7,8.2-8.2v-9.5H236.6z"/>
	</g>
	<g>
		<g>
			<line class="st17" x1="844.5" y1="157.6" x2="846" y2="157.6"/>
			<line class="st18" x1="848" y1="157.6" x2="857.1" y2="157.6"/>
			<path class="st19" d="M858.1,157.6l77.3,0c11.7,0,21.1,12.2,21.1,27.3l-1,80.2"/>
			<line class="st17" x1="955.5" y1="266.1" x2="955.5" y2="267.6"/>
		</g>
	</g>
	<g>
		<g>
			<line class="st17" x1="664" y1="243.6" x2="664" y2="245.1"/>
			<line class="st20" x1="664" y1="247.1" x2="664" y2="256.1"/>
			<path class="st21" d="M664,257.1v150.4c0,13.8-11.2,25-25,25l-81,0"/>
			<line class="st17" x1="557" y1="432.6" x2="555.5" y2="432.6"/>
		</g>
	</g>
	<g>
		<g>
			<line class="st17" x1="764.1" y1="158.3" x2="762.6" y2="158.3"/>
			<line class="st23" x1="760.7" y1="158.3" x2="752" y2="158.4"/>
			<path class="st24" d="M751,158.4l-61.8,0.1c-13.9-0.1-25.2,11.1-25.2,25v57.6"/>
			<line class="st17" x1="664" y1="242.1" x2="664" y2="243.6"/>
			<g>
				<polygon class="st25" points="763,154.6 769.5,158.3 763,162.1 				"/>
			</g>
		</g>
	</g>
	<line class="st26" x1="974.5" y1="49.6" x2="974.5" y2="537.1"/>
	<g>
		<g>
			<line class="st17" x1="1007.1" y1="300.6" x2="1005.6" y2="300.6"/>
			<line class="st27" x1="1003.6" y1="300.6" x2="994.7" y2="300.5"/>
			<path class="st28" d="M993.7,300.5l-17.1,0c-11.7,0-21.1-12.2-21.1-27.3l0-3.2"/>
			<line class="st17" x1="955.5" y1="269.1" x2="955.5" y2="267.6"/>
			<g>
				<polygon class="st25" points="1006,296.8 1012.5,300.6 1006,304.3 				"/>
			</g>
		</g>
	</g>
	<g>
		<g>
			<line class="st17" x1="1005.1" y1="157.6" x2="1003.6" y2="157.5"/>
			<line class="st29" x1="1001.5" y1="157.5" x2="991.9" y2="157.5"/>
			<line class="st30" x1="990.9" y1="157.5" x2="944.1" y2="157.3"/>
			<line class="st17" x1="943" y1="157.3" x2="941.5" y2="157.3"/>
			<g>
				<polygon class="st25" points="1004,153.8 1010.5,157.6 1004,161.3 				"/>
			</g>
		</g>
	</g>
	<g>
		<g>
			<path class="st31" d="M232.5,251.1l0.2,164.9c0,9.4,7.6,17,17,17h223.6"/>
			<g>
				<path class="st32" d="M228.7,251.3c0-2.1,1.7-3.8,3.8-3.8s3.8,1.7,3.8,3.8c0,2.1-1.7,3.8-3.8,3.8
					C230.4,255.1,228.7,253.4,228.7,251.3z"/>
			</g>
			<g>
				<polygon class="st32" points="471.9,438 480.5,433 471.9,428 				"/>
			</g>
		</g>
	</g>
	<g>
		<path class="st33" d="M188.1,326.1h88.4c6,0,10.8,4.3,10.8,9.5v1.9c0,5.3-4.8,9.5-10.8,9.5h-88.4c-6,0-10.8-4.3-10.8-9.5v-1.9
			C177.2,330.3,182.1,326.1,188.1,326.1z"/>
	</g>
	<g>
		<g>
			<circle class="st34" cx="935.6" cy="158.5" r="12.6"/>
		</g>
		<text transform="matrix(1 0 0 1 930.249 163.7509)" class="st35 st36">4</text>
	</g>
	<g>
		<g>
			<circle class="st34" cx="687.6" cy="158.5" r="12.6"/>
		</g>
		<text transform="matrix(1 0 0 1 682.2755 163.7498)" class="st35 st36">3</text>
	</g>
	<g>
		<g>
			<circle class="st34" cx="343.1" cy="433.5" r="12.6"/>
		</g>
		<text transform="matrix(1 0 0 1 337.7341 438.7498)" class="st35 st36">2</text>
	</g>
	<g>
		<g>
			<circle class="st34" cx="259.9" cy="128.5" r="12.6"/>
		</g>
		<text transform="matrix(1 0 0 1 254.5918 133.7497)" class="st35 st36">1</text>
	</g>
</g>
<g id="Text">
	<text transform="matrix(1 0 0 1 786.7036 220.2444)" class="st37 st38">Action</text>
	<g>
		<text transform="matrix(1 0 0 1 1026.4146 220.2446)" class="st37 st39">GitHub</text>
	</g>
	<text transform="matrix(1 0 0 1 488.2567 493.752)" class="st37 st38">Webhook</text>
	<text transform="matrix(1 0 0 1 504.8338 360.3435)" class="st37 st38">SMS</text>
	<text transform="matrix(1 0 0 1 1033.5522 360.3437)" class="st37 st39">Slack</text>
	<text transform="matrix(1 0 0 1 501.0289 221.2446)" class="st37 st39">Email</text>
	<text transform="matrix(1 0 0 1 185.34 341.0602)" class="st40 st37 st41">Expires in 10 days</text>
	<text transform="matrix(1 0 0 1 170.0398 87.0051)" class="st42 st43">Secrets Manager</text>
	<text transform="matrix(1 0 0 1 190.5372 217.341)"><tspan x="0" y="0" class="st44 st38">example.com </tspan><tspan x="10.5" y="16.5" class="st37 st38">certificate</tspan></text>
	<text transform="matrix(1 0 0 1 449.6986 87.0052)" class="st42 st43">Event Notifications</text>
	<text transform="matrix(1 0 0 1 770.665 87.0052)" class="st42 st43">Functions</text>
</g>
</svg>
