<svg xmlns="http://www.w3.org/2000/svg" xmlns:xlink="http://www.w3.org/1999/xlink" width="1138" height="573" viewBox="0 0 1138 573">
    <defs>
        <style>.cls-1{fill:#fff;}.cls-2{fill:url(#linear-gradient);}.cls-3{fill:url(#linear-gradient-2);}.cls-4{fill:url(#linear-gradient-3);}.cls-5{fill:url(#linear-gradient-4);}.cls-6{fill:#002d9c;}.cls-11,.cls-12,.cls-14,.cls-7,.cls-8,.cls-9{fill:none;}.cls-11,.cls-7,.cls-8,.cls-9{stroke:#fff;}.cls-14,.cls-7,.cls-8{stroke-linecap:round;}.cls-7,.cls-9{stroke-miterlimit:10;}.cls-11,.cls-12,.cls-14,.cls-8{stroke-linejoin:round;}.cls-10{fill:#106dff;}.cls-12{stroke:#6f6f6f;stroke-width:0.5px;}.cls-13,.cls-27,.cls-28{fill:#6f6f6f;}.cls-14{stroke:#a0a0a0;stroke-dasharray:0 4 0 4 0 4;}.cls-15{fill:#f0f0f0;}.cls-16{mask:url(#mask);}.cls-17{fill:url(#linear-gradient-5);}.cls-18{fill:#001d6c;}.cls-19{mask:url(#mask-3);}.cls-20{fill:url(#linear-gradient-6);}.cls-21{mask:url(#mask-4);}.cls-22{fill:url(#linear-gradient-7);}.cls-23,.cls-26{fill:#a8a8a8;}.cls-24{mask:url(#mask-5);}.cls-25{fill:url(#linear-gradient-8);}.cls-26{opacity:0.7;}.cls-27{font-size:11px;letter-spacing:0.026em;}.cls-27,.cls-31{font-family:IBMPlexSans, IBM Plex Sans;}.cls-28,.cls-29,.cls-31{font-size:14px;}.cls-28,.cls-29,.cls-30{font-family:IBMPlexSans-SemiBold, IBM Plex Sans;font-weight:600;}.cls-30{font-size:16px;}</style>
        <linearGradient id="linear-gradient" x1="2083.8226" y1="3094.6047" x2="2093.8497" y2="3094.6047" gradientTransform="matrix(-0.4622, 1.077, 0.646, 0.2772, -299.17, -2631.9847)" gradientUnits="userSpaceOnUse">
            <stop offset="0.179" />
            <stop offset="0.964" stop-opacity="0" />
        </linearGradient>
        <linearGradient id="linear-gradient-2" x1="724.8125" y1="298.3825" x2="741.3125" y2="281.8825" gradientUnits="userSpaceOnUse">
            <stop offset="0.13" stop-opacity="0" />
            <stop offset="0.38" />
        </linearGradient>
        <linearGradient id="linear-gradient-3" x1="942.7902" y1="792.3418" x2="953.7277" y2="803.2793" gradientTransform="matrix(1, 0, 0, -1, 13, 1091.93)" gradientUnits="userSpaceOnUse">
            <stop offset="0.55" stop-color="#fff" />
            <stop offset="0.8" stop-color="#fff" stop-opacity="0" />
        </linearGradient>
        <linearGradient id="linear-gradient-4" x1="1810.0652" y1="2895.6443" x2="1820.0924" y2="2895.6443" xlink:href="#linear-gradient" />
        <mask id="mask" x="715" y="456.57" width="26.1759" height="26" maskUnits="userSpaceOnUse">
            <g id="mask-2" data-name="mask">
                <path class="cls-1" d="M728.1759,480.9048a11.375,11.375,0,1,1,11.375-11.375A11.3875,11.3875,0,0,1,728.1759,480.9048Zm0-21.125a9.75,9.75,0,1,0,9.75,9.75A9.7609,9.7609,0,0,0,728.1759,459.78Z" />
                <path id="Gradients_black_" data-name="Gradients  black " class="cls-2" d="M741.009,470.737,736.1282,482.11l-7.353-3.1556,4.8808-11.3729Z" />
                <path class="cls-1" d="M736.3009,468.7173h4.875v1.625h-4.875Z" />
            </g>
        </mask>
        <linearGradient id="linear-gradient-5" x1="616.5" y1="1138.36" x2="642.5" y2="1164.36" gradientTransform="matrix(1, 0, 0, -1, 98.5, 1620.93)" gradientUnits="userSpaceOnUse">
            <stop offset="0.1" stop-color="#08bdba" />
            <stop offset="0.9" stop-color="#0f62fe" />
        </linearGradient>
        <mask id="mask-3" x="716" y="277.57" width="24" height="24" maskUnits="userSpaceOnUse">
            <path class="cls-1" d="M734,280.57v9.4248a9,9,0,0,1-4.5,7.7943l-2.25,1.2989L725,297.7891a9,9,0,0,1-4.5-7.7943V280.57H734m0-1.5H720.5a1.5,1.5,0,0,0-1.5,1.5v10.7238a8.25,8.25,0,0,0,4.1251,7.1448L727.25,300.82l4.1249-2.3814a8.25,8.25,0,0,0,4.1251-7.1448V280.57a1.5,1.5,0,0,0-1.5-1.5Z" />
            <polygon class="cls-3" points="727.25 300.82 737.75 300.82 737.75 278.32 729.5 278.32 729.5 282.82 727.25 282.82 727.25 300.82" />
        </mask>
        <linearGradient id="linear-gradient-6" x1="716" y1="301.57" x2="740" y2="277.57" gradientUnits="userSpaceOnUse">
            <stop offset="0.1" stop-color="#a56eff" />
            <stop offset="0.9" stop-color="#0f62fe" />
        </linearGradient>
        <mask id="mask-4" x="951" y="277.57" width="25" height="25" maskUnits="userSpaceOnUse">
            <g id="rfylg6g1jb">
                <path class="cls-4" d="M966.714,288.637l-5.307,5.307-1.0774-1.0773-1.1047,1.1047,1.0774,1.0773-1.2391,1.2391-1.0773-1.0774-1.1047,1.1047,1.0773,1.0774-2.182,2.182,1.1047,1.1047,10.9375-10.9375Z" />
                <circle class="cls-1" cx="967.8187" cy="285.0542" r="1.5625" />
                <path class="cls-1" d="M967.0374,278.8042a7.0149,7.0149,0,0,0-6.7242,9.0672l-8.12,8.12v4.6875h4.6875l-.6469-1.5625h-2.4781v-2.4781l8.38-8.3813a5.4687,5.4687,0,1,1,4.9015,3.0469v1.5625a7.0313,7.0313,0,1,0,0-14.0625Z" />
                <path d="M966.2562,297.5542V288.96h9.375v8.5938Z" />
            </g>
        </mask>
        <linearGradient id="linear-gradient-7" x1="938" y1="789.36" x2="963" y2="814.36" gradientTransform="matrix(1, 0, 0, -1, 13, 1091.93)" gradientUnits="userSpaceOnUse">
            <stop offset="0.1" stop-color="#0f62fe" />
            <stop offset="0.9" stop-color="#1192e8" />
        </linearGradient>
        <mask id="mask-5" x="713" y="106.57" width="26.1759" height="26" maskUnits="userSpaceOnUse">
            <g id="mask-6" data-name="mask">
                <path class="cls-1" d="M726.1759,130.9048a11.375,11.375,0,1,1,11.375-11.375A11.3875,11.3875,0,0,1,726.1759,130.9048Zm0-21.125a9.75,9.75,0,1,0,9.75,9.75A9.7609,9.7609,0,0,0,726.1759,109.78Z" />
                <path id="Gradients_black_2" data-name="Gradients  black " class="cls-5" d="M739.009,120.737,734.1282,132.11l-7.353-3.1556,4.8808-11.3729Z" />
                <path class="cls-1" d="M734.3009,118.7173h4.875v1.625h-4.875Z" />
            </g>
        </mask>
        <linearGradient id="linear-gradient-8" x1="614.5" y1="1488.36" x2="640.5" y2="1514.36" xlink:href="#linear-gradient-5" />
    </defs>
    <g id="Graphics">
        <ellipse cx="30.7844" cy="151.5943" rx="30" ry="30.3929" />
        <path id="id--badge" class="cls-1" d="M42.7077,169.9086H18.8611a.429.429,0,0,1-.4293-.4293V139.671a.4291.4291,0,0,1,.4293-.4293h9.1094v-5.5323A.4289.4289,0,0,1,28.4,133.28h4.7694a.4289.4289,0,0,1,.4292.4293v5.5323h9.1094a.429.429,0,0,1,.4293.4293v29.8083A.4289.4289,0,0,1,42.7077,169.9086ZM19.29,169.05H42.2785V140.1h-8.68v3.1478a.429.429,0,0,1-.4292.4293H28.4a.429.429,0,0,1-.4292-.4293V140.1H19.29Zm9.5387-26.2313H32.74v-8.68H28.829Zm3.1477,23.5128H23.63v-.8584h8.3463Zm5.9617-2.3847H23.63v-.8584h14.308Zm.4293-2.8139h-.8585a6.6765,6.6765,0,0,0-5.2189-6.3277.4292.4292,0,0,1-.0751-.81,3.5233,3.5233,0,1,0-2.8592,0,.4292.4292,0,0,1-.0751.81A6.6761,6.6761,0,0,0,24.06,161.133h-.8585a7.496,7.496,0,0,1,4.9279-6.8726,4.3831,4.3831,0,1,1,5.3107,0A7.4961,7.4961,0,0,1,38.3677,161.133Z" />
        <circle class="cls-6" cx="30.7844" cy="325.7695" r="30" />
        <path class="cls-7" d="M8.743,323.5937a22.1489,22.1489,0,0,1,44.0606-.2175" />
        <path class="cls-7" d="M50.7658,335.333a22.1518,22.1518,0,0,1-42.0112-7.2724" />
        <path class="cls-8" d="M28.5866,327.817a10.0693,10.0693,0,0,1-19.7152.24" />
        <path class="cls-8" d="M28.5084,323.4749a10.07,10.07,0,0,0-19.655.2109" />
        <line class="cls-8" x1="30.8544" y1="325.7695" x2="50.6403" y2="325.7695" />
        <line class="cls-8" x1="52.9314" y1="335.1651" x2="52.9314" y2="328.0605" />
        <line class="cls-8" x1="44.8779" y1="333.0818" x2="44.8779" y2="325.7695" />
        <line class="cls-8" x1="46.9613" y1="335.1651" x2="52.9314" y2="335.1651" />
        <path class="cls-9" d="M44.8779,337.2485a2.0834,2.0834,0,1,1,2.0834-2.0834A2.0834,2.0834,0,0,1,44.8779,337.2485Z" />
        <path class="cls-9" d="M52.9314,323.6861A2.0834,2.0834,0,1,1,50.848,325.77a2.0834,2.0834,0,0,1,2.0834-2.0834" />
        <path class="cls-9" d="M28.5558,323.6971a2.1256,2.1256,0,0,1,.2153-.011,2.0818,2.0818,0,1,1-.2153.011" />
        <path class="cls-9" d="M8.6375,327.8528a2.0834,2.0834,0,1,1,2.0833-2.0833A2.0834,2.0834,0,0,1,8.6375,327.8528Z" />
        <circle class="cls-10" cx="30.7844" cy="499.9446" r="30" />
        <path id="document--security" class="cls-11" d="M32.7844,514.8245h-14.88v-29.76H35.76l5.9519,5.9519v6.944M35.76,485.0648v5.9519h5.9519m-19.84,3.9683H37.7443m-15.8718,3.968,9.92,0m-9.92,3.968h9.92m-9.92,3.968h9.92m-9.92,3.9679h9.92m2.976-9.92v7.44a6.4479,6.4479,0,1,0,12.8958,0v-7.44Z" />
        <line class="cls-12" x1="660.6178" y1="181.9872" x2="91" y2="181.9872" />
        <polygon class="cls-13" points="659.524 178.247 666 181.987 659.524 185.727 659.524 178.247" />
        <line class="cls-12" x1="660.6178" y1="355.7695" x2="91" y2="355.7695" />
        <polygon class="cls-13" points="659.524 352.03 666 355.769 659.524 359.509 659.524 352.03" />
        <line class="cls-12" x1="660.6178" y1="529.9446" x2="92" y2="529.9446" />
        <polygon class="cls-13" points="659.524 526.205 666 529.945 659.524 533.684 659.524 526.205" />
        <line class="cls-14" x1="622.5" y1="121.2015" x2="622.5" y2="572.57" />
        <line class="cls-14" x1="322.5" y1="121.2015" x2="322.5" y2="572.57" />
        <polyline class="cls-15" points="695.694 428.054 695.694 571.676 901.694 571.676 901.694 428.054 695.694 428.054" />
        <polyline class="cls-10" points="695.47 427.627 695.47 431.627 901.694 431.627 901.694 427.627 695.47 427.627" />
        <g class="cls-16">
            <path class="cls-17" d="M715,456.57h26v26H715Z" />
        </g>
        <path class="cls-18" d="M731.4259,469.53a3.2073,3.2073,0,0,0-.4607-1.6405l2.66-2.66-1.1489-1.1489-2.66,2.66a3.151,3.151,0,0,0-3.2809,0l-2.66-2.66-1.1489,1.1489,2.66,2.66a3.151,3.151,0,0,0,0,3.2809l-2.66,2.66,1.1489,1.1489,2.66-2.66a3.151,3.151,0,0,0,3.2809,0l2.66,2.66,1.1489-1.1489-2.66-2.66A3.2168,3.2168,0,0,0,731.4259,469.53Zm-3.25,1.625a1.625,1.625,0,1,1,1.625-1.625A1.6266,1.6266,0,0,1,728.1759,471.1548Z" />
        <polyline class="cls-15" points="695.47 254.458 695.47 398.08 901.47 398.08 901.47 254.458 695.47 254.458" />
        <polyline class="cls-6" points="696.036 253.459 696.036 257.459 902 257.459 902 253.459 696.036 253.459" />
        <g class="cls-19">
            <rect class="cls-20" x="716" y="277.57" width="24" height="24" />
        </g>
        <path class="cls-18" d="M735.5,288.1765V279.07h-3.75v1.5H734v1.5h-2.25v1.5H734v4.6065a3,3,0,1,0,1.5,0Zm-.75,4.3935a1.5,1.5,0,1,1,1.5-1.5A1.5,1.5,0,0,1,734.75,292.57Z" />
        <polyline class="cls-15" points="931.018 254.539 931.018 398.161 1137.018 398.161 1137.018 254.539 931.018 254.539" />
        <polyline class="cls-6" points="931.018 253.459 931.018 257.556 1137 257.556 1137 253.459 931.018 253.459" />
        <g class="cls-21">
            <path class="cls-22" d="M951,277.57h25v25H951Z" />
        </g>
        <path class="cls-18" d="M970.5312,301.0075l-1.671-.7914a3.9227,3.9227,0,0,1-2.2352-3.53v-5.0531h7.8125v5.0531a3.9227,3.9227,0,0,1-2.2352,3.53Zm-2.3437-7.8125v3.4906a2.3531,2.3531,0,0,0,1.3414,2.118l1.0023.4742,1.0024-.4742a2.3531,2.3531,0,0,0,1.3414-2.118V293.195Z" />
        <polyline class="cls-15" points="931.018 429.627 931.018 573.248 1137.018 573.248 1137.018 429.627 931.018 429.627" />
        <polyline class="cls-23" points="931.584 427.627 931.584 431.627 1136.548 431.627 1136.548 427.627 931.584 427.627" />
        <path class="cls-23" d="M971.5729,460.9814a8.5126,8.5126,0,1,0-17.0252,0,8.3339,8.3339,0,0,0,2.1282,5.6041V473.75l6.3844-3.5469,6.3845,3.5469v-7.1648A8.3343,8.3343,0,0,0,971.5729,460.9814Zm-8.5126-7.0939a7.0939,7.0939,0,1,1-7.0938,7.0939A7.1147,7.1147,0,0,1,963.06,453.8875Z" />
        <circle class="cls-23" cx="963.0603" cy="460.9814" r="4.2563" />
        <polyline class="cls-15" points="696 79.997 696 223.619 902 223.619 902 79.997 696 79.997" />
        <g class="cls-24">
            <path class="cls-25" d="M713,106.57h26v26H713Z" />
        </g>
        <path class="cls-18" d="M729.4259,119.53a3.2073,3.2073,0,0,0-.4607-1.64l2.66-2.66-1.1489-1.1489-2.66,2.66a3.151,3.151,0,0,0-3.2809,0l-2.66-2.66-1.1489,1.1489,2.66,2.66a3.151,3.151,0,0,0,0,3.2809l-2.66,2.66,1.1489,1.1489,2.66-2.66a3.151,3.151,0,0,0,3.2809,0l2.66,2.66,1.1489-1.1489-2.66-2.66A3.2168,3.2168,0,0,0,729.4259,119.53Zm-3.25,1.625a1.625,1.625,0,1,1,1.625-1.625A1.6266,1.6266,0,0,1,726.1759,121.1548Z" />
        <polyline points="695.776 79.57 695.776 83.57 902 83.57 902 79.57 695.776 79.57" />
        <path class="cls-26" d="M961.1781,521.1516H1025.17c4.3245,0,7.83,4.2739,7.83,9.546v1.9081c0,5.2721-3.5057,9.5459-7.83,9.5459H961.1781c-4.3245,0-7.83-4.2738-7.83-9.5459v-1.9081C953.3478,525.4255,956.8536,521.1516,961.1781,521.1516Z" />
    </g>
    <g id="Text">
        <text class="cls-27" transform="translate(961.4493 536.1419)">Deprecated</text>
        <text class="cls-28" transform="translate(953.4899 506.4065)">Certificate Manager</text>
        <text class="cls-29" transform="translate(717.682 163.8248)">Secrets Manager</text>
        <path d="M959.9756,328.1569h-4.0733v4.13h-1.8486v-9.772h1.8486v4.0039h4.0733v-4.0039h1.8486v9.772h-1.8486Z" />
        <path d="M968.4883,324.9787h1.68l-2.9405,8.61a3.6887,3.6887,0,0,1-.3144.6792,1.7069,1.7069,0,0,1-.4131.4692,1.5494,1.5494,0,0,1-.5742.2656,3.2441,3.2441,0,0,1-.7842.084h-1.0781v-1.4419H965.38l.3359-1.02-2.6181-7.646h1.7783l1.2744,3.8559.4756,1.8438h.084l.5039-1.8438Z" />
        <path d="M971.3438,324.9787h1.7919v1.2041h.0557a1.8434,1.8434,0,0,1,.7422-1.001,2.2158,2.2158,0,0,1,1.2744-.3711,2.4984,2.4984,0,0,1,2.1348.9873,4.656,4.656,0,0,1,.7353,2.8208,4.7162,4.7162,0,0,1-.7353,2.8418,2.4911,2.4911,0,0,1-2.1348.9942,2.1525,2.1525,0,0,1-1.2676-.378,1.9576,1.9576,0,0,1-.749-1.0078h-.0557v4.0176h-1.7919Zm3.29,5.9922a1.4846,1.4846,0,0,0,1.1338-.4619,1.748,1.748,0,0,0,.4345-1.2461v-1.26a1.7743,1.7743,0,0,0-.4345-1.2529,1.4726,1.4726,0,0,0-1.1338-.4688,1.7319,1.7319,0,0,0-1.0713.3218,1.0189,1.0189,0,0,0-.4268.854v2.3242a1.022,1.022,0,0,0,.4268.8819A1.784,1.784,0,0,0,974.6338,330.9709Z" />
        <path d="M982.6982,332.4548a3.6443,3.6443,0,0,1-1.4492-.273,2.9967,2.9967,0,0,1-1.0781-.77,3.433,3.433,0,0,1-.6787-1.2041,4.9479,4.9479,0,0,1-.2383-1.5889,5.0073,5.0073,0,0,1,.2305-1.5678,3.44,3.44,0,0,1,.665-1.1973,2.9507,2.9507,0,0,1,1.0645-.77,3.5613,3.5613,0,0,1,1.4277-.273,3.484,3.484,0,0,1,1.4844.294,2.8662,2.8662,0,0,1,1.0361.7983,3.436,3.436,0,0,1,.6084,1.169,4.83,4.83,0,0,1,.2031,1.4209v.5878h-4.8574v.1807a1.787,1.787,0,0,0,.4473,1.272,1.7338,1.7338,0,0,0,1.33.48,1.9851,1.9851,0,0,0,1.1-.2779,3.1389,3.1389,0,0,0,.7627-.7089l.9658,1.081a3.0074,3.0074,0,0,1-1.2246.99A4.2686,4.2686,0,0,1,982.6982,332.4548Zm-.0283-6.3a1.4339,1.4339,0,0,0-1.1338.476,1.7917,1.7917,0,0,0-.42,1.232v.1118h2.9951v-.126a1.9185,1.9185,0,0,0-.37-1.2251A1.2863,1.2863,0,0,0,982.67,326.155Z" />
        <path d="M987.5557,332.2868v-7.3081h1.792v1.5122h.07a2.3358,2.3358,0,0,1,.2168-.5669,1.743,1.743,0,0,1,.3847-.4834,1.8557,1.8557,0,0,1,.5674-.3359,2.1232,2.1232,0,0,1,.7627-.126h.3926v1.6943h-.5606a2.8125,2.8125,0,0,0-1.372.2657.9252.9252,0,0,0-.4619.8681v4.48Z" />
        <path d="M996.4736,332.2868v-9.772h4.3955a3.22,3.22,0,0,1,1.211.2168,2.5658,2.5658,0,0,1,.917.6162,2.6525,2.6525,0,0,1,.5742.959,3.9868,3.9868,0,0,1,0,2.4712,2.6582,2.6582,0,0,1-.5742.9517,2.5607,2.5607,0,0,1-.917.6162,3.22,3.22,0,0,1-1.211.2168h-2.5478v3.7241Zm1.8477-5.32h2.38a1.1826,1.1826,0,0,0,.84-.2871,1.0622,1.0622,0,0,0,.3086-.8189v-.644a1.0386,1.0386,0,0,0-.3086-.812,1.2016,1.2016,0,0,0-.84-.28h-2.38Z" />
        <path d="M1005.335,332.2868v-7.3081h1.792v1.5122h.07a2.3358,2.3358,0,0,1,.2168-.5669,1.743,1.743,0,0,1,.3847-.4834,1.8557,1.8557,0,0,1,.5674-.3359,2.1232,2.1232,0,0,1,.7627-.126h.3926v1.6943h-.5606a2.8125,2.8125,0,0,0-1.372.2657.925.925,0,0,0-.4619.8681v4.48Z" />
        <path d="M1013.7354,332.4548a3.5513,3.5513,0,0,1-1.4073-.2661,2.92,2.92,0,0,1-1.0644-.77,3.5065,3.5065,0,0,1-.6787-1.2109,4.9479,4.9479,0,0,1-.2383-1.5889,4.8856,4.8856,0,0,1,.2383-1.582,3.4416,3.4416,0,0,1,.6787-1.1968,2.9558,2.9558,0,0,1,1.0644-.7632,3.5513,3.5513,0,0,1,1.4073-.2661,3.6054,3.6054,0,0,1,1.414.2661,2.9359,2.9359,0,0,1,1.07.7632,3.4594,3.4594,0,0,1,.68,1.1968,4.9136,4.9136,0,0,1,.2373,1.582,4.9763,4.9763,0,0,1-.2373,1.5889,3.5246,3.5246,0,0,1-.68,1.2109,2.901,2.901,0,0,1-1.07.77A3.6054,3.6054,0,0,1,1013.7354,332.4548Zm0-1.4419a1.4605,1.4605,0,0,0,1.12-.4341,1.8,1.8,0,0,0,.4052-1.2739V327.947a1.78,1.78,0,0,0-.4052-1.26,1.4619,1.4619,0,0,0-1.12-.4341,1.4427,1.4427,0,0,0-1.1065.4341,1.78,1.78,0,0,0-.4062,1.26v1.3579a1.8006,1.8006,0,0,0,.4062,1.2739A1.4412,1.4412,0,0,0,1013.7354,331.0129Z" />
        <path d="M1021.001,332.2868a1.9109,1.9109,0,0,1-1.4072-.4814,1.8584,1.8584,0,0,1-.4825-1.376v-4.0088h-1.0781v-1.4419h.56a.6676.6676,0,0,0,.5527-.189.91.91,0,0,0,.1475-.5669v-1.2461h1.61v2.002H1022.4v1.4419h-1.4971v4.4243h1.3858v1.4419Z" />
        <path d="M1026.9092,332.4548a3.6443,3.6443,0,0,1-1.4492-.273,2.998,2.998,0,0,1-1.0782-.77,3.433,3.433,0,0,1-.6787-1.2041,4.9479,4.9479,0,0,1-.2383-1.5889,5.0073,5.0073,0,0,1,.2305-1.5678,3.4385,3.4385,0,0,1,.6651-1.1973,2.95,2.95,0,0,1,1.0644-.77,3.5613,3.5613,0,0,1,1.4277-.273,3.4837,3.4837,0,0,1,1.4844.294,2.8654,2.8654,0,0,1,1.0361.7983,3.4325,3.4325,0,0,1,.6084,1.169,4.8262,4.8262,0,0,1,.2032,1.4209v.5878h-4.8575v.1807a1.7874,1.7874,0,0,0,.4473,1.272,1.7338,1.7338,0,0,0,1.33.48,1.9851,1.9851,0,0,0,1.1-.2779,3.1353,3.1353,0,0,0,.7627-.7089l.9658,1.081a3.0068,3.0068,0,0,1-1.2246.99A4.2681,4.2681,0,0,1,1026.9092,332.4548Zm-.0283-6.3a1.4337,1.4337,0,0,0-1.1338.476,1.7913,1.7913,0,0,0-.42,1.232v.1118h2.9952v-.126a1.9185,1.9185,0,0,0-.37-1.2251A1.2861,1.2861,0,0,0,1026.8809,326.155Z" />
        <path d="M1034.65,332.4548a3.6791,3.6791,0,0,1-1.4414-.2661,2.7864,2.7864,0,0,1-1.0576-.77,3.456,3.456,0,0,1-.65-1.2109,5.2461,5.2461,0,0,1-.2246-1.5889,5.18,5.18,0,0,1,.2246-1.582,3.3906,3.3906,0,0,1,.65-1.1968,2.8184,2.8184,0,0,1,1.0576-.7632,3.6791,3.6791,0,0,1,1.4414-.2661,3.1809,3.1809,0,0,1,1.8271.49,2.7507,2.7507,0,0,1,1.043,1.3579l-1.47.6577a1.5252,1.5252,0,0,0-.4688-.7627,1.364,1.364,0,0,0-.9316-.3013,1.3413,1.3413,0,0,0-1.127.4761,1.9723,1.9723,0,0,0-.3711,1.2461v1.33a1.941,1.941,0,0,0,.3711,1.2387,1.3483,1.3483,0,0,0,1.127.4693,1.3965,1.3965,0,0,0,.9941-.3291,2.2534,2.2534,0,0,0,.5459-.8189l1.3721.6577a2.87,2.87,0,0,1-1.1055,1.4493A3.2435,3.2435,0,0,1,1034.65,332.4548Z" />
        <path d="M1041.23,332.2868a1.9087,1.9087,0,0,1-1.4063-.4814,1.8592,1.8592,0,0,1-.4834-1.376v-4.0088h-1.0781v-1.4419h.5605a.6678.6678,0,0,0,.5528-.189.917.917,0,0,0,.1465-.5669v-1.2461h1.61v2.002h1.4981v1.4419h-1.4981v4.4243h1.3858v1.4419Z" />
        <path d="M957.8477,349.2546a4.5978,4.5978,0,0,1-1.7422-.315,3.4835,3.4835,0,0,1-1.33-.9448,4.29,4.29,0,0,1-.8477-1.561,7.2188,7.2188,0,0,1-.2939-2.1631,7.4993,7.4993,0,0,1,.2939-2.1909,4.4811,4.4811,0,0,1,.8477-1.61,3.5941,3.5941,0,0,1,1.33-.9868,4.3428,4.3428,0,0,1,1.7422-.3359,3.9539,3.9539,0,0,1,2.1845.56,3.85,3.85,0,0,1,1.3858,1.6939l-1.5821.84a2.2249,2.2249,0,0,0-.6855-1.0566,1.9661,1.9661,0,0,0-1.3027-.399,2.07,2.07,0,0,0-1.6446.7,2.89,2.89,0,0,0-.6093,1.96v1.54a2.83,2.83,0,0,0,.6093,1.9531,2.0991,2.0991,0,0,0,1.6446.6787,2.01,2.01,0,0,0,1.3515-.4478,2.59,2.59,0,0,0,.7627-1.1059l1.4981.8818a4.3033,4.3033,0,0,1-1.4141,1.7012A3.7793,3.7793,0,0,1,957.8477,349.2546Z" />
        <path d="M962.93,349.0866v-7.3081h1.792v1.5122h.07a2.34,2.34,0,0,1,.2168-.5669,1.7434,1.7434,0,0,1,.3848-.4834,1.854,1.854,0,0,1,.5673-.3359,2.1236,2.1236,0,0,1,.7627-.126h.3926v1.6943h-.5605a2.8127,2.8127,0,0,0-1.3721.2657.9253.9253,0,0,0-.4619.8681v4.48Z" />
        <path d="M972.9121,341.7785h1.68l-2.94,8.61a3.6922,3.6922,0,0,1-.3145.6792,1.7069,1.7069,0,0,1-.4131.4692,1.5494,1.5494,0,0,1-.5742.2656,3.2429,3.2429,0,0,1-.7842.084h-1.0781v-1.4419h1.3164l.3359-1.02-2.6181-7.646H969.3l1.2744,3.856.4756,1.8437h.084l.5039-1.8437Z" />
        <path d="M975.7676,341.7785h1.792v1.2041h.0556a1.8434,1.8434,0,0,1,.7422-1.001,2.2166,2.2166,0,0,1,1.2744-.3711,2.4982,2.4982,0,0,1,2.1348.9873,4.656,4.656,0,0,1,.7354,2.8208,4.7162,4.7162,0,0,1-.7354,2.8418,2.4908,2.4908,0,0,1-2.1348.9942,2.1519,2.1519,0,0,1-1.2675-.378,1.9578,1.9578,0,0,1-.7491-1.0078H977.56v4.0176h-1.792Zm3.29,5.9922a1.4846,1.4846,0,0,0,1.1338-.4619,1.7477,1.7477,0,0,0,.4346-1.2461v-1.26a1.7739,1.7739,0,0,0-.4346-1.2529,1.4726,1.4726,0,0,0-1.1338-.4688,1.7319,1.7319,0,0,0-1.0713.3218,1.0188,1.0188,0,0,0-.4267.854v2.3242a1.0218,1.0218,0,0,0,.4267.8819A1.784,1.784,0,0,0,979.0576,347.7707Z" />
        <path d="M986.4492,349.0866a1.9086,1.9086,0,0,1-1.4062-.4814,1.8588,1.8588,0,0,1-.4834-1.376V343.22h-1.0782v-1.4419h.5606a.6676.6676,0,0,0,.5527-.189.9162.9162,0,0,0,.1465-.5669v-1.2461h1.61v2.002h1.498V343.22h-1.498v4.4243h1.3857v1.4419Z" />
        <path d="M992.3018,349.2546a3.5513,3.5513,0,0,1-1.4073-.2661,2.92,2.92,0,0,1-1.0644-.77,3.5065,3.5065,0,0,1-.6787-1.2109,4.9479,4.9479,0,0,1-.2383-1.5889,4.8856,4.8856,0,0,1,.2383-1.582,3.4416,3.4416,0,0,1,.6787-1.1968,2.9558,2.9558,0,0,1,1.0644-.7632,3.5513,3.5513,0,0,1,1.4073-.2661,3.6054,3.6054,0,0,1,1.414.2661,2.9359,2.9359,0,0,1,1.07.7632,3.4594,3.4594,0,0,1,.68,1.1968,4.9136,4.9136,0,0,1,.2373,1.582,4.9763,4.9763,0,0,1-.2373,1.5889,3.5246,3.5246,0,0,1-.68,1.2109,2.901,2.901,0,0,1-1.07.77A3.6054,3.6054,0,0,1,992.3018,349.2546Zm0-1.4419a1.4605,1.4605,0,0,0,1.12-.4341,1.8,1.8,0,0,0,.4052-1.2739v-1.3579a1.78,1.78,0,0,0-.4052-1.26,1.4619,1.4619,0,0,0-1.12-.4341,1.4427,1.4427,0,0,0-1.1065.4341,1.78,1.78,0,0,0-.4062,1.26v1.3579a1.8006,1.8006,0,0,0,.4062,1.2739A1.4412,1.4412,0,0,0,992.3018,347.8127Z" />
        <path d="M1003.7393,349.2546a4.64,4.64,0,0,1-2.1358-.4488,4.9616,4.9616,0,0,1-1.5049-1.1782l1.2461-1.206a3.5719,3.5719,0,0,0,1.127.89,3.089,3.089,0,0,0,1.3789.3052,1.9462,1.9462,0,0,0,1.2881-.3682,1.2355,1.2355,0,0,0,.4345-.9931,1.128,1.128,0,0,0-.28-.792,1.8817,1.8817,0,0,0-1.05-.4444l-.9239-.1386q-2.9266-.4629-2.9267-2.8457a2.8207,2.8207,0,0,1,.2451-1.1915,2.5386,2.5386,0,0,1,.707-.9111,3.2873,3.2873,0,0,1,1.1133-.582,4.953,4.953,0,0,1,1.4766-.2031,4.7515,4.7515,0,0,1,1.9326.3647,3.7955,3.7955,0,0,1,1.414,1.08l-1.2607,1.1924a2.8875,2.8875,0,0,0-.8818-.7217,2.7337,2.7337,0,0,0-1.3018-.2774,1.9887,1.9887,0,0,0-1.1973.2984.9872.9872,0,0,0-.3984.8393.999.999,0,0,0,.3213.8189,2.269,2.269,0,0,0,1.0361.3887l.91.1679a4.181,4.181,0,0,1,2.1914.9463,2.5123,2.5123,0,0,1,.707,1.8989,3.1738,3.1738,0,0,1-.2451,1.2686,2.7432,2.7432,0,0,1-.7139.981,3.2626,3.2626,0,0,1-1.1484.6376A4.9743,4.9743,0,0,1,1003.7393,349.2546Z" />
        <path d="M1012.0977,349.2546a3.6448,3.6448,0,0,1-1.4493-.273,2.9976,2.9976,0,0,1-1.0781-.77,3.433,3.433,0,0,1-.6787-1.2041,4.9479,4.9479,0,0,1-.2383-1.5889,5.0073,5.0073,0,0,1,.2305-1.5678,3.44,3.44,0,0,1,.665-1.1973,2.9515,2.9515,0,0,1,1.0645-.77,3.5613,3.5613,0,0,1,1.4277-.273,3.4837,3.4837,0,0,1,1.4844.294,2.8662,2.8662,0,0,1,1.0361.7983,3.4342,3.4342,0,0,1,.6084,1.169,4.8262,4.8262,0,0,1,.2031,1.4209v.5878h-4.8574v.1807a1.7874,1.7874,0,0,0,.4473,1.272,1.7338,1.7338,0,0,0,1.33.48,1.9851,1.9851,0,0,0,1.1-.2779,3.1371,3.1371,0,0,0,.7627-.7089l.9658,1.081a3.0068,3.0068,0,0,1-1.2246.99A4.2684,4.2684,0,0,1,1012.0977,349.2546Zm-.0284-6.3a1.4339,1.4339,0,0,0-1.1338.476,1.7917,1.7917,0,0,0-.42,1.232v.1118h2.9951v-.126a1.9185,1.9185,0,0,0-.37-1.2251A1.2863,1.2863,0,0,0,1012.0693,342.9548Z" />
        <path d="M1016.9551,349.0866v-7.3081h1.792v1.5122h.07a2.34,2.34,0,0,1,.2168-.5669,1.743,1.743,0,0,1,.3847-.4834,1.8557,1.8557,0,0,1,.5674-.3359,2.1236,2.1236,0,0,1,.7627-.126h.3926v1.6943h-.5605a2.8127,2.8127,0,0,0-1.3721.2657.9253.9253,0,0,0-.4619.8681v4.48Z" />
        <path d="M1024.0244,349.0866l-2.4355-7.3081h1.7636l1.0225,3.15.7139,2.604h.0976l.7139-2.604.9941-3.15h1.708l-2.45,7.3081Z" />
        <path d="M1030.6885,340.7145a1.0872,1.0872,0,0,1-.8047-.2519.8828.8828,0,0,1-.2451-.6441v-.28a.8828.8828,0,0,1,.2451-.644,1.4,1.4,0,0,1,1.6025,0,.8723.8723,0,0,1,.252.644v.28a.8724.8724,0,0,1-.252.6441A1.0907,1.0907,0,0,1,1030.6885,340.7145Zm-.8955,1.064h1.792v7.3081h-1.792Z" />
        <path d="M1036.54,349.2546a3.6794,3.6794,0,0,1-1.4414-.2661,2.7871,2.7871,0,0,1-1.0576-.77,3.4577,3.4577,0,0,1-.65-1.2109,5.2461,5.2461,0,0,1-.2246-1.5889,5.18,5.18,0,0,1,.2246-1.582,3.3922,3.3922,0,0,1,.65-1.1968,2.8191,2.8191,0,0,1,1.0576-.7632,3.6794,3.6794,0,0,1,1.4414-.2661,3.1815,3.1815,0,0,1,1.8272.49,2.7513,2.7513,0,0,1,1.043,1.3579l-1.47.6577a1.525,1.525,0,0,0-.4687-.7627,1.3643,1.3643,0,0,0-.9317-.3013,1.3411,1.3411,0,0,0-1.1269.4761,1.9717,1.9717,0,0,0-.3711,1.2461v1.33a1.94,1.94,0,0,0,.3711,1.2387,1.3481,1.3481,0,0,0,1.1269.4693,1.3968,1.3968,0,0,0,.9942-.3291,2.2547,2.2547,0,0,0,.5459-.8189l1.372.6577a2.8694,2.8694,0,0,1-1.1054,1.4493A3.2438,3.2438,0,0,1,1036.54,349.2546Z" />
        <path d="M1043.793,349.2546a3.6443,3.6443,0,0,1-1.4492-.273,2.9971,2.9971,0,0,1-1.0782-.77,3.433,3.433,0,0,1-.6787-1.2041,4.9479,4.9479,0,0,1-.2383-1.5889,5.0073,5.0073,0,0,1,.23-1.5678,3.44,3.44,0,0,1,.665-1.1973,2.9515,2.9515,0,0,1,1.0645-.77,3.5613,3.5613,0,0,1,1.4277-.273,3.4837,3.4837,0,0,1,1.4844.294,2.8654,2.8654,0,0,1,1.0361.7983,3.4342,3.4342,0,0,1,.6084,1.169,4.8262,4.8262,0,0,1,.2032,1.4209v.5878h-4.8575v.1807a1.7874,1.7874,0,0,0,.4473,1.272,1.7338,1.7338,0,0,0,1.33.48,1.9851,1.9851,0,0,0,1.1-.2779,3.1353,3.1353,0,0,0,.7627-.7089l.9658,1.081a3.0068,3.0068,0,0,1-1.2246.99A4.2684,4.2684,0,0,1,1043.793,349.2546Zm-.0284-6.3a1.4337,1.4337,0,0,0-1.1337.476,1.7913,1.7913,0,0,0-.42,1.232v.1118h2.9952v-.126a1.9185,1.9185,0,0,0-.37-1.2251A1.2863,1.2863,0,0,0,1043.7646,342.9548Z" />
        <path d="M1051.0449,349.2546a3.9268,3.9268,0,0,1-1.7646-.357,4.066,4.066,0,0,1-1.26-.9868l1.0918-1.0644a3.3,3.3,0,0,0,.89.728,2.2606,2.2606,0,0,0,1.1123.2661,1.5262,1.5262,0,0,0,.9316-.2241.7393.7393,0,0,0,.2861-.6157.6663.6663,0,0,0-.2021-.5113,1.296,1.296,0,0,0-.6934-.2588l-.7275-.0981a3.4637,3.4637,0,0,1-1.8135-.6787,1.8937,1.8937,0,0,1-.623-1.5332,2.27,2.27,0,0,1,.1963-.959,2.0291,2.0291,0,0,1,.5595-.728,2.5694,2.5694,0,0,1,.875-.4619,3.7818,3.7818,0,0,1,1.1416-.1612,5.191,5.191,0,0,1,.9444.0772,3.4186,3.4186,0,0,1,.749.2241,2.8673,2.8673,0,0,1,.6162.3638,5.9019,5.9019,0,0,1,.5459.4829l-1.05,1.05a2.7734,2.7734,0,0,0-.7705-.56,2.1587,2.1587,0,0,0-.9795-.2241,1.3475,1.3475,0,0,0-.8467.21.6706.6706,0,0,0-.26.5458.6914.6914,0,0,0,.2178.5533,1.5033,1.5033,0,0,0,.7344.2729l.7422.0982q2.3656.3354,2.3662,2.1557a2.1755,2.1755,0,0,1-.2168.9732,2.2318,2.2318,0,0,1-.6094.7558,2.8787,2.8787,0,0,1-.9453.49A4.1056,4.1056,0,0,1,1051.0449,349.2546Z" />
        <text class="cls-29" transform="translate(717.9422 332.2381)">Key Protect</text>
        <text class="cls-29" transform="translate(717.3763 511.8821)">Secrets Manager</text>
        <text class="cls-30" transform="translate(622.4999 38.6025)">I can use...</text>
        <text class="cls-31" transform="translate(368.5681 504.1095)">secure data in transit</text>
        <text class="cls-31" transform="translate(367.1679 329.9346)">encrypt data at rest</text>
        <text class="cls-31" transform="translate(366.3675 155.7595)">access resources</text>
        <text class="cls-30" transform="translate(322.5002 37.7944)">so that I can...</text>
        <text class="cls-31" transform="translate(92.5681 504.1095)">SSL / TLS certificates</text>
        <text class="cls-31" transform="translate(91.1679 329.9346)">symmetric keys</text>
        <text class="cls-31" transform="translate(90.3675 155.7595)">secrets and credentials</text>
        <text class="cls-30" transform="translate(40.3675 38.2201)">If I want to manage...</text>
    </g>
</svg>