<?xml version="1.0" encoding="utf-8"?>
<svg xmlns="http://www.w3.org/2000/svg" viewBox="0 0 835 352.57"><defs><style>.cls-1,.cls-2,.cls-24,.cls-28{fill:none;}.cls-1,.cls-15,.cls-18,.cls-19,.cls-2,.cls-28{stroke:#6f6f6f;}.cls-1,.cls-15,.cls-18,.cls-19,.cls-2,.cls-24,.cls-28{stroke-miterlimit:10;}.cls-2{stroke-linecap:square;}.cls-3{fill:#6f6f6f;}.cls-4{font-size:14px;}.cls-20,.cls-4{font-family:IBMPlexSans-SemiBold, IBM Plex Sans;font-weight:600;}.cls-18,.cls-5{fill:#edf5ff;}.cls-20,.cls-6{font-size:12px;}.cls-25,.cls-6{font-family:IBMPlexSans, IBM Plex Sans;}.cls-7{letter-spacing:0em;}.cls-8{letter-spacing:0em;}.cls-9{letter-spacing:-0.01em;}.cls-10{letter-spacing:0em;}.cls-11{letter-spacing:-0.02em;}.cls-12{letter-spacing:-0.01em;}.cls-13{letter-spacing:-0.01em;}.cls-14{letter-spacing:-0.01em;}.cls-15,.cls-19{fill:#fff;}.cls-15{stroke-width:0.95px;}.cls-16{letter-spacing:-0.03em;}.cls-17{letter-spacing:0em;}.cls-21{letter-spacing:-0.02em;}.cls-22{letter-spacing:-0.01em;}.cls-23{fill:#001d6c;}.cls-24{stroke:#001d6c;stroke-width:2px;}.cls-25{font-size:10px;}.cls-26{letter-spacing:-0.01em;}.cls-27{letter-spacing:0em;}.cls-28{stroke-dasharray:3.03 3.03;}.cls-29{letter-spacing:0.01em;}</style></defs><g id="Translatable_text" data-name="Translatable text"><line class="cls-1" x1="147.66" y1="255.52" x2="173.4" y2="255.52"/><line class="cls-2" x1="151.14" y1="272.45" x2="197.7" y2="272.45"/><polygon class="cls-3" points="195.88 278.68 206.67 272.45 195.88 266.22 195.88 278.68"/><text class="cls-4" transform="translate(209.62 52.75)">IBM Cloud</text><rect class="cls-5" x="353.35" y="56.6" width="370.39" height="181.68"/><rect class="cls-1" x="211.45" y="177.68" width="126.02" height="33.6"/><text class="cls-6" transform="translate(239.06 191.8)">Single <tspan class="cls-7" x="35.81" y="0">t</tspan><tspan x="39.97" y="0">enant</tspan><tspan x="-17.5" y="14.4">Sec</tspan><tspan class="cls-8" x="2.09" y="14.4">r</tspan><tspan x="6.44" y="14.4">ets Mana</tspan><tspan class="cls-9" x="55.29" y="14.4">g</tspan><tspan class="cls-10" x="61.55" y="14.4">er UI</tspan></text><rect class="cls-1" x="211.45" y="232.69" width="126.02" height="33.6"/><text class="cls-6" transform="translate(243.53 253.12)"><tspan class="cls-11">K</tspan><tspan class="cls-12" x="7.31" y="0">e</tspan><tspan x="13.84" y="0">y </tspan><tspan class="cls-13" x="22.66" y="0">P</tspan><tspan class="cls-8" x="29.81" y="0">r</tspan><tspan x="34.15" y="0">o</tspan><tspan class="cls-7" x="40.87" y="0">t</tspan><tspan x="45.04" y="0">ect</tspan></text><rect class="cls-1" x="209.62" y="91.23" width="126.02" height="33.6"/><text class="cls-6" transform="translate(216.27 111.46)">Cloud Object S<tspan class="cls-7" x="79.14" y="0">t</tspan><tspan x="83.3" y="0">o</tspan><tspan class="cls-7" x="90.02" y="0">r</tspan><tspan class="cls-10" x="94.38" y="0">a</tspan><tspan class="cls-14" x="100.79" y="0">g</tspan><tspan x="107.05" y="0">e</tspan></text><rect class="cls-15" x="477.92" y="90.96" width="126.02" height="126.02"/><text class="cls-6" transform="translate(485.53 105.18)"><tspan class="cls-16">V</tspan><tspan class="cls-10" x="6.95" y="0">au</tspan><tspan class="cls-8" x="20.17" y="0">l</tspan><tspan x="23.38" y="0">t </tspan><tspan class="cls-7" x="30.42" y="0">f</tspan><tspan class="cls-17" x="34.26" y="0">ormation</tspan><tspan x="0" y="14.4">(Namespa</tspan><tspan class="cls-9" x="55.19" y="14.4">c</tspan><tspan x="61.15" y="14.4">e)</tspan></text><rect class="cls-18" x="510.88" y="130.46" width="84.54" height="22.54"/><text class="cls-6" transform="translate(527.59 146.62)"><tspan class="cls-16">V</tspan><tspan class="cls-10" x="6.95" y="0">au</tspan><tspan class="cls-8" x="20.17" y="0">l</tspan><tspan x="23.38" y="0">t pod</tspan></text><rect class="cls-18" x="510.88" y="158.42" width="84.54" height="22.54"/><text class="cls-6" transform="translate(527.59 174.58)"><tspan class="cls-16">V</tspan><tspan class="cls-10" x="6.95" y="0">au</tspan><tspan class="cls-8" x="20.17" y="0">l</tspan><tspan x="23.38" y="0">t pod</tspan></text><rect class="cls-18" x="510.88" y="186.39" width="84.54" height="22.54"/><text class="cls-6" transform="translate(527.59 202.55)"><tspan class="cls-16">V</tspan><tspan class="cls-10" x="6.95" y="0">au</tspan><tspan class="cls-8" x="20.17" y="0">l</tspan><tspan x="23.38" y="0">t pod</tspan></text><rect class="cls-19" x="377.2" y="134.45" width="126.02" height="33.6"/><text class="cls-6" transform="translate(404.8 148.58)">Single <tspan class="cls-7" x="35.81" y="0">t</tspan><tspan x="39.97" y="0">enant</tspan><tspan x="-20.92" y="14.4">Sec</tspan><tspan class="cls-8" x="-1.32" y="14.4">r</tspan><tspan x="3.02" y="14.4">ets Mana</tspan><tspan class="cls-14" x="51.88" y="14.4">g</tspan><tspan x="58.14" y="14.4">er API</tspan></text><rect class="cls-19" x="616.28" y="90.96" width="26.98" height="126.02"/><text class="cls-6" transform="translate(633.59 195.48) rotate(-90)"><tspan class="cls-16">V</tspan><tspan class="cls-10" x="6.95" y="0">au</tspan><tspan class="cls-8" x="20.17" y="0">l</tspan><tspan x="23.38" y="0">t </tspan><tspan class="cls-7" x="30.42" y="0">f</tspan><tspan class="cls-17" x="34.26" y="0">ormation</tspan></text><rect class="cls-19" x="648.24" y="90.96" width="26.98" height="126.02"/><text class="cls-6" transform="translate(665.55 195.48) rotate(-90)"><tspan class="cls-16">V</tspan><tspan class="cls-10" x="6.95" y="0">au</tspan><tspan class="cls-8" x="20.17" y="0">l</tspan><tspan x="23.38" y="0">t </tspan><tspan class="cls-7" x="30.42" y="0">f</tspan><tspan class="cls-17" x="34.26" y="0">ormation</tspan></text><rect class="cls-19" x="682.42" y="90.96" width="26.98" height="126.02"/><text class="cls-6" transform="translate(699.73 195.48) rotate(-90)"><tspan class="cls-16">V</tspan><tspan class="cls-10" x="6.95" y="0">au</tspan><tspan class="cls-8" x="20.17" y="0">l</tspan><tspan x="23.38" y="0">t </tspan><tspan class="cls-7" x="30.42" y="0">f</tspan><tspan class="cls-17" x="34.26" y="0">ormation</tspan></text><text class="cls-20" transform="translate(366.93 78.14)"><tspan class="cls-21">K</tspan><tspan class="cls-17" x="7.93" y="0">uberne</tspan><tspan class="cls-7" x="47.35" y="0">t</tspan><tspan x="51.79" y="0">es clu</tspan><tspan class="cls-22" x="84.05" y="0">s</tspan><tspan class="cls-7" x="89.94" y="0">t</tspan><tspan class="cls-10" x="94.38" y="0">er</tspan></text><line class="cls-1" x1="173.89" y1="151.26" x2="362.41" y2="151.26"/><polygon class="cls-3" points="360.59 157.49 371.38 151.25 360.59 145.02 360.59 157.49"/><line class="cls-1" x1="337.48" y1="194.48" x2="424.94" y2="194.48"/><line class="cls-1" x1="355.25" y1="272.45" x2="510.88" y2="272.45"/><polygon class="cls-3" points="357.07 278.68 346.28 272.45 357.07 266.22 357.07 278.68"/><line class="cls-1" x1="510.88" y1="272.45" x2="510.88" y2="231.8"/><polygon class="cls-3" points="517.12 233.62 510.88 222.83 504.65 233.62 517.12 233.62"/><line class="cls-1" x1="348.34" y1="108.03" x2="458.02" y2="108.03"/><polygon class="cls-3" points="350.17 114.26 339.38 108.03 350.17 101.8 350.17 114.26"/><polygon class="cls-3" points="456.19 114.26 466.99 108.03 456.19 101.8 456.19 114.26"/><path class="cls-23" d="M139.14,251.6a14,14,0,1,0,14,14A14,14,0,0,0,139.14,251.6Zm8,22.92v-.61a5.21,5.21,0,0,0-5-5.31h-6a5.21,5.21,0,0,0-5,5.31v.62a12,12,0,1,1,17-1C147.79,273.9,147.47,274.22,147.14,274.52Z"/><path class="cls-24" d="M139.13,256.38a5,5,0,1,0,5,5A5,5,0,0,0,139.13,256.38Z"/><text class="cls-25" transform="translate(129.27 291.23)">User</text><path class="cls-23" d="M139.14,48H127.2a2.38,2.38,0,0,1-2.38-2.39V33.65a2.38,2.38,0,0,1,2.38-2.39h11.94a2.39,2.39,0,0,1,2.39,2.39V45.58A2.39,2.39,0,0,1,139.14,48ZM127.2,33.65V45.58h11.94V33.65Z"/><path class="cls-23" d="M151.08,40.81v4.77H146.3V40.81h4.78m0-2.39H146.3a2.39,2.39,0,0,0-2.39,2.39v4.77A2.39,2.39,0,0,0,146.3,48h4.78a2.39,2.39,0,0,0,2.38-2.39V40.81A2.39,2.39,0,0,0,151.08,38.42Z"/><path class="cls-23" d="M151.08,52.75v4.77H146.3V52.75h4.78m0-2.39H146.3a2.39,2.39,0,0,0-2.39,2.39v4.77a2.39,2.39,0,0,0,2.39,2.39h4.78a2.39,2.39,0,0,0,2.38-2.39V52.75A2.39,2.39,0,0,0,151.08,50.36Z"/><path class="cls-23" d="M139.14,52.75v4.77h-4.78V52.75h4.78m0-2.39h-4.78A2.39,2.39,0,0,0,132,52.75v4.77a2.39,2.39,0,0,0,2.38,2.39h4.78a2.39,2.39,0,0,0,2.39-2.39V52.75A2.39,2.39,0,0,0,139.14,50.36Z"/><path class="cls-23" d="M131.14,93.68v4h-4v-4h4m-6-2v8h8v-8Z"/><path class="cls-23" d="M141.14,96.68v4h-4v-4h4m-6-2v8h8v-8Z"/><path class="cls-23" d="M131.14,105.68v4h-4v-4h4m-6-2v8h8v-8Z"/><path class="cls-23" d="M145.14,99.68v6h-6v6h-6v8h20v-20Zm-4,8h4v4h-4Zm-2,10h-4v-4h4Zm6,0h-4v-4h4Zm6,0h-4v-4h4Zm0-6h-4v-4h4Zm-4-6v-4h4v4Z"/><path class="cls-23" d="M149.14,172.77h-20a2,2,0,0,1-2-2v-14a2,2,0,0,1,2-2h20a2,2,0,0,1,2,2v14A2,2,0,0,1,149.14,172.77Zm-20-16v14h20v-14Z"/><rect class="cls-23" x="125.14" y="174.77" width="28" height="2"/><rect class="cls-23" x="137.17" y="165.99" width="7.78" height="1.11"/><polygon class="cls-23" points="133.37 166.55 131.94 167.98 132.72 168.77 134.95 166.55 132.72 164.32 131.94 165.11 133.37 166.55"/><rect class="cls-23" x="137.17" y="160.44" width="7.78" height="1.11"/><polygon class="cls-23" points="133.37 160.99 131.94 162.43 132.72 163.21 134.95 160.99 132.72 158.77 131.94 159.55 133.37 160.99"/><text class="cls-25" transform="translate(122.52 133.44)">D<tspan class="cls-26" x="6.71" y="0">ev</tspan><tspan class="cls-27" x="16.96" y="0">ops</tspan></text><text class="cls-25" transform="translate(111.26 73.47)">Applications</text><text class="cls-25" transform="translate(131.53 190.54)">CLI</text><line class="cls-1" x1="189.98" y1="31.26" x2="189.98" y2="32.76"/><line class="cls-28" x1="189.98" y1="35.79" x2="189.98" y2="312.8"/><line class="cls-1" x1="189.98" y1="314.32" x2="189.98" y2="315.82"/><line class="cls-1" x1="151.14" y1="164.33" x2="173.4" y2="164.33"/><line class="cls-1" x1="154.05" y1="45.58" x2="173.4" y2="45.58"/><line class="cls-1" x1="173.4" y1="164.33" x2="173.4" y2="45.58"/><line class="cls-2" x1="173.4" y1="255.52" x2="173.4" y2="194.48"/><line class="cls-1" x1="173.4" y1="194.48" x2="197.82" y2="194.48"/><polygon class="cls-3" points="195.99 200.71 206.79 194.48 195.99 188.25 195.99 200.71"/><line class="cls-1" x1="424.58" y1="194.48" x2="424.58" y2="182.46"/><polygon class="cls-3" points="430.81 184.28 424.58 173.49 418.34 184.28 430.81 184.28"/><line class="cls-1" x1="153.14" y1="109.68" x2="173.4" y2="109.68"/><rect class="cls-1" x="211.45" y="276.21" width="126.02" height="33.6"/><text class="cls-6" transform="translate(237.23 289.44)">Hyper <tspan class="cls-13" x="35.26" y="0">P</tspan><tspan class="cls-12" x="42.41" y="0">r</tspan><tspan x="46.75" y="0">o</tspan><tspan class="cls-7" x="53.47" y="0">t</tspan><tspan x="57.64" y="0">ect</tspan><tspan x="-4.74" y="14.4">C</tspan><tspan class="cls-29" x="2.71" y="14.4">r</tspan><tspan x="7.24" y="14.4">y</tspan><tspan class="cls-14" x="13.22" y="14.4">p</tspan><tspan class="cls-7" x="20.11" y="14.4">t</tspan><tspan class="cls-17" x="24.28" y="14.4">o Se</tspan><tspan class="cls-29" x="47.39" y="14.4">r</tspan><tspan x="51.91" y="14.4">vi</tspan><tspan class="cls-9" x="60.81" y="14.4">c</tspan><tspan class="cls-10" x="66.78" y="14.4">es</tspan></text><line class="cls-1" x1="139.13" y1="251.6" x2="139.13" y2="216.67"/><polygon class="cls-3" points="145.37 218.5 139.13 207.7 132.9 218.5 145.37 218.5"/></g></svg>