<svg xmlns="http://www.w3.org/2000/svg" width="835" height="299.2485" viewBox="0 0 835 299.2485"><defs><style>.cls-1{fill:#fff;}.cls-2,.cls-3{fill:none;stroke:#000;stroke-miterlimit:10;}.cls-2{stroke-linecap:round;}.cls-4{fill:#d0e2ff;}.cls-5{fill:#defbe6;}.cls-6{fill:#e8daff;}.cls-7{fill:#ffb3b8;}.cls-8{fill:#a6c8ff;}</style></defs><g id="Translatable_text" data-name="Translatable text"><rect class="cls-1" x="256.503" y="112.2126" width="9.2121" height="6.2801"/><path d="M261.2151,102.9777a2.8125,2.8125,0,1,1-2.8125,2.8125,2.8125,2.8125,0,0,1,2.8125-2.8125m0-1.125a3.9375,3.9375,0,1,0,3.9375,3.9375A3.9375,3.9375,0,0,0,261.2151,101.8527Z"/><path d="M266.84,117.6027h-1.125V114.79a2.8125,2.8125,0,0,0-2.8125-2.8125h-3.375a2.8125,2.8125,0,0,0-2.8125,2.8125v2.8125H255.59V114.79a3.9375,3.9375,0,0,1,3.9375-3.9375h3.375A3.9375,3.9375,0,0,1,266.84,114.79Z"/><rect class="cls-1" x="238.2594" y="112.2126" width="9.2121" height="6.2801"/><path d="M242.9715,102.9777a2.8125,2.8125,0,1,1-2.8125,2.8125,2.8125,2.8125,0,0,1,2.8125-2.8125m0-1.125a3.9375,3.9375,0,1,0,3.9375,3.9375A3.9375,3.9375,0,0,0,242.9715,101.8527Z"/><path d="M248.5965,117.6027h-1.125V114.79a2.8125,2.8125,0,0,0-2.8125-2.8125h-3.375a2.8125,2.8125,0,0,0-2.8125,2.8125v2.8125h-1.125V114.79a3.9375,3.9375,0,0,1,3.9375-3.9375h3.375a3.9375,3.9375,0,0,1,3.9375,3.9375Z"/><rect class="cls-1" x="248.0511" y="113.5166" width="9.2265" height="6.2801"/><path d="M252.5511,104.1027a2.8125,2.8125,0,1,1-2.8125,2.8125,2.8125,2.8125,0,0,1,2.8125-2.8125m0-1.125a3.9375,3.9375,0,1,0,3.9375,3.9375A3.9375,3.9375,0,0,0,252.5511,102.9777Z"/><path d="M258.1761,118.7277h-1.125v-2.8125a2.8125,2.8125,0,0,0-2.8125-2.8125h-3.375a2.8125,2.8125,0,0,0-2.8125,2.8125v2.8125h-1.125v-2.8125a3.9375,3.9375,0,0,1,3.9375-3.9375h3.375a3.9374,3.9374,0,0,1,3.9375,3.9375Z"/><path d="M276.1227,89.511a6.9515,6.9515,0,0,1,6.9436,6.9436v20.7071a6.9515,6.9515,0,0,1-6.9436,6.9436h-48.48a6.9515,6.9515,0,0,1-6.9437-6.9436V96.4546a6.9515,6.9515,0,0,1,6.9437-6.9436h48.48m0-.733h-48.48a7.6766,7.6766,0,0,0-7.6766,7.6766v20.7071a7.6766,7.6766,0,0,0,7.6766,7.6766h48.48a7.6766,7.6766,0,0,0,7.6766-7.6766V96.4546a7.6766,7.6766,0,0,0-7.6766-7.6766Z"/><polygon points="319.646 120.664 306.2 107.373 319.646 94.082 322.814 97.205 312.536 107.373 322.814 117.54 319.646 120.664"/><path d="M360.47,208.7247v-4.8965a6.5287,6.5287,0,0,0-13.0573,0v4.8965a3.2684,3.2684,0,0,0-3.2643,3.2643v9.7929a3.2685,3.2685,0,0,0,3.2643,3.2643H360.47a3.2685,3.2685,0,0,0,3.2643-3.2643V211.989A3.2684,3.2684,0,0,0,360.47,208.7247Zm-9.793-4.8965a3.2643,3.2643,0,1,1,6.5286,0v4.8965h-6.5286Zm-3.2643,17.9537V211.989H360.47l.0019,9.7929Z"/><path d="M355.9885,232.2906v-1.6321h-3.2643v1.6321a11.4251,11.4251,0,0,0,11.4251,11.4251h4.8964v-3.2643h-4.8964A8.1608,8.1608,0,0,1,355.9885,232.2906Z"/><path d="M391.0269,234.7389v-4.8965a6.5113,6.5113,0,0,0-12.995-.6169c.3612.16.7257.3127,1.0867.4731.173.0768,1.0253.4558,2.0608.9228h.0546v-.7791a3.2643,3.2643,0,0,1,6.5286,0v4.8965H381.234v-.0218c-.6731.0029-1.3462.0162-2.0192.0168-.1341,0-.6259.0051-1.2886.0094a3.266,3.266,0,0,0-3.2208,3.26v9.7929A3.2684,3.2684,0,0,0,377.97,251.06h13.0572a3.2684,3.2684,0,0,0,3.2643-3.2643v-9.7929A3.2684,3.2684,0,0,0,391.0269,234.7389ZM377.97,247.7961v-9.7929h13.0572l.002,9.7929Z"/><path d="M376.0547,215.1252l-2.04-8.376h1.0674l.9,4.0318.6963,3.1323h.0234l.78-3.1323,1.0556-4.0318h1.1524l1.0195,4.0318.78,3.12h.0361l.72-3.12.9483-4.0318h1.0322l-2.1484,8.376h-1.1153l-1.0927-4.1758-.7676-3.0722h-.0244l-.792,3.0722-1.1153,4.1758Z"/><path d="M385.3663,215.1252v-6.1919h.9609v1.14h.06a1.8745,1.8745,0,0,1,.6-.7925,1.8453,1.8453,0,0,1,1.1884-.3477h.3721v.96h-.5644a2.1694,2.1694,0,0,0-1.2178.2939.8666.8666,0,0,0-.4375.7378v4.2Z"/><path d="M390.25,207.4812a.5866.5866,0,0,1-.45-.15.5544.5544,0,0,1-.1377-.39v-.1557a.5544.5544,0,0,1,.1377-.39.751.751,0,0,1,.9,0,.5544.5544,0,0,1,.1377.39v.1557a.5544.5544,0,0,1-.1377.39A.5866.5866,0,0,1,390.25,207.4812Zm-.48,1.4521h.9609v6.1919H389.77Z"/><path d="M394.1377,215.1252a.9822.9822,0,0,1-.7617-.2812,1.0472,1.0472,0,0,1-.2578-.7364v-4.3222h-1.0205v-.8521h.5762a.564.564,0,0,0,.4257-.1259.6529.6529,0,0,0,.1143-.438V207.217h.8643v1.7163h1.3554v.8521h-1.3554v4.4878h1.26v.852Z"/><path d="M399.2618,215.2693a2.7772,2.7772,0,0,1-1.1455-.2281,2.4739,2.4739,0,0,1-.876-.6538,2.9981,2.9981,0,0,1-.5645-1.02,4.6188,4.6188,0,0,1,0-2.67,2.9909,2.9909,0,0,1,.5645-1.0259,2.4751,2.4751,0,0,1,.876-.6538,2.7788,2.7788,0,0,1,1.1455-.228,2.6366,2.6366,0,0,1,1.1162.227,2.469,2.469,0,0,1,.84.628,2.7922,2.7922,0,0,1,.5342.9506,3.7523,3.7523,0,0,1,.1865,1.2081v.4541h-4.4521v.288a2.1215,2.1215,0,0,0,.1259.7383,1.76,1.76,0,0,0,.3594.5938,1.657,1.657,0,0,0,.5762.396,1.9776,1.9776,0,0,0,.7744.144,1.8817,1.8817,0,0,0,1.0254-.2759,1.8136,1.8136,0,0,0,.6787-.792l.6836.4952a2.3882,2.3882,0,0,1-.9355,1.0322A2.8264,2.8264,0,0,1,399.2618,215.2693Zm0-5.6763a1.8226,1.8226,0,0,0-.72.1377,1.6135,1.6135,0,0,0-.5576.3872,1.8155,1.8155,0,0,0-.3662.59,2.0448,2.0448,0,0,0-.1318.7456v.0835h3.42v-.1313a1.8847,1.8847,0,0,0-.45-1.3179A1.5357,1.5357,0,0,0,399.2618,209.593Z"/><path d="M403.5215,215.1252v-6.1919h.961v1.14h.0595a1.8753,1.8753,0,0,1,.6-.7925,1.8456,1.8456,0,0,1,1.1885-.3477h.3721v.96h-.5645a2.1693,2.1693,0,0,0-1.2177.2939.8666.8666,0,0,0-.4375.7378v4.2Z"/><path d="M388.3924,117.7822v-4.8965a6.5286,6.5286,0,1,0-13.0572,0v4.8965a3.2683,3.2683,0,0,0-3.2643,3.2643v9.7929a3.2684,3.2684,0,0,0,3.2643,3.2643h13.0572a3.2684,3.2684,0,0,0,3.2643-3.2643v-9.7929A3.2684,3.2684,0,0,0,388.3924,117.7822ZM378.6,112.8857a3.2643,3.2643,0,1,1,6.5286,0v4.8965H378.6Zm-3.2643,17.9537v-9.7929h13.0572l.0019,9.7929Z"/><path d="M357.6078,92.0669V87.1705a6.5286,6.5286,0,1,0-13.0572,0v4.8964a3.2684,3.2684,0,0,0-3.2643,3.2643v9.7929a3.2683,3.2683,0,0,0,3.2643,3.2643h13.0572a3.2684,3.2684,0,0,0,3.2643-3.2643V95.3312A3.2684,3.2684,0,0,0,357.6078,92.0669Zm-9.7929-4.8964a3.2643,3.2643,0,0,1,6.5286,0v4.8964h-6.5286Zm-3.2643,17.9536V95.3312h13.0572l.0019,9.7929Z"/><path d="M353.1268,115.6329v-1.6321h-3.2643v1.6321a11.4251,11.4251,0,0,0,11.4251,11.4251h4.8965v-3.2643h-4.8965A8.1608,8.1608,0,0,1,353.1268,115.6329Z"/><path d="M373.4444,98.4675h-1.0078v-8.376h3.3359a2.3424,2.3424,0,0,1,1.7217.6118,2.3746,2.3746,0,0,1,.6181,1.7642,2.5472,2.5472,0,0,1-.4257,1.5181,2.0431,2.0431,0,0,1-1.2539.7861l1.92,3.6958H377.212l-1.8116-3.6h-1.956Zm2.3281-4.4639a1.3005,1.3005,0,0,0,.93-.312,1.1645,1.1645,0,0,0,.33-.8882v-.624a1.1641,1.1641,0,0,0-.33-.8877,1.3005,1.3005,0,0,0-.93-.312h-2.3281v3.0239Z"/><path d="M382.168,98.6116a2.7776,2.7776,0,0,1-1.1455-.2281,2.4757,2.4757,0,0,1-.876-.6538,2.9988,2.9988,0,0,1-.5644-1.02,4.6165,4.6165,0,0,1,0-2.67,2.9907,2.9907,0,0,1,.5644-1.0259,2.4769,2.4769,0,0,1,.876-.6538,2.7775,2.7775,0,0,1,1.1455-.228,2.6363,2.6363,0,0,1,1.1162.227,2.47,2.47,0,0,1,.84.628,2.79,2.79,0,0,1,.5341.9506,3.7493,3.7493,0,0,1,.1866,1.208v.4541h-4.4522v.2881a2.1192,2.1192,0,0,0,.126.7383,1.7611,1.7611,0,0,0,.3594.5938,1.6557,1.6557,0,0,0,.5761.396,1.98,1.98,0,0,0,.7745.144,1.8811,1.8811,0,0,0,1.0253-.2759,1.815,1.815,0,0,0,.6788-.792l.6836.4951a2.3887,2.3887,0,0,1-.9356,1.0323A2.826,2.826,0,0,1,382.168,98.6116Zm0-5.6763a1.8218,1.8218,0,0,0-.72.1377,1.6126,1.6126,0,0,0-.5576.3872,1.8121,1.8121,0,0,0-.3662.59,2.0448,2.0448,0,0,0-.1319.7456V94.88h3.42v-.1313a1.8846,1.8846,0,0,0-.45-1.3179A1.5357,1.5357,0,0,0,382.168,92.9353Z"/><path d="M390.9278,98.4675a.9426.9426,0,0,1-.7735-.2881,1.4258,1.4258,0,0,1-.2939-.72H389.8a1.5979,1.5979,0,0,1-.6718.8638,2.0868,2.0868,0,0,1-1.1162.2881,2.17,2.17,0,0,1-1.5293-.504,1.7692,1.7692,0,0,1-.5459-1.3681,1.5619,1.5619,0,0,1,.6416-1.3438,3.4133,3.4133,0,0,1,1.998-.4682H389.8v-.6118a1.3383,1.3383,0,0,0-.3593-1.0083,1.5374,1.5374,0,0,0-1.1045-.3477,1.6605,1.6605,0,0,0-.9414.2519,2.0777,2.0777,0,0,0-.63.6719l-.5762-.54a2.184,2.184,0,0,1,.8037-.8579,2.5333,2.5333,0,0,1,1.3916-.354,2.56,2.56,0,0,1,1.752.5508,1.9372,1.9372,0,0,1,.624,1.5327v3.4h.708v.852Zm-2.76-.6719a2.4365,2.4365,0,0,0,.66-.084,1.6119,1.6119,0,0,0,.5156-.24,1.1852,1.1852,0,0,0,.3369-.36.8667.8667,0,0,0,.1191-.4439v-1.02h-1.2714a2.3267,2.3267,0,0,0-1.2061.24.7756.7756,0,0,0-.3779.6963v.252a.8374.8374,0,0,0,.33.708A1.4368,1.4368,0,0,0,388.168,97.7956Z"/><path d="M396.7969,97.4709h-.0488a1.8888,1.8888,0,0,1-1.8115,1.1407,2.3525,2.3525,0,0,1-1.044-.2281,2.2555,2.2555,0,0,1-.7978-.6479,2.9425,2.9425,0,0,1-.5039-1.02,5.2543,5.2543,0,0,1,0-2.688,2.9474,2.9474,0,0,1,.5039-1.02,2.262,2.262,0,0,1,.7978-.6479,2.3525,2.3525,0,0,1,1.044-.228,2.1106,2.1106,0,0,1,1.11.2793,1.7417,1.7417,0,0,1,.7012.8613h.0488V89.5876h.96v8.88h-.96ZM395.2,97.76a2.235,2.235,0,0,0,.6182-.0845,1.5387,1.5387,0,0,0,.51-.247,1.2,1.2,0,0,0,.3418-.398,1.11,1.11,0,0,0,.1269-.5371V94.1775a.9461.9461,0,0,0-.1269-.4766,1.19,1.19,0,0,0-.3418-.38,1.7188,1.7188,0,0,0-.51-.247,2.1,2.1,0,0,0-.6182-.09,1.6527,1.6527,0,0,0-1.2841.5127,1.9171,1.9171,0,0,0-.4678,1.3447v1.0611a1.9191,1.9191,0,0,0,.4678,1.3452A1.6541,1.6541,0,0,0,395.2,97.76Z"/><path d="M402.1241,98.6116a2.7772,2.7772,0,0,1-1.1455-.2281,2.4739,2.4739,0,0,1-.876-.6538,2.999,2.999,0,0,1-.5645-1.02,4.6188,4.6188,0,0,1,0-2.67,2.9909,2.9909,0,0,1,.5645-1.0259,2.4751,2.4751,0,0,1,.876-.6538,2.7772,2.7772,0,0,1,1.1455-.228,2.6366,2.6366,0,0,1,1.1162.227,2.469,2.469,0,0,1,.84.628,2.79,2.79,0,0,1,.5342.9506,3.7521,3.7521,0,0,1,.1865,1.208v.4541h-4.4521v.2881a2.1215,2.1215,0,0,0,.1259.7383,1.7627,1.7627,0,0,0,.3594.5938,1.657,1.657,0,0,0,.5762.396,1.9794,1.9794,0,0,0,.7744.144,1.8817,1.8817,0,0,0,1.0254-.2759,1.8141,1.8141,0,0,0,.6787-.792l.6836.4951a2.3884,2.3884,0,0,1-.9355,1.0323A2.8262,2.8262,0,0,1,402.1241,98.6116Zm0-5.6763a1.8226,1.8226,0,0,0-.72.1377,1.6135,1.6135,0,0,0-.5576.3872,1.8155,1.8155,0,0,0-.3662.59,2.0448,2.0448,0,0,0-.1318.7456V94.88h3.42v-.1313a1.8846,1.8846,0,0,0-.45-1.3179A1.5357,1.5357,0,0,0,402.1241,92.9353Z"/><path d="M406.3838,98.4675V92.2756h.961v1.14h.0595a1.8753,1.8753,0,0,1,.6-.7925,1.845,1.845,0,0,1,1.1885-.3477h.3721v.96H409a2.1693,2.1693,0,0,0-1.2177.2939.8666.8666,0,0,0-.4375.7378v4.2Z"/><path d="M124.633,38.9835a5,5,0,1,1-5,5,5,5,0,0,1,5-5m0-2a7,7,0,1,0,7,7A7,7,0,0,0,124.633,36.9835Z"/><path d="M134.633,64.9835h-2v-5a5,5,0,0,0-5-5h-6a5,5,0,0,0-5,5v5h-2v-5a7,7,0,0,1,7-7h6a7,7,0,0,1,7,7Z"/><path d="M124.633,94.8081a5,5,0,1,1-5,5,5,5,0,0,1,5-5m0-2a7,7,0,1,0,7,7A7,7,0,0,0,124.633,92.8081Z"/><path d="M134.633,120.8081h-2v-5a5,5,0,0,0-5-5h-6a5,5,0,0,0-5,5v5h-2v-5a7,7,0,0,1,7-7h6a7,7,0,0,1,7,7Z"/><path d="M124.633,150.6327a5,5,0,1,1-5,5,5,5,0,0,1,5-5m0-2a7,7,0,1,0,7,7A7,7,0,0,0,124.633,148.6327Z"/><path d="M134.633,176.6327h-2v-5a5,5,0,0,0-5-5h-6a5,5,0,0,0-5,5v5h-2v-5a7,7,0,0,1,7-7h6a7,7,0,0,1,7,7Z"/><path d="M124.633,206.4573a5,5,0,1,1-5,5,5,5,0,0,1,5-5m0-2a7,7,0,1,0,7,7A7,7,0,0,0,124.633,204.4573Z"/><path d="M134.633,232.4573h-2v-5a5,5,0,0,0-5-5h-6a5,5,0,0,0-5,5v5h-2v-5a7,7,0,0,1,7-7h6a7,7,0,0,1,7,7Z"/><path d="M124.633,262.2819a5,5,0,1,1-5,5,5,5,0,0,1,5-5m0-2a7,7,0,1,0,7,7A7,7,0,0,0,124.633,260.2819Z"/><path d="M134.633,288.2819h-2v-5a5,5,0,0,0-5-5h-6a5,5,0,0,0-5,5v5h-2v-5a7,7,0,0,1,7-7h6a7,7,0,0,1,7,7Z"/><rect class="cls-1" x="650.0254" y="36.5158" width="74.0303" height="19.5684" rx="1.2598"/><path d="M722.7959,37.0159a.7606.7606,0,0,1,.76.76V54.8243a.7606.7606,0,0,1-.76.76h-71.511a.7606.7606,0,0,1-.76-.76V37.7756a.7606.7606,0,0,1,.76-.76h71.511m0-1h-71.511a1.76,1.76,0,0,0-1.76,1.76V54.8243a1.76,1.76,0,0,0,1.76,1.76h71.511a1.76,1.76,0,0,0,1.76-1.76V37.7756a1.76,1.76,0,0,0-1.76-1.76Z"/><line class="cls-2" x1="661.6918" y1="50.1235" x2="669.7073" y2="42.108"/><line class="cls-2" x1="669.7073" y1="50.1235" x2="661.6918" y2="42.108"/><line class="cls-2" x1="676.5886" y1="50.3077" x2="684.6041" y2="42.2922"/><line class="cls-2" x1="684.6041" y1="50.3077" x2="676.5886" y2="42.2922"/><line class="cls-2" x1="691.1324" y1="49.98" x2="699.1479" y2="41.9645"/><line class="cls-2" x1="699.1479" y1="49.98" x2="691.1324" y2="41.9645"/><line class="cls-2" x1="705.6259" y1="49.98" x2="713.6414" y2="41.9645"/><line class="cls-2" x1="713.6414" y1="49.98" x2="705.6259" y2="41.9645"/><rect class="cls-1" x="650.0254" y="93.3415" width="74.0303" height="19.5684" rx="1.2598"/><path d="M722.7959,93.8416a.7606.7606,0,0,1,.76.76V111.65a.7606.7606,0,0,1-.76.76h-71.511a.7606.7606,0,0,1-.76-.76V94.6014a.7606.7606,0,0,1,.76-.76h71.511m0-1h-71.511a1.76,1.76,0,0,0-1.76,1.76V111.65a1.76,1.76,0,0,0,1.76,1.76h71.511a1.76,1.76,0,0,0,1.76-1.76V94.6014a1.76,1.76,0,0,0-1.76-1.76Z"/><line class="cls-2" x1="661.6918" y1="106.9493" x2="669.7073" y2="98.9338"/><line class="cls-2" x1="669.7073" y1="106.9493" x2="661.6918" y2="98.9338"/><line class="cls-2" x1="676.5886" y1="107.1335" x2="684.6041" y2="99.1179"/><line class="cls-2" x1="684.6041" y1="107.1335" x2="676.5886" y2="99.1179"/><line class="cls-2" x1="691.1324" y1="106.8058" x2="699.1479" y2="98.7903"/><line class="cls-2" x1="699.1479" y1="106.8058" x2="691.1324" y2="98.7903"/><line class="cls-2" x1="705.6259" y1="106.8058" x2="713.6414" y2="98.7903"/><line class="cls-2" x1="713.6414" y1="106.8058" x2="705.6259" y2="98.7903"/><rect class="cls-1" x="650.0254" y="150.1672" width="74.0303" height="19.5684" rx="1.2598"/><path d="M722.7959,150.6674a.7606.7606,0,0,1,.76.76v17.0487a.7606.7606,0,0,1-.76.76h-71.511a.7606.7606,0,0,1-.76-.76V151.4271a.7606.7606,0,0,1,.76-.76h71.511m0-1h-71.511a1.76,1.76,0,0,0-1.76,1.76v17.0487a1.76,1.76,0,0,0,1.76,1.76h71.511a1.76,1.76,0,0,0,1.76-1.76V151.4271a1.76,1.76,0,0,0-1.76-1.76Z"/><line class="cls-2" x1="661.6918" y1="163.7751" x2="669.7073" y2="155.7596"/><line class="cls-2" x1="669.7073" y1="163.7751" x2="661.6918" y2="155.7596"/><line class="cls-2" x1="676.5886" y1="163.9592" x2="684.6041" y2="155.9437"/><line class="cls-2" x1="684.6041" y1="163.9592" x2="676.5886" y2="155.9437"/><line class="cls-2" x1="691.1324" y1="163.6315" x2="699.1479" y2="155.616"/><line class="cls-2" x1="699.1479" y1="163.6315" x2="691.1324" y2="155.616"/><line class="cls-2" x1="705.6259" y1="163.6315" x2="713.6414" y2="155.616"/><line class="cls-2" x1="713.6414" y1="163.6315" x2="705.6259" y2="155.616"/><rect class="cls-1" x="650.0254" y="206.9934" width="74.0303" height="19.5679" rx="1.2598"/><path d="M722.7959,207.4932a.7606.7606,0,0,1,.76.76v17.0487a.7606.7606,0,0,1-.76.76h-71.511a.7606.7606,0,0,1-.76-.76V208.2529a.7606.7606,0,0,1,.76-.76h71.511m0-1h-71.511a1.76,1.76,0,0,0-1.76,1.76v17.0487a1.76,1.76,0,0,0,1.76,1.76h71.511a1.76,1.76,0,0,0,1.76-1.76V208.2529a1.76,1.76,0,0,0-1.76-1.76Z"/><line class="cls-2" x1="661.6918" y1="220.6009" x2="669.7073" y2="212.5854"/><line class="cls-2" x1="669.7073" y1="220.6009" x2="661.6918" y2="212.5854"/><line class="cls-2" x1="676.5886" y1="220.785" x2="684.6041" y2="212.7695"/><line class="cls-2" x1="684.6041" y1="220.785" x2="676.5886" y2="212.7695"/><line class="cls-2" x1="691.1324" y1="220.4573" x2="699.1479" y2="212.4418"/><line class="cls-2" x1="699.1479" y1="220.4573" x2="691.1324" y2="212.4418"/><line class="cls-2" x1="705.6259" y1="220.4573" x2="713.6414" y2="212.4418"/><line class="cls-2" x1="713.6414" y1="220.4573" x2="705.6259" y2="212.4418"/><rect class="cls-1" x="650.0254" y="263.8191" width="74.0303" height="19.5679" rx="1.2598"/><path d="M722.7959,264.319a.7606.7606,0,0,1,.76.76v17.0487a.7606.7606,0,0,1-.76.76h-71.511a.7606.7606,0,0,1-.76-.76V265.0787a.7606.7606,0,0,1,.76-.76h71.511m0-1h-71.511a1.76,1.76,0,0,0-1.76,1.76v17.0487a1.76,1.76,0,0,0,1.76,1.76h71.511a1.76,1.76,0,0,0,1.76-1.76V265.0787a1.76,1.76,0,0,0-1.76-1.76Z"/><line class="cls-2" x1="661.6918" y1="277.4266" x2="669.7073" y2="269.4111"/><line class="cls-2" x1="669.7073" y1="277.4266" x2="661.6918" y2="269.4111"/><line class="cls-2" x1="676.5886" y1="277.6108" x2="684.6041" y2="269.5953"/><line class="cls-2" x1="684.6041" y1="277.6108" x2="676.5886" y2="269.5953"/><line class="cls-2" x1="691.1324" y1="277.2831" x2="699.1479" y2="269.2676"/><line class="cls-2" x1="699.1479" y1="277.2831" x2="691.1324" y2="269.2676"/><line class="cls-2" x1="705.6259" y1="277.2831" x2="713.6414" y2="269.2676"/><line class="cls-2" x1="713.6414" y1="277.2831" x2="705.6259" y2="269.2676"/><rect class="cls-1" x="485.6426" y="90.7331" width="74.0303" height="19.5679" rx="1.2598"/><path d="M558.4136,91.2331a.7606.7606,0,0,1,.76.76v17.0487a.7606.7606,0,0,1-.76.76h-71.511a.76.76,0,0,1-.76-.76V91.9928a.76.76,0,0,1,.76-.76h71.511m0-1h-71.511a1.76,1.76,0,0,0-1.76,1.76v17.0487a1.76,1.76,0,0,0,1.76,1.76h71.511a1.76,1.76,0,0,0,1.76-1.76V91.9928a1.76,1.76,0,0,0-1.76-1.76Z"/><line class="cls-2" x1="497.3096" y1="104.3408" x2="505.3251" y2="96.3253"/><line class="cls-2" x1="505.3251" y1="104.3408" x2="497.3096" y2="96.3253"/><line class="cls-2" x1="512.2063" y1="104.5249" x2="520.2218" y2="96.5094"/><line class="cls-2" x1="520.2218" y1="104.5249" x2="512.2063" y2="96.5094"/><line class="cls-2" x1="526.7502" y1="104.1972" x2="534.7657" y2="96.1817"/><line class="cls-2" x1="534.7657" y1="104.1972" x2="526.7502" y2="96.1817"/><line class="cls-2" x1="541.2436" y1="104.1972" x2="549.2591" y2="96.1817"/><line class="cls-2" x1="549.2591" y1="104.1972" x2="541.2436" y2="96.1817"/><rect class="cls-1" x="479.9893" y="96.1096" width="74.0303" height="19.5679" rx="1.2598"/><path d="M552.76,96.6094a.7606.7606,0,0,1,.76.76v17.0487a.7606.7606,0,0,1-.76.76h-71.511a.7606.7606,0,0,1-.76-.76V97.3691a.7606.7606,0,0,1,.76-.76H552.76m0-1h-71.511a1.76,1.76,0,0,0-1.76,1.76v17.0487a1.76,1.76,0,0,0,1.76,1.76H552.76a1.76,1.76,0,0,0,1.76-1.76V97.3691a1.76,1.76,0,0,0-1.76-1.76Z"/><line class="cls-2" x1="491.6556" y1="109.717" x2="499.6711" y2="101.7015"/><line class="cls-2" x1="499.6711" y1="109.717" x2="491.6556" y2="101.7015"/><line class="cls-2" x1="506.5523" y1="109.9012" x2="514.5678" y2="101.8857"/><line class="cls-2" x1="514.5678" y1="109.9012" x2="506.5523" y2="101.8857"/><line class="cls-2" x1="521.0961" y1="109.5735" x2="529.1117" y2="101.558"/><line class="cls-2" x1="529.1117" y1="109.5735" x2="521.0961" y2="101.558"/><line class="cls-2" x1="535.5896" y1="109.5735" x2="543.6051" y2="101.558"/><line class="cls-2" x1="543.6051" y1="109.5735" x2="535.5896" y2="101.558"/><path class="cls-1" d="M474.8047,100.69H546.316a1.2593,1.2593,0,0,1,1.2593,1.2593v17.0488a1.26,1.26,0,0,1-1.26,1.26H474.8047a1.26,1.26,0,0,1-1.26-1.26V101.9494A1.26,1.26,0,0,1,474.8047,100.69Z"/><path d="M546.3155,101.19a.7606.7606,0,0,1,.76.76v17.0487a.7606.7606,0,0,1-.76.76H474.8046a.7606.7606,0,0,1-.76-.76V101.9492a.7606.7606,0,0,1,.76-.76h71.5109m0-1H474.8046a1.76,1.76,0,0,0-1.76,1.76v17.0487a1.76,1.76,0,0,0,1.76,1.76h71.5109a1.76,1.76,0,0,0,1.76-1.76V101.9492a1.76,1.76,0,0,0-1.76-1.76Z"/><line class="cls-2" x1="485.2115" y1="114.2971" x2="493.227" y2="106.2816"/><line class="cls-2" x1="493.227" y1="114.2971" x2="485.2115" y2="106.2816"/><line class="cls-2" x1="500.1082" y1="114.4813" x2="508.1237" y2="106.4658"/><line class="cls-2" x1="508.1237" y1="114.4813" x2="500.1082" y2="106.4658"/><line class="cls-2" x1="514.6521" y1="114.1536" x2="522.6676" y2="106.1381"/><line class="cls-2" x1="522.6676" y1="114.1536" x2="514.6521" y2="106.1381"/><line class="cls-2" x1="529.1455" y1="114.1536" x2="537.161" y2="106.1381"/><line class="cls-2" x1="537.161" y1="114.1536" x2="529.1455" y2="106.1381"/><polygon points="426.523 94.082 439.969 107.373 426.523 120.664 423.355 117.54 433.633 107.373 423.355 97.205 426.523 94.082"/><polygon points="319.646 237.471 306.2 224.18 319.646 210.889 322.814 214.012 312.536 224.18 322.814 234.348 319.646 237.471"/><rect class="cls-1" x="255.0375" y="227.707" width="9.2121" height="6.2801"/><path d="M259.75,218.4721a2.8125,2.8125,0,1,1-2.8125,2.8125,2.8125,2.8125,0,0,1,2.8125-2.8125m0-1.125a3.9375,3.9375,0,1,0,3.9375,3.9375A3.9375,3.9375,0,0,0,259.75,217.3471Z"/><path d="M265.3746,233.0971H264.25v-2.8125a2.8125,2.8125,0,0,0-2.8125-2.8125h-3.375a2.8125,2.8125,0,0,0-2.8125,2.8125v2.8125h-1.125v-2.8125a3.9375,3.9375,0,0,1,3.9375-3.9375h3.375a3.9375,3.9375,0,0,1,3.9375,3.9375Z"/><rect class="cls-1" x="236.7939" y="227.707" width="9.2121" height="6.2801"/><path d="M241.506,218.4721a2.8125,2.8125,0,1,1-2.8125,2.8125,2.8125,2.8125,0,0,1,2.8125-2.8125m0-1.125a3.9375,3.9375,0,1,0,3.9375,3.9375A3.9375,3.9375,0,0,0,241.506,217.3471Z"/><path d="M247.131,233.0971h-1.125v-2.8125a2.8125,2.8125,0,0,0-2.8125-2.8125h-3.375a2.8125,2.8125,0,0,0-2.8125,2.8125v2.8125h-1.125v-2.8125a3.9375,3.9375,0,0,1,3.9375-3.9375h3.375a3.9375,3.9375,0,0,1,3.9375,3.9375Z"/><rect class="cls-1" x="246.5857" y="229.0111" width="9.2265" height="6.2801"/><path d="M251.0857,219.5971a2.8125,2.8125,0,1,1-2.8125,2.8125,2.8125,2.8125,0,0,1,2.8125-2.8125m0-1.125a3.9375,3.9375,0,1,0,3.9375,3.9375A3.9375,3.9375,0,0,0,251.0857,218.4721Z"/><path d="M256.7107,234.2221h-1.125V231.41a2.8125,2.8125,0,0,0-2.8125-2.8125h-3.375a2.8125,2.8125,0,0,0-2.8125,2.8125v2.8125h-1.125V231.41a3.9375,3.9375,0,0,1,3.9375-3.9375h3.375a3.9375,3.9375,0,0,1,3.9375,3.9375Z"/><path d="M274.6572,205.0054a6.9515,6.9515,0,0,1,6.9436,6.9436v20.7071a6.9514,6.9514,0,0,1-6.9436,6.9436h-48.48a6.9514,6.9514,0,0,1-6.9436-6.9436V211.949a6.9515,6.9515,0,0,1,6.9436-6.9436h48.48m0-.733h-48.48a7.6766,7.6766,0,0,0-7.6766,7.6766v20.7071a7.6766,7.6766,0,0,0,7.6766,7.6766h48.48a7.6766,7.6766,0,0,0,7.6766-7.6766V211.949a7.6766,7.6766,0,0,0-7.6766-7.6766Z"/><polygon points="426.523 210.889 439.969 224.18 426.523 237.471 423.355 234.348 433.633 224.18 423.355 214.012 426.523 210.889"/><rect class="cls-1" x="479.9893" y="210.2283" width="74.0303" height="19.5684" rx="1.2598"/><path d="M552.76,210.7285a.7606.7606,0,0,1,.76.76v17.0487a.7606.7606,0,0,1-.76.76h-71.511a.7606.7606,0,0,1-.76-.76V211.4882a.7606.7606,0,0,1,.76-.76H552.76m0-1h-71.511a1.76,1.76,0,0,0-1.76,1.76v17.0487a1.76,1.76,0,0,0,1.76,1.76H552.76a1.76,1.76,0,0,0,1.76-1.76V211.4882a1.76,1.76,0,0,0-1.76-1.76Z"/><line class="cls-2" x1="491.6556" y1="223.8361" x2="499.6711" y2="215.8206"/><line class="cls-2" x1="499.6711" y1="223.8361" x2="491.6556" y2="215.8206"/><line class="cls-2" x1="506.5523" y1="224.0203" x2="514.5678" y2="216.0048"/><line class="cls-2" x1="514.5678" y1="224.0203" x2="506.5523" y2="216.0048"/><line class="cls-2" x1="521.0961" y1="223.6926" x2="529.1117" y2="215.6771"/><line class="cls-2" x1="529.1117" y1="223.6926" x2="521.0961" y2="215.6771"/><line class="cls-2" x1="535.5896" y1="223.6926" x2="543.6051" y2="215.6771"/><line class="cls-2" x1="543.6051" y1="223.6926" x2="535.5896" y2="215.6771"/><path class="cls-1" d="M474.8047,214.8088H546.316a1.2593,1.2593,0,0,1,1.2593,1.2593v17.0488a1.26,1.26,0,0,1-1.26,1.26H474.8047a1.26,1.26,0,0,1-1.26-1.26V216.0686A1.26,1.26,0,0,1,474.8047,214.8088Z"/><path d="M546.3155,215.3086a.7606.7606,0,0,1,.76.76V233.117a.7606.7606,0,0,1-.76.76H474.8046a.7606.7606,0,0,1-.76-.76V216.0683a.7606.7606,0,0,1,.76-.76h71.5109m0-1H474.8046a1.76,1.76,0,0,0-1.76,1.76V233.117a1.76,1.76,0,0,0,1.76,1.76h71.5109a1.76,1.76,0,0,0,1.76-1.76V216.0683a1.76,1.76,0,0,0-1.76-1.76Z"/><path d="M481.543,227.85v-2.4658l-2.1689-3.8164h.8632l.9,1.6382.7647,1.4311h.0361l.7832-1.4311.9-1.6382h.8457l-2.1689,3.8164V227.85Z"/><path d="M485.4307,227.85l-.4941-6.2822h.6748l.2607,3.6.1348,1.8989h.0722l.8282-3.8608h.8457l.8281,3.8608h.0723l.1347-1.8989.2608-3.6h.6572l-.4951,6.2822h-1.0889l-.7646-3.7529h-.0723l-.7647,3.7529Z"/><path d="M494.44,229.3259h-1.0527a.9551.9551,0,0,1-.7784-.2969,1.1535,1.1535,0,0,1-.248-.7646v-.333a1.7909,1.7909,0,0,1-.8233-.3106,1.9241,1.9241,0,0,1-.5712-.6572,3.2666,3.2666,0,0,1-.333-.981,7.54,7.54,0,0,1,.0175-2.646,2.9471,2.9471,0,0,1,.3965-1.0214,1.8385,1.8385,0,0,1,.6836-.6343,2.3319,2.3319,0,0,1,1.9805,0,1.8461,1.8461,0,0,1,.6836.6343,2.9645,2.9645,0,0,1,.3955,1.0214,6.79,6.79,0,0,1,.1269,1.3726,4.8774,4.8774,0,0,1-.4414,2.2544,1.7459,1.7459,0,0,1-1.3955.9678v.7832H494.44Zm-1.7188-2.0244a1.2768,1.2768,0,0,0,.6387-.1484,1.2316,1.2316,0,0,0,.4326-.419,1.9138,1.9138,0,0,0,.2471-.6523,4.417,4.417,0,0,0,.0762-.8594v-1.0259a4.4347,4.4347,0,0,0-.0762-.855,1.9215,1.9215,0,0,0-.2471-.6572,1.23,1.23,0,0,0-.4326-.4185,1.4506,1.4506,0,0,0-1.2783,0,1.2274,1.2274,0,0,0-.4316.4185,1.9013,1.9013,0,0,0-.2471.6572,4.3533,4.3533,0,0,0-.0772.855v1.0259a4.3363,4.3363,0,0,0,.0772.8594,1.8935,1.8935,0,0,0,.2471.6523,1.2289,1.2289,0,0,0,.4316.419A1.2832,1.2832,0,0,0,492.7207,227.3015Z"/><path d="M499.6241,223.2063h.72l-2.3037,5.6606a1.9776,1.9776,0,0,1-.18.3467.8989.8989,0,0,1-.2344.2432.9984.9984,0,0,1-.3242.1445,1.8365,1.8365,0,0,1-.45.0488h-.6836v-.6211h1.08l.5215-1.2685-1.8721-4.5542h.7383l.7832,1.9438.6933,1.7642h.0352l.6934-1.7642Z"/><path d="M502.2871,222.5315h-.0625V227.85H501.54v-6.2822h1.0713l2.1416,5.2651h.0634v-5.2651H505.5V227.85h-1.07Z"/><path d="M507.1387,229.029h2.25v-5.2016h-2.331v-.6211h3.0507v5.3823a1.1553,1.1553,0,0,1-.247.7647.9566.9566,0,0,1-.7784.2968h-1.9443Zm2.61-6.8486a.6019.6019,0,0,1-.4414-.13.4541.4541,0,0,1-.126-.3286v-.144a.4541.4541,0,0,1,.126-.3286.8106.8106,0,0,1,.8818,0,.4541.4541,0,0,1,.126.3286v.144a.4541.4541,0,0,1-.126.3286A.6.6,0,0,1,509.7491,222.18Z"/><path d="M515.4454,227.0945h-.0362a1.5052,1.5052,0,0,1-1.4306.8642,1.5809,1.5809,0,0,1-1.337-.6391,3.5725,3.5725,0,0,1,0-3.5821,1.58,1.58,0,0,1,1.337-.6391,1.5048,1.5048,0,0,1,1.4306.8637h.0362V221.19h.72v6.66h-.72Zm-1.1885.2251a1.6112,1.6112,0,0,0,.459-.0635,1.1448,1.1448,0,0,0,.3779-.1841.8931.8931,0,0,0,.2568-.2974.8437.8437,0,0,0,.0948-.4091v-1.6744a.8437.8437,0,0,0-.0948-.4091.8931.8931,0,0,0-.2568-.2974,1.1646,1.1646,0,0,0-.3779-.1841,1.6291,1.6291,0,0,0-.459-.063,1.2517,1.2517,0,0,0-.9766.3824,1.4523,1.4523,0,0,0-.3457,1.0126v.792a1.4511,1.4511,0,0,0,.3457,1.0122A1.25,1.25,0,0,0,514.2569,227.32Z"/><path d="M517.9659,221.19h.72v4.2031h.0361l.81-.7651,1.5478-1.4219h.8829l-1.9268,1.8178,2.1514,2.8262h-.8907l-1.8095-2.4121-.8008.729V227.85h-.72Z"/><path d="M527.3877,227.85h-4.5361v-.6748l3.5557-4.95h-3.4024v-.6572h4.2305v.6753l-3.5645,4.95h3.7168Z"/><path d="M528.7383,229.029h2.25v-5.2016h-2.331v-.6211h3.0507v5.3823a1.1553,1.1553,0,0,1-.247.7647.9565.9565,0,0,1-.7783.2968h-1.9444Zm2.61-6.8486a.602.602,0,0,1-.4414-.13.4541.4541,0,0,1-.126-.3286v-.144a.4541.4541,0,0,1,.126-.3286.8106.8106,0,0,1,.8818,0,.4541.4541,0,0,1,.126.3286v.144a.4541.4541,0,0,1-.126.3286A.6.6,0,0,1,531.3487,222.18Z"/><path d="M537.3145,224.7v-1.9892h-.0713l-1.3232,3.2309-1.3233-3.2309h-.0722V227.85h-.6924v-6.2822h.9717l1.1074,2.7725h.0537l1.1064-2.7725h.9366V227.85h-.6934Z"/><line class="cls-3" x1="134.633" y1="283.2819" x2="206.6897" y2="239.629"/><polygon points="208.025 244.65 212.827 235.911 202.858 236.12 208.025 244.65"/><line class="cls-3" x1="132.5765" y1="223.5356" x2="205.6512" y2="223.5356"/><polygon points="204.192 228.522 212.827 223.536 204.192 218.549 204.192 228.522"/><line class="cls-3" x1="134.633" y1="171.6327" x2="206.6012" y2="212.8774"/><polygon points="202.856 216.478 212.827 216.446 207.815 207.826 202.856 216.478"/><line class="cls-3" x1="132.5765" y1="112.7535" x2="205.6512" y2="112.7535"/><polygon points="204.192 117.74 212.827 112.753 204.192 107.767 204.192 117.74"/><line class="cls-3" x1="134.633" y1="59.9836" x2="206.5038" y2="98.5435"/><polygon points="202.861 102.248 212.827 101.936 207.576 93.46 202.861 102.248"/><line class="cls-3" x1="649.5252" y1="46.2999" x2="573.9686" y2="89.1603"/><polygon points="572.777 84.103 567.727 92.701 577.698 92.778 572.777 84.103"/><line class="cls-3" x1="649.5252" y1="104.9741" x2="574.903" y2="104.9741"/><polygon points="576.362 99.988 567.727 104.974 576.362 109.96 576.362 99.988"/><line class="cls-3" x1="649.5252" y1="161.3673" x2="573.9972" y2="119.3306"/><polygon points="577.697 115.683 567.727 115.841 572.847 124.397 577.697 115.683"/><line class="cls-3" x1="649.5252" y1="218.954" x2="574.903" y2="218.954"/><polygon points="576.362 213.968 567.727 218.954 576.362 223.94 576.362 213.968"/><line class="cls-3" x1="649.5252" y1="272.6718" x2="574.1144" y2="234.0636"/><polygon points="577.685 230.29 567.727 230.793 573.141 239.167 577.685 230.29"/><line class="cls-3" x1="133.3535" y1="167.6065" x2="206.6356" y2="124.674"/><polygon points="207.897 129.714 212.827 121.046 202.856 121.109 207.897 129.714"/><rect class="cls-4" x="100.7792" y="20.0663" width="87.1514" height="10.0662"/><rect class="cls-5" x="187.9307" y="20.0663" width="104.7248" height="10.0662"/><rect class="cls-6" x="292.8578" y="20.06" width="166.4189" height="10.0662"/><rect class="cls-7" x="459.4484" y="20.0663" width="160.2978" height="10.0662"/><rect class="cls-8" x="619.7463" y="20.0663" width="114.4745" height="10.0662"/><path d="M133.9331,6.6633v5.1924a3.1113,3.1113,0,0,0,.4439,1.8208,2.2764,2.2764,0,0,0,3.12,0,3.1113,3.1113,0,0,0,.4439-1.8208V6.6633h1.0083v4.9439a6.815,6.815,0,0,1-.1622,1.5839,2.7729,2.7729,0,0,1-.5219,1.1163,2.1482,2.1482,0,0,1-.9419.66,4.1188,4.1188,0,0,1-1.4219.2158,4.0134,4.0134,0,0,1-1.41-.2158,2.0676,2.0676,0,0,1-.918-.66,2.75,2.75,0,0,1-.4981-1.1163,7.3346,7.3346,0,0,1-.15-1.5839V6.6633Z"/><path d="M142.8848,15.1833a2.8932,2.8932,0,0,1-1.4458-.33,3.2777,3.2777,0,0,1-1.0019-.8819l.684-.5522a2.6877,2.6877,0,0,0,.8037.7021,2.0944,2.0944,0,0,0,1.0323.2461,1.5258,1.5258,0,0,0,.9536-.2641.9587.9587,0,0,0,.1084-1.3619,1.43,1.43,0,0,0-.8462-.354l-.4922-.0722a4.1234,4.1234,0,0,1-.792-.1861,2.2048,2.2048,0,0,1-.63-.3359,1.4467,1.4467,0,0,1-.42-.522,1.7013,1.7013,0,0,1-.15-.7441,1.7861,1.7861,0,0,1,.168-.7979,1.6,1.6,0,0,1,.4619-.57,2.0225,2.0225,0,0,1,.7021-.3423,3.2553,3.2553,0,0,1,.876-.1138,2.7318,2.7318,0,0,1,1.2661.2642,2.8334,2.8334,0,0,1,.8936.7319l-.6358.5757a1.9125,1.9125,0,0,0-.6-.5219,1.9349,1.9349,0,0,0-.9961-.2339,1.3751,1.3751,0,0,0-.9057.2578.8706.8706,0,0,0-.3062.7021.7352.7352,0,0,0,.3062.66,2.2835,2.2835,0,0,0,.8818.3l.48.0723a2.5764,2.5764,0,0,1,1.4644.5937,1.5635,1.5635,0,0,1,.4316,1.146,1.7537,1.7537,0,0,1-.6118,1.416A2.5253,2.5253,0,0,1,142.8848,15.1833Z"/><path d="M149.1973,15.1833a2.7786,2.7786,0,0,1-1.146-.228,2.468,2.468,0,0,1-.876-.6538,2.9979,2.9979,0,0,1-.5639-1.02,4.5942,4.5942,0,0,1,0-2.67,2.99,2.99,0,0,1,.5639-1.0259,2.4668,2.4668,0,0,1,.876-.6538,2.7786,2.7786,0,0,1,1.146-.2281,2.6341,2.6341,0,0,1,1.1157.2271,2.4807,2.4807,0,0,1,.84.6279,2.8008,2.8008,0,0,1,.5337.9507,3.7517,3.7517,0,0,1,.186,1.208v.4541h-4.4522v.2881a2.1079,2.1079,0,0,0,.1265.7383,1.745,1.745,0,0,0,.36.5937,1.6431,1.6431,0,0,0,.5756.396,1.9767,1.9767,0,0,0,.7745.1441,1.8828,1.8828,0,0,0,1.0258-.2759,1.813,1.813,0,0,0,.6778-.792l.6841.4951a2.3868,2.3868,0,0,1-.9361,1.0323A2.8211,2.8211,0,0,1,149.1973,15.1833Zm0-5.6762a1.8243,1.8243,0,0,0-.72.1377,1.624,1.624,0,0,0-.5581.3872,1.82,1.82,0,0,0-.3657.59,2.0344,2.0344,0,0,0-.1324.7456v.0835h3.42V11.32a1.8844,1.8844,0,0,0-.45-1.3178A1.5357,1.5357,0,0,0,149.1973,9.5071Z"/><path d="M153.4571,15.0393V8.8474h.96v1.14h.06a1.8724,1.8724,0,0,1,.6-.7925,1.8441,1.8441,0,0,1,1.188-.3476h.372v.96h-.5639a2.1692,2.1692,0,0,0-1.2183.2939.8672.8672,0,0,0-.438.7378v4.2Z"/><path d="M210.7369,15.04l-.84-2.4722h-3.3838l-.84,2.4722h-1.02l2.9282-8.376h1.2837l2.9282,8.376ZM208.229,7.6h-.06l-1.416,4.08h2.8921Z"/><path d="M215.3931,15.1838a2.854,2.854,0,0,1-1.1641-.228,2.3712,2.3712,0,0,1-.87-.648,2.8812,2.8812,0,0,1-.54-1.02,4.9487,4.9487,0,0,1,0-2.688,2.8864,2.8864,0,0,1,.54-1.02,2.3754,2.3754,0,0,1,.87-.6479,2.8524,2.8524,0,0,1,1.1641-.2281,2.4818,2.4818,0,0,1,1.4819.4019,2.4525,2.4525,0,0,1,.834,1.05l-.8042.4077a1.4613,1.4613,0,0,0-.5517-.7441,1.6583,1.6583,0,0,0-.96-.2637,1.9233,1.9233,0,0,0-.7563.1377,1.481,1.481,0,0,0-.54.3843,1.6112,1.6112,0,0,0-.3237.5879,2.471,2.471,0,0,0-.1079.75v1.0561a2.0083,2.0083,0,0,0,.438,1.3379,1.5877,1.5877,0,0,0,1.29.522,1.7408,1.7408,0,0,0,1.68-1.08l.6963.4682a2.4623,2.4623,0,0,1-.8941,1.0679A2.6135,2.6135,0,0,1,215.3931,15.1838Z"/><path d="M221.357,15.1838a2.8537,2.8537,0,0,1-1.1641-.228,2.37,2.37,0,0,1-.87-.648,2.8812,2.8812,0,0,1-.54-1.02,4.9462,4.9462,0,0,1,0-2.688,2.8864,2.8864,0,0,1,.54-1.02,2.3746,2.3746,0,0,1,.87-.6479,2.852,2.852,0,0,1,1.1641-.2281,2.4821,2.4821,0,0,1,1.4819.4019,2.4525,2.4525,0,0,1,.834,1.05l-.8042.4077a1.4609,1.4609,0,0,0-.5518-.7441,1.6578,1.6578,0,0,0-.96-.2637,1.9238,1.9238,0,0,0-.7564.1377,1.4806,1.4806,0,0,0-.54.3843,1.6083,1.6083,0,0,0-.3237.5879,2.4709,2.4709,0,0,0-.108.75v1.0561a2.0088,2.0088,0,0,0,.438,1.3379,1.588,1.588,0,0,0,1.29.522,1.7408,1.7408,0,0,0,1.68-1.08l.6962.4682a2.4614,2.4614,0,0,1-.894,1.0679A2.6135,2.6135,0,0,1,221.357,15.1838Z"/><path d="M227.3448,15.1838a2.78,2.78,0,0,1-1.146-.228,2.4663,2.4663,0,0,1-.876-.6538,3,3,0,0,1-.564-1.02,4.5964,4.5964,0,0,1,0-2.67,2.9907,2.9907,0,0,1,.564-1.0259,2.4651,2.4651,0,0,1,.876-.6538,2.7779,2.7779,0,0,1,1.146-.2281,2.6341,2.6341,0,0,1,1.1157.2271,2.479,2.479,0,0,1,.84.6279,2.7974,2.7974,0,0,1,.5337.9507,3.7517,3.7517,0,0,1,.186,1.208v.4541h-4.4521V12.46a2.1083,2.1083,0,0,0,.1265.7383,1.7448,1.7448,0,0,0,.36.5937,1.6444,1.6444,0,0,0,.5757.396,1.9759,1.9759,0,0,0,.7744.1441,1.8834,1.8834,0,0,0,1.0259-.2759,1.8127,1.8127,0,0,0,.6777-.792l.6841.4951a2.3858,2.3858,0,0,1-.936,1.0322A2.82,2.82,0,0,1,227.3448,15.1838Zm0-5.6763a1.8243,1.8243,0,0,0-.72.1377,1.6257,1.6257,0,0,0-.5582.3872,1.8222,1.8222,0,0,0-.3657.59,2.034,2.034,0,0,0-.1323.7456v.0835h3.42v-.1314a1.8843,1.8843,0,0,0-.45-1.3178A1.5354,1.5354,0,0,0,227.3448,9.5075Z"/><path d="M233.4644,15.1838a2.8921,2.8921,0,0,1-1.4458-.33,3.2775,3.2775,0,0,1-1.002-.8818l.6841-.5522a2.6891,2.6891,0,0,0,.8037.7021,2.0944,2.0944,0,0,0,1.0323.2461,1.5251,1.5251,0,0,0,.9536-.2642.9586.9586,0,0,0,.1084-1.3618,1.4294,1.4294,0,0,0-.8462-.354l-.4922-.0722a4.1234,4.1234,0,0,1-.792-.1861,2.2048,2.2048,0,0,1-.63-.3359,1.4467,1.4467,0,0,1-.42-.522,1.7013,1.7013,0,0,1-.15-.7441,1.7858,1.7858,0,0,1,.168-.7979,1.6,1.6,0,0,1,.4619-.57,2.0225,2.0225,0,0,1,.7021-.3423,3.2553,3.2553,0,0,1,.876-.1138,2.7318,2.7318,0,0,1,1.2661.2642,2.8334,2.8334,0,0,1,.8936.7319l-.6358.5757a1.9139,1.9139,0,0,0-.6-.522,1.9359,1.9359,0,0,0-.9961-.2338,1.3751,1.3751,0,0,0-.9057.2578.8706.8706,0,0,0-.3062.7021.7353.7353,0,0,0,.3062.66,2.2835,2.2835,0,0,0,.8818.3l.48.0722a2.5757,2.5757,0,0,1,1.4643.5938,1.5635,1.5635,0,0,1,.4317,1.146,1.7537,1.7537,0,0,1-.6118,1.416A2.5258,2.5258,0,0,1,233.4644,15.1838Z"/><path d="M239.2364,15.1838a2.8921,2.8921,0,0,1-1.4458-.33,3.2775,3.2775,0,0,1-1.002-.8818l.6841-.5522a2.6879,2.6879,0,0,0,.8037.7021,2.094,2.094,0,0,0,1.0322.2461,1.5249,1.5249,0,0,0,.9536-.2642.9586.9586,0,0,0,.1084-1.3618,1.4288,1.4288,0,0,0-.8461-.354l-.4922-.0722a4.1234,4.1234,0,0,1-.792-.1861,2.2035,2.2035,0,0,1-.63-.3359,1.4467,1.4467,0,0,1-.42-.522,1.7013,1.7013,0,0,1-.15-.7441,1.7858,1.7858,0,0,1,.1679-.7979,1.6017,1.6017,0,0,1,.4619-.57,2.023,2.023,0,0,1,.7022-.3423,3.2553,3.2553,0,0,1,.876-.1138,2.7318,2.7318,0,0,1,1.2661.2642,2.8331,2.8331,0,0,1,.8935.7319l-.6357.5757a1.9139,1.9139,0,0,0-.6-.522,1.9362,1.9362,0,0,0-.9961-.2338,1.3754,1.3754,0,0,0-.9058.2578.8705.8705,0,0,0-.3061.7021.7352.7352,0,0,0,.3061.66,2.284,2.284,0,0,0,.8819.3l.48.0722a2.5761,2.5761,0,0,1,1.4643.5938,1.5635,1.5635,0,0,1,.4317,1.146,1.7535,1.7535,0,0,1-.6119,1.416A2.5255,2.5255,0,0,1,239.2364,15.1838Z"/><path d="M251.273,15.73a1.5211,1.5211,0,0,1-.75,1.4053,4.48,4.48,0,0,1-2.25.4482,4.1284,4.1284,0,0,1-2.0884-.3955,1.254,1.254,0,0,1-.6357-1.1265,1.1036,1.1036,0,0,1,.2636-.7851,1.5518,1.5518,0,0,1,.72-.4136v-.1318a.89.89,0,0,1-.5518-.86.8644.8644,0,0,1,.3-.7109,1.9663,1.9663,0,0,1,.7681-.3643v-.0478a1.9968,1.9968,0,0,1-.8579-.7583,2.1229,2.1229,0,0,1-.3062-1.1436,2.1958,2.1958,0,0,1,.168-.8662,1.944,1.944,0,0,1,.4741-.68,2.1577,2.1577,0,0,1,.7319-.4389,2.993,2.993,0,0,1,2.13.083V8.8357a1.0181,1.0181,0,0,1,.168-.6016.6281.6281,0,0,1,.5522-.2383h.9239v.8521H249.857v.397a2.0307,2.0307,0,0,1,.5219.6918,2.1522,2.1522,0,0,1,.1861.9087,2.1964,2.1964,0,0,1-.1685.8667,1.9464,1.9464,0,0,1-.4736.68,2.1485,2.1485,0,0,1-.7383.439,2.7978,2.7978,0,0,1-.96.1567,3.0525,3.0525,0,0,1-.6-.06,1.9834,1.9834,0,0,0-.564.2456.5086.5086,0,0,0-.252.45.3653.3653,0,0,0,.2642.372,2.0361,2.0361,0,0,0,.6841.0957h1.32a2.5939,2.5939,0,0,1,1.6738.4366A1.4826,1.4826,0,0,1,251.273,15.73Zm-.9.0654a.7166.7166,0,0,0-.2817-.5937,1.6706,1.6706,0,0,0-1.002-.2222h-2.064a.8766.8766,0,0,0-.5761.84.9211.9211,0,0,0,.3061.6962,1.497,1.497,0,0,0,1.0376.2881h.8882a2.5526,2.5526,0,0,0,1.2481-.2519A.8175.8175,0,0,0,250.3726,15.7956Zm-2.148-3.5757a1.4875,1.4875,0,0,0,.9722-.2954,1.1088,1.1088,0,0,0,.36-.91V10.677a1.1086,1.1086,0,0,0-.36-.91,1.7465,1.7465,0,0,0-1.9438,0,1.1073,1.1073,0,0,0-.36.91v.3374a1.1075,1.1075,0,0,0,.36.91A1.486,1.486,0,0,0,248.2246,12.22Z"/><path d="M252.3887,15.04V8.8479h.96v1.14h.06a1.8724,1.8724,0,0,1,.6-.7925,1.8441,1.8441,0,0,1,1.188-.3476h.3721v.96h-.564a2.1688,2.1688,0,0,0-1.2182.294.8672.8672,0,0,0-.438.7378v4.2Z"/><path d="M259.0723,15.1838a2.79,2.79,0,0,1-1.14-.228,2.46,2.46,0,0,1-.8824-.6538,3.0779,3.0779,0,0,1-.57-1.02,4.4694,4.4694,0,0,1,0-2.67,3.0674,3.0674,0,0,1,.57-1.0259,2.4592,2.4592,0,0,1,.8824-.6538,2.7886,2.7886,0,0,1,1.14-.2281,2.752,2.752,0,0,1,1.1343.2281,2.5307,2.5307,0,0,1,.8818.6538,3.0178,3.0178,0,0,1,.5762,1.0259,4.48,4.48,0,0,1,0,2.67,3.0278,3.0278,0,0,1-.5762,1.02,2.532,2.532,0,0,1-.8818.6538A2.7536,2.7536,0,0,1,259.0723,15.1838Zm0-.852a1.7457,1.7457,0,0,0,1.272-.48,1.9613,1.9613,0,0,0,.4922-1.4639V11.5a1.9612,1.9612,0,0,0-.4922-1.4638,1.9254,1.9254,0,0,0-2.544,0,1.9611,1.9611,0,0,0-.4917,1.4638v.8882a1.9612,1.9612,0,0,0,.4917,1.4639A1.7459,1.7459,0,0,0,259.0723,14.3318Z"/><path d="M267.2686,14.0432h-.0479a3.0035,3.0035,0,0,1-.2338.4219,1.5773,1.5773,0,0,1-.3423.3681,1.6028,1.6028,0,0,1-.4917.2554,2.1478,2.1478,0,0,1-.6724.0952,1.9609,1.9609,0,0,1-1.5239-.6181,2.4968,2.4968,0,0,1-.564-1.7461V8.8479h.96V12.66q0,1.672,1.416,1.6719a2.146,2.146,0,0,0,.5581-.0723,1.5385,1.5385,0,0,0,.48-.2163,1.0953,1.0953,0,0,0,.3359-.3667,1.07,1.07,0,0,0,.126-.5352V8.8479h.96V15.04h-.96Z"/><path d="M270.2686,8.8479h.96v.9966h.0478a1.7409,1.7409,0,0,1,.7022-.8614,2.1085,2.1085,0,0,1,1.11-.2793,2.3525,2.3525,0,0,1,1.044.2281,2.27,2.27,0,0,1,.7983.6479,2.9823,2.9823,0,0,1,.5039,1.02,5.2835,5.2835,0,0,1,0,2.688,2.9769,2.9769,0,0,1-.5039,1.02,2.2662,2.2662,0,0,1-.7983.648,2.3539,2.3539,0,0,1-1.044.228,1.8752,1.8752,0,0,1-1.812-1.1406h-.0478V17.44h-.96Zm2.5561,5.4839a1.6523,1.6523,0,0,0,1.2837-.5122,1.9178,1.9178,0,0,0,.4683-1.3453v-1.061a1.9154,1.9154,0,0,0-.4683-1.3447,1.6509,1.6509,0,0,0-1.2837-.5127,2.0979,2.0979,0,0,0-.6181.09,1.7214,1.7214,0,0,0-.51.2471,1.1965,1.1965,0,0,0-.3423.38.9541.9541,0,0,0-.1259.4765v2.3155a1.12,1.12,0,0,0,.1259.5371,1.2073,1.2073,0,0,0,.3423.3979,1.5408,1.5408,0,0,0,.51.2471A2.2334,2.2334,0,0,0,272.8247,14.3318Z"/><path d="M361.1636,15.0334V6.6574H364.5a2.2694,2.2694,0,0,1,1.7338.6421,2.4578,2.4578,0,0,1,.606,1.7579,2.46,2.46,0,0,1-.606,1.7583,2.271,2.271,0,0,1-1.7338.6416h-2.3282v3.5761Zm1.0078-4.4638H364.5a1.299,1.299,0,0,0,.93-.3121,1.1622,1.1622,0,0,0,.33-.8881V8.7453a1.1622,1.1622,0,0,0-.33-.8877,1.2994,1.2994,0,0,0-.93-.312h-2.3282Z"/><path d="M370.44,15.1775a2.7894,2.7894,0,0,1-1.14-.2281,2.46,2.46,0,0,1-.8823-.6538,3.0751,3.0751,0,0,1-.57-1.02,4.4694,4.4694,0,0,1,0-2.67,3.0666,3.0666,0,0,1,.57-1.0259,2.4608,2.4608,0,0,1,.8823-.6538,2.791,2.791,0,0,1,1.14-.228,2.758,2.758,0,0,1,1.1348.228,2.5329,2.5329,0,0,1,.8818.6538,3.03,3.03,0,0,1,.5762,1.0259,4.49,4.49,0,0,1,0,2.67,3.0387,3.0387,0,0,1-.5762,1.02,2.5316,2.5316,0,0,1-.8818.6538A2.7564,2.7564,0,0,1,370.44,15.1775Zm0-.8521a1.7475,1.7475,0,0,0,1.2725-.48,1.9612,1.9612,0,0,0,.4921-1.4638v-.8882a1.9613,1.9613,0,0,0-.4921-1.4639,1.9261,1.9261,0,0,0-2.5445,0,1.9612,1.9612,0,0,0-.4917,1.4639v.8882a1.9611,1.9611,0,0,0,.4917,1.4638A1.7453,1.7453,0,0,0,370.44,14.3254Z"/><path d="M375.84,15.0334a.9813.9813,0,0,1-.7627-.2822,1.0161,1.0161,0,0,1-.2578-.7139V6.1535h.96v8.0279h.9121v.852Z"/><path d="M378.5635,7.3894a.5866.5866,0,0,1-.45-.15.5544.5544,0,0,1-.1377-.39V6.6936a.5544.5544,0,0,1,.1377-.39.751.751,0,0,1,.9,0,.5544.5544,0,0,1,.1377.39v.1557a.5544.5544,0,0,1-.1377.39A.588.588,0,0,1,378.5635,7.3894Zm-.48,1.4521h.96v6.1919h-.96Z"/><path d="M383.3877,15.1775a2.85,2.85,0,0,1-1.164-.2281,2.36,2.36,0,0,1-.87-.6479,2.8807,2.8807,0,0,1-.54-1.02,4.936,4.936,0,0,1,0-2.688,2.8841,2.8841,0,0,1,.54-1.02,2.3669,2.3669,0,0,1,.87-.648,2.8515,2.8515,0,0,1,1.164-.228,2.4823,2.4823,0,0,1,1.4815.4018,2.4488,2.4488,0,0,1,.834,1.05l-.8037.4078a1.4617,1.4617,0,0,0-.5518-.7442,1.6592,1.6592,0,0,0-.96-.2637,1.9276,1.9276,0,0,0-.7568.1377,1.4849,1.4849,0,0,0-.54.3843,1.6106,1.6106,0,0,0-.3233.5879,2.4739,2.4739,0,0,0-.1084.75v1.0562a2.0055,2.0055,0,0,0,.4385,1.3378,1.5876,1.5876,0,0,0,1.29.522,1.741,1.741,0,0,0,1.68-1.08l.6963.4683a2.46,2.46,0,0,1-.8945,1.0679A2.6118,2.6118,0,0,1,383.3877,15.1775Z"/><path d="M390.9356,8.8415h.9482l-2.7724,7.6319a3.3937,3.3937,0,0,1-.2159.4619.9033.9033,0,0,1-.2636.2939,1.0524,1.0524,0,0,1-.3906.1563,2.9141,2.9141,0,0,1-.57.0478H387.18v-.852h.9717l.4678-1.3179-2.3154-6.4219h.96l1.4873,4.2036.2881,1.0064h.06l.336-1.0064Z"/><path d="M508.6914,15.1833a3.613,3.613,0,0,1-1.74-.39,3.6924,3.6924,0,0,1-1.2236-1.0737l.7441-.6241a3.2663,3.2663,0,0,0,.9834.8941,2.5437,2.5437,0,0,0,1.2725.3056,1.9754,1.9754,0,0,0,1.374-.4316,1.4857,1.4857,0,0,0,.4736-1.1523,1.1811,1.1811,0,0,0-.3593-.9239,2.7169,2.7169,0,0,0-1.1885-.5161l-.6836-.1557a3.9729,3.9729,0,0,1-1.7588-.7984,1.9023,1.9023,0,0,1-.6055-1.5058,2.2686,2.2686,0,0,1,.2041-.9839,1.9688,1.9688,0,0,1,.5694-.72,2.58,2.58,0,0,1,.8759-.438,3.9892,3.9892,0,0,1,1.1221-.15,3.5217,3.5217,0,0,1,1.626.3481,3.1322,3.1322,0,0,1,1.1465,1.02l-.7559.5518a2.6217,2.6217,0,0,0-.84-.7559,2.4747,2.4747,0,0,0-1.2246-.2759,2.0844,2.0844,0,0,0-1.2657.3418,1.1927,1.1927,0,0,0-.4619,1.0259,1.082,1.082,0,0,0,.39.9063,3.0168,3.0168,0,0,0,1.1826.4858l.6836.1563a3.5536,3.5536,0,0,1,1.7881.84,2.0515,2.0515,0,0,1,.5517,1.5,2.6411,2.6411,0,0,1-.1982,1.044,2.1461,2.1461,0,0,1-.5693.7919,2.6531,2.6531,0,0,1-.9063.504A3.7626,3.7626,0,0,1,508.6914,15.1833Z"/><path d="M515.543,15.1833a2.7775,2.7775,0,0,1-1.1455-.228,2.4592,2.4592,0,0,1-.876-.6538,2.9988,2.9988,0,0,1-.5644-1.02,4.5942,4.5942,0,0,1,0-2.67,2.9907,2.9907,0,0,1,.5644-1.0259,2.4581,2.4581,0,0,1,.876-.6538,2.7776,2.7776,0,0,1,1.1455-.2281,2.6348,2.6348,0,0,1,1.1162.2271,2.48,2.48,0,0,1,.84.6279,2.7916,2.7916,0,0,1,.5341.9507,3.7491,3.7491,0,0,1,.1856,1.208v.4541h-4.4522v.2881a2.0967,2.0967,0,0,0,.127.7383,1.7439,1.7439,0,0,0,.3594.5937,1.6451,1.6451,0,0,0,.5761.396,1.975,1.975,0,0,0,.7745.1441,1.8811,1.8811,0,0,0,1.0253-.2759,1.813,1.813,0,0,0,.6778-.792l.6846.4951a2.3849,2.3849,0,0,1-.9366,1.0323A2.82,2.82,0,0,1,515.543,15.1833Zm0-5.6762a1.8218,1.8218,0,0,0-.72.1377,1.626,1.626,0,0,0-.5586.3872,1.8256,1.8256,0,0,0-.3652.59,2.0242,2.0242,0,0,0-.1329.7456v.0835h3.4209V11.32a1.8845,1.8845,0,0,0-.45-1.3178A1.5357,1.5357,0,0,0,515.543,9.5071Z"/><path d="M522.1075,15.1833a2.8533,2.8533,0,0,1-1.1641-.228,2.3787,2.3787,0,0,1-.87-.6479,2.8843,2.8843,0,0,1-.54-1.02,4.9616,4.9616,0,0,1,0-2.688,2.8882,2.8882,0,0,1,.54-1.02,2.3821,2.3821,0,0,1,.87-.6479,2.8534,2.8534,0,0,1,1.1641-.2281,2.4826,2.4826,0,0,1,1.4824.4019,2.4562,2.4562,0,0,1,.834,1.05l-.8047.4077a1.4609,1.4609,0,0,0-.5518-.7441,1.6567,1.6567,0,0,0-.96-.2637,1.92,1.92,0,0,0-.7559.1377,1.4765,1.4765,0,0,0-.54.3843,1.6108,1.6108,0,0,0-.3243.5879,2.4743,2.4743,0,0,0-.1074.75v1.0561a2.01,2.01,0,0,0,.4375,1.3379,1.588,1.588,0,0,0,1.29.522,1.74,1.74,0,0,0,1.68-1.08l.6963.4683a2.4647,2.4647,0,0,1-.8935,1.0678A2.6163,2.6163,0,0,1,522.1075,15.1833Z"/><path d="M525.8389,15.0393V8.8474h.96v1.14h.0605a1.867,1.867,0,0,1,.6-.7925,1.8456,1.8456,0,0,1,1.1885-.3476h.3721v.96h-.5645a2.1674,2.1674,0,0,0-1.2178.2939.8679.8679,0,0,0-.4384.7378v4.2Z"/><path d="M532.5118,15.1833a2.779,2.779,0,0,1-1.1465-.228,2.4751,2.4751,0,0,1-.876-.6538,2.9989,2.9989,0,0,1-.5635-1.02,4.5964,4.5964,0,0,1,0-2.67,2.9907,2.9907,0,0,1,.5635-1.0259,2.4739,2.4739,0,0,1,.876-.6538,2.779,2.779,0,0,1,1.1465-.2281,2.6334,2.6334,0,0,1,1.1152.2271,2.4822,2.4822,0,0,1,.8408.6279,2.8048,2.8048,0,0,1,.5332.9507,3.7516,3.7516,0,0,1,.1865,1.208v.4541h-4.4521v.2881a2.1192,2.1192,0,0,0,.126.7383,1.7475,1.7475,0,0,0,.36.5937,1.6424,1.6424,0,0,0,.5752.396,1.9776,1.9776,0,0,0,.7744.1441,1.8851,1.8851,0,0,0,1.0264-.2759,1.8121,1.8121,0,0,0,.6777-.792l.6836.4951a2.3884,2.3884,0,0,1-.9355,1.0323A2.8226,2.8226,0,0,1,532.5118,15.1833Zm0-5.6762a1.8267,1.8267,0,0,0-.7207.1377,1.6224,1.6224,0,0,0-.5577.3872,1.8144,1.8144,0,0,0-.3662.59,2.0448,2.0448,0,0,0-.1318.7456v.0835h3.42V11.32a1.8845,1.8845,0,0,0-.45-1.3178A1.535,1.535,0,0,0,532.5118,9.5071Z"/><path d="M538.14,15.0393a.9831.9831,0,0,1-.7627-.2813,1.0471,1.0471,0,0,1-.2578-.7363V9.6994H536.1v-.852h.5752a.5665.5665,0,0,0,.4268-.126.659.659,0,0,0,.1133-.438V7.1311h.8642V8.8474h1.3565v.852h-1.3565v4.4878h1.26v.8521Z"/><path d="M549.0352,15.73a1.52,1.52,0,0,1-.75,1.4053,4.4769,4.4769,0,0,1-2.25.4482,4.1263,4.1263,0,0,1-2.0879-.3955,1.2538,1.2538,0,0,1-.6357-1.1264,1.1037,1.1037,0,0,1,.2636-.7852,1.55,1.55,0,0,1,.72-.4136v-.1318a.89.89,0,0,1-.5518-.86.8644.8644,0,0,1,.3-.7109,1.9686,1.9686,0,0,1,.7686-.3643v-.0478a2.001,2.001,0,0,1-.8584-.7583,2.1227,2.1227,0,0,1-.3057-1.1436,2.1958,2.1958,0,0,1,.168-.8662,1.935,1.935,0,0,1,.4736-.68,2.1587,2.1587,0,0,1,.7324-.439,2.993,2.993,0,0,1,2.13.083V8.8352a1.0145,1.0145,0,0,1,.168-.6016.6272.6272,0,0,1,.5517-.2383h.9239v.8521h-1.1758v.397a2.0379,2.0379,0,0,1,.5224.6919,2.1589,2.1589,0,0,1,.1856.9086,2.1961,2.1961,0,0,1-.168.8667,1.9521,1.9521,0,0,1-.4736.68,2.1485,2.1485,0,0,1-.7383.439,2.8,2.8,0,0,1-.96.1567,3.0575,3.0575,0,0,1-.6005-.06,1.9815,1.9815,0,0,0-.5635.2456.5086.5086,0,0,0-.252.45.3654.3654,0,0,0,.2637.372,2.0393,2.0393,0,0,0,.6846.0957h1.3193a2.5936,2.5936,0,0,1,1.6738.4366A1.4812,1.4812,0,0,1,549.0352,15.73Zm-.9.0654a.7173.7173,0,0,0-.2812-.5937,1.6735,1.6735,0,0,0-1.002-.2222h-2.0645a.8772.8772,0,0,0-.5761.84.9219.9219,0,0,0,.3066.6963,1.4956,1.4956,0,0,0,1.0371.288h.8887a2.551,2.551,0,0,0,1.248-.2519A.8169.8169,0,0,0,548.1348,15.7951ZM545.9873,12.22a1.4868,1.4868,0,0,0,.9717-.2954,1.1077,1.1077,0,0,0,.36-.91v-.3374a1.1073,1.1073,0,0,0-.36-.91,1.7457,1.7457,0,0,0-1.9433,0,1.1073,1.1073,0,0,0-.36.91v.3374a1.1077,1.1077,0,0,0,.36.91A1.4847,1.4847,0,0,0,545.9873,12.22Z"/><path d="M550.1514,15.0393V8.8474h.96v1.14h.0595a1.8778,1.8778,0,0,1,.6006-.7925,1.8426,1.8426,0,0,1,1.1875-.3476h.3721v.96h-.5635a2.1706,2.1706,0,0,0-1.2187.2939.8666.8666,0,0,0-.4375.7378v4.2Z"/><path d="M556.835,15.1833a2.7886,2.7886,0,0,1-1.14-.228,2.4578,2.4578,0,0,1-.8829-.6538,3.0752,3.0752,0,0,1-.5693-1.02,4.4694,4.4694,0,0,1,0-2.67,3.0657,3.0657,0,0,1,.5693-1.0259,2.4566,2.4566,0,0,1,.8829-.6538,2.7886,2.7886,0,0,1,1.14-.2281,2.7483,2.7483,0,0,1,1.1338.2281,2.5307,2.5307,0,0,1,.8818.6538,3.01,3.01,0,0,1,.5762,1.0259,4.4694,4.4694,0,0,1,0,2.67,3.0194,3.0194,0,0,1-.5762,1.02,2.532,2.532,0,0,1-.8818.6538A2.7483,2.7483,0,0,1,556.835,15.1833Zm0-.852a1.7453,1.7453,0,0,0,1.2715-.48,1.9613,1.9613,0,0,0,.4922-1.4639v-.8882a1.9612,1.9612,0,0,0-.4922-1.4638,1.9254,1.9254,0,0,0-2.544,0,1.9609,1.9609,0,0,0-.4912,1.4638v.8882a1.961,1.961,0,0,0,.4912,1.4639A1.7463,1.7463,0,0,0,556.835,14.3313Z"/><path d="M565.0313,14.0427h-.0479a3.0076,3.0076,0,0,1-.2343.4219,1.5731,1.5731,0,0,1-.3418.3681,1.6056,1.6056,0,0,1-.4922.2554,2.1445,2.1445,0,0,1-.6719.0952,1.9612,1.9612,0,0,1-1.5244-.6181,2.4967,2.4967,0,0,1-.5635-1.7461V8.8474h.96v3.812q0,1.6721,1.416,1.6719a2.138,2.138,0,0,0,.5576-.0723,1.538,1.538,0,0,0,.4805-.2163,1.0953,1.0953,0,0,0,.3359-.3667,1.07,1.07,0,0,0,.126-.5352V8.8474h.96v6.1919h-.96Z"/><path d="M568.0313,8.8474h.96V9.844h.0478a1.7388,1.7388,0,0,1,.7022-.8614,2.1054,2.1054,0,0,1,1.1093-.2793,2.35,2.35,0,0,1,1.044.2281,2.2719,2.2719,0,0,1,.7988.6479,2.9823,2.9823,0,0,1,.5039,1.02,5.2835,5.2835,0,0,1,0,2.688,2.9784,2.9784,0,0,1-.5039,1.02,2.2687,2.2687,0,0,1-.7988.6479,2.35,2.35,0,0,1-1.044.228,1.8745,1.8745,0,0,1-1.8115-1.1406h-.0478v3.3965h-.96Zm2.5557,5.4839a1.6541,1.6541,0,0,0,1.2841-.5122,1.9192,1.9192,0,0,0,.4678-1.3452V11.4128a1.9169,1.9169,0,0,0-.4678-1.3447,1.6527,1.6527,0,0,0-1.2841-.5127,2.103,2.103,0,0,0-.6182.09,1.7214,1.7214,0,0,0-.51.2471,1.2008,1.2008,0,0,0-.3418.38.9541.9541,0,0,0-.1259.4765v2.3155a1.12,1.12,0,0,0,.1259.5371A1.2116,1.2116,0,0,0,569.459,14a1.5388,1.5388,0,0,0,.51.2471A2.235,2.235,0,0,0,570.587,14.3313Z"/><path d="M641.4336,15.1838a3.6139,3.6139,0,0,1-1.74-.39A3.6916,3.6916,0,0,1,638.47,13.72l.7441-.624a3.2663,3.2663,0,0,0,.9834.8941,2.5437,2.5437,0,0,0,1.2725.3056,1.9754,1.9754,0,0,0,1.374-.4316,1.4858,1.4858,0,0,0,.4736-1.1524,1.18,1.18,0,0,0-.3594-.9238,2.7159,2.7159,0,0,0-1.1884-.5161l-.6836-.1558a3.9717,3.9717,0,0,1-1.7588-.7983,1.9024,1.9024,0,0,1-.6055-1.5059,2.2681,2.2681,0,0,1,.2041-.9838,1.9692,1.9692,0,0,1,.5694-.72,2.5815,2.5815,0,0,1,.8759-.4379,3.9856,3.9856,0,0,1,1.1221-.15,3.522,3.522,0,0,1,1.626.3481,3.1322,3.1322,0,0,1,1.1465,1.02L643.51,8.44a2.6217,2.6217,0,0,0-.84-.7559,2.4747,2.4747,0,0,0-1.2246-.2759A2.0842,2.0842,0,0,0,640.18,7.75a1.1927,1.1927,0,0,0-.4619,1.0259,1.082,1.082,0,0,0,.39.9063,3.0168,3.0168,0,0,0,1.1826.4858l.6836.1563a3.5536,3.5536,0,0,1,1.7881.84,2.0515,2.0515,0,0,1,.5517,1.5,2.64,2.64,0,0,1-.1982,1.0439,2.1459,2.1459,0,0,1-.5694.792,2.65,2.65,0,0,1-.9062.5039A3.76,3.76,0,0,1,641.4336,15.1838Z"/><path d="M647.3252,15.04a.9823.9823,0,0,1-.7617-.2813,1.0471,1.0471,0,0,1-.2578-.7363V9.7h-1.02v-.852h.5762a.5636.5636,0,0,0,.4257-.126.6529.6529,0,0,0,.1143-.438V7.1316h.8643V8.8479h1.3554V9.7h-1.3554v4.4878h1.26V15.04Z"/><path d="M652.461,15.1838a2.791,2.791,0,0,1-1.14-.228,2.4625,2.4625,0,0,1-.8818-.6538,3.077,3.077,0,0,1-.57-1.02,4.4694,4.4694,0,0,1,0-2.67,3.0666,3.0666,0,0,1,.57-1.0259,2.4613,2.4613,0,0,1,.8818-.6538,2.7894,2.7894,0,0,1,1.14-.2281,2.7556,2.7556,0,0,1,1.1347.2281,2.5311,2.5311,0,0,1,.8819.6538,3.03,3.03,0,0,1,.5762,1.0259,4.49,4.49,0,0,1,0,2.67,3.04,3.04,0,0,1-.5762,1.02,2.5323,2.5323,0,0,1-.8819.6538A2.7571,2.7571,0,0,1,652.461,15.1838Zm0-.852a1.7459,1.7459,0,0,0,1.2724-.48,1.9609,1.9609,0,0,0,.4922-1.4639V11.5a1.9608,1.9608,0,0,0-.4922-1.4638,1.9253,1.9253,0,0,0-2.5439,0,1.9612,1.9612,0,0,0-.4922,1.4638v.8882a1.9613,1.9613,0,0,0,.4922,1.4639A1.7452,1.7452,0,0,0,652.461,14.3318Z"/><path d="M656.8418,15.04V8.8479h.96v1.14h.06a1.8778,1.8778,0,0,1,.6006-.7925,1.8422,1.8422,0,0,1,1.1875-.3476h.372v.96h-.5635a2.1706,2.1706,0,0,0-1.2187.294.8666.8666,0,0,0-.4375.7378v4.2Z"/><path d="M663.5137,15.1838a2.7809,2.7809,0,0,1-1.1465-.228,2.4756,2.4756,0,0,1-.8759-.6538,2.9955,2.9955,0,0,1-.5635-1.02,4.5942,4.5942,0,0,1,0-2.67,2.9865,2.9865,0,0,1,.5635-1.0259,2.4744,2.4744,0,0,1,.8759-.6538,2.7793,2.7793,0,0,1,1.1465-.2281,2.6331,2.6331,0,0,1,1.1152.2271,2.4813,2.4813,0,0,1,.8409.6279,2.8082,2.8082,0,0,1,.5332.9507,3.7516,3.7516,0,0,1,.1865,1.208v.4541h-4.4522V12.46a2.12,2.12,0,0,0,.126.7383,1.7461,1.7461,0,0,0,.36.5937,1.6405,1.6405,0,0,0,.5752.396,1.9776,1.9776,0,0,0,.7744.1441,1.8845,1.8845,0,0,0,1.0263-.2759,1.8135,1.8135,0,0,0,.6778-.792l.6836.4951a2.3873,2.3873,0,0,1-.9356,1.0322A2.8215,2.8215,0,0,1,663.5137,15.1838Zm0-5.6763a1.8271,1.8271,0,0,0-.7207.1377,1.6234,1.6234,0,0,0-.5576.3872,1.8132,1.8132,0,0,0-.3662.59,2.0444,2.0444,0,0,0-.1319.7456v.0835h3.42v-.1314a1.8843,1.8843,0,0,0-.45-1.3178A1.5353,1.5353,0,0,0,663.5137,9.5075Z"/><path d="M671.7334,14.0432h-.0478a1.8889,1.8889,0,0,1-1.8115,1.1406,2.3508,2.3508,0,0,1-1.044-.228,2.2679,2.2679,0,0,1-.7988-.648,2.9769,2.9769,0,0,1-.5039-1.02,4.8144,4.8144,0,0,1-.1738-1.3442,4.814,4.814,0,0,1,.1738-1.3438,2.9823,2.9823,0,0,1,.5039-1.02,2.2719,2.2719,0,0,1,.7988-.6479,2.35,2.35,0,0,1,1.044-.2281,2.1054,2.1054,0,0,1,1.1093.2793,1.7388,1.7388,0,0,1,.7022.8614h.0478V6.16h.96v8.88h-.96Zm-1.5957.2886a2.2388,2.2388,0,0,0,.6182-.0845,1.55,1.55,0,0,0,.51-.2471,1.2116,1.2116,0,0,0,.3418-.3979,1.1212,1.1212,0,0,0,.1259-.5371V10.75a.9552.9552,0,0,0-.1259-.4765,1.2008,1.2008,0,0,0-.3418-.38,1.7335,1.7335,0,0,0-.51-.2471,2.103,2.103,0,0,0-.6182-.09,1.6527,1.6527,0,0,0-1.2841.5127,1.9169,1.9169,0,0,0-.4678,1.3447v1.061a1.9193,1.9193,0,0,0,.4678,1.3453A1.6541,1.6541,0,0,0,670.1377,14.3318Z"/><path d="M679.4248,15.1838a2.8915,2.8915,0,0,1-1.4453-.33,3.2668,3.2668,0,0,1-1.0019-.8818l.6836-.5522a2.6939,2.6939,0,0,0,.8037.7021,2.0954,2.0954,0,0,0,1.0322.2461,1.5255,1.5255,0,0,0,.9541-.2642.96.96,0,0,0,.1084-1.3618,1.4308,1.4308,0,0,0-.8467-.354l-.4922-.0722a4.1313,4.1313,0,0,1-.7919-.1861,2.2155,2.2155,0,0,1-.63-.3359,1.4522,1.4522,0,0,1-.42-.522,1.7085,1.7085,0,0,1-.1494-.7441,1.7858,1.7858,0,0,1,.168-.7979,1.5943,1.5943,0,0,1,.4619-.57,2.0135,2.0135,0,0,1,.7022-.3423,3.2487,3.2487,0,0,1,.8759-.1138,2.7289,2.7289,0,0,1,1.2657.2642,2.8331,2.8331,0,0,1,.8935.7319l-.6357.5757a1.9139,1.9139,0,0,0-.6-.522,1.9387,1.9387,0,0,0-.9961-.2338,1.3759,1.3759,0,0,0-.9063.2578.87.87,0,0,0-.3056.7021.7349.7349,0,0,0,.3056.66,2.284,2.284,0,0,0,.8819.3l.48.0722a2.5762,2.5762,0,0,1,1.4639.5938,1.5615,1.5615,0,0,1,.4316,1.146,1.7548,1.7548,0,0,1-.6113,1.416A2.5271,2.5271,0,0,1,679.4248,15.1838Z"/><path d="M685.7373,15.1838a2.78,2.78,0,0,1-1.1455-.228,2.458,2.458,0,0,1-.8759-.6538,2.9973,2.9973,0,0,1-.5645-1.02,4.5964,4.5964,0,0,1,0-2.67,2.9883,2.9883,0,0,1,.5645-1.0259,2.4568,2.4568,0,0,1,.8759-.6538,2.7779,2.7779,0,0,1,1.1455-.2281,2.6353,2.6353,0,0,1,1.1163.2271,2.4771,2.4771,0,0,1,.84.6279,2.7918,2.7918,0,0,1,.5342.9507,3.7519,3.7519,0,0,1,.1855,1.208v.4541H683.961V12.46a2.0993,2.0993,0,0,0,.1269.7383,1.7454,1.7454,0,0,0,.3594.5937,1.6464,1.6464,0,0,0,.5762.396,1.9741,1.9741,0,0,0,.7744.1441,1.8817,1.8817,0,0,0,1.0254-.2759,1.8127,1.8127,0,0,0,.6777-.792l.6846.4951a2.3839,2.3839,0,0,1-.9365,1.0322A2.82,2.82,0,0,1,685.7373,15.1838Zm0-5.6763a1.8221,1.8221,0,0,0-.72.1377,1.6283,1.6283,0,0,0-.5586.3872,1.83,1.83,0,0,0-.3652.59,2.0238,2.0238,0,0,0-.1328.7456v.0835h3.4209v-.1314a1.8843,1.8843,0,0,0-.45-1.3178A1.536,1.536,0,0,0,685.7373,9.5075Z"/><path d="M692.3018,15.1838a2.8523,2.8523,0,0,1-1.1641-.228,2.363,2.363,0,0,1-.87-.648,2.8812,2.8812,0,0,1-.54-1.02,4.936,4.936,0,0,1,0-2.688,2.8864,2.8864,0,0,1,.54-1.02,2.3672,2.3672,0,0,1,.87-.6479,2.8507,2.8507,0,0,1,1.1641-.2281,2.4813,2.4813,0,0,1,1.4814.4019,2.4488,2.4488,0,0,1,.834,1.05l-.8037.4077a1.4613,1.4613,0,0,0-.5517-.7441,1.6594,1.6594,0,0,0-.96-.2637,1.9276,1.9276,0,0,0-.7568.1377,1.4852,1.4852,0,0,0-.54.3843,1.61,1.61,0,0,0-.3232.5879,2.4707,2.4707,0,0,0-.1084.75v1.0561a2.0059,2.0059,0,0,0,.4385,1.3379,1.5877,1.5877,0,0,0,1.29.522,1.7413,1.7413,0,0,0,1.68-1.08l.6963.4682a2.46,2.46,0,0,1-.8946,1.0679A2.6107,2.6107,0,0,1,692.3018,15.1838Z"/><path d="M696.0332,15.04V8.8479h.96v1.14h.06a1.8778,1.8778,0,0,1,.6006-.7925,1.8424,1.8424,0,0,1,1.1875-.3476h.372v.96H698.65a2.1707,2.1707,0,0,0-1.2188.294.8666.8666,0,0,0-.4375.7378v4.2Z"/><path d="M702.7051,15.1838a2.78,2.78,0,0,1-1.1455-.228,2.4592,2.4592,0,0,1-.876-.6538,2.9988,2.9988,0,0,1-.5644-1.02,4.5942,4.5942,0,0,1,0-2.67,2.99,2.99,0,0,1,.5644-1.0259,2.4581,2.4581,0,0,1,.876-.6538,2.7779,2.7779,0,0,1,1.1455-.2281,2.6348,2.6348,0,0,1,1.1162.2271,2.4765,2.4765,0,0,1,.84.6279,2.7934,2.7934,0,0,1,.5342.9507,3.7519,3.7519,0,0,1,.1855,1.208v.4541h-4.4521V12.46a2.097,2.097,0,0,0,.1269.7383,1.7439,1.7439,0,0,0,.3594.5937,1.6446,1.6446,0,0,0,.5762.396,1.9741,1.9741,0,0,0,.7744.1441,1.8817,1.8817,0,0,0,1.0254-.2759,1.814,1.814,0,0,0,.6777-.792l.6846.4951a2.3841,2.3841,0,0,1-.9366,1.0322A2.8191,2.8191,0,0,1,702.7051,15.1838Zm0-5.6763a1.8218,1.8218,0,0,0-.72.1377,1.6273,1.6273,0,0,0-.5586.3872,1.8278,1.8278,0,0,0-.3652.59,2.0238,2.0238,0,0,0-.1328.7456v.0835H704.35v-.1314a1.8843,1.8843,0,0,0-.45-1.3178A1.5361,1.5361,0,0,0,702.7051,9.5075Z"/><path d="M708.333,15.04a.9823.9823,0,0,1-.7617-.2813,1.0476,1.0476,0,0,1-.2578-.7363V9.7h-1.02v-.852h.5762a.564.564,0,0,0,.4258-.126.6535.6535,0,0,0,.1142-.438V7.1316h.8643V8.8479h1.3554V9.7h-1.3554v4.4878h1.26V15.04Z"/><path d="M713.0371,15.1838a2.8927,2.8927,0,0,1-1.4462-.33,3.2891,3.2891,0,0,1-1.002-.8818l.6846-.5522a2.6818,2.6818,0,0,0,.8037.7021,2.0927,2.0927,0,0,0,1.0322.2461,1.5243,1.5243,0,0,0,.9531-.2642.9574.9574,0,0,0,.1084-1.3618,1.4274,1.4274,0,0,0-.8457-.354l-.4922-.0722a4.1153,4.1153,0,0,1-.7919-.1861,2.19,2.19,0,0,1-.63-.3359,1.4415,1.4415,0,0,1-.42-.522,1.6941,1.6941,0,0,1-.15-.7441,1.7858,1.7858,0,0,1,.1679-.7979,1.606,1.606,0,0,1,.4619-.57,2.0309,2.0309,0,0,1,.7022-.3423,3.26,3.26,0,0,1,.876-.1138,2.7357,2.7357,0,0,1,1.2666.2642,2.8331,2.8331,0,0,1,.8935.7319l-.6357.5757a1.8948,1.8948,0,0,0-1.5967-.7558,1.3748,1.3748,0,0,0-.9053.2578.8709.8709,0,0,0-.3066.7021.7356.7356,0,0,0,.3066.66,2.284,2.284,0,0,0,.8819.3l.4795.0722a2.5766,2.5766,0,0,1,1.4648.5938,1.5655,1.5655,0,0,1,.4316,1.146,1.7525,1.7525,0,0,1-.6123,1.416A2.5242,2.5242,0,0,1,713.0371,15.1838Z"/></g></svg>