<svg xmlns="http://www.w3.org/2000/svg" xmlns:xlink="http://www.w3.org/1999/xlink" viewBox="0 0 1138 573"><defs><style>.cls-1{fill:#002d9c;}.cls-10,.cls-2,.cls-20,.cls-21,.cls-22,.cls-23,.cls-29,.cls-3,.cls-5,.cls-7,.cls-8{fill:none;}.cls-2,.cls-3,.cls-5,.cls-7{stroke:#fff;stroke-width:1.5px;}.cls-10,.cls-2,.cls-20,.cls-5{stroke-linecap:round;}.cls-10,.cls-2,.cls-20,.cls-21,.cls-22,.cls-7,.cls-8{stroke-linejoin:round;}.cls-23,.cls-3,.cls-5{stroke-miterlimit:10;}.cls-4{fill:#0f6dff;}.cls-6{fill:#0db5b3;}.cls-8{stroke:#6f6f6f;stroke-width:0.75px;}.cls-9{fill:#6f6f6f;}.cls-10{stroke:#a0a0a0;stroke-dasharray:0 4 0 4 0 4;}.cls-11{font-size:15px;font-family:IBMPlexMono-Text, IBM Plex Mono;}.cls-12,.cls-30{font-size:16px;}.cls-12{font-family:IBMPlexSans-Bold, IBM Plex Sans;font-weight:700;}.cls-13{letter-spacing:-0.014em;}.cls-14{letter-spacing:0em;}.cls-15{letter-spacing:-0.004em;}.cls-16{letter-spacing:-0.006em;}.cls-17{letter-spacing:-0.015em;}.cls-18{letter-spacing:-0.006em;}.cls-19{fill:#f0f0f0;}.cls-20,.cls-21,.cls-22,.cls-23{stroke:#000;}.cls-20,.cls-21,.cls-23{stroke-width:0.72px;}.cls-22{stroke-width:0.6687px;}.cls-24{fill:#00aa5e;}.cls-25{fill:url(#linear-gradient);}.cls-26{fill:#0a4169;}.cls-27{fill:#07aed1;}.cls-28{fill:#87c632;}.cls-30{font-family:IBMPlexSans-SemiBold, IBM Plex Sans;font-weight:600;}.cls-31{letter-spacing:-0.025em;}.cls-32{letter-spacing:-0.01em;}.cls-33{letter-spacing:-0.005em;}.cls-34{letter-spacing:0em;}.cls-35{fill:#4090fc;}.cls-36{fill:#fff;}.cls-37{letter-spacing:-0.015em;}</style><linearGradient id="linear-gradient" x1="724.5092" y1="1519.4915" x2="730.503" y2="1513.4976" gradientTransform="translate(0 -1056)" gradientUnits="userSpaceOnUse"><stop offset="0" stop-color="#89eda0"/><stop offset="0.499" stop-color="#89eda0"/><stop offset="0.5" stop-color="#00aa5e"/><stop offset="0.9987" stop-color="#00aa5e"/></linearGradient></defs><g id="Graphics"><ellipse class="cls-1" cx="30.7844" cy="151.5943" rx="30" ry="30.3929"/><path class="cls-2" d="M34.3773,142.9788a9.2392,9.2392,0,0,1,2.9341,2.0039,9.4213,9.4213,0,0,1,0,13.2233,9.2389,9.2389,0,0,1-2.9341,2.0038,9.0986,9.0986,0,0,1-3.5929.7348"/><polyline class="cls-2" points="30.784 149.257 30.784 146.919 30.784 142.244"/><path class="cls-2" d="M48.2488,143.59c-1.23,18.9364-17.4678,28.5753-17.4678,28.5753S14.55,162.5261,13.32,143.59"/><path class="cls-2" d="M14.8373,140.3757c3.826-2.2359,15.9437-9.3521,15.9437-9.3521s12.122,6.9661,15.948,9.3511"/><ellipse class="cls-2" cx="13.2463" cy="141.309" rx="1.8461" ry="1.8701"/><ellipse class="cls-2" cx="48.3225" cy="141.309" rx="1.8461" ry="1.8701"/><polyline class="cls-2" points="30.784 160.945 30.784 156.269 30.784 153.932"/><path class="cls-2" d="M30.7844,142.244a9.1009,9.1009,0,0,0-3.593.7348,9.24,9.24,0,0,0-2.934,2.0039,9.4213,9.4213,0,0,0,0,13.2233,9.24,9.24,0,0,0,2.934,2.0038"/><ellipse class="cls-3" cx="30.7844" cy="151.5943" rx="1.8461" ry="1.8701"/><circle class="cls-4" cx="30.7844" cy="325.7695" r="30"/><path class="cls-5" d="M8.743,323.5937a22.1489,22.1489,0,0,1,44.0606-.2175"/><path class="cls-5" d="M50.7658,335.333a22.1518,22.1518,0,0,1-42.0112-7.2724"/><path class="cls-2" d="M28.5866,327.817a10.0693,10.0693,0,0,1-19.7152.24"/><path class="cls-2" d="M28.5084,323.4749a10.07,10.07,0,0,0-19.655.2109"/><line class="cls-2" x1="30.8544" y1="325.7695" x2="50.6403" y2="325.7695"/><line class="cls-2" x1="52.9314" y1="335.1651" x2="52.9314" y2="328.0605"/><line class="cls-2" x1="44.8779" y1="333.0818" x2="44.8779" y2="325.7695"/><line class="cls-2" x1="46.9613" y1="335.1651" x2="52.9314" y2="335.1651"/><circle class="cls-3" cx="44.8779" cy="335.1651" r="2.0833"/><path class="cls-3" d="M52.9314,323.6861A2.0834,2.0834,0,1,1,50.848,325.77a2.0834,2.0834,0,0,1,2.0834-2.0834"/><path class="cls-3" d="M28.5558,323.6971a2.1256,2.1256,0,0,1,.2153-.011,2.0818,2.0818,0,1,1-.2153.011"/><circle class="cls-3" cx="8.6375" cy="325.7695" r="2.0833"/><circle class="cls-6" cx="30.7844" cy="499.9446" r="30"/><line class="cls-7" x1="26.5034" y1="499.3923" x2="38.0535" y2="499.3923"/><line class="cls-7" x1="26.3985" y1="506.02" x2="38.0535" y2="506.02"/><line class="cls-7" x1="26.5034" y1="512.6477" x2="38.0535" y2="512.6477"/><rect class="cls-7" x="22.9061" y="497.522" width="3.5276" height="3.5272"/><rect class="cls-7" x="22.9061" y="510.8859" width="3.5974" height="3.5969"/><polyline class="cls-7" points="16.852 518.723 44.717 518.723 44.717 492.765"/><polyline class="cls-2" points="33.117 481.166 16.852 481.166 16.852 518.723"/><polygon class="cls-2" points="44.717 492.765 33.117 492.765 33.117 481.166 44.717 492.765"/><circle class="cls-3" cx="24.5632" cy="506.02" r="1.8352"/><line class="cls-8" x1="660.6178" y1="181.9872" x2="91" y2="181.9872"/><polygon class="cls-9" points="659.524 178.247 666 181.987 659.524 185.727 659.524 178.247"/><line class="cls-8" x1="660.6178" y1="355.7695" x2="91" y2="355.7695"/><polygon class="cls-9" points="659.524 352.03 666 355.769 659.524 359.509 659.524 352.03"/><line class="cls-8" x1="660.6178" y1="529.9446" x2="92" y2="529.9446"/><polygon class="cls-9" points="659.524 526.205 666 529.945 659.524 533.684 659.524 526.205"/><line class="cls-10" x1="622.5" y1="121.2015" x2="622.5" y2="572.57"/><line class="cls-10" x1="322.5" y1="121.2015" x2="322.5" y2="572.57"/></g><g id="Text"><text class="cls-11" transform="translate(91.1679 329.9346)">symmetric keys</text><text class="cls-11" transform="translate(92.5681 504.1095)">TLS/SSL certificates</text><text class="cls-11" transform="translate(90.3675 155.7595)">secrets &amp; credentials</text><text class="cls-12" transform="translate(40.3675 38.2201)">If I <tspan class="cls-13" x="27.1514" y="0">w</tspan><tspan class="cls-14" x="40.3833" y="0">ant </tspan><tspan class="cls-15" x="68.9268" y="0">t</tspan><tspan x="74.9907" y="0">o mana</tspan><tspan class="cls-16" x="129.8379" y="0">g</tspan><tspan class="cls-17" x="138.5737" y="0">e</tspan><tspan x="147.3257" y="0">...</tspan></text><text class="cls-11" transform="translate(367.1679 329.9346)">encrypt data at rest</text><text class="cls-11" transform="translate(368.5681 504.1095)">secure data in transit</text><text class="cls-11" transform="translate(366.3675 155.7595)">access resources</text><text class="cls-12" transform="translate(322.5002 37.7944)">so th<tspan class="cls-18" x="36.5273" y="0">a</tspan><tspan x="45.5352" y="0">t I can...</tspan></text><polyline class="cls-19" points="932.018 254.539 932.018 398.161 1138.018 398.161 1138.018 254.539 932.018 254.539"/><line class="cls-20" x1="958.0619" y1="293.6908" x2="968.2207" y2="293.6908"/><polyline class="cls-21" points="968.141 293.691 968.141 287.182 958.16 287.182 958.16 290.798"/><path class="cls-22" d="M965.9984,287.4228V284.958a2.8652,2.8652,0,1,0-5.7143,0v2.4648"/><path class="cls-21" d="M962.3526,297.9821c-2.1167-1.53-7.8019-6.365-8.233-14.4077"/><path class="cls-21" d="M972.1635,283.5642c-.427,8.0482-6.1173,12.8862-8.2362,14.4175"/><polyline class="cls-21" points="954.916 282.119 963.141 277.298 971.269 282.062"/><ellipse class="cls-23" cx="954.0937" cy="282.6013" rx="0.9524" ry="0.9643"/><ellipse class="cls-23" cx="963.1413" cy="298.5124" rx="0.9524" ry="0.9643"/><ellipse class="cls-23" cx="972.1889" cy="282.6013" rx="0.9524" ry="0.9643"/><polyline class="cls-4" points="932.018 253.459 932.018 257.556 1138 257.556 1138 253.459 932.018 253.459"/><path d="M961.9893,327.485h-4.6582v4.8018h-2.1123V321.1144h2.1123v4.4976h4.6582v-4.4976h2.1132v11.1724h-2.1132Z"/><path d="M971.7168,323.9313h1.9209l-3.3613,9.8443a2.16,2.16,0,0,1-2.3858,1.7124h-1.2324v-1.6324h1.5049l.3838-1.1684-2.9932-8.7559h2.0332l1.4561,4.418.5449,2.1128h.0957l.5762-2.1128Z"/><path d="M974.9785,323.9313h2.0488v1.3765h.0635a2.3147,2.3147,0,0,1,2.3047-1.5684c2.1133,0,3.2822,1.5684,3.2822,4.3535,0,2.8013-1.1689,4.3858-3.2822,4.3858a2.3615,2.3615,0,0,1-2.3047-1.5845h-.0635v4.5938h-2.0488Zm5.5537,4.898v-1.44a1.7909,1.7909,0,0,0-1.7929-1.9687c-.9756,0-1.712.5283-1.712,1.3442v2.6573c0,.8642.7364,1.3608,1.712,1.3608A1.7777,1.7777,0,0,0,980.5322,328.8293Z"/><path d="M984.0176,328.0929c0-2.6411,1.4248-4.3535,3.874-4.3535,2.6084,0,3.8086,1.9209,3.8086,4.2095v.6724h-5.5537v.208a1.8561,1.8561,0,0,0,2.0332,2.0171,2.54,2.54,0,0,0,2.1289-1.1368l1.1035,1.2325a4.1336,4.1336,0,0,1-3.457,1.5366C985.49,332.4787,984.0176,330.7663,984.0176,328.0929Zm2.1289-.8642v.1279h3.4258v-.144c0-1.1524-.5928-1.9365-1.6494-1.9365A1.7735,1.7735,0,0,0,986.1465,327.2287Z"/><path d="M993.5059,332.2868v-8.3555h2.0488v1.729h.08a2.1433,2.1433,0,0,1,2.209-1.729h.4482v1.937h-.6406c-1.376,0-2.0967.3838-2.0967,1.2964v5.1221Z"/><path d="M1003.6982,332.2868V321.1144h5.0254a3.46,3.46,0,0,1,0,6.9146h-2.9131v4.2578Zm2.1123-6.0825h2.7217a1.1757,1.1757,0,0,0,1.3125-1.2647v-.7363a1.1639,1.1639,0,0,0-1.3125-1.248h-2.7217Z"/><path d="M1013.666,332.2868v-8.3555h2.0488v1.729h.08a2.1426,2.1426,0,0,1,2.209-1.729h.4473v1.937h-.64c-1.3769,0-2.0967.3838-2.0967,1.2964v5.1221Z"/><path d="M1019.3135,328.0929c0-2.6728,1.4883-4.3535,3.874-4.3535,2.4,0,3.8887,1.6807,3.8887,4.3535,0,2.69-1.4883,4.3858-3.8887,4.3858C1020.8018,332.4787,1019.3135,330.7824,1019.3135,328.0929Zm5.6181.7847v-1.5527c0-1.2486-.6718-1.937-1.7441-1.937-1.0566,0-1.73.6884-1.73,1.937v1.5527c0,1.2642.6729,1.9527,1.73,1.9527C1024.26,330.83,1024.9316,330.1418,1024.9316,328.8776Z"/><path d="M1031.4268,332.2868a1.9337,1.9337,0,0,1-2.1612-2.1289v-4.61h-1.2324v-1.6167h.6406c.6074,0,.8-.2881.8-.8642v-1.4248h1.8409v2.289h1.7128v1.6167h-1.7128v5.106h1.5849v1.6328Z"/><path d="M1034.1768,328.0929c0-2.6411,1.4248-4.3535,3.874-4.3535,2.6094,0,3.81,1.9209,3.81,4.2095v.6724h-5.5547v.208a1.856,1.856,0,0,0,2.0332,2.0171,2.5369,2.5369,0,0,0,2.1289-1.1368l1.1045,1.2325a4.1363,4.1363,0,0,1-3.4571,1.5366C1035.6494,332.4787,1034.1768,330.7663,1034.1768,328.0929Zm2.1289-.8642v.1279h3.4257v-.144c0-1.1524-.5918-1.9365-1.6484-1.9365A1.7741,1.7741,0,0,0,1036.3057,327.2287Z"/><path d="M1043.1055,328.0929c0-2.6728,1.3925-4.3535,3.8574-4.3535a3.23,3.23,0,0,1,3.2812,2.1128l-1.6806.7525a1.5588,1.5588,0,0,0-1.6006-1.2168c-1.1367,0-1.7129.8-1.7129,1.9687v1.521c0,1.1685.5762,1.9527,1.7129,1.9527a1.7863,1.7863,0,0,0,1.7607-1.3125l1.5684.7524a3.2638,3.2638,0,0,1-3.3291,2.2085C1044.498,332.4787,1043.1055,330.7824,1043.1055,328.0929Z"/><path d="M1054.4824,332.2868a1.9336,1.9336,0,0,1-2.1611-2.1289v-4.61h-1.2324v-1.6167h.6406c.6074,0,.8-.2881.8-.8642v-1.4248h1.8408v2.289h1.7129v1.6167H1054.37v5.106h1.585v1.6328Z"/><path d="M954.7383,345.9806c0-3.7612,1.873-5.8584,4.8183-5.8584a4.0743,4.0743,0,0,1,4.0811,2.5772l-1.8086.96a2.2113,2.2113,0,0,0-2.2725-1.6645c-1.5693,0-2.5771,1.1362-2.5771,3.041v1.7608c0,1.9208,1.0078,3.0092,2.5771,3.0092a2.4829,2.4829,0,0,0,2.417-1.7768l1.7119,1.0083a4.2908,4.2908,0,0,1-4.1289,2.6411C956.6113,351.6789,954.7383,349.7424,954.7383,345.9806Z"/><path d="M965.3623,351.487v-8.3555h2.0488v1.729h.08a2.1434,2.1434,0,0,1,2.209-1.729h.4482v1.937h-.6406c-1.376,0-2.0967.3838-2.0967,1.2964v5.1221Z"/><path d="M976.9,343.1315h1.9209l-3.3613,9.8443a2.16,2.16,0,0,1-2.3858,1.7124h-1.2324v-1.6324h1.5049l.3838-1.1684-2.9932-8.7559h2.0332l1.4561,4.418.5449,2.1128h.0957l.5762-2.1128Z"/><path d="M980.1621,343.1315h2.0488v1.3765h.0635a2.3147,2.3147,0,0,1,2.3047-1.5684c2.1133,0,3.2822,1.5684,3.2822,4.3535,0,2.8013-1.1689,4.3858-3.2822,4.3858a2.3616,2.3616,0,0,1-2.3047-1.5845h-.0635v4.5938h-2.0488Zm5.5537,4.898v-1.44a1.7909,1.7909,0,0,0-1.7929-1.9687c-.9756,0-1.712.5283-1.712,1.3442v2.6573c0,.8642.7364,1.3608,1.712,1.3608A1.7777,1.7777,0,0,0,985.7158,348.03Z"/><path d="M992.2744,351.487a1.9333,1.9333,0,0,1-2.16-2.1289v-4.61h-1.2325v-1.6167h.64c.6084,0,.8008-.2881.8008-.8642v-1.4248h1.8408v2.289h1.7119v1.6167h-1.7119v5.106h1.584v1.6328Z"/><path d="M995.0254,347.2931c0-2.6728,1.4883-4.3535,3.874-4.3535,2.4,0,3.8887,1.6807,3.8887,4.3535,0,2.69-1.4883,4.3858-3.8887,4.3858C996.5137,351.6789,995.0254,349.9826,995.0254,347.2931Zm5.6182.7847v-1.5527c0-1.2486-.6719-1.937-1.7442-1.937-1.0566,0-1.73.6884-1.73,1.937v1.5527c0,1.2642.6729,1.9526,1.73,1.9526C999.9717,350.03,1000.6436,349.342,1000.6436,348.0778Z"/><path d="M1007.81,349.8224l1.4248-1.3764a3.6407,3.6407,0,0,0,2.8652,1.3764c1.2959,0,1.9688-.6245,1.9688-1.5688,0-.7524-.3526-1.2163-1.52-1.4243l-1.0567-.16c-2.2568-.352-3.3457-1.4248-3.3457-3.25,0-2,1.5527-3.2974,4.05-3.2974a4.6944,4.6944,0,0,1,3.8252,1.649l-1.44,1.36a2.9743,2.9743,0,0,0-2.4971-1.1523c-1.2,0-1.8242.48-1.8242,1.3125,0,.8481.48,1.2007,1.5527,1.3926l1.04.1919c2.2568.4,3.3134,1.4086,3.3134,3.25,0,2.1128-1.52,3.5532-4.1933,3.5532A5.185,5.185,0,0,1,1007.81,349.8224Z"/><path d="M1017.585,347.2931c0-2.6411,1.4248-4.3535,3.874-4.3535,2.6084,0,3.8086,1.9209,3.8086,4.2095v.6724h-5.5537v.208a1.856,1.856,0,0,0,2.0332,2.0171,2.54,2.54,0,0,0,2.1289-1.1368l1.1035,1.2325a4.1336,4.1336,0,0,1-3.457,1.5366C1019.0576,351.6789,1017.585,349.9665,1017.585,347.2931Zm2.1289-.8642v.1279h3.4257v-.144c0-1.1524-.5927-1.9366-1.6494-1.9366A1.7735,1.7735,0,0,0,1019.7139,346.4289Z"/><path d="M1027.0732,351.487v-8.3555h2.0489v1.729h.08a2.1435,2.1435,0,0,1,2.209-1.729h.4483v1.937h-.6406c-1.376,0-2.0967.3838-2.0967,1.2964v5.1221Z"/><path d="M1035.2812,351.487l-2.7851-8.3555h2.0176l1.1679,3.6016.8164,2.977h.1124l.8164-2.977,1.1357-3.6016h1.9531l-2.8008,8.3555Z"/><path d="M1041.6963,340.8908v-.32c0-.5923.3525-1.0244,1.2012-1.0244.832,0,1.2.4321,1.2,1.0244v.32c0,.5923-.3682,1.0244-1.2,1.0244C1042.0488,341.9152,1041.6963,341.4831,1041.6963,340.8908Zm.1767,2.2407h2.0489v8.3555h-2.0489Z"/><path d="M1045.7285,347.2931c0-2.6728,1.3926-4.3535,3.8574-4.3535a3.23,3.23,0,0,1,3.2813,2.1128l-1.6807.7525a1.5588,1.5588,0,0,0-1.6006-1.2168c-1.1367,0-1.7129.8-1.7129,1.9687v1.521c0,1.1685.5762,1.9526,1.7129,1.9526a1.7863,1.7863,0,0,0,1.7608-1.3125l1.5683.7525a3.2637,3.2637,0,0,1-3.3291,2.2085C1047.1211,351.6789,1045.7285,349.9826,1045.7285,347.2931Z"/><path d="M1053.8564,347.2931c0-2.6411,1.4248-4.3535,3.8741-4.3535,2.6084,0,3.8086,1.9209,3.8086,4.2095v.6724h-5.5537v.208a1.856,1.856,0,0,0,2.0332,2.0171,2.54,2.54,0,0,0,2.1289-1.1368l1.1035,1.2325a4.1337,4.1337,0,0,1-3.4571,1.5366C1055.3291,351.6789,1053.8564,349.9665,1053.8564,347.2931Zm2.129-.8642v.1279h3.4257v-.144c0-1.1524-.5927-1.9366-1.6494-1.9366A1.7735,1.7735,0,0,0,1055.9854,346.4289Z"/><path d="M1062.624,350.1423l1.249-1.2163a2.9338,2.9338,0,0,0,2.2881,1.1362c.9766,0,1.3926-.3682,1.3926-.96,0-.48-.2881-.7846-1.0244-.88l-.832-.1123c-1.793-.2242-2.7852-1.0084-2.7852-2.5289,0-1.6167,1.2647-2.6411,3.169-2.6411a3.982,3.982,0,0,1,3.2656,1.3125l-1.2,1.2a2.76,2.76,0,0,0-2.001-.896c-.88,0-1.2646.3521-1.2646.8643,0,.56.3046.8164,1.0888.9443l.8477.1118c1.8252.2564,2.7051,1.0728,2.7051,2.4654,0,1.6167-1.36,2.7368-3.4414,2.7368A4.2421,4.2421,0,0,1,1062.624,350.1423Z"/><polyline class="cls-19" points="695.47 429.134 695.47 572.755 901.47 572.755 901.47 429.134 695.47 429.134"/><polyline class="cls-6" points="696.036 427.134 696.036 431.134 901 431.134 901 427.134 696.036 427.134"/><path class="cls-24" d="M736.0252,460.4881a8.5126,8.5126,0,1,0-17.0252,0,8.3339,8.3339,0,0,0,2.1282,5.6041v7.1648l6.3844-3.5469,6.3845,3.5469v-7.1648A8.3343,8.3343,0,0,0,736.0252,460.4881Zm-8.5126-7.0939a7.0939,7.0939,0,1,1-7.0938,7.0939A7.1147,7.1147,0,0,1,727.5126,453.3942Z"/><circle class="cls-25" cx="727.5126" cy="460.4881" r="4.2563"/><path d="M718.7744,500.4069c0-3.7607,1.8731-5.8584,4.8184-5.8584a4.074,4.074,0,0,1,4.081,2.5772l-1.8086.96a2.2107,2.2107,0,0,0-2.2724-1.664c-1.5694,0-2.5772,1.1367-2.5772,3.041v1.7607c0,1.9209,1.0078,3.0088,2.5772,3.0088a2.4822,2.4822,0,0,0,2.417-1.7764l1.7119,1.0088a4.2917,4.2917,0,0,1-4.1289,2.6407C720.6475,506.1052,718.7744,504.1686,718.7744,500.4069Z"/><path d="M728.8379,501.7194c0-2.6416,1.4248-4.3535,3.874-4.3535,2.6094,0,3.81,1.9209,3.81,4.21v.6718h-5.5547v.208A1.8559,1.8559,0,0,0,733,504.4723a2.5368,2.5368,0,0,0,2.1289-1.1367l1.1045,1.2324a4.1336,4.1336,0,0,1-3.457,1.5372C730.3105,506.1052,728.8379,504.3923,728.8379,501.7194Zm2.1289-.8642v.1279h3.4258V500.84c0-1.1523-.5918-1.9375-1.6485-1.9375A1.7747,1.7747,0,0,0,730.9668,500.8552Z"/><path d="M738.3271,505.9137v-8.3554h2.0489v1.7285h.08a2.1416,2.1416,0,0,1,2.2089-1.7285h.4473v1.9365h-.64c-1.377,0-2.0967.3838-2.0967,1.2959v5.123Z"/><path d="M747.2871,505.9137a1.9337,1.9337,0,0,1-2.16-2.1289v-4.61h-1.2325v-1.6162h.64c.6084,0,.8008-.2891.8008-.8653v-1.4238h1.8408v2.2891h1.7119v1.6162h-1.7119v5.1064h1.584v1.6328Z"/><path d="M750.4863,495.3171v-.32c0-.5928.3516-1.0245,1.2-1.0245.8321,0,1.2.4317,1.2,1.0245v.32c0,.5927-.3681,1.0244-1.2,1.0244C750.8379,496.3415,750.4863,495.91,750.4863,495.3171Zm.1758,2.2412h2.0488v8.3554h-2.0488Z"/><path d="M755.4941,499.1745h-1.2324v-1.6162h1.2324v-1.2012a2.0653,2.0653,0,0,1,2.3047-2.2891h1.4571v1.6329H757.543v1.8574h5.1543v8.3554h-2.0489v-6.7392H757.543v6.7392h-2.0489Zm4.9776-3.8574v-.32c0-.5928.3525-1.0245,1.2012-1.0245.832,0,1.2.4317,1.2,1.0245v.32c0,.5927-.3681,1.0244-1.2,1.0244C760.8242,496.3415,760.4717,495.91,760.4717,495.3171Z"/><path d="M764.502,501.7194c0-2.6728,1.3925-4.3535,3.8574-4.3535a3.23,3.23,0,0,1,3.2812,2.1123l-1.6806.7529a1.5593,1.5593,0,0,0-1.6006-1.2168c-1.1367,0-1.7129.8-1.7129,1.9688v1.5205c0,1.1689.5762,1.9531,1.7129,1.9531a1.7868,1.7868,0,0,0,1.7607-1.3125l1.5684.752a3.2637,3.2637,0,0,1-3.3291,2.209C765.8945,506.1052,764.502,504.4089,764.502,501.7194Z"/><path d="M772.6777,503.64c0-1.7129,1.2959-2.5605,3.5694-2.5605h1.4248V500.47c0-.9277-.4649-1.4727-1.5528-1.4727a2.1757,2.1757,0,0,0-1.9052,1.0567l-1.2159-1.0879a3.5153,3.5153,0,0,1,3.2647-1.6006c2.2568,0,3.458,1.0723,3.458,2.9775v3.9375h.832v1.6328H779.416a1.52,1.52,0,0,1-1.5527-1.4414h-.0957a2.26,2.26,0,0,1-2.4326,1.6329A2.3683,2.3683,0,0,1,772.6777,503.64Zm4.9942-.2246v-1.1035h-1.3125c-1.0733,0-1.6016.3672-1.6016,1.0234v.2735c0,.6718.4649,1.0078,1.2647,1.0078C776.9355,504.6169,777.6719,504.2009,777.6719,503.4157Z"/><path d="M784.7588,505.9137a1.934,1.934,0,0,1-2.1611-2.1289v-4.61h-1.2325v-1.6162h.6407c.6074,0,.8-.2891.8-.8653v-1.4238h1.8408v2.2891h1.7129v1.6162h-1.7129v5.1064h1.5849v1.6328Z"/><path d="M787.5088,501.7194c0-2.6416,1.4248-4.3535,3.874-4.3535,2.6094,0,3.81,1.9209,3.81,4.21v.6718h-5.5547v.208a1.8559,1.8559,0,0,0,2.0332,2.0166,2.5368,2.5368,0,0,0,2.1289-1.1367l1.1045,1.2324a4.1336,4.1336,0,0,1-3.457,1.5372C788.9814,506.1052,787.5088,504.3923,787.5088,501.7194Zm2.1289-.8642v.1279h3.4258V500.84c0-1.1523-.5918-1.9375-1.6485-1.9375A1.7747,1.7747,0,0,0,789.6377,500.8552Z"/><path d="M727.7061,517.1735h-.0645l-.8477,1.6973-2.3212,4.2265-2.2891-4.2109-.88-1.792h-.0478v8.0186h-2.001V513.9411h2.3369l2.8652,5.458h.0479l2.8486-5.458h2.3535V525.113h-2.0009Z"/><path d="M731.6064,522.8405c0-1.7129,1.2959-2.5615,3.5694-2.5615h1.4248v-.6074c0-.9287-.4649-1.4727-1.5527-1.4727a2.1758,2.1758,0,0,0-1.9053,1.0566l-1.2158-1.0888a3.517,3.517,0,0,1,3.2646-1.6006c2.2568,0,3.458,1.0723,3.458,2.9766V523.48h.832v1.6328h-1.1367a1.52,1.52,0,0,1-1.5527-1.44h-.0957a2.259,2.259,0,0,1-2.4326,1.6319A2.3678,2.3678,0,0,1,731.6064,522.8405Zm4.9942-.2236v-1.1055h-1.3125c-1.0733,0-1.6016.3691-1.6016,1.0254v.2715c0,.6719.4649,1.0088,1.2647,1.0088C735.8643,523.8171,736.6006,523.4,736.6006,522.6169Z"/><path d="M741.1426,525.113v-8.3555h2.0488V518.15h.08a2.3038,2.3038,0,0,1,2.3369-1.584c1.7119,0,2.6728,1.1846,2.6728,3.2656v5.2813h-2.0488v-5.0743c0-1.1835-.4-1.7919-1.3769-1.7919-.8477,0-1.6641.4482-1.6641,1.3447v5.5215Z"/><path d="M749.958,522.8405c0-1.7129,1.2969-2.5615,3.5693-2.5615h1.4248v-.6074c0-.9287-.4638-1.4727-1.5527-1.4727a2.1742,2.1742,0,0,0-1.9043,1.0566l-1.2168-1.0888a3.52,3.52,0,0,1,3.2656-1.6006c2.2569,0,3.4571,1.0723,3.4571,2.9766V523.48h.832v1.6328h-1.1357a1.52,1.52,0,0,1-1.5528-1.44h-.0966a2.2577,2.2577,0,0,1-2.4327,1.6319A2.3682,2.3682,0,0,1,749.958,522.8405Zm4.9941-.2236v-1.1055H753.64c-1.0722,0-1.6005.3691-1.6005,1.0254v.2715c0,.6719.4638,1.0088,1.2646,1.0088C754.2158,523.8171,754.9521,523.4,754.9521,522.6169Z"/><path d="M762.6475,528.5075c-2.8174,0-3.89-.7363-3.89-1.9688a1.539,1.539,0,0,1,1.4883-1.6015v-.1758a1.3729,1.3729,0,0,1-1.0723-1.3926c0-.8642.7364-1.2968,1.5362-1.4726v-.0645a2.5208,2.5208,0,0,1-1.5205-2.4326c0-1.6963,1.2011-2.833,3.458-2.833a4.654,4.654,0,0,1,1.456.208v-.2725a1.0679,1.0679,0,0,1,1.1846-1.2168h1.2969v1.5694h-1.7774v.2236a2.5018,2.5018,0,0,1,1.2969,2.3213c0,1.6807-1.1846,2.8018-3.457,2.8018a5.149,5.149,0,0,1-1.2813-.1446.8582.8582,0,0,0-.5918.752c0,.416.3526.625,1.0879.625h2.2412c2.0488,0,2.93.88,2.93,2.3847C767.0332,527.5622,765.8486,528.5075,762.6475,528.5075Zm1.04-3.2979h-2.85a1.0264,1.0264,0,0,0-.4317.8643c0,.6406.4805,1.0244,1.7608,1.0244h1.0244c1.3281,0,1.9209-.3369,1.9209-1.04C765.1123,525.529,764.7275,525.21,763.6875,525.21Zm.4639-5.6826v-.2715c0-.8486-.5284-1.2812-1.5039-1.2812s-1.5049.4326-1.5049,1.2812v.2715c0,.8321.5283,1.2813,1.5049,1.2813S764.1514,520.3591,764.1514,519.527Z"/><path d="M767.5576,520.92c0-2.6406,1.4248-4.3535,3.874-4.3535,2.6084,0,3.8086,1.9209,3.8086,4.209v.6728h-5.5537v.208a1.8562,1.8562,0,0,0,2.0332,2.0176,2.54,2.54,0,0,0,2.1289-1.1367l1.1035,1.2324a4.1357,4.1357,0,0,1-3.457,1.5362C769.03,525.3054,767.5576,523.5934,767.5576,520.92Zm2.1289-.8642v.1279h3.4258v-.1446c0-1.1523-.5928-1.9355-1.6494-1.9355A1.7731,1.7731,0,0,0,769.6865,520.0554Z"/><path d="M777.0459,525.113v-8.3555h2.0488v1.7295h.08a2.1441,2.1441,0,0,1,2.209-1.7295h.4482v1.9375h-.6406c-1.376,0-2.0967.3838-2.0967,1.2969v5.1211Z"/><polyline class="cls-19" points="695.47 254.458 695.47 398.08 901.47 398.08 901.47 254.458 695.47 254.458"/><polyline class="cls-4" points="696.036 253.459 696.036 257.459 902 257.459 902 253.459 696.036 253.459"/><g id="Text-2" data-name="Text"><path class="cls-26" d="M731.2069,285.3484a1.2826,1.2826,0,0,0-.709,1.0281l1.95,1.1343-4.892,2.9069-4.8921-2.9423,1.8434-1.0635a1.2646,1.2646,0,0,0-.6735-.9926l-3.7223,2.0915v8.2244l7.4445,4.2539L735,295.5579v-8.0825Zm-4.36,12.9037-5.3175-3.2968V288.22l5.3175,3.2968Zm6.7354-3.51-5.3174,3.4031V291.41l5.3174-3.2968Z"/><path class="cls-26" d="M730.6778,285.0294l-1.3471-.7445a2.151,2.151,0,0,1-.4609,1.1344l1.1344.6736A1.5607,1.5607,0,0,1,730.6778,285.0294Z"/><path class="cls-26" d="M726.1376,284.1077v.0709a1.2141,1.2141,0,0,0,.4608.9926l.8863-.4963.7444.4254a1.1753,1.1753,0,0,0,.39-.9217.6028.6028,0,0,0-.0355-.2482l-1.0635-.6026Zm-1.0254,1.9852,1.0989-.6381a1.9228,1.9228,0,0,1-.5317-1.0281l-1.17.6736A2.0387,2.0387,0,0,1,725.1122,286.0929Z"/><circle class="cls-27" cx="727.4873" cy="289.8151" r="1.2407"/><circle class="cls-28" cx="727.4873" cy="278.5421" r="1.2407"/><circle class="cls-28" cx="731.7767" cy="286.4828" r="1.2407"/><circle class="cls-28" cx="723.3043" cy="286.4828" r="1.2407"/><circle class="cls-27" cx="731.7767" cy="280.8463" r="1.2407"/><circle class="cls-27" cx="723.4106" cy="280.9881" r="1.2407"/><path class="cls-29" d="M733.05,286.4828a1.1723,1.1723,0,0,0-1.1-1.2407,1.1485,1.1485,0,0,0-.1413,0v2.446a1.183,1.183,0,0,0,1.24-1.1234Q733.0511,286.5237,733.05,286.4828Z"/><path class="cls-29" d="M730.5688,286.4828a1.1722,1.1722,0,0,0,1.0994,1.2407,1.1485,1.1485,0,0,0,.1413,0v-2.446A1.225,1.225,0,0,0,730.5688,286.4828Z"/><path class="cls-28" d="M727.4875,282.9378a1.2323,1.2323,0,0,0-1.2407,1.2239c0,.0056,0,.0113,0,.0169a1.1721,1.1721,0,0,0,1.0994,1.2407,1.19,1.19,0,0,0,.1413,0,1.1722,1.1722,0,0,0,1.2407-1.0994,1.1485,1.1485,0,0,0,0-.1413,1.1722,1.1722,0,0,0-1.0994-1.2408A1.19,1.19,0,0,0,727.4875,282.9378Z"/></g><text class="cls-30" transform="translate(717.9422 332.2381)"><tspan class="cls-31">K</tspan><tspan class="cls-18" x="10.4482" y="0">e</tspan><tspan x="19.2803" y="0">y </tspan><tspan class="cls-32" x="31.4395" y="0">P</tspan><tspan class="cls-33" x="41.5356" y="0">r</tspan><tspan class="cls-15" x="47.7437" y="0">ot</tspan><tspan class="cls-34" x="62.6074" y="0">ect</tspan></text><polyline class="cls-19" points="696 79.997 696 223.619 902 223.619 902 79.997 696 79.997"/><polyline class="cls-1" points="695.776 79.57 695.776 83.57 902 83.57 902 79.57 695.776 79.57"/><path id="bigger_rectangle" data-name="bigger rectangle" class="cls-35" d="M733.2231,128.8419h-14.38a1.1471,1.1471,0,0,1-1.162-1.1619v-14.38a1.1472,1.1472,0,0,1,1.162-1.162h14.38a1.1472,1.1472,0,0,1,1.162,1.162v14.4521A1.24,1.24,0,0,1,733.2231,128.8419Z"/><path id="black_ractangle" data-name="black ractangle" d="M731.6254,127.3168H720.3687a1.1471,1.1471,0,0,1-1.162-1.1619V114.8982a1.1472,1.1472,0,0,1,1.162-1.162h11.2567a1.1472,1.1472,0,0,1,1.162,1.162v11.2567A1.1471,1.1471,0,0,1,731.6254,127.3168Z"/><rect id="second_vault_handle" data-name="second vault handle" class="cls-36" x="718.4578" y="116.0791" width="1.5977" height="2.6145"/><rect id="first_vault_handle" data-name="first vault handle" class="cls-36" x="718.4397" y="122.3429" width="1.5977" height="2.6145"/><circle id="big_white_circle" data-name="big white circle" class="cls-36" cx="726.5417" cy="120.4902" r="5.2289"/><circle id="blue_circle" data-name="blue circle" class="cls-35" cx="726.5417" cy="120.4902" r="3.6312"/><rect id="white_handle" data-name="white handle" class="cls-36" x="726.5417" y="119.764" width="6.2456" height="1.5977"/><circle id="black_circle" data-name="black circle" cx="726.5417" cy="120.4902" r="1.5251"/><circle id="white_circle" data-name="white circle" class="cls-36" cx="727.5585" cy="118.9651" r="0.7989"/><path d="M718.3057,162.16l1.4248-1.3764a3.6407,3.6407,0,0,0,2.8652,1.3764c1.2969,0,1.9688-.6245,1.9688-1.5688,0-.7525-.3516-1.2163-1.5206-1.4243l-1.0566-.16c-2.2568-.352-3.3447-1.4248-3.3447-3.25,0-2,1.5527-3.2974,4.05-3.2974a4.6959,4.6959,0,0,1,3.8252,1.649l-1.4405,1.36a2.9754,2.9754,0,0,0-2.497-1.1523c-1.2012,0-1.8252.48-1.8252,1.3125,0,.8481.4805,1.2007,1.5527,1.3925l1.041.1919c2.2569.4,3.3125,1.4087,3.3125,3.25,0,2.1127-1.5205,3.5532-4.1933,3.5532A5.1879,5.1879,0,0,1,718.3057,162.16Z"/><path d="M728.082,159.631c0-2.6411,1.4248-4.3535,3.8741-4.3535,2.6084,0,3.8085,1.9209,3.8085,4.2095v.6724h-5.5537v.208a1.8561,1.8561,0,0,0,2.0332,2.0171,2.5365,2.5365,0,0,0,2.128-1.1368l1.1045,1.2325a4.1337,4.1337,0,0,1-3.4571,1.5366C729.5547,164.0168,728.082,162.3044,728.082,159.631Zm2.1289-.8642v.1279h3.4258v-.144c0-1.1524-.5928-1.9366-1.6494-1.9366A1.7736,1.7736,0,0,0,730.2109,158.7668Z"/><path d="M737.01,159.631c0-2.6728,1.3925-4.3535,3.8584-4.3535a3.23,3.23,0,0,1,3.2812,2.1128l-1.6806.7525a1.56,1.56,0,0,0-1.6006-1.2168c-1.1368,0-1.7129.8-1.7129,1.9687v1.521c0,1.1685.5761,1.9526,1.7129,1.9526a1.7879,1.7879,0,0,0,1.7607-1.3125l1.5684.7525a3.2647,3.2647,0,0,1-3.3291,2.2085C738.4023,164.0168,737.01,162.3205,737.01,159.631Z"/><path d="M745.7783,163.8249v-8.3555h2.0488v1.729h.08a2.1426,2.1426,0,0,1,2.209-1.729h.4473v1.937h-.64c-1.3769,0-2.0967.3838-2.0967,1.2964v5.1221Z"/><path d="M751.4258,159.631c0-2.6411,1.4248-4.3535,3.874-4.3535,2.6084,0,3.8086,1.9209,3.8086,4.2095v.6724h-5.5537v.208a1.8561,1.8561,0,0,0,2.0332,2.0171,2.5364,2.5364,0,0,0,2.1279-1.1368L758.82,162.48a4.1336,4.1336,0,0,1-3.457,1.5366C752.8984,164.0168,751.4258,162.3044,751.4258,159.631Zm2.1289-.8642v.1279h3.4258v-.144c0-1.1524-.5928-1.9366-1.6494-1.9366A1.7736,1.7736,0,0,0,753.5547,158.7668Z"/><path d="M763.5234,163.8249a1.9337,1.9337,0,0,1-2.1611-2.1289v-4.61H760.13v-1.6167h.6406c.6074,0,.8-.2881.8-.8642V153.18h1.8408v2.289h1.7129v1.6167h-1.7129v5.106h1.585v1.6328Z"/><path d="M766.1777,162.48l1.2481-1.2164a2.937,2.937,0,0,0,2.289,1.1363c.9766,0,1.3926-.3682,1.3926-.96,0-.4805-.2881-.7847-1.0244-.88l-.832-.1123c-1.793-.2241-2.7852-1.0083-2.7852-2.5288,0-1.6167,1.2637-2.6411,3.169-2.6411A3.9834,3.9834,0,0,1,772.9,156.59l-1.2012,1.2a2.7579,2.7579,0,0,0-2-.896c-.8808,0-1.2646.3521-1.2646.8643,0,.56.3037.8164,1.0879.9443l.8486.1118c1.8242.2564,2.7051,1.0728,2.7051,2.4654,0,1.6167-1.36,2.7368-3.4414,2.7368A4.2408,4.2408,0,0,1,766.1777,162.48Z"/><path d="M727.4463,175.0856h-.0645l-.8486,1.6968-2.32,4.2261-2.2891-4.21-.8808-1.7925h-.0479v8.0191h-2.001V171.8527h2.337l2.8652,5.458h.0478l2.85-5.458h2.3525v11.1724h-2Z"/><path d="M731.3457,180.7521c0-1.7129,1.2969-2.561,3.5693-2.561H736.34v-.6084c0-.9282-.4638-1.4727-1.5527-1.4727a2.174,2.174,0,0,0-1.9043,1.0567l-1.2168-1.0884a3.5192,3.5192,0,0,1,3.2656-1.6006c2.2569,0,3.4571,1.0723,3.4571,2.9771v3.9375h.832v1.6328H738.085a1.52,1.52,0,0,1-1.5528-1.4405h-.0967a2.2578,2.2578,0,0,1-2.4326,1.6324A2.3685,2.3685,0,0,1,731.3457,180.7521Zm4.9941-.2241v-1.1045h-1.3125c-1.0722,0-1.6005.3682-1.6005,1.0244v.2725c0,.6719.4638,1.0083,1.2646,1.0083C735.6035,181.7287,736.34,181.3122,736.34,180.528Z"/><path d="M740.8818,183.0251V174.67h2.0489v1.3926h.08a2.3044,2.3044,0,0,1,2.337-1.5845c1.7128,0,2.6728,1.1846,2.6728,3.2652v5.2822h-2.0488v-5.0742c0-1.1841-.3994-1.7925-1.376-1.7925-.8486,0-1.665.4482-1.665,1.3442v5.5225Z"/><path d="M749.6982,180.7521c0-1.7129,1.2959-2.561,3.5694-2.561h1.4248v-.6084c0-.9282-.4649-1.4727-1.5528-1.4727a2.1757,2.1757,0,0,0-1.9052,1.0567l-1.2158-1.0884a3.5162,3.5162,0,0,1,3.2646-1.6006c2.2568,0,3.458,1.0723,3.458,2.9771v3.9375h.832v1.6328h-1.1367a1.52,1.52,0,0,1-1.5527-1.4405h-.0957a2.2594,2.2594,0,0,1-2.4326,1.6324A2.3681,2.3681,0,0,1,749.6982,180.7521Zm4.9942-.2241v-1.1045H753.38c-1.0733,0-1.6016.3682-1.6016,1.0244v.2725c0,.6719.4649,1.0083,1.2647,1.0083C753.9561,181.7287,754.6924,181.3122,754.6924,180.528Z"/><path d="M762.3867,186.4186c-2.8174,0-3.89-.7363-3.89-1.9687a1.54,1.54,0,0,1,1.4892-1.6011v-.1758a1.3737,1.3737,0,0,1-1.0732-1.3926c0-.8642.7363-1.2963,1.5371-1.4726v-.064a2.5207,2.5207,0,0,1-1.52-2.4331c0-1.6968,1.2-2.833,3.457-2.833a4.6494,4.6494,0,0,1,1.4571.208v-.272a1.0678,1.0678,0,0,1,1.1845-1.2167h1.2959v1.5688h-1.7763v.2241a2.5,2.5,0,0,1,1.2959,2.3208c0,1.6807-1.1836,2.8013-3.4571,2.8013a5.1373,5.1373,0,0,1-1.28-.1441.8566.8566,0,0,0-.5927.7525c0,.416.3525.624,1.0888.624h2.2413c2.0488,0,2.9287.88,2.9287,2.3848C766.7725,185.4743,765.5879,186.4186,762.3867,186.4186Zm1.04-3.2973h-2.8487a1.027,1.027,0,0,0-.4326.8642c0,.64.4805,1.0244,1.7607,1.0244h1.0245c1.3291,0,1.9209-.3364,1.9209-1.04C764.8516,183.4411,764.4678,183.1213,763.4268,183.1213Zm.4648-5.6826v-.272c0-.8482-.5283-1.28-1.5049-1.28s-1.5049.4321-1.5049,1.28v.272c0,.8325.5284,1.2807,1.5049,1.2807S763.8916,178.2712,763.8916,177.4387Z"/><path d="M767.2969,178.8312c0-2.6411,1.4248-4.3535,3.874-4.3535,2.6094,0,3.81,1.9209,3.81,4.2095v.6724h-5.5547v.208a1.856,1.856,0,0,0,2.0332,2.017,2.5382,2.5382,0,0,0,2.1289-1.1367l1.1045,1.2325a4.1363,4.1363,0,0,1-3.457,1.5366C768.77,183.217,767.2969,181.5046,767.2969,178.8312Zm2.1289-.8642v.1279h3.4258v-.144c0-1.1524-.5918-1.9366-1.6485-1.9366A1.7743,1.7743,0,0,0,769.4258,177.967Z"/><path d="M776.7861,183.0251V174.67h2.0489v1.729h.08a2.1426,2.1426,0,0,1,2.209-1.729h.4473v1.937h-.64c-1.3769,0-2.0966.3838-2.0966,1.2964v5.1221Z"/><text class="cls-12" transform="translate(622.4999 38.6025)">I can us<tspan class="cls-37" x="58.9751" y="0">e</tspan><tspan x="67.7271" y="0">...</tspan></text></g></svg>